<svg version="1.1" id="Layer_1" xmlns="http://www.w3.org/2000/svg" xmlns:xlink="http://www.w3.org/1999/xlink" x="0" y="0" viewBox="0 0 1454 470" xml:space="preserve"><style>.st1{fill:#fff}</style><defs><path id="SVGID_1_" d="M1453 470.2H-1V1.4h1454v468.8z"/></defs><clipPath id="SVGID_2_"><use xlink:href="#SVGID_1_" overflow="visible"/></clipPath><g id="bg4000-without-screen" clip-path="url(#SVGID_2_)"><g id="Mask-8"><path id="path-1-2" class="st1" d="M0 0h1454v470H0z"/></g><g id="Group"><g id="bg4000"><g id="Mask-9"><path id="path-3-7" class="st1" d="M0-269h1453v739H0z"/></g><path id="Path-2" fill-rule="evenodd" clip-rule="evenodd" fill="#383680" d="M-36 470l13.1-767.4 1764.1-195.1-45 643.7z"/><path id="Path-2-Copy" opacity=".23" fill-rule="evenodd" clip-rule="evenodd" fill="#364b9b" d="M-377-106.5l352.5-632.9 1747.1 389.5L1450 234.9z"/><path id="Path-2-Copy-2" opacity=".07" fill-rule="evenodd" clip-rule="evenodd" fill="#364b9b" d="M-523.2 25.9l352.4-633L1368.5-17.8l-69.2 412.9z"/><linearGradient id="Path-2-Copy-4_1_" gradientUnits="userSpaceOnUse" x1="882.182" y1="-.024" x2="881.182" y2="-.024" gradientTransform="matrix(184 0 0 84 -161901 430.004)"><stop offset="0" stop-color="#f9a844"/><stop offset="1" stop-color="#e05d2a"/></linearGradient><path id="Path-2-Copy-4" fill-rule="evenodd" clip-rule="evenodd" fill="url(#Path-2-Copy-4_1_)" d="M238.1 470l-1.1-50.7L419.4 386l1.6 50.2z"/><linearGradient id="Path-2-Copy-6_1_" gradientUnits="userSpaceOnUse" x1="882.224" y1="-.193" x2="881.224" y2="-.193" gradientTransform="matrix(185.42 -3.24 1.46 83.55 -163346.516 3282.631)"><stop offset="0" stop-color="#e05d2a" stop-opacity=".34"/><stop offset="1" stop-color="#fff"/></linearGradient><path id="Path-2-Copy-6" opacity=".47" fill-rule="evenodd" clip-rule="evenodd" fill="url(#Path-2-Copy-6_1_)" d="M53 453.1l-.3-49.8 184.2-37v53.9z"/><radialGradient id="Oval-Copy_1_" cx="885.557" cy=".453" r=".5" gradientTransform="matrix(936 0 0 936 -828570 -590.002)" gradientUnits="userSpaceOnUse"><stop offset="0" stop-color="#fcfcfc"/><stop offset="1" stop-color="#25398e" stop-opacity="0"/></radialGradient><circle id="Oval-Copy" cx="308" cy="-166" r="468" opacity=".3" fill="url(#Oval-Copy_1_)" fill-opacity=".99"/></g></g></g></svg>