<svg width="32" height="32" viewBox="0 0 32 32" fill="none" xmlns="http://www.w3.org/2000/svg">
<rect width="32" height="32" rx="4" fill="url(#paint0_linear)"/>
<path d="M15.7905 8.43158C17.9369 6.28329 21.4193 6.28329 23.5671 8.43117C25.66 10.524 25.7136 13.8838 23.7281 16.0415L23.5557 16.2225L15.489 24.2875L15.4554 24.3152C14.116 25.5222 12.0498 25.4812 10.7597 24.1911C9.55062 22.982 9.43868 21.0912 10.4239 19.7559C10.4453 19.7143 10.4712 19.6742 10.5016 19.6365L10.5507 19.5819L10.6304 19.5014L10.7597 19.3659L10.7624 19.3685L17.5785 12.5354C17.8222 12.291 18.2041 12.2683 18.4736 12.4676L18.5508 12.5341C18.7952 12.7779 18.8179 13.1598 18.6185 13.4292L18.552 13.5064L11.5903 20.485C10.9325 21.2877 10.9782 22.4741 11.7275 23.2234C12.4875 23.9833 13.6971 24.0195 14.4999 23.3319L22.5966 15.2373C24.2058 13.6262 24.2058 11.0144 22.5949 9.40345C21.0343 7.84288 18.5344 7.79411 16.9151 9.25714L16.7612 9.40345L16.7497 9.41656L8.00811 18.1582C7.73962 18.4267 7.30432 18.4267 7.03584 18.1582C6.79176 17.9141 6.76957 17.5322 6.96927 17.263L7.03584 17.1859L15.789 8.43117L15.7905 8.43158Z" fill="white"/>
<defs>
<linearGradient id="paint0_linear" x1="30.7368" y1="16" x2="2.73794" y2="16.1754" gradientUnits="userSpaceOnUse">
<stop stop-color="#FF8F3E"/>
<stop offset="1" stop-color="#FFB178"/>
</linearGradient>
</defs>
</svg>
