<svg width="1454" height="470" xmlns="http://www.w3.org/2000/svg" xmlns:xlink="http://www.w3.org/1999/xlink"><defs><linearGradient x1="100%" y1="50%" x2="0%" y2="50%" id="e"><stop stop-color="#F9A844" offset="0%"/><stop stop-color="#E05D2A" offset="100%"/></linearGradient><linearGradient x1="100%" y1="50%" x2="0%" y2="50%" id="f"><stop stop-color="#E05D2A" stop-opacity=".338" offset="0%"/><stop stop-color="#FFF" offset="100%"/></linearGradient><path id="a" d="M0 0h1454v470H0z"/><path id="c" d="M0 0h1453v739H0z"/><radialGradient cx="50%" cy="50%" fx="50%" fy="50%" r="50%" id="g"><stop stop-color="#FCFCFC" offset="0%"/><stop stop-color="#25398E" stop-opacity="0" offset="100%"/></radialGradient></defs><g fill="none" fill-rule="evenodd"><mask id="b" fill="#fff"><use xlink:href="#a"/></mask><g mask="url(#b)"><g transform="translate(0 -269)"><mask id="d" fill="#fff"><use xlink:href="#c"/></mask><use fill="#FFF" xlink:href="#c"/><path fill="#383680" mask="url(#d)" transform="rotate(4 804.664 266.537)" d="M-95.376 820.698l53.947-790.61 1746.113-317.713.02 645.27z"/><path fill="#364B9B" opacity=".232" style="mix-blend-mode:multiply" mask="url(#d)" transform="rotate(25 672.845 40.816)" d="M-227.23 594.813l51.955-722.614 1748.09-385.381.106 645.222z"/><path fill="#364B9B" opacity=".069" style="mix-blend-mode:multiply" mask="url(#d)" transform="rotate(25 473.31 296.674)" d="M-430.629 716.173L-378.673-6.44 1265.39-122.826l111.859 403.431z"/><path fill="url(#e)" mask="url(#d)" d="M238.07 739L237 688.33 419.435 655 421 705.183z"/><path fill="url(#f)" opacity=".465" style="mix-blend-mode:screen" mask="url(#d)" transform="rotate(-1 144.939 678.662)" d="M52.214 720.443l.622-49.744 184.828-33.819-.918 53.946z"/><circle fill-opacity=".99" fill="url(#g)" opacity=".3" mask="url(#d)" cx="308" cy="103" r="468"/></g></g></g></svg>