<svg width="70" height="70" viewBox="0 0 70 70" fill="none" xmlns="http://www.w3.org/2000/svg">
<path d="M35.0703 54.2143C38.8457 54.2143 41.9062 51.1539 41.9062 47.3786C41.9062 43.6034 38.8457 40.543 35.0703 40.543C31.2949 40.543 28.2344 43.6034 28.2344 47.3786C28.2344 51.1539 31.2949 54.2143 35.0703 54.2143Z" fill="url(#paint0_linear)"/>
<path d="M67.9492 0H2.05078C0.918203 0 0 0.918066 0 2.05064V51.2669C0 52.3995 0.918203 53.3176 2.05078 53.3176H25.8934C21.1922 46.085 26.4072 36.438 35.0684 36.438C43.7295 36.438 48.9445 46.0849 44.2433 53.3176H67.9492C69.0818 53.3176 70 52.3995 70 51.2669V2.05064C70 0.918066 69.0818 0 67.9492 0V0ZM26.7969 8.33943H43.2031C44.3357 8.33943 45.2539 9.2575 45.2539 10.3901C45.2539 11.5227 44.3357 12.4407 43.2031 12.4407H26.7969C25.6643 12.4407 24.7461 11.5227 24.7461 10.3901C24.7461 9.2575 25.6643 8.33943 26.7969 8.33943ZM55.5078 32.9476H14.4922C13.3596 32.9476 12.4414 32.0295 12.4414 30.8969C12.4414 29.7644 13.3596 28.8463 14.4922 28.8463H55.5078C56.6404 28.8463 57.5586 29.7644 57.5586 30.8969C57.5586 32.0295 56.6404 32.9476 55.5078 32.9476ZM55.5078 24.7449H14.4922C13.3596 24.7449 12.4414 23.8268 12.4414 22.6942C12.4414 21.5616 13.3596 20.6436 14.4922 20.6436H55.5078C56.6404 20.6436 57.5586 21.5616 57.5586 22.6942C57.5586 23.8268 56.6404 24.7449 55.5078 24.7449Z" fill="url(#paint1_linear)"/>
<path d="M26.9023 54.6343V67.9432C26.9023 69.5692 28.718 70.5595 30.0863 69.6523L35.1398 66.3022L40.1933 69.6523C41.5407 70.5457 43.3772 69.5884 43.3772 67.9432V54.4766C39.0568 59.52 31.3219 59.6001 26.9023 54.6343Z" fill="url(#paint2_linear)"/>
<defs>
<linearGradient id="paint0_linear" x1="30.4561" y1="49.0229" x2="39.7702" y2="48.9474" gradientUnits="userSpaceOnUse">
<stop stop-color="#F9A844"/>
<stop offset="1" stop-color="#E05D2A"/>
</linearGradient>
<linearGradient id="paint1_linear" x1="70" y1="26.6588" x2="0" y2="26.6588" gradientUnits="userSpaceOnUse">
<stop stop-color="#383680"/>
<stop offset="1" stop-color="#5F5B82"/>
</linearGradient>
<linearGradient id="paint2_linear" x1="29.5795" y1="64.1036" x2="40.8031" y2="64.0071" gradientUnits="userSpaceOnUse">
<stop stop-color="#F9A844"/>
<stop offset="1" stop-color="#E05D2A"/>
</linearGradient>
</defs>
</svg>
