<svg width="520" height="520" viewBox="0 0 520 520" fill="none" xmlns="http://www.w3.org/2000/svg">
<path d="M408.12 118H119.998V404.998H408.12V118Z" fill="#AAE0FF"/>
<path d="M34.8618 469.228H495.977C497.391 469.228 498.515 468.084 498.515 466.69C498.515 465.276 497.371 464.152 495.977 464.152H34.8618C33.4474 464.152 32.3242 465.296 32.3242 466.69C32.3242 468.104 33.4682 469.228 34.8618 469.228Z" fill="#2D5B98"/>
<path d="M159.123 443.973C144.896 443.973 133.352 432.429 133.352 418.201V383.07H184.894V418.201C184.894 432.429 173.35 443.973 159.123 443.973Z" fill="#5896FA"/>
<path d="M133.352 409.609H130.502V464.126H133.352V409.609Z" fill="#0E0E0E"/>
<path d="M187.744 409.609H184.895V464.126H187.744V409.609Z" fill="#0E0E0E"/>
<path d="M165.885 409.609H163.035V464.126H165.885V409.609Z" fill="#0E0E0E"/>
<path d="M185.019 443.973H130.502V446.822H185.019V443.973Z" fill="#0E0E0E"/>
<path d="M199.244 325.039C202.364 329.511 196.103 333.38 195.125 339.578C194.148 345.777 201.261 349.271 193.711 357.404C189.072 362.417 185.141 355.761 181.376 363.436C177.591 371.111 180.586 372.401 176.322 375.167C168.917 379.972 157.602 369.343 161.408 361.668C165.215 354.013 172.911 354.679 169.354 348.377C165.797 342.074 164.466 339.349 170.602 336.105C178.215 332.09 184.912 335.772 185.516 329.906C186.16 324.082 195.146 319.111 199.244 325.039Z" fill="#FFCA59"/>
<path d="M166.752 382.718L165.463 382.468C171.453 352.162 191.338 330.946 191.525 330.738L192.461 331.633C192.274 331.841 172.66 352.807 166.752 382.718Z" fill="#0E0E0E"/>
<path d="M99.5909 313.849C96.3669 320.401 105.436 324.249 107.973 332.278C110.511 340.306 101.172 343.135 112.778 352.37C119.933 358.07 121.431 354.513 124.052 367.242C126.361 378.454 134.889 367.783 141.253 374.356C149.469 382.842 162.303 364.206 155.73 354.846C149.157 345.465 141.482 347.898 144.914 338.83C148.367 329.761 144.249 322.938 135.471 319.881C124.593 316.095 120.682 325.226 118.706 317.593C116.73 309.938 103.855 305.175 99.5909 313.849Z" fill="#ED5A24"/>
<path d="M154.21 383.633C140.357 345.216 110.176 321.441 109.885 321.213L110.966 319.84C111.278 320.069 141.834 344.155 155.874 383.051L154.21 383.633Z" fill="#0E0E0E"/>
<path d="M191.962 277.264C252.823 277.264 302.16 227.926 302.16 167.066C302.16 106.205 252.823 56.8672 191.962 56.8672C131.101 56.8672 81.7637 106.205 81.7637 167.066C81.7637 227.926 131.101 277.264 191.962 277.264Z" stroke="#2E77E6" stroke-width="8.7306" stroke-miterlimit="10" stroke-dasharray="13.1 13.1"/>
<path d="M219.875 159.825C220 158.973 220.083 158.099 220.083 157.205C220.083 146.472 211.389 137.777 200.656 137.777C192.607 137.777 185.701 142.665 182.768 149.654C180.376 147.512 177.215 146.201 173.762 146.201C166.274 146.201 160.2 152.275 160.2 159.763H157.663C150.445 159.763 144.559 165.649 144.559 172.867C144.559 180.064 150.445 185.971 157.663 185.971H218.939C226.136 185.971 232.043 180.085 232.043 172.867C232.002 166.003 226.635 160.325 219.875 159.825Z" fill="white"/>
<path d="M231.918 302.389H149.883C147.116 302.389 144.891 300.143 144.891 297.397V228.57C144.891 225.804 147.137 223.578 149.883 223.578H231.918C234.684 223.578 236.91 225.825 236.91 228.57V297.397C236.931 300.143 234.684 302.389 231.918 302.389Z" fill="#5896FA"/>
<path d="M218.772 271.146H163.278C161.468 271.146 159.971 269.669 159.971 267.838C159.971 266.029 161.448 264.531 163.278 264.531H218.751C220.561 264.531 222.059 266.008 222.059 267.838C222.059 269.669 220.582 271.146 218.772 271.146Z" fill="white"/>
<path d="M218.772 281.775H163.278C161.468 281.775 159.971 280.298 159.971 278.467C159.971 276.658 161.448 275.16 163.278 275.16H218.751C220.561 275.16 222.059 276.637 222.059 278.467C222.059 280.298 220.582 281.775 218.772 281.775Z" fill="white"/>
<path d="M173.656 278.778C173.656 279.423 173.136 279.943 172.491 279.943C171.846 279.943 171.326 279.423 171.326 278.778C171.326 278.133 171.846 277.613 172.491 277.613C173.115 277.613 173.656 278.133 173.656 278.778Z" fill="#80B2FF"/>
<path d="M177.626 278.778C177.626 279.423 177.106 279.943 176.462 279.943C175.817 279.943 175.297 279.423 175.297 278.778C175.297 278.133 175.817 277.613 176.462 277.613C177.106 277.613 177.626 278.133 177.626 278.778Z" fill="#80B2FF"/>
<path d="M181.621 278.778C181.621 279.423 181.101 279.943 180.456 279.943C179.811 279.943 179.291 279.423 179.291 278.778C179.291 278.133 179.811 277.613 180.456 277.613C181.101 277.613 181.621 278.133 181.621 278.778Z" fill="#80B2FF"/>
<path d="M185.597 278.778C185.597 279.423 185.077 279.943 184.432 279.943C183.788 279.943 183.268 279.423 183.268 278.778C183.268 278.133 183.788 277.613 184.432 277.613C185.077 277.613 185.597 278.133 185.597 278.778Z" fill="#80B2FF"/>
<path d="M189.587 278.778C189.587 279.423 189.067 279.943 188.423 279.943C187.778 279.943 187.258 279.423 187.258 278.778C187.258 278.133 187.778 277.613 188.423 277.613C189.067 277.613 189.587 278.133 189.587 278.778Z" fill="#80B2FF"/>
<path d="M193.562 278.778C193.562 279.423 193.042 279.943 192.397 279.943C191.752 279.943 191.232 279.423 191.232 278.778C191.232 278.133 191.752 277.613 192.397 277.613C193.042 277.613 193.562 278.133 193.562 278.778Z" fill="#80B2FF"/>
<path d="M197.556 278.778C197.556 279.423 197.036 279.943 196.391 279.943C195.747 279.943 195.227 279.423 195.227 278.778C195.227 278.133 195.747 277.613 196.391 277.613C197.036 277.613 197.556 278.133 197.556 278.778Z" fill="#80B2FF"/>
<path d="M201.529 278.778C201.529 279.423 201.009 279.943 200.364 279.943C199.719 279.943 199.199 279.423 199.199 278.778C199.199 278.133 199.719 277.613 200.364 277.613C201.009 277.613 201.529 278.133 201.529 278.778Z" fill="#80B2FF"/>
<path d="M205.523 278.778C205.523 279.423 205.003 279.943 204.358 279.943C203.713 279.943 203.193 279.423 203.193 278.778C203.193 278.133 203.713 277.613 204.358 277.613C205.003 277.613 205.523 278.133 205.523 278.778Z" fill="#80B2FF"/>
<path d="M191.043 255.317C198.085 255.317 203.794 249.609 203.794 242.567C203.794 235.525 198.085 229.816 191.043 229.816C184.002 229.816 178.293 235.525 178.293 242.567C178.293 249.609 184.002 255.317 191.043 255.317Z" fill="white"/>
<path d="M191.064 242.046C192.312 242.046 193.456 241.443 194.184 240.507C194.725 239.841 195.037 238.967 195.037 238.011C195.037 235.806 193.249 233.996 191.044 233.996C188.818 233.996 187.029 235.827 187.029 238.011C187.029 238.967 187.341 239.841 187.882 240.507C188.631 241.443 189.775 242.046 191.064 242.046Z" fill="#005CEA"/>
<path d="M198.137 249.222C198.137 251.76 183.951 251.76 183.951 249.222V246.269C184.513 242.234 196.972 242.046 198.137 246.269V249.222Z" fill="#005CEA"/>
<path d="M166.046 277.867V277.68C166.046 276.973 165.463 276.391 164.756 276.391C164.049 276.391 163.466 276.973 163.466 277.68V277.867H163.279V280.218C163.279 280.613 166.274 280.613 166.274 280.218V277.867H166.046ZM163.903 277.701C163.903 277.243 164.174 276.848 164.735 276.848C165.297 276.848 165.588 277.223 165.588 277.701V277.888H163.903V277.701ZM164.964 279.053V279.739C164.964 279.864 164.86 279.947 164.735 279.947C164.61 279.947 164.527 279.864 164.527 279.739V279.053C164.402 278.991 164.319 278.866 164.319 278.699C164.319 278.471 164.506 278.283 164.735 278.283C164.964 278.283 165.151 278.471 165.151 278.699C165.151 278.866 165.068 278.991 164.964 279.053Z" fill="#5896FA"/>
<path d="M164.732 267.608C165.003 267.608 165.232 267.483 165.398 267.275C165.523 267.13 165.585 266.942 165.585 266.755C165.585 266.298 165.211 265.902 164.753 265.902C164.275 265.902 163.9 266.277 163.9 266.755C163.9 266.963 163.963 267.13 164.088 267.275C164.233 267.483 164.462 267.608 164.732 267.608Z" fill="#5896FA"/>
<path d="M166.231 269.127C166.231 269.668 163.215 269.668 163.215 269.127L163.236 268.503C163.36 267.65 165.981 267.609 166.231 268.503V269.127Z" fill="#5896FA"/>
<path d="M184.181 268.814H172.013C171.472 268.814 171.035 268.378 171.035 267.837C171.035 267.296 171.472 266.859 172.013 266.859H184.181C184.722 266.859 185.158 267.296 185.158 267.837C185.138 268.378 184.701 268.814 184.181 268.814Z" fill="#80B2FF"/>
<path d="M200.218 268.814H188.05C187.509 268.814 187.072 268.378 187.072 267.837C187.072 267.296 187.509 266.859 188.05 266.859H200.218C200.759 266.859 201.195 267.296 201.195 267.837C201.175 268.378 200.738 268.814 200.218 268.814Z" fill="#80B2FF"/>
<path d="M195.101 292.091H184.077C182.517 292.091 181.248 290.822 181.248 289.262C181.248 287.702 182.517 286.434 184.077 286.434H195.101C196.661 286.434 197.93 287.702 197.93 289.262C197.93 290.822 196.661 292.091 195.101 292.091Z" fill="#1251B3"/>
<path d="M50.875 176.946C50.875 176.863 50.875 176.822 50.875 176.801C50.8958 176.822 50.875 176.946 50.875 176.946Z" fill="#D9FFFF"/>
<path d="M50.875 176.946C50.875 176.863 50.875 176.822 50.875 176.801C50.8958 176.822 50.875 176.946 50.875 176.946Z" fill="#D9FFFF"/>
<path d="M78.1239 162.301C71.8007 169.061 61.7127 174.614 50.9383 176.986C50.9383 177.714 50.9175 181.707 50.8343 200.094C50.7303 224.638 74.0887 236.64 77.7079 238.491C81.2231 236.869 104.893 224.888 104.997 200.344C105.081 181.936 105.101 177.942 105.101 177.235C94.3271 174.76 84.3639 169.123 78.1239 162.301Z" fill="white"/>
<path d="M78.0396 166.73C71.8412 172.409 63.2716 176.86 53.8492 179.294L53.766 200.094C53.7244 209.62 57.51 218.231 64.998 225.678C69.9276 230.586 75.1068 233.623 77.7276 234.996C77.8316 234.934 77.9564 234.871 78.0812 234.809V166.772C78.0812 166.751 78.0604 166.751 78.0396 166.73Z" fill="#296ACC"/>
<path d="M78.1035 166.773V234.831C80.8283 233.417 85.7995 230.463 90.5627 225.825C98.1339 218.42 101.982 209.85 102.024 200.324L102.107 179.524C92.7467 177.007 84.2395 172.493 78.1035 166.773Z" fill="#2E77E6"/>
<path d="M67.1406 196.762V212.882C67.1406 214.671 89.043 214.671 89.043 212.882V196.762H67.1406ZM79.2046 205.311V209.887C79.2046 210.49 78.7054 211.01 78.1022 211.01C77.4782 211.01 76.979 210.511 76.979 209.887V205.311C76.043 204.895 75.3774 203.938 75.3774 202.856C75.3774 201.359 76.5838 200.152 78.0814 200.152C79.579 200.152 80.7854 201.359 80.7854 202.856C80.8062 203.938 80.1614 204.895 79.2046 205.311Z" fill="white"/>
<path d="M87.1273 195.621H84.9017V194.539C84.9017 190.774 81.8441 187.717 78.0793 187.717C74.3145 187.717 71.2569 190.774 71.2569 194.539V195.621H69.0312V194.539C69.0312 189.547 73.0872 185.512 78.0584 185.512C83.0504 185.512 87.0857 189.568 87.0857 194.539V195.621H87.1273Z" fill="white"/>
<path d="M240.282 29.6602H200.699V79.0602H240.282V29.6602Z" fill="#296ACC"/>
<path d="M245.42 34.7578H205.838V84.1578H245.42V34.7578Z" fill="white" stroke="#5896FA" stroke-width="6.3406" stroke-miterlimit="10"/>
<path d="M251.95 39.7656H212.367V89.1656H251.95V39.7656Z" fill="white" stroke="#5896FA" stroke-width="6.3406" stroke-miterlimit="10"/>
<path d="M256.694 44.8633H217.111V94.2633H256.694V44.8633Z" fill="#5896FA"/>
<path d="M250.518 52.9766H230.051V56.1797H250.518V52.9766Z" fill="#005CEA"/>
<path d="M250.514 60.5234H223.994V63.7266H250.514V60.5234Z" fill="#005CEA"/>
<path d="M250.514 68.0742H223.994V71.2774H250.514V68.0742Z" fill="#005CEA"/>
<path d="M250.514 75.6289H223.994V78.8321H250.514V75.6289Z" fill="#005CEA"/>
<path d="M250.514 83.1758H223.994V86.379H250.514V83.1758Z" fill="#005CEA"/>
<path d="M127.498 86.552C129.222 79.0277 124.52 71.5306 116.995 69.8068C109.471 68.083 101.974 72.7853 100.25 80.3096C98.5263 87.8339 103.229 95.331 110.753 97.0548C118.277 98.7786 125.774 94.0763 127.498 86.552Z" fill="white"/>
<path d="M135.926 96.7196C137.736 93.7036 138.88 90.4588 139.358 87.1932L140.398 87.3388L142.458 87.6508H142.478C143.04 83.9068 142.853 80.1004 141.938 76.4812L138.88 77.23C138.069 73.9436 136.613 70.8236 134.554 68.078L137.091 66.1852C134.928 63.2316 132.141 60.6732 128.813 58.6556L127.17 61.3596C124.154 59.55 120.909 58.406 117.643 57.9276L118.101 54.8076C114.357 54.246 110.55 54.454 106.931 55.3484L107.68 58.406C104.394 59.2172 101.274 60.6732 98.5279 62.7324L96.6351 60.1948C93.6815 62.358 91.1231 65.1452 89.1055 68.4732L91.8095 70.1164C89.9999 73.1324 88.8559 76.3772 88.3775 79.6428L86.1727 79.31L85.2783 79.1852C84.7167 82.9292 84.9247 86.7356 85.8191 90.3548L88.8767 89.606C89.6879 92.8924 91.1439 96.0124 93.2239 98.7788L90.6863 100.672C92.8495 103.625 95.6367 106.184 98.9439 108.18L100.587 105.476C103.603 107.286 106.848 108.43 110.134 108.908L109.781 111.342L109.677 112.028C113.421 112.59 117.206 112.382 120.826 111.488L120.077 108.43C123.363 107.619 126.483 106.163 129.25 104.104L131.142 106.641C134.075 104.457 136.654 101.691 138.651 98.3628L135.926 96.7196ZM106.661 95.3884C100.046 91.3948 97.9247 82.8044 101.898 76.19C105.891 69.5756 114.461 67.454 121.075 71.4476C127.69 75.4412 129.811 84.0108 125.818 90.6252C121.866 97.2604 113.275 99.382 106.661 95.3884Z" fill="#005CEA"/>
<path d="M83.6148 94.8656C82.5956 93.3264 81.306 92.0576 79.85 91.08L80.162 90.6224L80.7652 89.7072V89.6864C79.1012 88.584 77.25 87.8144 75.3364 87.4192L75.0036 89.0416C73.2564 88.688 71.4468 88.6672 69.6788 89.0208L69.346 87.3984C67.4532 87.7728 65.602 88.5008 63.8964 89.6448L64.8116 91.0384C63.2724 92.0576 62.0036 93.3472 61.026 94.8032L59.6532 93.888C58.5508 95.552 57.7812 97.4032 57.386 99.3168L59.0084 99.6496C58.6548 101.397 58.634 103.206 58.9876 104.974L57.3652 105.307C57.7396 107.2 58.4676 109.051 59.6116 110.757L61.0052 109.842C62.0244 111.381 63.314 112.65 64.77 113.627L64.1252 114.605L63.8548 115C65.5188 116.102 67.37 116.872 69.2836 117.267L69.6164 115.645C71.3636 115.998 73.1732 116.019 74.962 115.645L75.2948 117.267C77.1876 116.893 79.0388 116.165 80.7444 115.042L79.8292 113.648C81.3684 112.629 82.658 111.339 83.6148 109.883L84.6964 110.611L85.0084 110.819C86.1108 109.155 86.8804 107.304 87.2756 105.39L85.6532 105.058C86.0068 103.31 86.0276 101.501 85.674 99.712L87.2964 99.3792C86.922 97.4864 86.194 95.6352 85.05 93.9296L83.6148 94.8656ZM76.3764 108.49C72.986 110.736 68.41 109.8 66.1844 106.41C63.938 103.019 64.874 98.464 68.2644 96.2176C71.6548 93.9712 76.21 94.9072 78.4564 98.2976C80.7028 101.667 79.7668 106.243 76.3764 108.49Z" fill="#1251B3"/>
<path d="M312.247 123.283H278.26C277.553 123.283 276.971 122.7 276.971 121.993V102.711C276.971 102.004 277.553 101.422 278.26 101.422H312.247C312.955 101.422 313.537 102.004 313.537 102.711V121.993C313.537 122.7 312.955 123.283 312.247 123.283Z" fill="#005CEA"/>
<path d="M313.518 105.539H276.951V109.304H313.518V105.539Z" fill="#5896FA"/>
<path d="M285.335 119.082H279.948C279.615 119.082 279.324 119.352 279.324 119.706C279.324 120.039 279.595 120.33 279.948 120.33H285.335C285.668 120.33 285.959 120.06 285.959 119.706C285.959 119.352 285.689 119.082 285.335 119.082Z" fill="#D1F5FF"/>
<path d="M293.613 119.082H288.226C287.893 119.082 287.602 119.352 287.602 119.706C287.602 120.039 287.872 120.33 288.226 120.33H293.613C293.946 120.33 294.237 120.06 294.237 119.706C294.237 119.352 293.946 119.082 293.613 119.082Z" fill="#D1F5FF"/>
<path d="M301.871 119.082H296.483C296.151 119.082 295.859 119.352 295.859 119.706C295.859 120.039 296.13 120.33 296.483 120.33H301.871C302.203 120.33 302.495 120.06 302.495 119.706C302.495 119.352 302.224 119.082 301.871 119.082Z" fill="#D1F5FF"/>
<path d="M310.148 119.082H304.761C304.428 119.082 304.137 119.352 304.137 119.706C304.137 120.039 304.407 120.33 304.761 120.33H310.148C310.481 120.33 310.772 120.06 310.772 119.706C310.772 119.352 310.481 119.082 310.148 119.082Z" fill="#D1F5FF"/>
<path d="M279.718 102.504C279.343 102.504 279.031 102.816 279.031 103.19V103.44C279.031 103.814 279.343 104.126 279.718 104.126C280.092 104.126 280.404 103.814 280.404 103.44V103.19C280.404 102.816 280.092 102.504 279.718 102.504Z" fill="#D1F5FF"/>
<path d="M281.195 103.315C281.195 103.752 281.549 104.126 282.007 104.126H284.856C285.293 104.126 285.667 103.773 285.667 103.315C285.667 102.878 285.314 102.504 284.856 102.504H282.007C281.549 102.504 281.195 102.878 281.195 103.315Z" fill="#D1F5FF"/>
<path d="M280.821 111.344H284.503C285.085 111.344 285.564 111.822 285.564 112.405V115.566C285.564 116.149 285.085 116.627 284.503 116.627H280.821C280.239 116.627 279.76 116.149 279.76 115.566V112.405C279.74 111.822 280.218 111.344 280.821 111.344Z" fill="#5896FA"/>
<path d="M298.77 178.981V176.485C298.77 175.341 297.855 174.426 296.711 174.426H274.85C273.706 174.426 272.791 175.341 272.791 176.485V220.643H329.367V178.981H298.77Z" fill="#1251B3"/>
<path d="M331.716 180.5H276.243L272.811 220.644H329.095L331.716 180.5Z" fill="white"/>
<path d="M329.367 220.647H272.791L278.802 181.002C278.969 179.837 279.967 178.984 281.153 178.984H332.924C334.38 178.984 335.482 180.274 335.274 181.709L329.367 220.647Z" fill="#3383FF"/>
<path d="M344.454 189.659C349.514 184.598 349.514 176.394 344.454 171.333C339.393 166.273 331.188 166.273 326.128 171.333C321.067 176.394 321.067 184.598 326.128 189.659C331.188 194.72 339.393 194.719 344.454 189.659Z" fill="#005CEA"/>
<path d="M335.298 193.936C327.893 193.936 321.861 187.904 321.861 180.499C321.861 173.094 327.893 167.062 335.298 167.062C342.703 167.062 348.735 173.094 348.735 180.499C348.735 187.904 342.703 193.936 335.298 193.936ZM335.298 168.019C328.413 168.019 322.818 173.614 322.818 180.499C322.818 187.384 328.413 192.979 335.298 192.979C342.183 192.979 347.778 187.384 347.778 180.499C347.778 173.614 342.183 168.019 335.298 168.019Z" fill="white"/>
<path d="M329.057 178.148V187.321C329.057 188.34 341.537 188.34 341.537 187.321V178.148H329.057ZM335.921 183.036V185.636C335.921 185.99 335.63 186.26 335.297 186.26C334.943 186.26 334.673 185.969 334.673 185.636V183.036C334.132 182.787 333.757 182.246 333.757 181.643C333.757 180.79 334.444 180.104 335.297 180.104C336.15 180.104 336.836 180.79 336.836 181.643C336.836 182.246 336.462 182.787 335.921 183.036Z" fill="white"/>
<path d="M340.432 177.504H339.163V176.88C339.163 174.737 337.416 172.99 335.274 172.99C333.131 172.99 331.384 174.737 331.384 176.88V177.504H330.115V176.88C330.115 174.051 332.424 171.742 335.253 171.742C338.082 171.742 340.39 174.051 340.39 176.88V177.504H340.432Z" fill="white"/>
<path d="M290.28 77.001C293.025 77.001 295.251 74.7753 295.251 72.0298C295.251 69.2843 293.025 67.0586 290.28 67.0586C287.534 67.0586 285.309 69.2843 285.309 72.0298C285.309 74.7753 287.534 77.001 290.28 77.001Z" fill="#AAE0FF"/>
<path d="M164.889 91.3823C165.354 88.6763 163.538 86.1056 160.832 85.6405C158.126 85.1754 155.555 86.992 155.09 89.698C154.625 92.404 156.442 94.9747 159.148 95.4398C161.854 95.9049 164.424 94.0883 164.889 91.3823Z" fill="#AAE0FF"/>
<path d="M325.08 159.223C326.516 159.223 327.68 158.059 327.68 156.623C327.68 155.187 326.516 154.023 325.08 154.023C323.645 154.023 322.48 155.187 322.48 156.623C322.48 158.059 323.645 159.223 325.08 159.223Z" fill="white"/>
<path d="M55.9395 162.071C56.2676 160.673 55.4004 159.274 54.0025 158.946C52.6046 158.618 51.2054 159.485 50.8773 160.883C50.5492 162.281 51.4164 163.68 52.8143 164.008C54.2122 164.336 55.6114 163.469 55.9395 162.071Z" fill="#AAE0FF"/>
<path d="M96.1813 260.553C98.6542 259.361 99.692 256.389 98.4994 253.916C97.3067 251.443 94.3352 250.406 91.8623 251.598C89.3894 252.791 88.3516 255.762 89.5442 258.235C90.7369 260.708 93.7084 261.746 96.1813 260.553Z" fill="#AAE0FF"/>
<path d="M173.636 41.2911C173.158 41.2911 172.783 40.8959 172.783 40.4383V31.2239C172.783 30.7455 173.178 30.3711 173.636 30.3711C174.114 30.3711 174.489 30.7663 174.489 31.2239V40.4383C174.51 40.9167 174.114 41.2911 173.636 41.2911Z" fill="#AAE0FF"/>
<path d="M168.188 35.8411C168.188 35.3627 168.583 34.9883 169.04 34.9883H178.255C178.733 34.9883 179.107 35.3835 179.107 35.8411C179.107 36.3195 178.712 36.6939 178.255 36.6939H169.04C168.562 36.6939 168.188 36.2987 168.188 35.8411Z" fill="#AAE0FF"/>
<path d="M271.501 159.471C271.023 159.471 270.648 159.076 270.648 158.618V149.404C270.648 148.925 271.044 148.551 271.501 148.551C271.98 148.551 272.354 148.946 272.354 149.404V158.618C272.354 159.096 271.98 159.471 271.501 159.471Z" fill="white"/>
<path d="M266.031 154.021C266.031 153.542 266.426 153.168 266.884 153.168H276.098C276.577 153.168 276.951 153.563 276.951 154.021C276.951 154.499 276.556 154.874 276.098 154.874H266.884C266.426 154.874 266.031 154.499 266.031 154.021Z" fill="white"/>
<path d="M262.142 280.717C261.663 280.717 261.289 280.322 261.289 279.864V270.65C261.289 270.171 261.684 269.797 262.142 269.797C262.62 269.797 262.995 270.192 262.995 270.65V279.864C262.995 280.343 262.62 280.717 262.142 280.717Z" fill="white"/>
<path d="M256.672 275.243C256.672 274.765 257.067 274.391 257.525 274.391H266.739C267.217 274.391 267.592 274.786 267.592 275.243C267.592 275.722 267.197 276.096 266.739 276.096H257.525C257.067 276.117 256.672 275.722 256.672 275.243Z" fill="white"/>
<path d="M185.535 214.761C187.051 214.761 188.28 213.532 188.28 212.015C188.28 210.499 187.051 209.27 185.535 209.27C184.018 209.27 182.789 210.499 182.789 212.015C182.789 213.532 184.018 214.761 185.535 214.761Z" stroke="white" stroke-width="4.2257" stroke-miterlimit="10"/>
<path d="M253.177 464.108H242.403L241.279 440.688H254.279L253.177 464.108Z" fill="#0E0E0E"/>
<path d="M440.338 464.108H429.584L428.461 440.688H441.461L440.338 464.108Z" fill="#0E0E0E"/>
<path d="M430.954 400.044C429.768 403.726 428.479 407.511 427.064 411.38H248.268C248.268 411.38 225.201 317.468 248.268 300.287C248.85 299.851 249.557 299.414 250.389 298.998C281.465 283.023 406.056 279.279 431.349 299.83C431.536 299.975 431.724 300.142 431.89 300.308C441.229 308.857 449.32 343.011 430.954 400.044Z" fill="#EA7B00"/>
<path d="M315.682 411.398H248.311L254.883 345.566C266.635 350.662 297.898 377.578 315.682 411.398Z" fill="#982C20"/>
<path d="M430.956 400.046C429.771 403.727 428.481 407.513 427.067 411.382H362.129C373.299 390.665 400.38 359.299 426.671 344.863L430.956 400.046Z" fill="#982C20"/>
<path d="M453.357 344.656H428.564C424.404 344.656 420.868 347.735 420.327 351.874L412.423 411.653H267.551L259.647 351.874C259.106 347.735 255.57 344.656 251.41 344.656H226.616C221.437 344.656 217.527 349.336 218.442 354.411L232.212 453.96H245.815H447.325H447.762L461.532 354.411C462.447 349.336 458.537 344.656 453.357 344.656Z" fill="#EA7B00"/>
<path d="M410.988 378.991C422.657 382.901 420.369 407.591 410.988 411.397H269.485C258.919 408.673 258.025 375.996 273.271 378.45C366.538 395.985 371.052 368.008 410.988 378.991Z" fill="#F2B066"/>
<path d="M303.14 353.954C303.099 360.34 303.431 366.33 304.118 371.593H370.47L374.401 306.801C370.449 283.13 359.674 277.41 342.598 277.41C327.31 277.41 317.139 289.869 310.94 306.572C305.595 320.986 303.223 338.562 303.14 353.954Z" fill="#007880"/>
<path d="M303.137 355.205L327.14 353.769C313.807 349.401 312.746 328.955 326.308 316.225L310.937 306.574C305.591 320.989 303.22 339.813 303.137 355.205Z" fill="#005459"/>
<path d="M298.561 384.987H389.727V353.953H307.609L298.561 384.987Z" fill="#0E0E0E"/>
<path d="M401.375 375.15L376.893 464.132H357.799C363.852 426.276 362.5 401.649 368.178 370.22C373.149 344.387 407.303 351.23 401.375 375.15Z" fill="#0E0E0E"/>
<path d="M370.031 464.113C370.031 464.051 370.031 463.989 370.031 463.947C370.031 457.353 375.377 452.008 381.97 452.008C388.564 452.008 393.91 457.353 393.91 463.947C393.91 464.009 393.91 464.072 393.91 464.113H370.031Z" fill="#B15626"/>
<path d="M384.258 452.215L379.91 450.884C377.04 445.247 364.83 445.955 366.536 452.798C361.731 453.505 359.214 451.134 359.214 451.134L357.779 464.113H383.675L384.258 452.215Z" fill="#B15626"/>
<path d="M293.841 375.15L318.323 464.132H337.417C331.364 426.276 332.716 401.649 327.038 370.22C322.067 344.387 287.913 351.23 293.841 375.15Z" fill="#0E0E0E"/>
<path d="M325.187 464.113C325.187 464.051 325.187 463.989 325.187 463.947C325.187 457.353 319.841 452.008 313.248 452.008C306.654 452.008 301.309 457.353 301.309 463.947C301.309 464.009 301.309 464.072 301.309 464.113H325.187Z" fill="#B15626"/>
<path d="M310.961 452.215L315.308 450.884C318.179 445.247 330.388 445.955 328.683 452.798C333.487 453.505 336.004 451.134 336.004 451.134L337.439 464.113H311.543L310.961 452.215Z" fill="#B15626"/>
<path d="M332.363 279.488C341.327 284.917 342.596 301.058 337.999 307.485L312.436 326.517L338.457 339.912L334.235 353.744C334.235 353.744 307.07 351.539 293.779 337.895C281.028 324.832 312.145 286.373 332.363 279.488Z" fill="#007880"/>
<path d="M350.52 303.972C342.865 294.363 348.148 279.491 357.924 279.927C389.728 291.118 399.545 322.193 389.457 336.15C380.825 348.11 342.865 352.707 342.865 352.707V339.623L369.24 333.924C369.24 333.924 355.636 312.854 350.52 303.972Z" fill="#007880"/>
<path d="M322.67 349.395C322.17 345.006 324.75 339.536 331.343 338.329C342.866 336.229 347.026 342.552 348.129 347.086C348.42 348.272 347.338 349.499 346.361 349.395C345.362 349.291 344.676 348.729 344.51 347.835C344.302 346.753 343.74 345.422 342.492 344.715C343.678 347.045 343.178 349.395 339.934 349.395H322.67Z" fill="#F7A594"/>
<path d="M348.67 349.375L357.738 303.906H359.652C359.028 307.047 350.126 352.516 349.834 353.951C347.463 353.951 325.623 353.951 322.67 353.951L319.695 349.375H348.67Z" fill="#99C1FF"/>
<path d="M359.673 303.926H427.127L417.143 353.95H349.855L359.673 303.926Z" fill="url(#paint0_linear)"/>
<path d="M339.996 282.756C339.996 287.935 355.513 291.367 360.567 285.917C361.337 285.106 361.857 284.087 362.065 282.839L364.977 269.735L346.465 262.746L345.903 264.452L339.996 282.756Z" fill="#F7A594"/>
<path d="M362.066 282.841L364.978 269.737L347.464 265.016C342.93 278.536 359.112 289.31 362.066 282.841Z" fill="#F4856D"/>
<path d="M345.091 257.731C344.113 270.606 354.284 281.942 362.833 282.524C371.382 283.107 383.134 273.56 384.112 260.684C385.089 247.809 377.144 236.702 366.369 235.891C355.595 235.08 346.068 244.856 345.091 257.731Z" fill="#F7A594"/>
<path d="M359.381 236.87C371.195 229.403 377.685 236.433 383.571 243.88C387.689 249.121 390.622 252.865 395.76 253.656C385.88 266.115 366.12 257.899 359.901 245.419C359.297 252.532 350.915 258.419 345.112 257.732C343.219 249.828 348.689 233.833 359.381 236.87Z" fill="#0E0E0E"/>
<path d="M348.192 262.964C350.993 262.51 352.895 259.871 352.44 257.07C351.986 254.269 349.347 252.367 346.546 252.821C343.745 253.276 341.843 255.915 342.298 258.716C342.752 261.517 345.391 263.419 348.192 262.964Z" fill="#F7A594"/>
<defs>
<linearGradient id="paint0_linear" x1="353.496" y1="354" x2="414.978" y2="313.49" gradientUnits="userSpaceOnUse">
<stop stop-color="#DBDEF2"/>
<stop offset="1" stop-color="#FDFDFE"/>
</linearGradient>
</defs>
</svg>
