<svg width="80" height="80" fill="none" xmlns="http://www.w3.org/2000/svg"><path fill="#fff" d="M0 0h80v80H0z"/><path d="M36.234 36.738c4.407 0 7.993-3.585 7.993-7.991 0-4.408-3.586-7.993-7.993-7.993s-7.992 3.585-7.992 7.992 3.585 7.992 7.992 7.992zm0-11.297a3.309 3.309 0 013.305 3.306 3.309 3.309 0 01-3.305 3.304 3.308 3.308 0 01-3.304-3.305 3.309 3.309 0 013.304-3.305z" fill="#E3E3E3"/><path d="M77.079 5.781H2.92A2.924 2.924 0 000 8.702v62.77c0 1.61 1.31 2.921 2.921 2.921H77.08c1.61 0 2.921-1.31 2.921-2.92V8.702c0-1.611-1.31-2.922-2.921-2.922zm-1.766 4.688v37.094L60.57 32.82a2.469 2.469 0 00-3.485.002l-20.85 20.85-13.319-13.317a2.45 2.45 0 00-1.744-.724c-.659 0-1.278.257-1.743.722L4.688 55.095V10.469h70.624zM4.686 69.706v-7.982l16.485-16.485L34.49 58.557a2.453 2.453 0 001.745.724c.658 0 1.277-.257 1.742-.723l20.851-20.85 16.485 16.485v15.513H4.687z" fill="#f2f3f9"/></svg>