<svg width="34" height="34" viewBox="0 0 34 34" fill="none" xmlns="http://www.w3.org/2000/svg">
<path d="M17.1247 3.26953C24.7761 3.26953 30.9788 9.47225 30.9788 17.1237C30.9788 24.7751 24.7761 30.9779 17.1247 30.9779C9.47323 30.9779 3.27051 24.7751 3.27051 17.1237C3.27051 9.47225 9.47323 3.26953 17.1247 3.26953ZM17.1247 5.34766C10.6209 5.34766 5.34863 10.62 5.34863 17.1237C5.34863 23.6274 10.6209 28.8997 17.1247 28.8997C23.6284 28.8997 28.9007 23.6274 28.9007 17.1237C28.9007 10.62 23.6284 5.34766 17.1247 5.34766Z" fill="#1E2432"/>
<path d="M18.8564 11.582C18.8564 12.3472 18.2362 12.9674 17.471 12.9674C16.7059 12.9674 16.0856 12.3472 16.0856 11.582C16.0856 10.8169 16.7059 10.1966 17.471 10.1966C18.2362 10.1966 18.8564 10.8169 18.8564 11.582Z" fill="#1E2432"/>
<path d="M16.432 15.3919V22.319C16.432 22.8929 16.8972 23.3581 17.471 23.3581C18.0449 23.3581 18.5101 22.8929 18.5101 22.319V15.3919C18.5101 14.8181 18.0449 14.3529 17.471 14.3529C16.8972 14.3529 16.432 14.8181 16.432 15.3919Z" fill="#1E2432"/>
</svg>
