<svg width="70" height="70" viewBox="0 0 70 70" fill="none" xmlns="http://www.w3.org/2000/svg">
<path d="M35.1367 0C15.9127 0 0 15.6393 0 34.8633C0 54.0873 15.9127 70 35.1367 70C54.3607 70 70 54.0873 70 34.8633C70 15.6393 54.3607 0 35.1367 0ZM39.2383 53.5938C39.2383 55.8551 37.3967 57.6953 35.1367 57.6953C32.8754 57.6953 31.0352 55.8551 31.0352 53.5938V32.8125C31.0352 30.5512 32.8754 28.7109 35.1367 28.7109C37.3967 28.7109 39.2383 30.5512 39.2383 32.8125V53.5938ZM35.1367 20.5078C32.8754 20.5078 31.0352 18.6676 31.0352 16.4062C31.0352 14.1449 32.8754 12.3047 35.1367 12.3047C37.3967 12.3047 39.2383 14.1449 39.2383 16.4062C39.2383 18.6676 37.3967 20.5078 35.1367 20.5078Z" fill="url(#paint0_linear)"/>
<defs>
<linearGradient id="paint0_linear" x1="70" y1="35" x2="0" y2="35" gradientUnits="userSpaceOnUse">
<stop stop-color="#383680"/>
<stop offset="1" stop-color="#5F5B82"/>
</linearGradient>
</defs>
</svg>
