<svg width="28" height="28" viewBox="0 0 28 28" fill="none" xmlns="http://www.w3.org/2000/svg">
<path d="M17.7373 15.7374C18.9174 15.7374 19.8741 16.6941 19.8741 17.8742V18.421C19.8741 19.2707 19.5704 20.0924 19.0179 20.7379C17.5267 22.4801 15.2585 23.3398 12.2699 23.3398C9.28076 23.3398 7.01365 22.4798 5.52539 20.7369C4.97452 20.0919 4.67188 19.2714 4.67188 18.4231V17.8742C4.67188 16.6941 5.62856 15.7374 6.80869 15.7374H17.7373ZM17.7373 17.1627H6.80869C6.4157 17.1627 6.09713 17.4812 6.09713 17.8742V18.4231C6.09713 18.9321 6.27871 19.4243 6.60924 19.8114C7.80009 21.206 9.66801 21.9146 12.2699 21.9146C14.8717 21.9146 16.7413 21.2059 17.9351 19.8111C18.2667 19.4238 18.4489 18.9308 18.4489 18.421V17.8742C18.4489 17.4812 18.1303 17.1627 17.7373 17.1627ZM12.2699 4.33984C14.8937 4.33984 17.0207 6.46687 17.0207 9.09069C17.0207 11.7145 14.8937 13.8415 12.2699 13.8415C9.64604 13.8415 7.51902 11.7145 7.51902 9.09069C7.51902 6.46687 9.64604 4.33984 12.2699 4.33984ZM12.2699 5.7651C10.4332 5.7651 8.94427 7.25401 8.94427 9.09069C8.94427 10.9274 10.4332 12.4163 12.2699 12.4163C14.1065 12.4163 15.5955 10.9274 15.5955 9.09069C15.5955 7.25401 14.1065 5.7651 12.2699 5.7651Z" fill="#696D8C"/>
<path d="M17.7373 17.1627H6.80869C6.4157 17.1627 6.09713 17.4812 6.09713 17.8742V18.4231C6.09713 18.9321 6.27871 19.4243 6.60924 19.8114C7.80009 21.206 9.66801 21.9146 12.2699 21.9146C14.8717 21.9146 16.7413 21.2059 17.9351 19.8111C18.2667 19.4238 18.4489 18.9308 18.4489 18.421V17.8742C18.4489 17.4812 18.1303 17.1627 17.7373 17.1627Z" fill="#696D8C"/>
<path d="M12.2699 5.7651C10.4332 5.7651 8.94427 7.25401 8.94427 9.09069C8.94427 10.9274 10.4332 12.4163 12.2699 12.4163C14.1065 12.4163 15.5955 10.9274 15.5955 9.09069C15.5955 7.25401 14.1065 5.7651 12.2699 5.7651Z" fill="#696D8C"/>
</svg>
