<svg width="80" height="80" viewBox="0 0 80 80" fill="none" xmlns="http://www.w3.org/2000/svg">
<g clip-path="url(#clip0)">
<path d="M72.8125 0H44.6875C40.8103 0 37.5 3.46656 37.5 7.34375V30.7812C37.5 34.6584 40.8103 37.8125 44.6875 37.8125H72.8125C76.6897 37.8125 80 34.6584 80 30.7812V7.34375C80 3.46656 76.6897 0 72.8125 0ZM51.7188 26.0938C51.7188 27.3892 50.6705 28.4375 49.375 28.4375C48.0795 28.4375 47.0312 27.3892 47.0312 26.0938V21.4062C47.0312 20.1108 48.0795 19.0625 49.375 19.0625C50.6705 19.0625 51.7188 20.1108 51.7188 21.4062V26.0938ZM61.0938 26.0938C61.0938 27.3892 60.0455 28.4375 58.75 28.4375C57.4545 28.4375 56.4062 27.3892 56.4062 26.0938V16.7188C56.4062 15.4233 57.4545 14.375 58.75 14.375C60.0455 14.375 61.0938 15.4233 61.0938 16.7188V26.0938ZM70.4688 26.0938C70.4688 27.3892 69.4205 28.4375 68.125 28.4375C66.8295 28.4375 65.7812 27.3892 65.7812 26.0938V12.0312C65.7812 10.7358 66.8295 9.6875 68.125 9.6875C69.4205 9.6875 70.4688 10.7358 70.4688 12.0312V26.0938Z" fill="url(#paint0_linear)"/>
<path d="M18.75 14.375C13.5795 14.375 9.375 18.5795 9.375 23.75C9.375 28.9205 13.5795 33.125 18.75 33.125C23.9205 33.125 28.125 28.9205 28.125 23.75C28.125 18.5795 23.9205 14.375 18.75 14.375Z" fill="url(#paint1_linear)"/>
<path d="M26.9706 35.1055C24.6526 36.7886 21.8265 37.8111 18.7488 37.8111C15.6712 37.8111 12.8451 36.7886 10.5271 35.1055C5.10572 37.7763 1.11665 42.9272 0.200873 49.1177C0.073217 49.9794 0.444311 50.7581 1.04884 51.2758C3.14369 46.137 8.17822 42.4986 14.0613 42.4986C19.8285 42.4986 24.7851 45.9942 26.952 50.9724C28.5277 47.3524 31.5996 44.5719 35.3679 43.2959C33.5115 39.7592 30.5692 36.8781 26.9706 35.1055Z" fill="url(#paint2_linear)"/>
<path d="M14.0625 47.1875C8.89203 47.1875 4.6875 51.392 4.6875 56.5625C4.6875 61.733 8.89203 65.9375 14.0625 65.9375C19.233 65.9375 23.4375 61.733 23.4375 56.5625C23.4375 51.392 19.233 47.1875 14.0625 47.1875Z" fill="url(#paint3_linear)"/>
<path d="M39.8438 47.1875C34.6733 47.1875 30.4688 51.392 30.4688 56.5625C30.4688 61.733 34.6733 65.9375 39.8438 65.9375C45.0142 65.9375 49.375 61.733 49.375 56.5625C49.375 51.392 45.0142 47.1875 39.8438 47.1875Z" fill="url(#paint4_linear)"/>
<path d="M65.7812 47.1875C60.6108 47.1875 56.4062 51.392 56.4062 56.5625C56.4062 61.733 60.6108 65.9375 65.7812 65.9375C70.9517 65.9375 75.3125 61.733 75.3125 56.5625C75.3125 51.392 70.9517 47.1875 65.7812 47.1875Z" fill="url(#paint5_linear)"/>
<path d="M21.0938 75.3125C21.0938 72.4761 21.7655 69.8087 22.9094 67.4034C20.4852 69.3856 17.4311 70.625 14.0625 70.625C9.92266 70.625 6.23328 68.7936 3.6575 65.9375C1.40875 68.4311 0 71.6978 0 75.3125V77.6562C0 78.9517 1.04828 80 2.34375 80H21.5255C21.2628 79.2633 21.0938 78.4819 21.0938 77.6562V75.3125Z" fill="url(#paint6_linear)"/>
<path d="M50.405 65.9375C47.8292 68.7936 43.9836 70.625 39.8438 70.625C35.7039 70.625 32.0145 68.7936 29.4388 65.9375C27.19 68.4311 25.7812 71.6978 25.7812 75.3125V77.6562C25.7812 78.9517 26.8295 80 28.125 80H51.7188C53.0142 80 54.0625 78.9517 54.0625 77.6562V75.3125C54.0625 71.6978 52.6538 68.4311 50.405 65.9375Z" fill="url(#paint7_linear)"/>
<path d="M76.3417 65.9375C73.7659 68.7936 69.9203 70.625 65.7805 70.625C62.4119 70.625 59.3578 69.3856 56.9336 67.4034C58.0775 69.8087 58.7492 72.4761 58.7492 75.3125V77.6562C58.7492 78.4819 58.5802 79.2633 58.3175 80H77.6555C78.9509 80 79.9992 78.9517 79.9992 77.6562V75.3125C79.9992 71.6978 78.5905 68.4311 76.3417 65.9375Z" fill="url(#paint8_linear)"/>
</g>
<defs>
<linearGradient id="paint0_linear" x1="44.4063" y1="23.454" x2="73.3594" y2="23.1903" gradientUnits="userSpaceOnUse">
<stop stop-color="#F9A844"/>
<stop offset="1" stop-color="#E05D2A"/>
</linearGradient>
<linearGradient id="paint1_linear" x1="12.4219" y1="26.0051" x2="25.1956" y2="25.9016" gradientUnits="userSpaceOnUse">
<stop stop-color="#F9A844"/>
<stop offset="1" stop-color="#E05D2A"/>
</linearGradient>
<linearGradient id="paint2_linear" x1="5.8945" y1="45.1355" x2="29.8637" y2="44.7126" gradientUnits="userSpaceOnUse">
<stop stop-color="#F9A844"/>
<stop offset="1" stop-color="#E05D2A"/>
</linearGradient>
<linearGradient id="paint3_linear" x1="23.4375" y1="56.5625" x2="4.6875" y2="56.5625" gradientUnits="userSpaceOnUse">
<stop stop-color="#383680"/>
<stop offset="1" stop-color="#5F5B82"/>
</linearGradient>
<linearGradient id="paint4_linear" x1="49.375" y1="56.5625" x2="30.4688" y2="56.5625" gradientUnits="userSpaceOnUse">
<stop stop-color="#383680"/>
<stop offset="1" stop-color="#5F5B82"/>
</linearGradient>
<linearGradient id="paint5_linear" x1="75.3125" y1="56.5625" x2="56.4062" y2="56.5625" gradientUnits="userSpaceOnUse">
<stop stop-color="#383680"/>
<stop offset="1" stop-color="#5F5B82"/>
</linearGradient>
<linearGradient id="paint6_linear" x1="22.9094" y1="72.9688" x2="0" y2="72.9688" gradientUnits="userSpaceOnUse">
<stop stop-color="#383680"/>
<stop offset="1" stop-color="#5F5B82"/>
</linearGradient>
<linearGradient id="paint7_linear" x1="54.0625" y1="72.9688" x2="25.7812" y2="72.9688" gradientUnits="userSpaceOnUse">
<stop stop-color="#383680"/>
<stop offset="1" stop-color="#5F5B82"/>
</linearGradient>
<linearGradient id="paint8_linear" x1="79.9992" y1="72.9688" x2="56.9336" y2="72.9688" gradientUnits="userSpaceOnUse">
<stop stop-color="#383680"/>
<stop offset="1" stop-color="#5F5B82"/>
</linearGradient>
<clipPath id="clip0">
<rect width="80" height="80" fill="white"/>
</clipPath>
</defs>
</svg>
