<svg width="225" height="195" viewBox="0 0 225 195" fill="none" xmlns="http://www.w3.org/2000/svg">
<g clip-path="url(#clip0)">
<path fill-rule="evenodd" clip-rule="evenodd" d="M42.1233 191.987H178.952C197.929 174.128 209.738 148.885 209.738 120.934C209.738 66.7405 165.328 22.8146 110.537 22.8146C55.7466 22.8146 11.3369 66.7405 11.3369 120.934C11.3369 148.885 23.1458 174.128 42.1233 191.987Z" fill="#DEECF9"/>
<path d="M141.088 62.0525H117.923C116.852 62.0525 115.987 61.1985 115.987 60.142V38.0695C115.987 37.0129 116.852 36.1589 117.923 36.1589H141.088C142.158 36.1589 143.023 37.0129 143.023 38.0695V60.142C143.023 61.1841 142.143 62.0525 141.088 62.0525Z" fill="#C0D8FB"/>
<path d="M140.076 60.9257H118.92C117.952 60.9257 117.16 60.1441 117.16 59.1889V39.0269C117.16 38.0717 117.952 37.2901 118.92 37.2901H140.076C141.044 37.2901 141.836 38.0717 141.836 39.0269V59.1744C141.85 60.1441 141.058 60.9257 140.076 60.9257Z" fill="#DFEBFD"/>
<path d="M128.949 39.6429C128.949 39.339 129.198 39.0929 129.506 39.0929C129.814 39.0929 130.063 39.339 130.063 39.6429C130.063 39.9469 129.814 40.1929 129.506 40.1929C129.198 40.1929 128.949 39.9469 128.949 39.6429Z" fill="#B7D3F3"/>
<path d="M133.465 40.4241C133.611 40.1635 133.949 40.0622 134.227 40.207C134.491 40.3517 134.594 40.6846 134.447 40.9596C134.3 41.2201 133.963 41.3214 133.685 41.1767C133.406 41.032 133.318 40.6991 133.465 40.4241Z" fill="#B7D3F3"/>
<path d="M137.334 43.4664C137.598 43.3071 137.935 43.3795 138.111 43.6256C138.273 43.8861 138.199 44.219 137.95 44.3927C137.686 44.5519 137.349 44.4795 137.173 44.2335C136.997 43.9729 137.07 43.6256 137.334 43.4664Z" fill="#B7D3F3"/>
<path d="M139.252 48.1586C139.56 48.1586 139.809 48.4046 139.809 48.7086C139.809 49.0125 139.56 49.2586 139.252 49.2586C138.944 49.2586 138.695 49.0125 138.695 48.7086C138.68 48.4191 138.944 48.1586 139.252 48.1586Z" fill="#B7D3F3"/>
<path d="M138.271 53.61C138.491 53.8271 138.491 54.1745 138.271 54.3916C138.051 54.6087 137.699 54.6087 137.479 54.3916C137.259 54.1745 137.259 53.8271 137.479 53.61C137.699 53.3929 138.051 53.3929 138.271 53.61Z" fill="#B7D3F3"/>
<path d="M134.754 57.1007C134.974 57.3178 134.974 57.6652 134.754 57.8823C134.534 58.0994 134.182 58.0994 133.962 57.8823C133.742 57.6652 133.742 57.3178 133.962 57.1007C134.182 56.8836 134.534 56.8836 134.754 57.1007Z" fill="#B7D3F3"/>
<path d="M128.948 58.885C128.948 58.5811 129.197 58.335 129.505 58.335C129.813 58.335 130.062 58.5811 130.062 58.885C130.062 59.189 129.813 59.435 129.505 59.435C129.197 59.435 128.948 59.2034 128.948 58.885Z" fill="#B7D3F3"/>
<path d="M125.53 40.4242C125.383 40.1636 125.046 40.0623 124.768 40.2071C124.504 40.3518 124.401 40.6847 124.548 40.9597C124.694 41.2202 125.031 41.3216 125.31 41.1768C125.589 41.0321 125.677 40.6992 125.53 40.4242Z" fill="#B7D3F3"/>
<path d="M121.663 43.4665C121.399 43.3072 121.061 43.3796 120.886 43.6257C120.724 43.8862 120.798 44.2191 121.047 44.3928C121.311 44.552 121.648 44.4796 121.824 44.2336C122 43.973 121.926 43.6257 121.663 43.4665Z" fill="#B7D3F3"/>
<path d="M119.742 48.1522C119.434 48.1522 119.185 48.3983 119.185 48.7022C119.185 49.0062 119.434 49.2523 119.742 49.2523C120.05 49.2523 120.299 49.0062 120.299 48.7022C120.299 48.4128 120.05 48.1522 119.742 48.1522Z" fill="#B7D3F3"/>
<path d="M120.723 53.6044C120.503 53.8215 120.503 54.1688 120.723 54.3859C120.943 54.603 121.294 54.603 121.514 54.3859C121.734 54.1688 121.734 53.8215 121.514 53.6044C121.294 53.3872 120.943 53.3872 120.723 53.6044Z" fill="#B7D3F3"/>
<path d="M124.243 57.1008C124.023 57.3179 124.023 57.6653 124.243 57.8824C124.463 58.0995 124.815 58.0995 125.035 57.8824C125.255 57.6653 125.255 57.3179 125.035 57.1008C124.815 56.8837 124.463 56.8837 124.243 57.1008Z" fill="#B7D3F3"/>
<path d="M129.359 48.7169C129.359 48.413 129.609 48.1669 129.917 48.1669C130.224 48.1669 130.474 48.413 130.474 48.7169C130.474 49.0209 130.224 49.2669 129.917 49.2669C129.609 49.2669 129.359 49.0209 129.359 48.7169Z" fill="#B7D3F3"/>
<path d="M129.988 41.8152H129.842V48.7192H129.988V41.8152Z" fill="#B7D3F3"/>
<path d="M133.41 45.6555L129.708 48.5245L129.989 48.8774L133.691 46.0085L133.41 45.6555Z" fill="#B7D3F3"/>
<path d="M92.3508 171.756C92.3508 171.756 94.1117 176.404 93.7326 178.13C93.3535 179.856 93.9649 183.188 93.2435 184.685C92.522 186.182 91.2503 188.355 92.4731 188.898C92.9378 189.103 98.3427 184.962 98.6484 183.743C98.9541 182.524 99.1986 178.914 100.238 176.959C101.277 175.003 100.409 173.422 98.9051 172.71C97.4133 171.985 95.3223 168.05 95.3223 168.05L92.3508 171.756Z" fill="#223156"/>
<path d="M149.773 192.593H149.847C150.495 192.581 150.984 192.061 150.923 191.47L146.631 149.195L142.889 149.521L149.039 192.013C149.101 192.351 149.406 192.593 149.773 192.593Z" fill="#AEC3FF"/>
<path d="M108.492 192.594H108.418C107.77 192.582 107.281 192.063 107.342 191.471L111.634 149.196L115.376 149.522L109.225 192.014C109.152 192.352 108.846 192.594 108.492 192.594Z" fill="#AEC3FF"/>
<path d="M78.2376 192.594H78.1643C77.5162 192.582 77.027 192.063 77.0882 191.471L81.3803 149.196L85.1221 149.522L78.9713 192.014C78.9102 192.352 78.6045 192.594 78.2376 192.594Z" fill="#AEC3FF"/>
<path d="M148.49 143.051L156.096 105.954C157.074 100.932 152.855 96.3331 147.377 96.4659L132.703 96.7919C127.641 96.9005 123.239 100.256 121.832 105.049L110.692 143.051H148.49Z" fill="#D2E0FF"/>
<path d="M143.89 143.051L151.496 105.954C152.475 100.932 148.256 96.3331 142.778 96.4659L128.104 96.7919C123.041 96.9005 118.639 100.256 117.233 105.049L106.093 143.051H143.89Z" fill="#AEC3FF"/>
<path d="M146.373 149.81H88.301C87.1394 149.81 86.1855 148.868 86.1855 147.721V145.138C86.1855 143.991 87.1394 143.049 88.301 143.049H148.489V147.721C148.489 148.868 147.535 149.81 146.373 149.81Z" fill="#D2E0FF"/>
<path d="M119.116 149.81H82.1006C81.1591 149.81 80.3887 149.049 80.3887 148.12V144.728C80.3887 143.798 81.1591 143.038 82.1006 143.038H119.116C120.057 143.038 120.828 143.798 120.828 144.728V148.12C120.828 149.049 120.057 149.81 119.116 149.81Z" fill="#AEC3FF"/>
<path d="M121.526 127.865C121.526 127.865 90.6498 127.382 86.5289 129.966C82.4079 132.549 90.6498 173.846 90.6498 173.846C90.6498 173.846 98.6348 174.1 99.2707 172.012C99.2707 172.012 97.84 152.661 99.0873 149.317C100.347 145.973 99.5642 141.337 99.5642 141.337C99.5642 141.337 115.18 143.691 120.144 142.532C125.109 141.386 121.526 127.865 121.526 127.865Z" fill="#2C3A64"/>
<path d="M87.1036 178.964C87.1036 178.964 85.4161 183.636 83.9976 184.71C82.5913 185.785 80.8672 188.73 79.3386 189.406C77.8223 190.094 75.4256 190.939 76.0003 192.134C76.2204 192.593 83.056 192.871 84.0954 192.134C85.1348 191.398 87.6661 188.803 89.7449 187.958C91.8115 187.125 92.1783 185.362 91.5057 183.865C90.8332 182.368 91.8114 178.023 91.8114 178.023L87.1036 178.964Z" fill="#163560"/>
<path d="M139.038 126.78C139.038 126.78 102.402 132.441 99.5775 135.653C96.7528 138.876 85.5762 180.789 85.5762 180.789C85.5762 180.789 88.8411 182.599 91.8126 180.921C91.8126 180.921 100.323 166.713 104.09 162.259C107.856 157.804 109.287 144.006 109.91 143.873C110.534 143.728 130.246 146.227 137.51 141.483C141.789 138.695 139.038 126.78 139.038 126.78Z" fill="#35488B"/>
<path d="M105.006 119.017C105.006 119.017 103.709 119.113 102.792 118.546C102.487 118.353 100.334 117.616 99.3439 118.063C98.3534 118.498 96.2868 120.007 96.8493 120.453C97.4118 120.9 99.246 120.634 99.6985 120.489C100.151 120.345 100.909 121.443 101.716 121.383C102.523 121.322 103.673 120.888 105.385 121.153C107.097 121.419 106.803 118.993 106.559 118.775C106.314 118.558 105.006 119.017 105.006 119.017Z" fill="#FFB27D"/>
<path d="M103.196 118.861C103.196 118.861 101.728 117.69 101.263 117.267C100.799 116.845 100.64 116.905 100.579 117.171C100.53 117.436 101.679 118.33 101.325 119.054C100.982 119.79 103.367 119.331 103.196 118.861Z" fill="#FFB27D"/>
<path d="M136.554 107.837L136.456 107.668C138.254 106.69 139.635 105.543 140.528 104.264C141.25 103.25 141.665 102.139 141.788 100.968C141.983 98.9764 141.225 97.5037 141.213 97.4795V97.2743C141.249 97.3347 142.362 98.8798 142.154 100.932C142.032 102.127 141.592 103.346 140.858 104.397C139.929 105.7 138.376 106.847 136.554 107.837Z" fill="#163560"/>
<path d="M112.208 75.6066C115.326 74.5563 116.268 74.7133 118.224 74.6771C121.086 74.6167 124.192 73.4699 125.696 76.4878C127.97 81.0509 129.474 77.4294 134.574 79.5178C139.673 81.6062 137.337 86.0607 136.811 87.3161C134.464 92.7967 140.602 95.0179 141.629 98.1445C142.669 101.271 138.89 106.86 134.011 106.933C129.132 107.005 106.51 104.253 108.674 96.7683C110.839 89.2838 106.852 85.2157 106.522 83.2721C106.094 80.7853 107.794 77.1035 112.208 75.6066Z" fill="#241A1A"/>
<path d="M140.492 129.784C137.57 130.182 134.855 130.568 132.336 130.93C127.31 131.643 118.359 130.568 118.323 129.361C118.261 127.381 118.958 125.281 119.105 123.313C119.178 122.371 119.117 121.466 118.799 120.609C118.689 120.319 118.555 119.993 118.396 119.619C118.078 118.871 117.699 117.989 117.308 117.036C117.087 116.493 116.867 115.937 116.659 115.37C116.562 115.116 116.476 114.863 116.39 114.609C116.366 114.549 116.354 114.501 116.329 114.44C116.268 114.259 116.207 114.066 116.146 113.885C116.097 113.704 116.036 113.535 115.987 113.354C115.816 112.726 115.669 112.111 115.571 111.519C115.498 111.048 115.461 110.602 115.461 110.179C115.473 108.284 114.434 107.741 113.174 107.56C112.612 107.475 112.013 107.463 111.426 107.439C110.961 107.415 110.521 107.391 110.117 107.306C109.274 107.125 108.381 102.514 109.481 100.147C109.824 99.4232 110.35 98.9041 111.132 98.8075H111.145C112.551 98.6265 114.789 98.1798 116.696 97.4917C117.185 97.3106 123.593 95.3792 123.996 95.343C127.384 95.0049 130.428 94.6669 133.571 97.0933C141.238 103.008 140.517 129.735 140.492 129.784Z" fill="#F99746"/>
<path d="M107.549 85.5412C106.95 85.0342 105.678 83.8512 105.617 82.2939C105.568 80.9539 106.24 79.5657 107.634 78.1895C109.848 76.0045 112.073 75.0388 113.553 74.6163C115.155 74.1576 118.224 74.8457 118.273 74.8457L117.295 75.0871C115.717 74.4835 111.939 74.1455 107.781 78.3344C106.448 79.6743 105.898 80.7729 105.959 82.0645C106.02 83.5494 106.95 84.334 107.524 84.8169C107.549 84.841 108.295 85.0221 108.295 85.0221C108.295 85.0221 107.561 85.5533 107.549 85.5412Z" fill="#241A1A"/>
<path d="M120.559 99.4002C117.71 100.125 117.318 99.1708 116.927 98.1447C116.768 97.7222 116.548 96.9617 116.291 96.0684C116.181 95.6942 116.071 95.2838 115.949 94.8733C115.716 94.0645 115.447 93.2436 115.227 92.6038C114.995 91.9037 114.812 91.4329 114.812 91.4329L120.253 88.6926L120.571 88.5357C121.831 92.966 123.677 94.6319 124.007 95.3441C124.704 96.8531 122.418 98.9294 120.559 99.4002Z" fill="#FFB27D"/>
<path d="M120.742 90.7202C120.509 92.5189 119.445 95.066 116.29 96.08C116.18 95.7058 116.07 95.2953 115.948 94.8849C115.716 94.0761 115.447 93.2552 115.227 92.6154L120.742 90.7202Z" fill="#F4A269"/>
<path d="M107.472 93.9356C107.472 93.9356 108.616 93.1279 108.848 92.8874C109.08 92.6468 109.751 90.5968 110.699 90.2836C111.648 89.9704 114.006 89.6828 113.896 90.3334C113.797 90.9906 112.396 91.9656 112.001 92.1446C111.607 92.3236 111.786 93.5496 111.204 94.0121C110.622 94.4746 109.23 94.9073 108.248 96.1513C107.266 97.3953 106.249 95.5876 106.284 95.2927C106.326 94.9876 107.472 93.9356 107.472 93.9356Z" fill="#FFB27D"/>
<path d="M110.629 93.8786L110.338 87.8217L113.46 88.4593L113.731 93.9212C113.762 94.5448 113.211 95.0448 112.586 94.9602L111.492 94.8121C111.014 94.7474 110.652 94.3555 110.629 93.8786Z" fill="#E8EBFE"/>
<path d="M114.824 95.0652C114.824 95.0652 122.455 92.9044 121.012 88.2447C119.581 83.5729 119.593 80.1567 114.665 81.3276C109.737 82.5106 109.346 84.5749 109.431 86.2408C109.542 87.9188 112.806 95.5118 114.824 95.0652Z" fill="#FFB27D"/>
<path d="M116.532 92.09C116.532 92.09 116.612 92.7684 114.998 93.2369C114.998 93.2369 113.644 93.6305 113.432 92.9288C113.436 92.9273 114.537 91.9804 116.532 92.09Z" fill="white"/>
<path d="M114.005 82.6689C111.877 83.8398 111.51 85.8437 109.187 86.0972C107.279 86.3145 106.325 81.0996 110.3 79.0836C115.118 76.633 114.494 74.8826 116.573 74.6895C120.009 74.3756 122.503 85.6506 122.308 85.8799C122.124 86.1093 121.293 87.7993 121.293 87.7993C121.293 87.7993 120.009 87.0268 120.119 86.5318C120.461 84.9746 119.238 83.5984 118.223 84.7814C117.392 85.7713 115.521 81.8239 114.005 82.6689Z" fill="#241A1A"/>
<path d="M109.427 96.2095C109.427 96.2095 108.854 97.4292 107.173 99.7203C106.616 100.488 105.975 101.314 105.279 102.182C105.015 102.508 104.767 102.816 104.527 103.092C104.524 103.103 104.511 103.111 104.508 103.121C102.199 105.794 100.74 106.495 99.2741 106.379C98.6637 106.328 98.064 106.236 97.6217 105.97C96.8916 105.543 96.5376 104.662 97.133 102.807C98.0863 99.8101 108.403 91.7171 108.403 91.7171C109.038 92.0753 109.322 92.8728 109.445 93.6859C109.617 94.9254 109.427 96.2095 109.427 96.2095Z" fill="#F99746"/>
<path d="M110.974 99.0056C110.974 99.0056 99.542 103.084 97.7322 103.241C95.9225 103.398 98.5469 106.323 98.5469 106.323C98.5469 106.323 105.524 107.683 114.462 107.611C123.389 107.539 110.974 99.0056 110.974 99.0056Z" fill="#F99746"/>
<path d="M137.706 82.6924C137.302 80.8092 136.116 78.914 134.331 78.2621C132.973 77.7672 131.188 77.6465 129.17 77.912C128.204 78.0448 127.348 77.8275 126.615 77.2964C126.089 76.898 125.526 76.1496 125.502 76.1134L125.734 76.7532C125.429 77.2119 125.82 77.2481 126.407 77.6827C126.945 78.081 127.899 78.3225 129.195 78.1535C131.164 77.8879 132.655 78.069 133.976 78.5518C135.407 79.0709 136.446 79.9039 136.984 81.2197C137.082 81.4732 137.168 81.7388 137.229 82.0285L137.681 82.6562L137.706 82.6924Z" fill="#163560"/>
<path d="M108.685 97.3202C108.229 98.1425 107.604 99.4601 106.793 100.396C106.485 100.747 106.196 101.079 105.917 101.376C105.851 101.382 105.801 101.38 105.739 101.375C105.3 101.349 104.977 101.281 104.761 101.193C103.928 100.865 104.398 100.221 105.216 99.9538C106.233 99.6181 108.637 97.3564 108.685 97.3202Z" fill="#ED7D2B"/>
<path d="M131.603 110.771C131.603 110.771 127.238 121.913 119.106 123.314C119.179 122.372 119.118 121.467 118.8 120.61C118.69 120.32 118.555 119.994 118.396 119.62C118.873 119.39 119.204 119.258 119.204 119.258L131.603 110.771Z" fill="#ED7D2B"/>
<path d="M124.755 106.653L120.744 117.047H117.308C117.088 116.504 116.868 115.948 116.66 115.381C116.562 115.127 116.477 114.874 116.391 114.62C116.367 114.56 116.355 114.512 116.33 114.451C118.702 113.667 122.86 109.538 124.755 106.653Z" fill="#ED7D2B"/>
<path d="M130.38 98.3969C130.38 98.3969 120.731 113.656 116.647 115.37C114.324 116.348 103.856 118.569 103.856 118.569L104.064 120.862C104.064 120.862 119.056 121.406 120.719 120.862C125.623 119.269 133.571 108.718 133.571 108.718L130.38 98.3969Z" fill="#F99746"/>
<path d="M91.9932 120.862H109.186C109.186 120.113 108.575 119.51 107.817 119.51H91.9932V120.862Z" fill="#D7D2D2"/>
<path d="M92.0422 102.369H65.458L71.8289 120.862H98.5843L92.0422 102.369Z" fill="#D7D2D2"/>
<path d="M65.0674 102.369L71.4383 120.862H98.1937L91.6516 102.369H65.0674Z" fill="#E3E3E3"/>
<path d="M64.9707 102.451L71.5114 120.961H90.6974C76.8916 117 73.2161 104.926 72.6 102.451H64.9707Z" fill="#D7D2D2"/>
<path d="M79.3986 111.447C79.5698 112.159 80.279 112.726 80.9882 112.726C81.7097 112.726 82.1499 112.159 81.9787 111.447C81.8075 110.735 81.0983 110.167 80.389 110.167C79.6798 110.167 79.2274 110.735 79.3986 111.447Z" fill="white"/>
<path d="M60.6652 119.401H61.3744V107.353L54.123 89.0888L67.0728 79.19L66.6448 78.6347L53.2793 88.8595L60.6652 107.486V119.401Z" fill="#6980E2"/>
<path d="M68.5392 80.4466C68.8694 80.2172 68.9428 79.7706 68.7104 79.4567L67.6343 77.9598C67.402 77.6339 66.9496 77.5614 66.6316 77.7908C66.3015 78.0202 66.2281 78.4668 66.4604 78.7807L67.5365 80.2776C67.7566 80.6035 68.2091 80.676 68.5392 80.4466Z" fill="#6980E2"/>
<path d="M54.8079 88.8844C54.8079 88.3774 54.3922 87.9549 53.8664 87.9549C53.3528 87.9549 52.9248 88.3653 52.9248 88.8844C52.9248 89.3914 53.3406 89.814 53.8664 89.814C54.38 89.8019 54.8079 89.3914 54.8079 88.8844Z" fill="#6980E2"/>
<path d="M57.584 121.057H64.7131V120.345C64.7131 119.633 64.1261 119.053 63.4046 119.053H58.9413C58.1832 119.053 57.584 119.657 57.584 120.393V121.057Z" fill="#6980E2"/>
<path d="M60.2923 119.406H61.7842V108.215H60.2923V119.406Z" fill="#6980E2"/>
<path d="M66.9263 90.8407C66.963 90.877 66.9997 90.9132 67.0242 90.9494L67.0364 90.9615C67.0731 90.9977 67.0975 91.0339 67.1342 91.0701C68.1003 91.9031 71.3163 90.4182 74.4223 87.678C77.5283 84.9377 79.3747 81.956 78.6533 80.9178C78.6288 80.8816 78.5921 80.8454 78.5554 80.8092L78.5432 80.7971C78.5065 80.7609 78.4821 80.7247 78.4454 80.6885C75.5962 77.5498 70.7171 77.2842 67.5378 80.0849C64.3584 82.8734 64.0894 87.7021 66.9263 90.8407Z" fill="#F99746"/>
<path d="M67.0366 90.949C67.0489 90.9731 67.0611 90.9852 67.0733 90.9973C67.0978 91.0214 67.1222 91.0456 67.1467 91.0697C68.1127 91.9026 71.3288 90.4178 74.4225 87.6655C77.5285 84.9252 79.3872 81.9435 78.6535 80.9053C78.629 80.8812 78.6168 80.857 78.5923 80.8329C78.5801 80.8208 78.5679 80.8088 78.5557 80.7967L78.5434 80.7846C77.8831 80.169 76.0978 80.7122 74.0067 82.0522C73.1141 82.6195 72.1725 83.3317 71.2432 84.1526C70.5095 84.8045 69.8491 85.4684 69.2622 86.1082C67.3913 88.2208 66.4375 90.1643 67.0366 90.949Z" fill="#F9DDBF"/>
<path d="M69.2734 86.1087C69.8237 86.5553 70.5207 86.8209 71.2911 86.8209C73.052 86.8209 74.4704 85.4085 74.4704 83.6823C74.4704 83.0908 74.2992 82.5234 74.0058 82.0526C73.1131 82.62 72.1715 83.3322 71.2422 84.1531C70.5085 84.8049 69.8482 85.4689 69.2734 86.1087Z" fill="#FFEFE1"/>
<path d="M51.7677 124.837H168C168.894 124.837 169.622 123.992 169.622 122.956V122.843C169.622 121.807 168.894 120.963 168 120.963H51.7677C50.874 120.963 50.1455 121.807 50.1455 122.843V122.956C50.1455 123.992 50.874 124.837 51.7677 124.837Z" fill="#78ACEA"/>
<path d="M53.0604 193.535L53.0115 193.523C52.4123 193.45 51.9965 192.919 52.0699 192.352L61.1555 122.94L66.2547 123.085L54.0387 192.835C53.9653 193.281 53.5251 193.583 53.0604 193.535Z" fill="#78ACEA"/>
<path d="M168.427 193.535L168.476 193.523C169.075 193.451 169.491 192.92 169.417 192.352L160.332 122.94L155.232 123.085L167.448 192.835C167.534 193.282 167.962 193.584 168.427 193.535Z" fill="#78ACEA"/>
<g clip-path="url(#clip1)">
<path d="M133.834 176.809C133.834 176.809 135.69 182.883 136.315 184.555C136.939 186.228 136.852 189.687 136.852 190.293C136.852 190.898 135.949 190.709 135.76 191.695C135.571 192.682 136.681 192.622 137.416 192.622C138.058 192.622 138.633 191.913 138.633 191.05C138.633 190.186 138.967 187.447 138.967 186.337C138.967 185.226 137.843 183.038 138.218 181.712C138.592 180.387 140.03 179.584 140.03 177.673C140.03 175.762 133.43 173.284 133.834 176.809Z" fill="#E8CEAB"/>
<path style="mix-blend-mode:multiply" d="M133.834 176.809C133.834 176.809 135.69 182.883 136.315 184.555C136.939 186.228 136.852 189.687 136.852 190.293C136.852 190.898 135.949 190.709 135.76 191.695C135.571 192.682 136.681 192.622 137.416 192.622C138.058 192.622 138.633 191.913 138.633 191.05C138.633 190.186 138.967 187.447 138.967 186.337C138.967 185.226 137.843 183.038 138.218 181.712C138.592 180.387 140.03 179.584 140.03 177.673C140.03 175.762 133.43 173.284 133.834 176.809Z" fill="#D1CBBF"/>
<path d="M139.353 192.544C139.372 192.223 139.5 191.919 139.715 191.679C139.931 191.438 140.222 191.276 140.541 191.218C141.57 190.932 144.608 190.757 144.608 190.757L149.782 191.33C149.782 191.33 149.948 192.604 148.98 192.851C148.013 193.097 139.353 192.544 139.353 192.544Z" fill="#D1CBBF"/>
<path d="M142.761 162.348C143.496 161.987 144.208 161.583 144.893 161.138C145.474 160.707 146.07 160.461 146.201 160.595C146.331 160.73 146.317 162.466 146.021 163.1C145.724 163.734 144.455 164.592 144.217 164.626C143.978 164.66 142.744 162.52 142.761 162.348Z" fill="#E8CEAB"/>
<path d="M136.574 161.544C136.574 161.544 138.317 161.499 139.009 161.128C139.7 160.758 142.053 160.388 143.366 162.052C144.679 163.716 145.286 165.615 144.676 167.649C144.066 169.683 143.325 171.858 144.302 172.83C145.278 173.803 151.233 174.635 152.453 180.232C153.673 185.829 152.874 191.193 149.641 192.536C146.408 193.878 142.474 191.609 139.197 186.893C135.921 182.177 133.344 177.102 133.434 174.356C133.576 170.171 137.088 166.955 137.088 166.725C137.088 166.496 136.153 164.757 136.153 164.04C136.125 163.686 136.206 163.332 136.385 163.025C136.385 163.025 136.374 161.74 136.574 161.544Z" fill="#F8E9CC"/>
<path d="M149.798 185.907C148.883 184.258 146.521 181.836 143.927 183.254C141.333 184.671 141.658 188.704 143.517 190.529C145.376 192.353 146.486 192.66 148.845 192.66C151.204 192.66 151.39 188.773 149.798 185.907Z" fill="#F8E9CC"/>
<path d="M139.712 193.336C139.731 193.016 139.858 192.712 140.073 192.472C140.288 192.231 140.578 192.069 140.897 192.011C141.929 191.724 144.964 191.549 144.964 191.549L150.135 192.123C150.135 192.123 150.304 193.396 149.336 193.643C148.369 193.89 139.712 193.336 139.712 193.336Z" fill="#F8E9CC"/>
<path d="M134.217 177.939C134.217 177.939 136.524 183.562 137.148 185.235C137.773 186.907 137.994 190.37 137.994 190.972C137.994 191.575 137.087 191.388 136.899 192.375C136.71 193.362 137.822 193.299 138.554 193.299C139.199 193.299 139.772 192.59 139.772 191.727C139.772 190.863 140.129 188.126 140.129 187.016C140.129 185.906 139.005 183.714 139.38 182.389C139.754 181.063 141.178 180.26 141.178 178.35C141.178 176.439 133.816 174.417 134.217 177.939Z" fill="#F8E9CC"/>
<path d="M152.781 187.632C153.266 187.954 154.855 189.018 156.2 186.12C157.545 183.223 155.79 177.574 154.654 174.31C153.518 171.045 154.288 167.448 154.988 166.079C155.793 164.504 157.452 164.229 157.995 164.765C158.463 165.227 158.559 166.3 157.684 167.812C156.81 169.324 156.667 171.071 157.353 173.446C158.039 175.822 160.633 182.388 159.134 186.955C157.635 191.522 152.452 192.75 151.139 191.456C149.826 190.163 152.292 187.314 152.781 187.632Z" fill="#F8E9CC"/>
<path d="M136.572 161.45C136.685 161.395 137.202 161.791 137.202 161.929C137.202 162.067 136.836 162.454 136.758 162.376C136.679 162.299 136.932 162.055 136.885 161.998C136.839 161.94 136.546 162.474 136.447 162.376C136.348 162.279 136.212 161.622 136.572 161.45Z" fill="#997E66"/>
<path d="M137.554 164.311C137.731 164.312 137.906 164.268 138.062 164.185C138.071 164.18 138.079 164.173 138.085 164.166C138.091 164.158 138.096 164.149 138.099 164.139C138.102 164.129 138.102 164.119 138.101 164.109C138.1 164.1 138.096 164.09 138.091 164.081C138.08 164.064 138.063 164.051 138.043 164.046C138.023 164.041 138.002 164.043 137.984 164.053C137.836 164.13 137.669 164.166 137.502 164.156C137.335 164.146 137.174 164.09 137.037 163.995C136.722 163.756 136.513 163.405 136.456 163.017C136.456 163.006 136.454 162.995 136.45 162.984C136.446 162.974 136.439 162.965 136.431 162.957C136.423 162.949 136.413 162.944 136.402 162.94C136.391 162.937 136.38 162.935 136.368 162.937C136.357 162.938 136.346 162.942 136.337 162.947C136.327 162.953 136.319 162.961 136.312 162.97C136.306 162.98 136.302 162.99 136.3 163.001C136.298 163.012 136.299 163.023 136.302 163.034C136.33 163.248 136.402 163.455 136.512 163.641C136.623 163.828 136.769 163.991 136.944 164.122C137.123 164.245 137.336 164.311 137.554 164.311Z" fill="#997E66"/>
<path d="M137.782 164.032C137.781 164.07 137.792 164.107 137.812 164.138C137.833 164.17 137.863 164.195 137.898 164.209C137.933 164.224 137.972 164.228 138.009 164.221C138.046 164.214 138.081 164.196 138.108 164.17C138.135 164.144 138.154 164.11 138.161 164.073C138.169 164.036 138.165 163.998 138.151 163.963C138.136 163.929 138.112 163.899 138.08 163.878C138.049 163.857 138.011 163.846 137.973 163.846C137.948 163.846 137.923 163.85 137.9 163.859C137.877 163.868 137.856 163.882 137.838 163.899C137.82 163.917 137.806 163.938 137.796 163.96C137.787 163.983 137.782 164.008 137.782 164.032Z" fill="#997E66"/>
<path style="mix-blend-mode:multiply" d="M141 179.481C141.427 179.481 140.907 180.574 142.206 181.515C143.504 182.456 145.111 181.558 146.613 182.155C148.115 182.752 148.027 183.228 148.027 183.228C148.027 183.228 147.202 182.284 144.567 183.515C141.933 184.745 142.052 186.67 142.052 187.74C142.052 188.81 143.795 191.573 143.835 191.625C142.379 190.638 141.096 189.421 140.039 188.024C140.039 188.024 139.858 183.291 140.039 181.713C140.108 181.122 140.564 179.481 141 179.481Z" fill="#D1CBBF"/>
<path style="mix-blend-mode:multiply" d="M136.77 182.11C137.438 184.374 138.385 186.465 138.385 188.298C138.407 189.399 138.583 190.492 138.908 191.546C138.908 191.712 137.972 191.93 137.972 192.441C137.972 192.951 139.216 192.928 139.715 191.936C139.728 191.906 139.746 191.879 139.768 191.855C139.715 192.659 139.187 193.29 138.559 193.29C137.827 193.29 136.717 193.353 136.903 192.366C137.089 191.379 137.998 191.58 137.998 190.963C137.998 190.347 137.778 186.878 137.153 185.226C136.709 184.038 135.41 180.837 134.698 179.101C134.541 178.742 134.408 178.395 134.271 178.057L134.222 177.939C133.699 176.545 133.406 175.317 133.438 174.368C133.58 170.182 137.092 166.966 137.092 166.737C137.092 166.883 135.369 170.724 135.195 173.114C135.021 175.504 136.101 179.847 136.77 182.11Z" fill="#D1CBBF"/>
<path style="mix-blend-mode:multiply" d="M147.599 192.918C148.072 192.754 147.988 192.344 146.727 191.94C145.466 191.535 146.036 190.758 146.036 190.758C146.036 190.758 148.717 191.673 150.135 191.245C151.552 190.818 152.218 189.237 152.218 189.237C152.218 189.237 152.822 190.732 155.587 190.098C157.592 189.636 158.684 187.969 159.097 187.043C157.56 191.529 152.441 192.743 151.14 191.455C150.853 191.779 150.516 192.058 150.143 192.281C150.143 192.625 150.094 193.454 149.333 193.649C148.363 193.896 139.714 193.34 139.714 193.34C139.711 193.208 147.169 193.067 147.599 192.918Z" fill="url(#paint0_linear)"/>
<path style="mix-blend-mode:multiply" d="M157.56 164.549C157.066 164.72 156.623 165.008 156.268 165.387C155.913 165.767 155.659 166.227 155.526 166.726C154.809 169.008 154.738 171.441 155.32 173.76C155.982 176.262 157.583 181.081 157.269 183.431C157.019 185.356 156.56 186.334 155.753 186.905C155.918 186.655 156.063 186.393 156.188 186.122C157.542 183.227 155.79 177.576 154.655 174.311C153.519 171.046 154.288 167.449 154.989 166.081C155.634 164.818 156.825 164.394 157.56 164.549Z" fill="url(#paint1_linear)"/>
<path d="M143.427 162.86C144.242 162.773 145.051 162.639 145.85 162.458C146.538 162.251 147.192 162.226 147.265 162.395C147.337 162.564 146.719 164.191 146.219 164.69C145.719 165.189 144.223 165.55 143.988 165.505C143.752 165.459 143.357 163.014 143.427 162.86Z" fill="#FFCE9F"/>
<path style="mix-blend-mode:multiply" d="M143.427 162.86C144.242 162.773 145.051 162.639 145.85 162.458C146.538 162.251 147.192 162.226 147.265 162.395C147.337 162.564 146.719 164.191 146.219 164.69C145.719 165.189 144.223 165.55 143.988 165.505C143.752 165.459 143.357 163.014 143.427 162.86Z" fill="#FFF7EE"/>
<path d="M147.264 162.395C147.293 162.473 146.239 162.562 145.521 162.969C145.075 163.214 144.59 163.381 144.086 163.462L145.46 163.554L144.086 163.709C144.086 163.709 144.757 164.079 144.711 164.079C144.664 164.079 144.06 163.847 144.008 163.898C143.955 163.95 144.008 164.234 144.008 164.234L143.665 163.993L143.508 164.773L143.325 162.78C144.028 162.723 144.727 162.627 145.419 162.493C145.957 162.332 147.101 161.968 147.264 162.395Z" fill="#F8E9CC"/>
</g>
<path d="M23.7135 185.243C18.143 185.243 13.623 180.781 13.623 175.282V161.703H33.8039V175.282C33.8039 180.781 29.284 185.243 23.7135 185.243Z" fill="#5896FA"/>
<path d="M13.6226 171.961H12.5068V193.033H13.6226V171.961Z" fill="#0E0E0E"/>
<path d="M34.9194 171.961H33.8037V193.033H34.9194V171.961Z" fill="#0E0E0E"/>
<path d="M26.3609 171.961H25.2451V193.033H26.3609V171.961Z" fill="#0E0E0E"/>
<path d="M33.8523 185.243H12.5068V186.344H33.8523V185.243Z" fill="#0E0E0E"/>
<path d="M39.4219 139.272C40.6435 141.001 38.1921 142.496 37.8093 144.892C37.4266 147.288 40.2118 148.638 37.2555 151.782C35.4394 153.72 33.9002 151.147 32.4262 154.113C30.9439 157.08 32.1167 157.579 30.4472 158.648C27.5479 160.505 23.1175 156.397 24.6079 153.43C26.0983 150.471 29.1115 150.729 27.7189 148.293C26.3263 145.857 25.8051 144.803 28.2076 143.549C31.1883 141.998 33.8106 143.421 34.0468 141.153C34.2993 138.902 37.8175 136.981 39.4219 139.272Z" fill="#FFCA59"/>
<path d="M26.7022 161.566L26.1973 161.47C28.5427 149.756 36.3284 141.555 36.4017 141.475L36.7682 141.821C36.6949 141.901 29.0151 150.005 26.7022 161.566Z" fill="#0E0E0E"/>
<path d="M0.403827 134.947C-0.858495 137.479 2.6923 138.967 3.68587 142.07C4.67944 145.173 1.02278 146.267 5.56714 149.836C8.36868 152.039 8.95505 150.665 9.9812 155.585C10.8852 159.918 14.2242 155.794 16.7163 158.334C19.9332 161.615 24.958 154.411 22.3845 150.793C19.811 147.167 16.8059 148.108 18.1496 144.603C19.5016 141.097 17.889 138.46 14.4523 137.278C10.1929 135.815 8.66186 139.345 7.88818 136.394C7.1145 133.435 2.07335 131.594 0.403827 134.947Z" fill="#ED5A24"/>
<path d="M21.7894 161.92C16.3655 147.07 4.54859 137.881 4.43457 137.793L4.85806 137.262C4.98022 137.35 16.9438 146.66 22.441 161.695L21.7894 161.92Z" fill="#0E0E0E"/>
<path d="M177.906 143.014V144.269C177.906 144.704 178.053 145.066 178.224 145.066H224.582C224.753 145.066 224.899 144.704 224.899 144.269V143.014C224.899 142.579 224.753 142.217 224.582 142.217H178.224C178.053 142.217 177.906 142.579 177.906 143.014Z" fill="#8FADEF"/>
<path d="M177.906 143.014V144.269C177.906 144.704 178.041 145.066 178.2 145.066H214.995C215.154 145.066 215.288 144.704 215.288 144.269V143.014C215.288 142.579 215.154 142.217 214.995 142.217H178.2C178.041 142.217 177.906 142.579 177.906 143.014Z" fill="#BBD0FF"/>
<g clip-path="url(#clip2)">
<path d="M213.558 132.548C212.701 128.579 207.449 124.072 207.449 124.072L208.86 121.82H190.557L191.969 124.072C191.969 124.072 186.717 128.574 185.86 132.548C185.003 136.521 189.538 142.052 193.154 142.052H206.264C209.88 142.052 214.413 136.52 213.558 132.548Z" fill="#FBFBFC"/>
<path d="M209.258 128.254C210.465 129.699 211.601 131.389 211.918 132.866C212.227 134.277 211.519 136.29 210.126 137.997C208.877 139.53 207.302 140.527 206.133 140.527H193.032C191.862 140.527 190.296 139.534 189.039 137.997C187.652 136.29 186.941 134.277 187.245 132.866C187.563 131.392 188.7 129.702 189.909 128.254C191.943 127.813 194.084 128.651 196.074 129.268C198.405 129.992 200.951 130.184 203.288 129.488C205.138 128.928 207.343 127.928 209.258 128.254Z" fill="#EEF8FF"/>
<path d="M201.003 134.924C200.383 135.28 200.003 135.597 199.35 134.821C198.35 133.636 198.256 133.243 197.681 133.145C197.107 133.048 197.671 133.531 197.488 133.751C197.189 134.113 196.476 134.263 196.352 134.877C196.228 135.491 197.158 135.613 197.075 135.946C196.992 136.278 196.463 136.612 196.814 136.981C196.985 137.162 197.988 136.45 198.65 137.168C199.099 137.653 199.58 135.627 201.038 136.138C201.605 136.339 201.003 134.924 201.003 134.924Z" fill="#F56300"/>
<path d="M200.908 135.009C200.908 135.009 200.52 135.441 200.048 135.409C199.474 135.37 198.921 134.54 198.561 134.254C198.561 134.254 199.086 135.271 200.083 135.505C200.083 135.505 199.146 135.448 198.674 134.963C198.202 134.478 197.462 134.497 197.462 134.497C197.462 134.497 198.265 134.658 198.526 135.009C198.787 135.36 199.586 135.511 199.586 135.511C199.586 135.511 198.216 135.614 197.532 135.226C197.532 135.226 198.384 135.737 199.731 135.626C199.731 135.626 197.941 136.049 197.539 136.547C197.539 136.547 199.6 135.685 199.931 135.703C199.931 135.703 198.691 136.214 198.511 136.812C198.511 136.812 199.671 135.723 200.353 135.723C200.353 135.723 199.139 136.149 199.146 136.76C199.254 136.519 199.448 136.326 199.691 136.219C200.568 135.81 200.925 136.054 200.925 136.054L200.908 135.009Z" fill="#FC6F0F"/>
<path d="M201.496 134.737C201.172 134.694 200.846 134.678 200.52 134.691C200.083 134.722 198.867 134.4 199.036 133.72C199.049 133.668 199.421 133.882 199.706 133.589C199.991 133.297 200.532 132.764 200.895 132.861C201.259 132.958 202.356 132.794 202.495 132.332C202.57 132.072 202.861 132.1 202.983 132.372C203.105 132.644 203.797 133.932 202.903 134.506L201.496 134.737Z" fill="#F56300"/>
<path d="M202.739 134.445C202.739 134.445 203.098 134.017 203.114 133.713C203.129 133.409 202.829 132.86 202.829 132.86C202.829 132.86 202.992 133.728 202.739 134.032C202.739 134.032 202.664 133.446 202.485 133.289C202.485 133.289 202.549 134 202.485 134.168C202.485 134.168 202.21 133.331 201.999 133.216C201.999 133.216 202.195 134.034 202.168 134.252C202.168 134.252 201.724 133.404 201.386 133.3C201.386 133.3 201.819 133.99 201.882 134.336C201.882 134.336 200.914 133.642 200.794 133.258C200.794 133.258 200.969 134.018 201.375 134.281C201.375 134.281 200.604 133.958 200.265 133.413C200.265 133.413 200.505 134.186 201.037 134.4C201.037 134.4 200.075 134.427 199.642 134.196C199.642 134.196 200.065 134.593 200.53 134.572C200.859 134.571 201.185 134.627 201.495 134.737L202.739 134.445Z" fill="#FC6F0F"/>
<path d="M203.153 136.297C203.153 136.297 202.909 136.831 202.837 136.962C202.766 137.093 203.183 137.293 203.274 137.495C203.366 137.696 203.447 138.703 203.518 138.733C203.59 138.762 204.047 137.636 203.932 137.082C203.873 136.763 203.713 136.47 203.475 136.246L203.153 136.297Z" fill="#F56300"/>
<path d="M201.855 136.246C201.855 136.246 200.759 136.787 200.615 136.844C200.471 136.901 200.674 137.318 200.615 137.531C200.556 137.745 200.559 138.416 200.595 138.484C200.632 138.553 201.748 138.04 201.888 137.857C202.232 137.407 202.295 136.367 202.295 136.367L201.855 136.246Z" fill="#F56300"/>
<path d="M202.209 136.442C202.209 136.442 202.054 137.254 201.97 137.489C201.887 137.725 201.29 138.001 201.29 138.001C201.29 138.001 201.773 137.582 201.85 137.401C201.928 137.22 201.97 136.731 201.97 136.731C201.97 136.731 201.794 137.29 201.505 137.52C201.505 137.52 201.83 136.826 201.85 136.676C201.85 136.676 201.314 137.317 201.237 137.652C201.274 137.309 201.402 136.982 201.608 136.704C201.608 136.704 201.159 137.01 201.104 137.102C201.023 137.292 200.954 137.488 200.897 137.687C200.897 137.687 200.752 137.003 201.377 136.689C201.377 136.689 200.868 136.801 200.748 137.098C200.748 137.098 200.705 136.852 201.136 136.637C201.333 136.53 201.541 136.444 201.755 136.379L202.209 136.442Z" fill="#FC6F0F"/>
<path d="M200.751 135.871C201.043 136.228 201.704 136.615 202.543 136.615C203.15 136.629 203.743 136.427 204.212 136.046C204.425 135.86 204.541 135.668 204.541 135.534C204.541 135.246 203.55 134.376 202.785 134.4C201.365 134.444 200.775 134.999 200.597 135.424C200.556 135.54 200.612 135.703 200.751 135.871Z" fill="#F7ECE7"/>
<path d="M200.753 135.87C201.045 136.227 201.706 136.614 202.545 136.614C203.153 136.629 203.745 136.427 204.215 136.045C202.248 136.894 200.815 135.913 200.753 135.87Z" fill="#EDE3DE"/>
<path d="M203.644 134.652C203.644 134.652 203.69 135.098 203.506 135.222C203.322 135.346 202.989 134.754 202.721 135.075C202.662 135.145 203.006 135.745 202.696 136.002C202.534 136.136 202.12 136.174 201.996 136.047C201.872 135.92 202.141 135.667 202.063 135.528C201.889 135.221 201.561 135.674 201.424 135.502C201.338 135.393 201.375 134.991 201.084 135.131C200.967 135.186 200.878 135.04 200.908 135.006C201.29 134.654 201.781 134.439 202.301 134.395C203.108 134.327 203.417 134.498 203.644 134.652Z" fill="#FF9330"/>
<path d="M203.644 134.653C203.488 134.672 202.941 135.381 202.971 135.558C203.034 135.927 203.487 136.283 203.742 136.354C203.742 136.354 204.545 135.997 204.609 135.558C204.673 135.119 203.769 134.639 203.644 134.653Z" fill="#FFA859"/>
<path d="M204.613 135.502C204.596 135.529 204.574 135.551 204.549 135.57C204.523 135.588 204.494 135.6 204.463 135.607C204.432 135.614 204.401 135.615 204.37 135.61C204.339 135.605 204.309 135.593 204.282 135.577C204.049 135.475 203.869 135.318 203.721 135.364C203.574 135.41 203.188 135.612 203.067 135.297C203.067 135.297 203.399 134.691 203.645 134.652C203.891 134.613 204.663 135.176 204.613 135.502Z" fill="#FF9330"/>
<path d="M202.632 134.821C202.596 134.908 202.583 135.003 202.597 135.096C202.597 135.096 202.477 135.043 202.478 134.95C202.479 134.857 202.632 134.821 202.632 134.821Z" fill="#FC6F0F"/>
<path d="M202.608 135.364C202.587 135.456 202.591 135.551 202.62 135.641C202.62 135.641 202.494 135.609 202.478 135.521C202.461 135.433 202.608 135.364 202.608 135.364Z" fill="#FC6F0F"/>
<path d="M201.595 135.392C201.574 135.484 201.578 135.579 201.607 135.668C201.607 135.668 201.48 135.637 201.465 135.547C201.449 135.456 201.595 135.392 201.595 135.392Z" fill="#FC6F0F"/>
<path d="M202.154 135.159C202.117 135.246 202.104 135.341 202.117 135.435C202.117 135.435 201.998 135.38 201.999 135.288C202 135.196 202.154 135.159 202.154 135.159Z" fill="#FC6F0F"/>
<path d="M202.103 135.672C202.082 135.764 202.086 135.86 202.115 135.949C202.115 135.949 201.988 135.918 201.973 135.826C201.957 135.735 202.103 135.672 202.103 135.672Z" fill="#FC6F0F"/>
<path d="M202.586 135.911C202.58 136.005 202.599 136.098 202.642 136.182C202.642 136.182 202.511 136.171 202.481 136.08C202.452 135.989 202.586 135.911 202.586 135.911Z" fill="#FC6F0F"/>
<path d="M201.543 135.754C201.646 135.746 201.765 135.872 201.797 135.926C201.829 135.98 201.634 136.09 201.573 136.105C201.512 136.12 201.385 135.966 201.366 135.926C201.348 135.886 201.492 135.758 201.543 135.754Z" fill="#FFA552"/>
<path d="M201.209 135.579C201.235 135.563 201.264 135.555 201.294 135.556C201.324 135.557 201.353 135.568 201.377 135.586C201.396 135.612 201.355 135.711 201.334 135.726C201.314 135.741 201.164 135.624 201.209 135.579Z" fill="#FFA552"/>
<path d="M190.343 133.342C190.706 133.342 191 133.051 191 132.692C191 132.333 190.706 132.042 190.343 132.042C189.981 132.042 189.687 132.333 189.687 132.692C189.687 133.051 189.981 133.342 190.343 133.342Z" fill="#BFD3E3"/>
<path d="M191.797 135.994C192.003 135.994 192.17 135.828 192.17 135.624C192.17 135.42 192.003 135.255 191.797 135.255C191.591 135.255 191.424 135.42 191.424 135.624C191.424 135.828 191.591 135.994 191.797 135.994Z" fill="#EBF0F5"/>
<path d="M194.413 132.286C194.413 132.335 194.399 132.382 194.372 132.422C194.345 132.462 194.306 132.493 194.261 132.512C194.216 132.53 194.166 132.535 194.118 132.526C194.071 132.516 194.027 132.493 193.992 132.459C193.958 132.425 193.934 132.381 193.925 132.334C193.915 132.287 193.92 132.237 193.939 132.193C193.957 132.148 193.989 132.11 194.03 132.083C194.07 132.056 194.118 132.042 194.167 132.042C194.232 132.042 194.295 132.068 194.341 132.114C194.387 132.159 194.413 132.222 194.413 132.286Z" fill="#EBF0F5"/>
<path d="M207.807 131.501C207.807 131.592 207.78 131.681 207.729 131.756C207.678 131.831 207.606 131.89 207.521 131.925C207.437 131.959 207.344 131.968 207.254 131.951C207.164 131.933 207.082 131.889 207.017 131.825C206.953 131.761 206.909 131.68 206.891 131.591C206.873 131.502 206.882 131.41 206.917 131.326C206.952 131.242 207.011 131.171 207.087 131.121C207.163 131.07 207.253 131.043 207.344 131.043C207.467 131.043 207.585 131.092 207.671 131.178C207.758 131.263 207.807 131.38 207.807 131.501Z" fill="#EBF0F5"/>
<path d="M210.077 134.904C210.36 134.904 210.59 134.676 210.59 134.395C210.59 134.114 210.36 133.887 210.077 133.887C209.793 133.887 209.563 134.114 209.563 134.395C209.563 134.676 209.793 134.904 210.077 134.904Z" fill="#BFD3E3"/>
<path d="M208.479 137.239C208.479 137.286 208.465 137.331 208.438 137.37C208.412 137.409 208.375 137.44 208.331 137.457C208.287 137.475 208.239 137.48 208.193 137.471C208.146 137.461 208.104 137.439 208.07 137.406C208.037 137.372 208.014 137.33 208.005 137.284C207.996 137.238 208.001 137.19 208.02 137.147C208.038 137.104 208.069 137.067 208.108 137.041C208.148 137.015 208.194 137.002 208.241 137.002C208.273 137.002 208.304 137.008 208.333 137.02C208.362 137.032 208.388 137.05 208.41 137.072C208.432 137.094 208.449 137.12 208.461 137.148C208.473 137.177 208.479 137.208 208.479 137.239Z" fill="#EBF0F5"/>
<path d="M205.58 139.287C205.58 139.347 205.562 139.406 205.528 139.456C205.495 139.507 205.446 139.546 205.39 139.569C205.334 139.592 205.272 139.598 205.212 139.586C205.152 139.574 205.097 139.545 205.054 139.503C205.011 139.46 204.982 139.405 204.97 139.346C204.958 139.287 204.964 139.226 204.987 139.17C205.011 139.114 205.05 139.066 205.101 139.033C205.152 138.999 205.211 138.981 205.272 138.981C205.354 138.981 205.432 139.014 205.49 139.071C205.548 139.128 205.58 139.206 205.58 139.287Z" fill="#BFD3E3"/>
<path d="M192.583 139.707C192.829 139.707 193.029 139.509 193.029 139.266C193.029 139.022 192.829 138.825 192.583 138.825C192.337 138.825 192.138 139.022 192.138 139.266C192.138 139.509 192.337 139.707 192.583 139.707Z" fill="#EBF0F5"/>
</g>
<path d="M189.646 192.418H222.552V145.061H189.646V192.418Z" fill="#AEC3FF"/>
<path d="M180.422 192.418H213.328V145.061H180.422V192.418Z" fill="#D2E0FF"/>
<path d="M182.187 146.407H211.559V189.805H182.187V146.407ZM211.241 146.721H182.504V189.491H211.241V146.721Z" fill="#AEC3FF"/>
<path d="M211.401 160.76H182.347V161.074H211.401V160.76Z" fill="#AEC3FF"/>
<path d="M211.401 175.405H182.347V175.719H211.401V175.405Z" fill="#AEC3FF"/>
<path d="M193.89 149.208H199.283C199.539 149.208 199.76 148.991 199.76 148.737C199.76 148.484 199.539 148.266 199.283 148.266H193.89C193.633 148.266 193.413 148.484 193.413 148.737C193.413 148.991 193.633 149.208 193.89 149.208Z" fill="#AEC3FF"/>
<path d="M193.89 163.512H199.283C199.539 163.512 199.76 163.295 199.76 163.041C199.76 162.788 199.539 162.57 199.283 162.57H193.89C193.633 162.57 193.413 162.788 193.413 163.041C193.413 163.307 193.633 163.512 193.89 163.512Z" fill="#AEC3FF"/>
<path d="M193.89 178.433H199.283C199.539 178.433 199.76 178.216 199.76 177.962C199.76 177.709 199.539 177.491 199.283 177.491H193.89C193.633 177.491 193.413 177.709 193.413 177.962C193.413 178.228 193.633 178.433 193.89 178.433Z" fill="#AEC3FF"/>
<path d="M224.995 193.711C224.993 194.422 224.415 194.998 223.704 194.998H1.2914C0.578188 194.998 0 194.419 0 193.706C0 192.993 0.578175 192.415 1.29139 192.415H223.704C224.419 192.415 224.998 192.996 224.995 193.711Z" fill="#2D5B98"/>
<path d="M199.867 64.1957L220.887 84.9466C221.623 85.6729 221.623 86.8142 220.887 87.5405L199.867 108.291C199.132 109.018 197.976 109.018 197.24 108.291L176.22 87.5405C175.484 86.8142 175.484 85.6729 176.22 84.9466L197.24 64.1957C197.976 63.4695 199.132 63.4695 199.867 64.1957Z" fill="#5896FA"/>
<path d="M197.734 85.877H206.838V77.9902L197.734 79.2375V85.877ZM197.028 85.877V79.3475L190.116 80.338V85.877H197.028ZM197.028 86.5007H190.116V92.1498L197.028 93.1402V86.5007ZM197.734 86.5007V93.2503L206.838 94.4975V86.5007H197.734Z" fill="white"/>
<path d="M148.805 22.8152H178.532C179.572 22.8152 180.39 23.6223 180.39 24.6494V53.9956C180.39 55.0227 179.572 55.8298 178.532 55.8298H148.805C147.765 55.8298 146.947 55.0227 146.947 53.9956V24.6494C146.947 23.6223 147.765 22.8152 148.805 22.8152Z" fill="#005CEA"/>
<path d="M165.081 30.1524L154.676 32.0965C154.49 32.1332 154.379 32.2799 154.379 32.4634V46.146C154.379 46.3295 154.49 46.4762 154.676 46.5129L165.081 48.4571C165.118 48.4571 165.118 48.4571 165.155 48.4571C165.229 48.4571 165.304 48.4204 165.378 48.3837C165.452 48.3103 165.526 48.2003 165.526 48.0902V30.4825C165.526 30.3724 165.489 30.2624 165.378 30.189C165.266 30.1157 165.192 30.1524 165.081 30.1524ZM166.27 34.1875V38.6628L166.938 39.1763L172.624 35.8382V34.5543C172.624 34.3342 172.475 34.1875 172.252 34.1875H166.27ZM159.878 35.8382C160.77 35.8382 161.476 36.1683 162.034 36.7919C162.591 37.4155 162.851 38.2226 162.851 39.2497C162.851 40.3135 162.554 41.1572 161.996 41.7808C161.439 42.4411 160.696 42.7712 159.804 42.7712C158.912 42.7712 158.206 42.4411 157.649 41.8175C157.091 41.1939 156.794 40.3868 156.794 39.3597C156.794 38.2959 157.091 37.4522 157.649 36.7919C158.206 36.1316 158.949 35.8382 159.878 35.8382ZM172.587 36.6819L167.087 39.91C167.013 39.9467 166.938 39.9467 166.901 39.9467C166.827 39.9467 166.753 39.91 166.678 39.8733L166.307 39.5798V44.0918H167.087C167.087 44.2019 167.05 44.3486 167.05 44.4586C167.05 46.0727 168.388 47.3933 170.023 47.3933C171.658 47.3933 172.995 46.0727 172.995 44.4586C172.995 43.9451 172.847 43.4315 172.624 43.028V42.9913V36.6819H172.587ZM159.841 37.1588C159.358 37.1588 158.949 37.3422 158.652 37.7457C158.355 38.1492 158.206 38.6628 158.206 39.323C158.206 39.9833 158.355 40.5336 158.652 40.9004C158.949 41.3039 159.321 41.4873 159.804 41.4873C160.287 41.4873 160.659 41.3039 160.956 40.9371C161.253 40.5703 161.402 40.0567 161.402 39.3597C161.402 38.6628 161.253 38.1125 160.993 37.7457C160.696 37.3422 160.324 37.1588 159.841 37.1588ZM169.985 42.2577C171.212 42.2577 172.215 43.2481 172.215 44.4586C172.215 45.6692 171.212 46.6596 169.985 46.6596C168.759 46.6596 167.756 45.6692 167.756 44.4586C167.756 43.2481 168.759 42.2577 169.985 42.2577ZM169.614 42.6245V45.1923H171.472V44.4586H170.357V42.6245H169.614Z" fill="white"/>
<ellipse cx="112.281" cy="17.8649" rx="18.0959" ry="17.8642" fill="#2E77E6"/>
<path d="M120.524 9.6093C121.676 9.6093 122.749 10.5114 122.948 11.6095C122.987 11.7664 122.987 11.9625 122.987 12.1194C122.987 15.1001 122.987 18.0808 122.948 21.0615C122.948 22.2774 121.994 23.3363 120.763 23.5324C120.524 23.5716 120.326 23.5716 120.087 23.5716C119.968 23.5716 119.889 23.5324 119.928 23.4147C119.928 23.2186 119.928 23.1402 119.928 22.9049C119.928 22.8264 119.889 22.7088 120.127 22.7088C120.485 22.6696 120.763 22.7088 121.081 22.5519C121.756 22.2381 122.074 21.6891 122.074 20.9439C122.074 18.5515 122.074 16.159 122.113 13.8058C122.113 13.296 122.113 12.7861 122.113 12.2763C122.153 11.2565 121.359 10.4721 120.286 10.4721C118.061 10.4721 115.876 10.4721 113.651 10.4721C110.393 10.4721 107.136 10.4329 103.918 10.4329C103.401 10.4329 102.925 10.5506 102.527 10.9428C102.209 11.2958 102.011 11.688 102.011 12.1586C102.011 13.649 102.011 15.1785 102.011 16.6689C102.011 18.0808 102.011 19.532 102.011 20.9439C102.011 21.8459 102.527 22.4735 103.401 22.6696C103.6 22.7088 103.799 22.748 103.957 22.7088C104.077 22.7088 104.116 22.6696 104.116 22.8264C104.116 23.0225 104.116 23.2186 104.116 23.4147C104.116 23.4932 104.116 23.5324 103.997 23.5324C102.805 23.6108 101.733 23.0225 101.296 21.8852C101.176 21.6106 101.137 21.3361 101.137 21.0615C101.137 18.0808 101.137 15.1001 101.137 12.1194C101.137 10.7075 102.329 9.57008 103.719 9.57008C106.5 9.57008 109.241 9.64852 112.062 9.64852C112.062 9.64852 117.743 9.6093 120.524 9.6093Z" fill="white"/>
<path d="M112.937 17.573C112.937 17.3769 113.016 17.22 113.135 17.0631C113.612 16.5925 114.089 16.1219 114.565 15.6904C114.883 15.3767 115.241 15.3767 115.519 15.6512C116.035 16.1219 116.552 16.6317 117.029 17.1416C117.267 17.4161 117.267 17.7691 116.989 18.0436C116.512 18.5535 115.996 19.0241 115.479 19.4948C115.201 19.7693 114.804 19.7301 114.526 19.4556C114.049 18.9849 113.572 18.5143 113.096 18.0436C113.016 17.9652 112.897 17.7691 112.937 17.573Z" fill="white"/>
<path d="M118.101 18.4724C118.34 18.4724 118.499 18.59 118.657 18.7077C119.094 19.1391 119.571 19.6098 120.008 20.0412C120.366 20.3942 120.366 20.7472 120.008 21.1394C119.571 21.5708 119.134 22.0022 118.657 22.4336C118.3 22.7866 117.942 22.7866 117.585 22.4336C117.108 22.0022 116.671 21.5315 116.234 21.0609C115.876 20.7079 115.916 20.355 116.234 20.002C116.671 19.5706 117.148 19.0999 117.585 18.6685C117.744 18.5901 117.903 18.4724 118.101 18.4724Z" fill="white"/>
<path d="M115.042 25.7298C114.923 25.7298 114.684 25.6514 114.565 25.5337C114.048 25.0239 113.572 24.5532 113.095 24.0434C112.857 23.7688 112.857 23.4159 113.135 23.1413C113.611 22.6315 114.128 22.1608 114.644 21.6902C114.962 21.4156 115.32 21.4156 115.638 21.7686C116.075 22.2 116.512 22.6315 116.949 23.1021C116.988 23.1413 117.028 23.1805 117.068 23.2197C117.267 23.4943 117.266 23.8473 117.028 24.1218C116.551 24.6317 116.035 25.1023 115.518 25.5729C115.36 25.6906 115.28 25.7298 115.042 25.7298Z" fill="white"/>
<path d="M113.929 20.0818C112.459 18.6307 110.989 17.1403 109.519 15.6892C109.201 15.3754 108.804 15.3754 108.486 15.6892C106.976 17.1403 105.507 18.5915 103.997 20.0818C103.878 20.1995 103.758 20.3564 103.798 20.5525C103.758 20.7486 103.838 20.9447 103.997 21.0623C105.467 22.5527 106.977 24.0038 108.446 25.4942C108.764 25.808 109.122 25.808 109.44 25.4942C110.949 24.0431 112.419 22.5919 113.929 21.1015C114.247 20.7878 114.247 20.3956 113.929 20.0818ZM110.91 21.1015C110.433 21.5722 109.956 22.0428 109.479 22.5135C109.162 22.788 108.804 22.788 108.486 22.5135C108.009 22.0428 107.533 21.5722 107.056 21.1015C106.738 20.7878 106.778 20.3956 107.096 20.0818C107.572 19.6112 108.009 19.1798 108.486 18.7091C108.645 18.5522 108.804 18.4738 109.003 18.4738C109.201 18.4738 109.36 18.513 109.479 18.6699C109.996 19.1798 110.473 19.6504 110.989 20.1603C111.227 20.3956 111.188 20.7878 110.91 21.1015Z" fill="white"/>
<path d="M44.792 23.6762H70.761C71.6699 23.6762 72.384 24.3812 72.384 25.2785V50.915C72.384 51.8122 71.6699 52.5172 70.761 52.5172H44.792C43.8831 52.5172 43.1689 51.8122 43.1689 50.915V25.2785C43.1689 24.3812 43.9156 23.6762 44.792 23.6762Z" fill="#005CEA"/>
<path d="M67.002 36.0134V41.0022C67.002 42.4329 65.813 43.6067 64.3638 43.6067C63.955 43.6067 63.5835 43.5333 63.249 43.3499C63.3233 43.0565 63.3605 42.7263 63.3605 42.3962V36.0134H67.002Z" fill="white"/>
<path d="M62.578 36.0134V42.3962C62.578 44.5971 60.7572 46.3946 58.5277 46.3946C57.413 46.3946 56.4097 45.9544 55.6665 45.2207C55.1091 44.6705 54.7376 43.9735 54.5518 43.2032H56.8927C58.0075 43.2032 58.8993 42.3228 58.8993 41.2223V36.05H62.578V36.0134Z" fill="white"/>
<path d="M56.9312 32.8227H49.6481C48.9793 32.8227 48.4219 33.373 48.4219 34.0333V41.2231C48.4219 41.8834 48.9793 42.4336 49.6481 42.4336H56.9312C57.6 42.4336 58.1574 41.8834 58.1574 41.2231V34.0333C58.1203 33.373 57.6 32.8227 56.9312 32.8227ZM51.2459 36.0141V35.2071H55.2962V36.0141H53.6984V40.0126H52.8809V36.0141H51.2459Z" fill="white"/>
<path d="M60.9454 32.235C60.9454 33.4456 60.0907 34.4727 58.9388 34.7661V34.0325C58.9388 32.932 58.047 32.0516 56.9322 32.0516H55.7432C55.8546 30.6943 56.9694 29.6672 58.3443 29.6672C59.7934 29.6305 60.9454 30.8044 60.9454 32.235Z" fill="white"/>
<path d="M64.3989 34.8395C65.4045 34.8395 66.2197 34.0347 66.2197 33.042C66.2197 32.0493 65.4045 31.2446 64.3989 31.2446C63.3933 31.2446 62.5781 32.0493 62.5781 33.042C62.5781 34.0347 63.3933 34.8395 64.3989 34.8395Z" fill="white"/>
<path d="M4.90977 82.4293L22.4504 65.1132C23.0643 64.5072 24.029 64.5072 24.643 65.1132L42.1836 82.4293C42.7975 83.0353 42.7975 83.9877 42.1836 84.5938L24.643 101.91C24.029 102.516 23.0643 102.516 22.4504 101.91L4.90977 84.5938C4.29584 83.9877 4.29584 83.0353 4.90977 82.4293Z" fill="#5896FA"/>
<path d="M29.22 77.2043H17.8402C16.6929 77.2043 15.7627 78.1227 15.7627 79.2553V86.0508C15.7627 87.061 16.5069 87.8875 17.4991 88.0712V87.3671C16.91 87.2141 16.4759 86.6937 16.4759 86.0508V79.2553C16.4759 78.49 17.096 77.9084 17.8402 77.9084H29.22C29.9952 77.9084 30.5844 78.5206 30.5844 79.2553V86.0508C30.5844 86.6937 30.1503 87.2141 29.5611 87.3671V88.0712C30.5534 87.9181 31.2976 87.061 31.2976 86.0508V79.2553C31.2976 78.1227 30.3673 77.2043 29.22 77.2043Z" fill="white"/>
<path d="M22.1495 89.7851C21.6843 89.7851 21.2812 89.4178 21.2812 88.928V82.8059C21.2812 82.3467 21.6533 81.9488 22.1495 81.9488C22.6146 81.9488 23.0177 82.3161 23.0177 82.8059V88.928C23.0177 89.4178 22.6146 89.7851 22.1495 89.7851Z" fill="white"/>
<path d="M24.9102 89.7855C24.4451 89.7855 24.042 89.4182 24.042 88.9284V84.1531C24.042 83.694 24.4141 83.296 24.9102 83.296C25.3753 83.296 25.7784 83.6634 25.7784 84.1531V88.9284C25.7784 89.4182 25.3753 89.7855 24.9102 89.7855Z" fill="white"/>
<path d="M19.3907 89.7854C18.9256 89.7854 18.5225 89.418 18.5225 88.9283V85.8672C18.5225 85.408 18.8946 85.0101 19.3907 85.0101C19.8558 85.0101 20.2589 85.3774 20.2589 85.8672V88.9283C20.2589 89.418 19.8868 89.7854 19.3907 89.7854Z" fill="white"/>
<path d="M27.67 89.7857C27.2049 89.7857 26.8018 89.4183 26.8018 88.9286V80.7555C26.8018 80.2964 27.1738 79.8984 27.67 79.8984C28.1351 79.8984 28.5382 80.2657 28.5382 80.7555V88.9286C28.5382 89.4183 28.1351 89.7857 27.67 89.7857Z" fill="white"/>
</g>
<defs>
<linearGradient id="paint0_linear" x1="126.34" y1="880.106" x2="-1167.43" y2="880.106" gradientUnits="userSpaceOnUse">
<stop stop-color="#FFF7EE"/>
<stop offset="0.44" stop-color="#EBDEDE"/>
<stop offset="1" stop-color="#D5C1CC"/>
</linearGradient>
<linearGradient id="paint1_linear" x1="133.072" y1="1346.54" x2="91.5868" y2="1346.54" gradientUnits="userSpaceOnUse">
<stop stop-color="#FFF7EE"/>
<stop offset="0.44" stop-color="#EBDEDE"/>
<stop offset="1" stop-color="#D5C1CC"/>
</linearGradient>
<clipPath id="clip0">
<rect width="225" height="195" fill="white"/>
</clipPath>
<clipPath id="clip1">
<rect width="26.1628" height="33.1457" fill="white" transform="matrix(-1 0 0 1 159.593 160.564)"/>
</clipPath>
<clipPath id="clip2">
<rect width="27.907" height="20.2318" fill="white" transform="translate(185.755 121.82)"/>
</clipPath>
</defs>
</svg>
