<svg width="688" height="454" viewBox="0 0 688 454" fill="none" xmlns="http://www.w3.org/2000/svg">
<path fill-rule="evenodd" clip-rule="evenodd" d="M141.603 446H455.397C498.918 404.513 526 345.87 526 280.94C526 155.043 424.154 53 298.5 53C172.846 53 71 155.043 71 280.94C71 345.87 98.0817 404.513 141.603 446Z" fill="#DEECF9"/>
<path d="M368.564 144.153H315.438C312.984 144.153 311 142.169 311 139.714V88.4383C311 85.9838 312.984 84 315.438 84H368.564C371.018 84 373.002 85.9838 373.002 88.4383V139.714C373.002 142.135 370.985 144.153 368.564 144.153Z" fill="#C0D8FB"/>
<path d="M366.241 141.532H317.722C315.503 141.532 313.688 139.717 313.688 137.498V90.6598C313.688 88.4407 315.503 86.625 317.722 86.625H366.241C368.461 86.625 370.276 88.4407 370.276 90.6598V137.464C370.31 139.717 368.494 141.532 366.241 141.532Z" fill="#DFEBFD"/>
<path d="M340.723 92.098C340.723 91.3919 341.294 90.8203 342 90.8203C342.706 90.8203 343.278 91.3919 343.278 92.098C343.278 92.8041 342.706 93.3757 342 93.3757C341.294 93.3757 340.723 92.8041 340.723 92.098Z" fill="#B7D3F3"/>
<path d="M351.081 93.9122C351.417 93.307 352.19 93.0716 352.829 93.4078C353.434 93.7441 353.67 94.5174 353.334 95.1563C352.997 95.7615 352.224 95.9969 351.585 95.6606C350.946 95.3244 350.745 94.551 351.081 93.9122Z" fill="#B7D3F3"/>
<path d="M359.953 100.982C360.558 100.612 361.332 100.78 361.735 101.352C362.105 101.957 361.937 102.73 361.365 103.134C360.76 103.503 359.987 103.335 359.583 102.764C359.18 102.159 359.348 101.352 359.953 100.982Z" fill="#B7D3F3"/>
<path d="M364.355 111.879C365.061 111.879 365.633 112.451 365.633 113.157C365.633 113.863 365.061 114.434 364.355 114.434C363.649 114.434 363.078 113.863 363.078 113.157C363.044 112.484 363.649 111.879 364.355 111.879Z" fill="#B7D3F3"/>
<path d="M362.104 124.546C362.609 125.051 362.609 125.858 362.104 126.362C361.6 126.866 360.793 126.866 360.288 126.362C359.784 125.858 359.784 125.051 360.288 124.546C360.793 124.042 361.6 124.042 362.104 124.546Z" fill="#B7D3F3"/>
<path d="M354.036 132.652C354.54 133.156 354.54 133.963 354.036 134.467C353.531 134.972 352.724 134.972 352.22 134.467C351.716 133.963 351.716 133.156 352.22 132.652C352.724 132.147 353.531 132.147 354.036 132.652Z" fill="#B7D3F3"/>
<path d="M340.723 136.801C340.723 136.095 341.294 135.523 342 135.523C342.706 135.523 343.278 136.095 343.278 136.801C343.278 137.507 342.706 138.079 342 138.079C341.294 138.079 340.723 137.541 340.723 136.801Z" fill="#B7D3F3"/>
<path d="M332.887 93.9122C332.551 93.307 331.778 93.0716 331.139 93.4078C330.534 93.7441 330.298 94.5174 330.634 95.1563C330.971 95.7615 331.744 95.9969 332.383 95.6606C333.022 95.3244 333.224 94.551 332.887 93.9122Z" fill="#B7D3F3"/>
<path d="M324.018 100.982C323.412 100.612 322.639 100.78 322.236 101.352C321.866 101.957 322.034 102.73 322.605 103.134C323.211 103.503 323.984 103.335 324.387 102.764C324.791 102.159 324.623 101.352 324.018 100.982Z" fill="#B7D3F3"/>
<path d="M319.612 111.867C318.906 111.867 318.334 112.439 318.334 113.145C318.334 113.851 318.906 114.423 319.612 114.423C320.318 114.423 320.889 113.851 320.889 113.145C320.889 112.472 320.318 111.867 319.612 111.867Z" fill="#B7D3F3"/>
<path d="M321.863 124.535C321.358 125.039 321.358 125.846 321.863 126.35C322.367 126.855 323.174 126.855 323.678 126.35C324.183 125.846 324.183 125.039 323.678 124.535C323.174 124.03 322.367 124.03 321.863 124.535Z" fill="#B7D3F3"/>
<path d="M329.935 132.652C329.431 133.156 329.431 133.963 329.935 134.467C330.439 134.972 331.246 134.972 331.751 134.467C332.255 133.963 332.255 133.156 331.751 132.652C331.246 132.147 330.439 132.147 329.935 132.652Z" fill="#B7D3F3"/>
<path d="M341.668 113.168C341.668 112.462 342.24 111.891 342.946 111.891C343.652 111.891 344.223 112.462 344.223 113.168C344.223 113.874 343.652 114.446 342.946 114.446C342.24 114.446 341.668 113.874 341.668 113.168Z" fill="#B7D3F3"/>
<path d="M343.11 97.1367H342.773V113.175H343.11V97.1367Z" fill="#B7D3F3"/>
<path d="M350.955 106.058L342.465 112.723L343.108 113.543L351.598 106.878L350.955 106.058Z" fill="#B7D3F3"/>
<path d="M256.788 399.004C256.788 399.004 260.826 409.801 259.957 413.811C259.087 417.821 260.49 425.561 258.835 429.038C257.18 432.516 254.264 437.564 257.068 438.826C258.134 439.302 270.529 429.683 271.23 426.851C271.931 424.019 272.492 415.634 274.876 411.091C277.26 406.548 275.268 402.874 271.819 401.219C268.398 399.537 263.602 390.395 263.602 390.395L256.788 399.004Z" fill="#223156"/>
<path d="M388.48 447.41H388.648C390.134 447.382 391.256 446.176 391.116 444.802L381.273 346.594L372.691 347.351L386.797 446.064C386.937 446.849 387.639 447.41 388.48 447.41Z" fill="#AEC3FF"/>
<path d="M293.806 447.41H293.638C292.152 447.382 291.03 446.176 291.17 444.802L301.013 346.594L309.595 347.351L295.489 446.064C295.32 446.849 294.619 447.41 293.806 447.41Z" fill="#AEC3FF"/>
<path d="M224.425 447.41H224.257C222.771 447.382 221.649 446.176 221.789 444.802L231.632 346.594L240.214 347.351L226.108 446.064C225.968 446.849 225.267 447.41 224.425 447.41Z" fill="#AEC3FF"/>
<path d="M385.536 332.32L402.979 246.142C405.223 234.476 395.548 223.792 382.984 224.1L349.332 224.857C337.722 225.11 327.626 232.906 324.401 244.039L298.854 332.32H385.536Z" fill="#D2E0FF"/>
<path d="M374.989 332.32L392.432 246.142C394.676 234.476 385.001 223.792 372.437 224.1L338.785 224.857C327.175 225.11 317.079 232.906 313.854 244.039L288.307 332.32H374.989Z" fill="#AEC3FF"/>
<path d="M380.684 348.025H247.506C244.842 348.025 242.654 345.837 242.654 343.173V337.172C242.654 334.508 244.842 332.32 247.506 332.32H385.536V343.173C385.536 345.837 383.348 348.025 380.684 348.025Z" fill="#D2E0FF"/>
<path d="M318.175 348.025H233.287C231.128 348.025 229.361 346.259 229.361 344.099V336.219C229.361 334.06 231.128 332.293 233.287 332.293H318.175C320.334 332.293 322.101 334.06 322.101 336.219V344.099C322.101 346.259 320.334 348.025 318.175 348.025Z" fill="#AEC3FF"/>
<path d="M323.7 297.04C323.7 297.04 252.89 295.918 243.439 301.92C233.989 307.921 252.89 403.858 252.89 403.858C252.89 403.858 271.202 404.447 272.66 399.595C272.66 399.595 269.379 354.641 272.24 346.873C275.128 339.105 273.333 328.337 273.333 328.337C273.333 328.337 309.145 333.805 320.531 331.113C331.916 328.449 323.7 297.04 323.7 297.04Z" fill="#2C3A64"/>
<path d="M244.757 415.75C244.757 415.75 240.887 426.603 237.634 429.099C234.409 431.594 230.455 438.437 226.95 440.008C223.472 441.606 217.976 443.569 219.294 446.345C219.799 447.411 235.475 448.056 237.859 446.345C240.242 444.635 246.047 438.605 250.815 436.642C255.554 434.707 256.395 430.613 254.853 427.136C253.311 423.658 255.554 413.562 255.554 413.562L244.757 415.75Z" fill="#163560"/>
<path d="M363.858 294.516C363.858 294.516 279.84 307.668 273.362 315.128C266.884 322.615 241.252 419.982 241.252 419.982C241.252 419.982 248.74 424.189 255.554 420.291C255.554 420.291 275.072 387.284 283.71 376.935C292.347 366.587 295.628 334.534 297.058 334.225C298.489 333.889 343.695 339.694 360.353 328.673C370.168 322.195 363.858 294.516 363.858 294.516Z" fill="#35488B"/>
<path d="M285.814 276.482C285.814 276.482 282.842 276.706 280.739 275.388C280.037 274.939 275.102 273.229 272.83 274.266C270.559 275.276 265.819 278.781 267.109 279.819C268.399 280.856 272.606 280.239 273.644 279.903C274.681 279.566 276.42 282.118 278.271 281.978C280.122 281.838 282.758 280.828 286.684 281.445C290.61 282.062 289.937 276.426 289.376 275.921C288.815 275.416 285.814 276.482 285.814 276.482Z" fill="#FFB27D"/>
<path d="M281.665 276.117C281.665 276.117 278.3 273.397 277.234 272.415C276.168 271.434 275.804 271.574 275.664 272.191C275.551 272.808 278.188 274.883 277.374 276.566C276.589 278.276 282.058 277.211 281.665 276.117Z" fill="#FFB27D"/>
<path d="M358.166 250.515L357.941 250.122C362.064 247.85 365.233 245.186 367.28 242.214C368.934 239.858 369.888 237.278 370.168 234.558C370.617 229.931 368.878 226.509 368.85 226.453V225.977C368.934 226.117 371.486 229.706 371.01 234.474C370.729 237.25 369.72 240.082 368.037 242.522C365.906 245.551 362.344 248.215 358.166 250.515Z" fill="#163560"/>
<path d="M302.331 175.638C309.483 173.199 311.642 173.563 316.129 173.479C322.691 173.339 329.814 170.675 333.264 177.686C338.48 188.286 341.929 179.873 353.623 184.724C365.317 189.576 359.961 199.924 358.755 202.841C353.371 215.572 367.449 220.732 369.804 227.996C372.188 235.259 363.522 248.243 352.333 248.411C341.144 248.579 289.263 242.186 294.227 224.799C299.191 207.412 290.048 197.961 289.291 193.446C288.31 187.669 292.208 179.116 302.331 175.638Z" fill="#241A1A"/>
<path d="M367.194 301.499C360.492 302.424 354.266 303.321 348.489 304.163C336.963 305.817 316.436 303.321 316.351 300.517C316.211 295.918 317.81 291.038 318.146 286.467C318.314 284.28 318.174 282.177 317.445 280.186C317.193 279.513 316.884 278.755 316.52 277.886C315.791 276.147 314.921 274.1 314.024 271.885C313.519 270.623 313.014 269.333 312.538 268.015C312.313 267.426 312.117 266.837 311.921 266.248C311.864 266.108 311.836 265.996 311.78 265.855C311.64 265.435 311.5 264.986 311.36 264.565C311.248 264.145 311.107 263.752 310.995 263.331C310.603 261.873 310.266 260.443 310.042 259.069C309.873 257.975 309.789 256.938 309.789 255.956C309.817 251.553 307.434 250.291 304.545 249.871C303.255 249.674 301.881 249.646 300.535 249.59C299.469 249.534 298.46 249.478 297.534 249.282C295.599 248.861 293.552 238.148 296.076 232.652C296.861 230.969 298.067 229.763 299.862 229.539H299.89C303.115 229.118 308.247 228.081 312.622 226.482C313.743 226.062 328.438 221.575 329.364 221.491C337.132 220.705 344.114 219.92 351.322 225.557C368.905 239.298 367.25 301.386 367.194 301.499Z" fill="#F99746"/>
<path d="M291.648 198.718C290.273 197.541 287.357 194.792 287.217 191.175C287.104 188.062 288.647 184.837 291.844 181.64C296.92 176.564 302.024 174.32 305.417 173.339C309.091 172.273 316.129 173.872 316.242 173.872L313.998 174.433C310.381 173.031 301.715 172.245 292.18 181.976C289.124 185.089 287.862 187.641 288.002 190.642C288.142 194.091 290.273 195.914 291.591 197.036C291.648 197.092 293.358 197.512 293.358 197.512C293.358 197.512 291.676 198.746 291.648 198.718Z" fill="#241A1A"/>
<path d="M321.483 230.911C314.949 232.594 314.052 230.378 313.154 227.994C312.79 227.013 312.285 225.246 311.696 223.171C311.444 222.302 311.191 221.348 310.911 220.395C310.378 218.516 309.761 216.609 309.256 215.123C308.723 213.496 308.303 212.402 308.303 212.402L320.782 206.036L321.511 205.672C324.4 215.964 328.634 219.834 329.391 221.488C330.99 224.994 325.746 229.817 321.483 230.911Z" fill="#FFB27D"/>
<path d="M321.904 210.75C321.371 214.928 318.931 220.846 311.696 223.201C311.443 222.332 311.191 221.378 310.91 220.425C310.378 218.546 309.761 216.639 309.256 215.153L321.904 210.75Z" fill="#F4A269"/>
<path d="M291.459 218.21C291.459 218.21 294.084 216.339 294.614 215.782C295.145 215.224 296.675 210.463 298.853 209.74C301.031 209.017 306.445 208.362 306.197 209.874C305.972 211.4 302.759 213.659 301.854 214.073C300.948 214.486 301.367 217.337 300.032 218.409C298.698 219.48 295.504 220.478 293.255 223.364C291.006 226.25 288.66 222.043 288.738 221.358C288.832 220.649 291.459 218.21 291.459 218.21Z" fill="#FFB27D"/>
<path d="M298.759 219.173L298 204L305.2 205.5L305.938 219.791C305.97 220.419 305.423 220.92 304.801 220.834L299.62 220.114C299.144 220.048 298.783 219.653 298.759 219.173Z" fill="#E8EBFE"/>
<path d="M308.332 220.842C308.332 220.842 325.832 215.822 322.522 204.998C319.241 194.145 319.269 186.209 307.968 188.929C296.666 191.677 295.769 196.472 295.965 200.342C296.218 204.24 303.705 221.88 308.332 220.842Z" fill="#FFB27D"/>
<path d="M312.246 213.931C312.246 213.931 312.43 215.506 308.729 216.595C308.729 216.595 305.624 217.509 305.137 215.879C305.147 215.876 307.673 213.676 312.246 213.931Z" fill="white"/>
<path d="M306.454 192.048C301.574 194.768 300.733 199.423 295.404 200.012C291.03 200.517 288.842 188.402 297.956 183.719C309.005 178.026 307.575 173.96 312.343 173.511C320.223 172.782 325.944 198.974 325.495 199.507C325.074 200.04 323.167 203.966 323.167 203.966C323.167 203.966 320.223 202.171 320.475 201.022C321.26 197.404 318.456 194.207 316.129 196.955C314.222 199.255 309.931 190.085 306.454 192.048Z" fill="#241A1A"/>
<path d="M295.95 223.502C295.95 223.502 294.635 226.335 290.781 231.658C289.502 233.442 288.034 235.361 286.438 237.377C285.832 238.135 285.263 238.85 284.713 239.491C284.706 239.516 284.676 239.534 284.67 239.558C279.372 245.766 276.028 247.397 272.666 247.126C271.266 247.009 269.891 246.794 268.876 246.176C267.202 245.185 266.39 243.137 267.755 238.828C269.942 231.866 293.602 213.066 293.602 213.066C295.057 213.898 295.71 215.75 295.99 217.639C296.386 220.519 295.95 223.502 295.95 223.502Z" fill="#F99746"/>
<path d="M299.5 230C299.5 230 273.282 239.475 269.132 239.839C264.981 240.204 271 247 271 247C271 247 287 250.159 307.5 249.991C327.971 249.823 299.5 230 299.5 230Z" fill="#F99746"/>
<path d="M360.802 192.1C359.876 187.725 357.156 183.322 353.062 181.808C349.949 180.658 345.855 180.378 341.228 180.995C339.012 181.303 337.049 180.799 335.366 179.565C334.161 178.639 332.871 176.901 332.814 176.816L333.347 178.303C332.646 179.368 333.544 179.452 334.89 180.462C336.124 181.387 338.311 181.948 341.284 181.556C345.799 180.939 349.22 181.359 352.249 182.481C355.53 183.687 357.913 185.622 359.147 188.679C359.372 189.268 359.568 189.885 359.708 190.558L360.746 192.016L360.802 192.1Z" fill="#163560"/>
<path d="M294.25 226.078C293.203 227.988 291.771 231.049 289.909 233.223C289.203 234.039 288.54 234.809 287.901 235.499C287.75 235.514 287.635 235.509 287.492 235.497C286.487 235.437 285.745 235.279 285.249 235.075C283.339 234.313 284.418 232.817 286.294 232.196C288.625 231.416 294.138 226.162 294.25 226.078Z" fill="#ED7D2B"/>
<path d="M346.806 257.328C346.806 257.328 336.795 283.212 318.146 286.465C318.314 284.278 318.174 282.175 317.445 280.184C317.193 279.511 316.884 278.753 316.52 277.884C317.613 277.351 318.37 277.043 318.37 277.043L346.806 257.328Z" fill="#ED7D2B"/>
<path d="M331.103 247.766L321.905 271.911H314.025C313.52 270.649 313.015 269.359 312.538 268.041C312.314 267.452 312.118 266.863 311.921 266.274C311.865 266.134 311.837 266.022 311.781 265.882C317.222 264.059 326.756 254.468 331.103 247.766Z" fill="#ED7D2B"/>
<path d="M344.002 228.582C344.002 228.582 321.876 264.029 312.509 268.011C307.181 270.283 283.176 275.443 283.176 275.443L283.653 280.771C283.653 280.771 318.034 282.033 321.848 280.771C333.093 277.069 351.322 252.559 351.322 252.559L344.002 228.582Z" fill="#F99746"/>
<path d="M255.975 280.774H295.404C295.404 279.035 294.002 277.633 292.263 277.633H255.975V280.774Z" fill="#D7D2D2"/>
<path d="M256.086 237.809H195.119L209.73 280.771H271.089L256.086 237.809Z" fill="#D7D2D2"/>
<path d="M194.223 237.809L208.833 280.771H270.192L255.189 237.809H194.223Z" fill="#E3E3E3"/>
<path d="M194 238L209 281H253C221.339 271.8 212.909 243.75 211.497 238H194Z" fill="#D7D2D2"/>
<path d="M227.089 258.898C227.482 260.553 229.108 261.871 230.735 261.871C232.389 261.871 233.399 260.553 233.006 258.898C232.614 257.244 230.987 255.926 229.36 255.926C227.734 255.926 226.696 257.244 227.089 258.898Z" fill="white"/>
<path d="M184.126 277.379H185.752V249.391L169.123 206.961L198.821 183.966L197.839 182.676L167.188 206.429L184.126 249.7V277.379Z" fill="#6980E2"/>
<path d="M202.187 186.882C202.944 186.349 203.112 185.312 202.579 184.583L200.112 181.105C199.579 180.348 198.541 180.18 197.812 180.713C197.055 181.245 196.887 182.283 197.42 183.012L199.887 186.489C200.392 187.247 201.43 187.415 202.187 186.882Z" fill="#6980E2"/>
<path d="M170.694 206.487C170.694 205.31 169.74 204.328 168.534 204.328C167.357 204.328 166.375 205.282 166.375 206.487C166.375 207.665 167.328 208.647 168.534 208.647C169.712 208.619 170.694 207.665 170.694 206.487Z" fill="#6980E2"/>
<path d="M177.061 281.222H193.41V279.567C193.41 277.913 192.064 276.566 190.409 276.566H180.173C178.435 276.566 177.061 277.969 177.061 279.679V281.222Z" fill="#6980E2"/>
<path d="M183.27 277.383H186.691V251.387H183.27V277.383Z" fill="#6980E2"/>
<path d="M198.485 211.026C198.569 211.111 198.653 211.195 198.709 211.279L198.737 211.307C198.822 211.391 198.878 211.475 198.962 211.559C201.177 213.494 208.553 210.045 215.676 203.679C222.799 197.313 227.033 190.386 225.379 187.975C225.323 187.891 225.239 187.806 225.154 187.722L225.126 187.694C225.042 187.61 224.986 187.526 224.902 187.442C218.368 180.151 207.178 179.534 199.887 186.04C192.596 192.518 191.979 203.735 198.485 211.026Z" fill="#F99746"/>
<path d="M198.737 211.277C198.765 211.334 198.793 211.362 198.821 211.39C198.877 211.446 198.933 211.502 198.989 211.558C201.205 213.493 208.58 210.044 215.675 203.65C222.798 197.284 227.061 190.357 225.378 187.945C225.322 187.889 225.294 187.833 225.238 187.777C225.21 187.749 225.182 187.721 225.154 187.693L225.126 187.665C223.611 186.235 219.517 187.497 214.722 190.609C212.675 191.927 210.515 193.582 208.384 195.489C206.701 197.003 205.187 198.546 203.841 200.032C199.55 204.94 197.363 209.455 198.737 211.277Z" fill="#F9DDBF"/>
<path d="M203.869 200.032C205.131 201.07 206.73 201.687 208.496 201.687C212.535 201.687 215.788 198.405 215.788 194.395C215.788 193.021 215.395 191.703 214.722 190.609C212.675 191.927 210.515 193.582 208.384 195.489C206.702 197.003 205.187 198.546 203.869 200.032Z" fill="#FFEFE1"/>
<path d="M163.72 290.004H430.28C432.329 290.004 434 288.042 434 285.635V285.373C434 282.966 432.329 281.004 430.28 281.004H163.72C161.671 281.004 160 282.966 160 285.373V285.635C160 288.042 161.671 290.004 163.72 290.004Z" fill="#78ACEA"/>
<path d="M166.683 449.596L166.571 449.568C165.197 449.4 164.244 448.166 164.412 446.848L185.248 285.598L196.942 285.934L168.927 447.969C168.759 449.007 167.749 449.708 166.683 449.596Z" fill="#78ACEA"/>
<path d="M431.259 449.596L431.371 449.568C432.745 449.4 433.699 448.166 433.53 446.848L412.694 285.598L401 285.934L429.015 447.969C429.212 449.007 430.193 449.708 431.259 449.596Z" fill="#78ACEA"/>
<g clip-path="url(#clip0)">
<path d="M351.926 410.742C351.926 410.742 356.183 424.85 357.616 428.736C359.048 432.621 358.848 440.658 358.848 442.064C358.848 443.47 356.776 443.031 356.343 445.323C355.91 447.616 358.455 447.476 360.141 447.476C361.613 447.476 362.932 445.83 362.932 443.824C362.932 441.818 363.698 435.453 363.698 432.874C363.698 430.295 361.12 425.21 361.979 422.131C362.839 419.052 366.137 417.186 366.137 412.748C366.137 408.309 351 402.551 351.926 410.742Z" fill="#E8CEAB"/>
<path style="mix-blend-mode:multiply" d="M351.926 410.742C351.926 410.742 356.183 424.85 357.616 428.736C359.048 432.621 358.848 440.658 358.848 442.064C358.848 443.47 356.776 443.031 356.343 445.323C355.91 447.616 358.455 447.476 360.141 447.476C361.613 447.476 362.932 445.83 362.932 443.824C362.932 441.818 363.698 435.453 363.698 432.874C363.698 430.295 361.12 425.21 361.979 422.131C362.839 419.052 366.137 417.186 366.137 412.748C366.137 408.309 351 402.551 351.926 410.742Z" fill="#D1CBBF"/>
<path d="M364.583 447.296C364.628 446.552 364.92 445.845 365.414 445.286C365.908 444.728 366.575 444.352 367.308 444.217C369.667 443.551 376.635 443.145 376.635 443.145L388.501 444.477C388.501 444.477 388.88 447.436 386.662 448.01C384.443 448.583 364.583 447.296 364.583 447.296Z" fill="#D1CBBF"/>
<path d="M372.4 377.146C374.085 376.306 375.718 375.367 377.29 374.334C378.623 373.334 379.989 372.761 380.288 373.074C380.588 373.387 380.555 377.419 379.875 378.892C379.196 380.365 376.284 382.357 375.738 382.437C375.192 382.517 372.36 377.546 372.4 377.146Z" fill="#E8CEAB"/>
<path d="M358.208 375.282C358.208 375.282 362.206 375.175 363.791 374.315C365.377 373.456 370.773 372.596 373.785 376.461C376.796 380.327 378.188 384.739 376.789 389.464C375.39 394.189 373.691 399.24 375.93 401.499C378.168 403.759 391.826 405.691 394.624 418.693C397.422 431.696 395.59 444.158 388.175 447.277C380.76 450.396 371.739 445.124 364.224 434.168C356.709 423.212 350.8 411.423 351.007 405.045C351.333 395.322 359.388 387.851 359.388 387.318C359.388 386.784 357.242 382.746 357.242 381.08C357.177 380.258 357.363 379.435 357.775 378.721C357.775 378.721 357.749 375.735 358.208 375.282Z" fill="#F8E9CC"/>
<path d="M388.536 431.873C386.437 428.041 381.021 422.416 375.072 425.708C369.122 429.001 369.869 438.371 374.132 442.609C378.396 446.848 380.941 447.561 386.351 447.561C391.761 447.561 392.187 438.531 388.536 431.873Z" fill="#F8E9CC"/>
<path d="M365.404 449.136C365.448 448.393 365.74 447.686 366.233 447.128C366.725 446.57 367.391 446.193 368.122 446.057C370.487 445.391 377.449 444.984 377.449 444.984L389.308 446.317C389.308 446.317 389.695 449.276 387.476 449.849C385.258 450.422 365.404 449.136 365.404 449.136Z" fill="#F8E9CC"/>
<path d="M352.805 413.369C352.805 413.369 358.095 426.431 359.527 430.316C360.959 434.202 361.466 442.246 361.466 443.645C361.466 445.045 359.387 444.611 358.954 446.904C358.521 449.196 361.073 449.05 362.752 449.05C364.231 449.05 365.543 447.404 365.543 445.398C365.543 443.392 366.363 437.034 366.363 434.455C366.363 431.876 363.784 426.784 364.644 423.705C365.503 420.626 368.768 418.76 368.768 414.322C368.768 409.883 351.885 405.185 352.805 413.369Z" fill="#F8E9CC"/>
<path d="M395.377 435.887C396.49 436.633 400.134 439.106 403.219 432.375C406.303 425.644 402.279 412.522 399.674 404.938C397.069 397.354 398.835 388.997 400.44 385.818C402.286 382.159 406.09 381.519 407.336 382.765C408.408 383.838 408.628 386.331 406.623 389.843C404.618 393.355 404.291 397.414 405.864 402.932C407.436 408.45 413.385 423.705 409.947 434.314C406.51 444.924 394.624 447.776 391.613 444.771C388.602 441.765 394.258 435.147 395.377 435.887Z" fill="#F8E9CC"/>
<path d="M358.209 375.059C358.468 374.932 359.654 375.852 359.654 376.172C359.654 376.492 358.815 377.391 358.635 377.211C358.455 377.031 359.035 376.465 358.928 376.332C358.822 376.198 358.149 377.438 357.922 377.211C357.696 376.985 357.382 375.459 358.209 375.059Z" fill="#997E66"/>
<path d="M360.46 381.705C360.868 381.707 361.269 381.606 361.626 381.412C361.647 381.401 361.665 381.386 361.679 381.368C361.694 381.349 361.704 381.329 361.71 381.306C361.717 381.284 361.718 381.26 361.715 381.237C361.712 381.214 361.705 381.192 361.693 381.172C361.668 381.132 361.629 381.102 361.583 381.09C361.537 381.078 361.488 381.083 361.446 381.105C361.107 381.285 360.725 381.368 360.342 381.345C359.959 381.321 359.589 381.192 359.275 380.972C358.552 380.417 358.074 379.602 357.942 378.7C357.943 378.674 357.939 378.648 357.929 378.624C357.919 378.6 357.904 378.578 357.885 378.56C357.866 378.542 357.844 378.529 357.819 378.521C357.794 378.513 357.768 378.51 357.742 378.513C357.716 378.516 357.691 378.524 357.669 378.538C357.647 378.551 357.628 378.569 357.613 378.591C357.599 378.612 357.589 378.637 357.585 378.663C357.581 378.688 357.582 378.714 357.589 378.74C357.655 379.237 357.819 379.717 358.072 380.15C358.325 380.584 358.661 380.963 359.061 381.265C359.472 381.551 359.96 381.705 360.46 381.705Z" fill="#997E66"/>
<path d="M360.98 381.058C360.979 381.146 361.003 381.231 361.051 381.304C361.098 381.378 361.167 381.435 361.247 381.469C361.327 381.504 361.416 381.513 361.501 381.497C361.587 381.481 361.666 381.44 361.728 381.378C361.79 381.317 361.833 381.239 361.85 381.153C361.868 381.068 361.86 380.979 361.827 380.898C361.793 380.817 361.737 380.748 361.665 380.7C361.592 380.651 361.507 380.625 361.42 380.625C361.362 380.624 361.305 380.635 361.252 380.656C361.199 380.677 361.15 380.709 361.109 380.75C361.068 380.79 361.036 380.838 361.014 380.891C360.991 380.944 360.98 381.001 360.98 381.058Z" fill="#997E66"/>
<path style="mix-blend-mode:multiply" d="M368.362 416.945C369.342 416.945 368.149 419.484 371.127 421.67C374.105 423.856 377.789 421.77 381.234 423.156C384.678 424.543 384.478 425.649 384.478 425.649C384.478 425.649 382.586 423.456 376.544 426.315C370.501 429.174 370.774 433.646 370.774 436.132C370.774 438.618 374.771 445.036 374.865 445.156C371.524 442.863 368.583 440.037 366.157 436.792C366.157 436.792 365.744 425.796 366.157 422.13C366.317 420.757 367.363 416.945 368.362 416.945Z" fill="#D1CBBF"/>
<path style="mix-blend-mode:multiply" d="M358.662 423.058C360.194 428.316 362.366 433.175 362.366 437.433C362.416 439.991 362.82 442.53 363.565 444.977C363.565 445.364 361.42 445.87 361.42 447.056C361.42 448.243 364.271 448.189 365.417 445.883C365.446 445.815 365.487 445.752 365.537 445.697C365.417 447.563 364.205 449.029 362.766 449.029C361.087 449.029 358.542 449.176 358.968 446.883C359.395 444.591 361.48 445.057 361.48 443.624C361.48 442.191 360.973 434.134 359.541 430.296C358.522 427.536 355.544 420.099 353.912 416.067C353.552 415.234 353.245 414.428 352.932 413.641L352.819 413.368C351.62 410.129 350.947 407.277 351.02 405.071C351.347 395.348 359.401 387.877 359.401 387.344C359.401 387.684 355.45 396.607 355.051 402.159C354.651 407.71 357.129 417.8 358.662 423.058Z" fill="#D1CBBF"/>
<path style="mix-blend-mode:multiply" d="M383.492 448.16C384.578 447.78 384.385 446.827 381.494 445.888C378.602 444.948 379.908 443.142 379.908 443.142C379.908 443.142 386.057 445.268 389.308 444.275C392.56 443.282 394.085 439.61 394.085 439.61C394.085 439.61 395.471 443.082 401.813 441.609C406.41 440.536 408.915 436.664 409.861 434.512C406.337 444.935 394.598 447.754 391.613 444.761C390.955 445.515 390.184 446.162 389.328 446.681C389.328 447.481 389.215 449.407 387.47 449.86C385.244 450.433 365.411 449.14 365.411 449.14C365.404 448.833 382.506 448.507 383.492 448.16Z" fill="url(#paint0_linear)"/>
<path style="mix-blend-mode:multiply" d="M406.336 382.258C405.204 382.655 404.187 383.324 403.374 384.206C402.561 385.088 401.977 386.156 401.672 387.317C400.029 392.619 399.865 398.269 401.199 403.658C402.718 409.469 406.389 420.665 405.67 426.123C405.097 430.595 404.044 432.867 402.192 434.194C402.571 433.613 402.905 433.005 403.191 432.374C406.296 425.65 402.279 412.521 399.674 404.937C397.069 397.353 398.834 388.996 400.44 385.817C401.919 382.885 404.65 381.898 406.336 382.258Z" fill="url(#paint1_linear)"/>
<path d="M373.924 378.33C375.793 378.13 377.648 377.818 379.48 377.397C381.059 376.918 382.558 376.858 382.725 377.251C382.891 377.644 381.472 381.423 380.326 382.582C379.181 383.742 375.75 384.582 375.21 384.475C374.67 384.368 373.764 378.69 373.924 378.33Z" fill="#FFCE9F"/>
<path style="mix-blend-mode:multiply" d="M373.924 378.33C375.793 378.13 377.648 377.818 379.48 377.397C381.059 376.918 382.558 376.858 382.725 377.251C382.891 377.644 381.472 381.423 380.326 382.582C379.181 383.742 375.75 384.582 375.21 384.475C374.67 384.368 373.764 378.69 373.924 378.33Z" fill="#FFF7EE"/>
<path d="M382.725 377.251C382.792 377.431 380.373 377.638 378.728 378.584C377.706 379.154 376.592 379.542 375.437 379.73L378.588 379.943L375.437 380.303C375.437 380.303 376.976 381.163 376.869 381.163C376.763 381.163 375.377 380.623 375.257 380.743C375.137 380.863 375.257 381.523 375.257 381.523L374.471 380.963L374.111 382.776L373.691 378.144C375.304 378.012 376.907 377.789 378.495 377.478C379.727 377.104 382.352 376.258 382.725 377.251Z" fill="#F8E9CC"/>
</g>
<path d="M99.381 430.338C86.606 430.338 76.2402 419.973 76.2402 407.198V375.652H122.522V407.198C122.522 419.973 112.156 430.338 99.381 430.338Z" fill="#5896FA"/>
<path d="M76.2404 399.484H73.6816V448.437H76.2404V399.484Z" fill="#0E0E0E"/>
<path d="M125.08 399.484H122.521V448.437H125.08V399.484Z" fill="#0E0E0E"/>
<path d="M105.453 399.484H102.895V448.437H105.453V399.484Z" fill="#0E0E0E"/>
<path d="M122.634 430.336H73.6816V432.895H122.634V430.336Z" fill="#0E0E0E"/>
<path d="M135.406 323.544C138.207 327.559 132.585 331.033 131.708 336.599C130.83 342.165 137.217 345.302 130.438 352.605C126.273 357.106 122.743 351.13 119.362 358.021C115.963 364.913 118.652 366.071 114.824 368.555C108.175 372.869 98.0143 363.326 101.432 356.434C104.85 349.561 111.761 350.158 108.567 344.499C105.373 338.84 104.178 336.393 109.687 333.48C116.523 329.875 122.537 333.181 123.079 327.914C123.658 322.685 131.726 318.221 135.406 323.544Z" fill="#FFCA59"/>
<path d="M106.232 375.334L105.074 375.11C110.453 347.897 128.308 328.847 128.476 328.66L129.317 329.463C129.149 329.65 111.536 348.476 106.232 375.334Z" fill="#0E0E0E"/>
<path d="M45.9254 313.496C43.0304 319.379 51.1736 322.834 53.4522 330.044C55.7308 337.253 47.3448 339.793 57.7666 348.085C64.1914 353.203 65.5362 350.009 67.8895 361.44C69.9626 371.506 77.6202 361.925 83.3353 367.827C90.7127 375.447 102.236 358.713 96.3345 350.308C90.4326 341.885 83.5408 344.07 86.6225 335.927C89.7228 327.784 86.0248 321.658 78.1431 318.912C68.3751 315.513 64.8638 323.712 63.0895 316.858C61.3152 309.985 49.7541 305.707 45.9254 313.496Z" fill="#ED5A24"/>
<path d="M94.9705 376.157C82.5316 341.661 55.4314 320.313 55.1699 320.108L56.1411 318.875C56.4213 319.08 83.8577 340.708 96.4646 375.634L94.9705 376.157Z" fill="#0E0E0E"/>
<path d="M453 332.234V335.15C453 336.16 453.337 337.001 453.729 337.001H560.042C560.435 337.001 560.771 336.16 560.771 335.15V332.234C560.771 331.224 560.435 330.383 560.042 330.383H453.729C453.337 330.383 453 331.224 453 332.234Z" fill="#8FADEF"/>
<path d="M453 332.234V335.15C453 336.16 453.308 337.001 453.673 337.001H538.056C538.42 337.001 538.729 336.16 538.729 335.15V332.234C538.729 331.224 538.42 330.383 538.056 330.383H453.673C453.308 330.383 453 331.224 453 332.234Z" fill="#BBD0FF"/>
<g clip-path="url(#clip1)">
<path d="M534.759 307.92C532.794 298.7 520.75 288.231 520.75 288.231L523.985 283H482.011L485.249 288.231C485.249 288.231 473.206 298.689 471.24 307.92C469.275 317.152 479.675 330 487.967 330H518.032C526.325 330 536.721 317.148 534.759 307.92Z" fill="#FBFBFC"/>
<path d="M524.897 297.943C527.665 301.298 530.27 305.223 530.999 308.656C531.706 311.933 530.083 316.611 526.888 320.576C524.024 324.136 520.412 326.452 517.732 326.452H487.685C485.002 326.452 481.411 324.147 478.53 320.576C475.348 316.611 473.719 311.933 474.415 308.656C475.143 305.23 477.752 301.305 480.523 297.943C485.189 296.918 490.099 298.865 494.663 300.297C500.008 301.978 505.848 302.425 511.207 300.808C515.448 299.507 520.507 297.184 524.897 297.943Z" fill="#EEF8FF"/>
<path d="M505.969 313.442C504.547 314.269 503.675 315.006 502.178 313.204C499.885 310.449 499.669 309.537 498.352 309.311C497.034 309.085 498.328 310.207 497.909 310.718C497.222 311.559 495.587 311.906 495.303 313.333C495.018 314.759 497.151 315.044 496.961 315.817C496.771 316.589 495.558 317.364 496.362 318.222C496.755 318.643 499.055 316.988 500.574 318.655C501.602 319.781 502.706 315.075 506.049 316.263C507.35 316.729 505.969 313.442 505.969 313.442Z" fill="#F56300"/>
<path d="M505.749 313.641C505.749 313.641 504.858 314.644 503.776 314.57C502.461 314.48 501.191 312.552 500.366 311.887C500.366 311.887 501.57 314.249 503.856 314.794C503.856 314.794 501.707 314.661 500.624 313.534C499.542 312.407 497.845 312.452 497.845 312.452C497.845 312.452 499.686 312.826 500.286 313.641C500.885 314.456 502.717 314.808 502.717 314.808C502.717 314.808 499.575 315.046 498.006 314.145C498.006 314.145 499.961 315.333 503.048 315.074C503.048 315.074 498.945 316.056 498.023 317.213C498.023 317.213 502.75 315.212 503.508 315.252C503.508 315.252 500.665 316.441 500.253 317.829C500.253 317.829 502.911 315.3 504.477 315.3C504.477 315.3 501.691 316.289 501.707 317.708C501.955 317.148 502.401 316.701 502.958 316.453C504.97 315.502 505.787 316.068 505.787 316.068L505.749 313.641Z" fill="#FC6F0F"/>
<path d="M507.097 313.007C506.356 312.906 505.607 312.87 504.86 312.9C503.858 312.972 501.069 312.223 501.455 310.644C501.486 310.523 502.339 311.02 502.993 310.34C503.647 309.66 504.886 308.422 505.72 308.648C506.554 308.874 509.07 308.493 509.388 307.419C509.561 306.815 510.229 306.879 510.508 307.512C510.788 308.144 512.375 311.137 510.323 312.47L507.097 313.007Z" fill="#F56300"/>
<path d="M509.949 312.333C509.949 312.333 510.774 311.337 510.809 310.631C510.845 309.925 510.155 308.648 510.155 308.648C510.155 308.648 510.53 310.666 509.949 311.372C509.949 311.372 509.779 310.01 509.366 309.647C509.366 309.647 509.513 311.299 509.366 311.689C509.366 311.689 508.736 309.744 508.253 309.476C508.253 309.476 508.703 311.377 508.641 311.883C508.641 311.883 507.623 309.913 506.848 309.671C506.848 309.671 507.841 311.275 507.985 312.078C507.985 312.078 505.765 310.467 505.49 309.573C505.49 309.573 505.891 311.339 506.822 311.95C506.822 311.95 505.054 311.201 504.277 309.934C504.277 309.934 504.827 311.729 506.047 312.228C506.047 312.228 503.841 312.29 502.849 311.753C502.849 311.753 503.818 312.675 504.884 312.627C505.638 312.625 506.387 312.754 507.097 313.01L509.949 312.333Z" fill="#FC6F0F"/>
<path d="M510.895 316.632C510.895 316.632 510.336 317.873 510.173 318.177C510.009 318.481 510.964 318.947 511.175 319.415C511.386 319.884 511.571 322.223 511.734 322.292C511.898 322.36 512.947 319.743 512.682 318.458C512.548 317.715 512.181 317.034 511.635 316.516L510.895 316.632Z" fill="#F56300"/>
<path d="M507.92 316.516C507.92 316.516 505.407 317.771 505.077 317.904C504.748 318.037 505.212 319.004 505.077 319.501C504.942 319.998 504.949 321.555 505.032 321.714C505.115 321.873 507.676 320.682 507.996 320.257C508.785 319.211 508.93 316.796 508.93 316.796L507.92 316.516Z" fill="#F56300"/>
<path d="M508.736 316.965C508.736 316.965 508.381 318.853 508.189 319.399C507.997 319.946 506.628 320.588 506.628 320.588C506.628 320.588 507.736 319.616 507.914 319.195C508.092 318.774 508.189 317.638 508.189 317.638C508.189 317.638 507.784 318.936 507.123 319.471C507.123 319.471 507.867 317.859 507.914 317.51C507.914 317.51 506.685 319 506.507 319.777C506.591 318.98 506.885 318.22 507.357 317.574C507.357 317.574 506.329 318.287 506.201 318.498C506.017 318.942 505.859 319.396 505.727 319.858C505.727 319.858 505.396 318.27 506.829 317.541C506.829 317.541 505.661 317.8 505.386 318.491C505.386 318.491 505.287 317.918 506.275 317.419C506.727 317.172 507.203 316.971 507.696 316.82L508.736 316.965Z" fill="#FC6F0F"/>
<path d="M505.391 315.636C506.062 316.465 507.578 317.364 509.502 317.364C510.895 317.398 512.254 316.929 513.331 316.042C513.819 315.612 514.084 315.165 514.084 314.854C514.084 314.183 511.812 312.163 510.056 312.22C506.801 312.322 505.448 313.61 505.038 314.597C504.946 314.868 505.074 315.246 505.391 315.636Z" fill="#F7ECE7"/>
<path d="M505.395 315.641C506.065 316.47 507.581 317.369 509.505 317.369C510.898 317.403 512.257 316.934 513.334 316.047C508.823 318.02 505.537 315.74 505.395 315.641Z" fill="#EDE3DE"/>
<path d="M512.026 312.809C512.026 312.809 512.13 313.845 511.708 314.133C511.286 314.42 510.524 313.044 509.908 313.79C509.773 313.954 510.561 315.347 509.851 315.944C509.479 316.255 508.529 316.343 508.244 316.048C507.96 315.754 508.578 315.166 508.398 314.843C508 314.13 507.247 315.183 506.934 314.784C506.735 314.529 506.82 313.595 506.155 313.921C505.885 314.049 505.681 313.709 505.75 313.631C506.627 312.813 507.752 312.314 508.946 312.212C510.796 312.053 511.504 312.45 512.026 312.809Z" fill="#FF9330"/>
<path d="M512.026 312.809C511.668 312.852 510.412 314.499 510.481 314.911C510.626 315.769 511.666 316.596 512.251 316.76C512.251 316.76 514.092 315.93 514.239 314.911C514.386 313.891 512.312 312.776 512.026 312.809Z" fill="#FFA859"/>
<path d="M514.247 314.784C514.208 314.846 514.158 314.899 514.099 314.941C514.04 314.983 513.974 315.013 513.903 315.029C513.833 315.045 513.76 315.047 513.689 315.035C513.618 315.023 513.549 314.996 513.488 314.958C512.953 314.72 512.541 314.357 512.202 314.463C511.863 314.57 510.979 315.039 510.702 314.307C510.702 314.307 511.463 312.899 512.027 312.809C512.59 312.719 514.363 314.026 514.247 314.784Z" fill="#FF9330"/>
<path d="M509.705 313.203C509.622 313.405 509.594 313.626 509.625 313.843C509.625 313.843 509.35 313.719 509.352 313.503C509.354 313.286 509.705 313.203 509.705 313.203Z" fill="#FC6F0F"/>
<path d="M509.647 314.465C509.599 314.677 509.609 314.899 509.676 315.107C509.676 315.107 509.387 315.033 509.349 314.829C509.311 314.624 509.647 314.465 509.647 314.465Z" fill="#FC6F0F"/>
<path d="M507.327 314.531C507.279 314.744 507.289 314.966 507.355 315.173C507.355 315.173 507.064 315.099 507.029 314.89C506.993 314.681 507.327 314.531 507.327 314.531Z" fill="#FC6F0F"/>
<path d="M508.609 313.988C508.524 314.19 508.495 314.411 508.524 314.628C508.524 314.628 508.252 314.502 508.254 314.288C508.256 314.074 508.609 313.988 508.609 313.988Z" fill="#FC6F0F"/>
<path d="M508.489 315.18C508.441 315.393 508.451 315.616 508.518 315.824C508.518 315.824 508.226 315.75 508.191 315.539C508.155 315.327 508.489 315.18 508.489 315.18Z" fill="#FC6F0F"/>
<path d="M509.595 315.734C509.58 315.952 509.625 316.17 509.723 316.364C509.723 316.364 509.424 316.338 509.355 316.127C509.287 315.915 509.595 315.734 509.595 315.734Z" fill="#FC6F0F"/>
<path d="M507.204 315.368C507.441 315.349 507.713 315.641 507.787 315.767C507.86 315.893 507.413 316.148 507.273 316.183C507.133 316.219 506.842 315.86 506.799 315.767C506.756 315.675 507.088 315.378 507.204 315.368Z" fill="#FFA552"/>
<path d="M506.438 314.963C506.496 314.926 506.564 314.907 506.633 314.91C506.702 314.913 506.768 314.938 506.822 314.98C506.867 315.041 506.772 315.27 506.725 315.305C506.678 315.341 506.334 315.068 506.438 314.963Z" fill="#FFA552"/>
<path d="M481.518 309.764C482.349 309.764 483.023 309.087 483.023 308.253C483.023 307.419 482.349 306.742 481.518 306.742C480.686 306.742 480.012 307.419 480.012 308.253C480.012 309.087 480.686 309.764 481.518 309.764Z" fill="#BFD3E3"/>
<path d="M484.854 315.923C485.326 315.923 485.709 315.539 485.709 315.065C485.709 314.591 485.326 314.207 484.854 314.207C484.381 314.207 483.998 314.591 483.998 315.065C483.998 315.539 484.381 315.923 484.854 315.923Z" fill="#EBF0F5"/>
<path d="M490.852 307.314C490.852 307.426 490.819 307.535 490.757 307.629C490.694 307.722 490.606 307.795 490.503 307.838C490.399 307.881 490.286 307.892 490.176 307.87C490.066 307.848 489.965 307.794 489.886 307.715C489.807 307.635 489.753 307.534 489.732 307.424C489.71 307.314 489.721 307.2 489.764 307.096C489.807 306.993 489.879 306.904 489.972 306.842C490.065 306.779 490.174 306.746 490.286 306.746C490.436 306.746 490.58 306.806 490.686 306.912C490.792 307.019 490.852 307.163 490.852 307.314Z" fill="#EBF0F5"/>
<path d="M521.572 305.486C521.572 305.696 521.51 305.902 521.393 306.077C521.277 306.252 521.111 306.388 520.917 306.469C520.724 306.549 520.51 306.57 520.305 306.529C520.099 306.488 519.91 306.387 519.762 306.238C519.613 306.089 519.512 305.9 519.472 305.693C519.431 305.487 519.452 305.273 519.532 305.079C519.612 304.884 519.748 304.718 519.922 304.601C520.097 304.484 520.302 304.422 520.512 304.422C520.793 304.422 521.063 304.534 521.262 304.733C521.46 304.933 521.572 305.204 521.572 305.486Z" fill="#EBF0F5"/>
<path d="M526.775 313.393C527.425 313.393 527.952 312.864 527.952 312.212C527.952 311.56 527.425 311.031 526.775 311.031C526.125 311.031 525.598 311.56 525.598 312.212C525.598 312.864 526.125 313.393 526.775 313.393Z" fill="#BFD3E3"/>
<path d="M523.113 318.819C523.113 318.928 523.081 319.035 523.021 319.125C522.96 319.215 522.875 319.286 522.774 319.327C522.674 319.369 522.564 319.38 522.457 319.358C522.351 319.337 522.253 319.284 522.177 319.207C522.1 319.129 522.048 319.031 522.028 318.924C522.007 318.817 522.018 318.707 522.06 318.606C522.102 318.506 522.173 318.42 522.264 318.36C522.354 318.3 522.461 318.269 522.569 318.27C522.641 318.27 522.712 318.284 522.778 318.311C522.844 318.339 522.905 318.38 522.955 318.431C523.006 318.482 523.046 318.542 523.073 318.609C523.1 318.676 523.114 318.747 523.113 318.819Z" fill="#EBF0F5"/>
<path d="M516.463 323.573C516.463 323.713 516.421 323.85 516.344 323.967C516.266 324.083 516.156 324.174 516.026 324.228C515.897 324.282 515.755 324.296 515.618 324.268C515.481 324.241 515.355 324.173 515.256 324.074C515.157 323.975 515.09 323.849 515.062 323.711C515.035 323.573 515.049 323.431 515.103 323.301C515.156 323.172 515.247 323.061 515.363 322.983C515.479 322.905 515.616 322.863 515.756 322.863C515.943 322.863 516.123 322.938 516.256 323.071C516.388 323.204 516.463 323.384 516.463 323.573Z" fill="#BFD3E3"/>
<path d="M486.656 324.554C487.221 324.554 487.678 324.095 487.678 323.529C487.678 322.963 487.221 322.504 486.656 322.504C486.092 322.504 485.635 322.963 485.635 323.529C485.635 324.095 486.092 324.554 486.656 324.554Z" fill="#EBF0F5"/>
</g>
<path d="M479.924 447.008H555.389V336.993H479.924V447.008Z" fill="#AEC3FF"/>
<path d="M458.769 447.008H534.234V336.993H458.769V447.008Z" fill="#D2E0FF"/>
<path d="M462.814 340.113H530.175V440.93H462.814V340.113ZM529.446 340.842H463.544V440.2H529.446V340.842Z" fill="#AEC3FF"/>
<path d="M529.811 373.457H463.18V374.186H529.811V373.457Z" fill="#AEC3FF"/>
<path d="M529.811 407.473H463.18V408.202H529.811V407.473Z" fill="#AEC3FF"/>
<path d="M489.652 346.621H502.019C502.608 346.621 503.113 346.116 503.113 345.527C503.113 344.938 502.608 344.434 502.019 344.434H489.652C489.063 344.434 488.559 344.938 488.559 345.527C488.559 346.116 489.063 346.621 489.652 346.621Z" fill="#AEC3FF"/>
<path d="M489.652 379.851H502.019C502.608 379.851 503.113 379.347 503.113 378.758C503.113 378.169 502.608 377.664 502.019 377.664H489.652C489.063 377.664 488.559 378.169 488.559 378.758C488.559 379.375 489.063 379.851 489.652 379.851Z" fill="#AEC3FF"/>
<path d="M489.652 414.516H502.019C502.608 414.516 503.113 414.011 503.113 413.422C503.113 412.833 502.608 412.328 502.019 412.328H489.652C489.063 412.328 488.559 412.833 488.559 413.422C488.559 414.039 489.063 414.516 489.652 414.516Z" fill="#AEC3FF"/>
<path d="M686.707 450.117C686.7 451.832 685.307 453.218 683.592 453.218H4.65016C2.9298 453.218 1.53516 451.824 1.53516 450.103C1.53516 448.383 2.92979 446.988 4.65016 446.988H683.592C685.318 446.988 686.715 448.391 686.707 450.117Z" fill="#2D5B98"/>
<path d="M503.362 149.13L551.568 197.336C553.256 199.023 553.256 201.675 551.568 203.362L503.362 251.568C501.675 253.255 499.024 253.255 497.337 251.568L449.131 203.362C447.444 201.675 447.444 199.023 449.131 197.336L497.337 149.13C499.024 147.443 501.675 147.443 503.362 149.13Z" fill="#5896FA"/>
<path d="M498.469 199.497H519.348V181.176L498.469 184.073V199.497ZM496.85 199.497V184.329L481 186.63V199.497H496.85ZM496.85 200.946H481V214.069L496.85 216.37V200.946ZM498.469 200.946V216.626L519.348 219.523V200.946H498.469Z" fill="white"/>
<path d="M386.261 53H454.434C456.82 53 458.695 54.8748 458.695 57.2608V125.434C458.695 127.82 456.82 129.695 454.434 129.695H386.261C383.875 129.695 382 127.82 382 125.434V57.2608C382 54.8748 383.875 53 386.261 53Z" fill="#005CEA"/>
<path d="M423.585 70.0447L399.725 74.5612C399.299 74.6464 399.043 74.9873 399.043 75.4134V107.199C399.043 107.625 399.299 107.966 399.725 108.051L423.585 112.568C423.671 112.568 423.671 112.568 423.756 112.568C423.926 112.568 424.097 112.483 424.267 112.398C424.438 112.227 424.608 111.971 424.608 111.716V70.8117C424.608 70.556 424.523 70.3004 424.267 70.13C424.012 69.9595 423.841 70.0447 423.585 70.0447ZM426.312 79.4186V89.8151L427.846 91.0081L440.885 83.2534V80.2708C440.885 79.7595 440.544 79.4186 440.032 79.4186H426.312ZM411.655 83.2534C413.7 83.2534 415.319 84.0203 416.598 85.469C417.876 86.9177 418.472 88.7925 418.472 91.1785C418.472 93.6498 417.791 95.6098 416.512 97.0585C415.234 98.5924 413.53 99.3594 411.485 99.3594C409.439 99.3594 407.82 98.5924 406.542 97.1437C405.264 95.695 404.582 93.8203 404.582 91.4342C404.582 88.9629 405.264 87.0029 406.542 85.469C407.82 83.9351 409.525 83.2534 411.655 83.2534ZM440.799 85.2133L428.187 92.7124C428.017 92.7977 427.846 92.7977 427.761 92.7977C427.591 92.7977 427.42 92.7124 427.25 92.6272L426.398 91.9455V102.427H428.187C428.187 102.683 428.102 103.024 428.102 103.279C428.102 107.029 431.17 110.097 434.919 110.097C438.669 110.097 441.737 107.029 441.737 103.279C441.737 102.086 441.396 100.893 440.885 99.9559V99.8707V85.2133H440.799ZM411.57 86.3212C410.462 86.3212 409.525 86.7473 408.843 87.6847C408.161 88.622 407.82 89.8151 407.82 91.349C407.82 92.8829 408.161 94.1611 408.843 95.0133C409.525 95.9507 410.377 96.3768 411.485 96.3768C412.592 96.3768 413.445 95.9507 414.126 95.0985C414.808 94.2463 415.149 93.0533 415.149 91.4342C415.149 89.8151 414.808 88.5368 414.212 87.6847C413.53 86.7473 412.678 86.3212 411.57 86.3212ZM434.834 98.1663C437.646 98.1663 439.947 100.467 439.947 103.279C439.947 106.091 437.646 108.392 434.834 108.392C432.022 108.392 429.721 106.091 429.721 103.279C429.721 100.467 432.022 98.1663 434.834 98.1663ZM433.982 99.0185V104.984H438.243V103.279H435.686V99.0185H433.982Z" fill="white"/>
<circle cx="302.5" cy="41.5" r="41.5" fill="#2E77E6"/>
<path d="M321.406 22.3216C324.048 22.3216 326.508 24.4171 326.963 26.9683C327.054 27.3327 327.054 27.7882 327.054 28.1527C327.054 35.0771 327.054 42.0016 326.963 48.926C326.963 51.7505 324.777 54.2105 321.952 54.666C321.406 54.7571 320.95 54.7571 320.403 54.7571C320.13 54.7571 319.948 54.666 320.039 54.3927C320.039 53.9371 320.039 53.7549 320.039 53.2082C320.039 53.026 319.948 52.7527 320.495 52.7527C321.315 52.6616 321.952 52.7527 322.681 52.3883C324.23 51.6594 324.959 50.3838 324.959 48.6527C324.959 43.0949 324.959 37.5371 325.05 32.0705C325.05 30.886 325.05 29.7016 325.05 28.5171C325.141 26.1482 323.319 24.326 320.859 24.326C315.757 24.326 310.746 24.326 305.643 24.326C298.172 24.326 290.701 24.2349 283.321 24.2349C282.137 24.2349 281.043 24.5082 280.132 25.4194C279.403 26.2394 278.948 27.1505 278.948 28.2438C278.948 31.706 278.948 35.2594 278.948 38.7216C278.948 42.0016 278.948 45.3727 278.948 48.6527C278.948 50.7482 280.132 52.206 282.137 52.6616C282.592 52.7527 283.048 52.8438 283.412 52.7527C283.686 52.7527 283.777 52.6616 283.777 53.026C283.777 53.4816 283.777 53.9371 283.777 54.3927C283.777 54.5749 283.777 54.666 283.503 54.666C280.77 54.8483 278.31 53.4816 277.308 50.8393C277.034 50.2016 276.943 49.5638 276.943 48.926C276.943 42.0016 276.943 35.0771 276.943 28.1527C276.943 24.8727 279.677 22.2305 282.866 22.2305C289.243 22.2305 295.53 22.4127 301.999 22.4127C301.999 22.4127 315.028 22.3216 321.406 22.3216Z" fill="white"/>
<path d="M304.004 40.8187C304.004 40.3631 304.187 39.9987 304.46 39.6342C305.553 38.5409 306.647 37.4476 307.74 36.4453C308.469 35.7165 309.289 35.7165 309.927 36.3542C311.111 37.4476 312.296 38.632 313.389 39.8164C313.936 40.4542 313.936 41.2742 313.298 41.912C312.204 43.0965 311.02 44.1898 309.836 45.2831C309.198 45.9209 308.287 45.8298 307.649 45.192C306.556 44.0987 305.462 43.0053 304.369 41.912C304.187 41.7298 303.913 41.2742 304.004 40.8187Z" fill="white"/>
<path d="M315.848 42.9141C316.395 42.9141 316.759 43.1874 317.124 43.4607C318.126 44.4629 319.219 45.5563 320.221 46.5585C321.041 47.3785 321.041 48.1985 320.221 49.1096C319.219 50.1118 318.217 51.114 317.124 52.1163C316.304 52.9363 315.484 52.9363 314.664 52.1163C313.57 51.114 312.568 50.0207 311.566 48.9274C310.746 48.1074 310.837 47.2874 311.566 46.4674C312.568 45.4652 313.661 44.3718 314.664 43.3696C315.028 43.1874 315.392 42.9141 315.848 42.9141Z" fill="white"/>
<path d="M308.832 59.7718C308.559 59.7718 308.012 59.5896 307.739 59.3163C306.555 58.1318 305.461 57.0385 304.368 55.854C303.821 55.2163 303.821 54.3963 304.459 53.7585C305.552 52.5741 306.737 51.4807 307.921 50.3874C308.65 49.7496 309.47 49.7496 310.199 50.5696C311.201 51.5718 312.204 52.5741 313.206 53.6674C313.297 53.7585 313.388 53.8496 313.479 53.9407C313.935 54.5785 313.935 55.3985 313.388 56.0363C312.295 57.2207 311.11 58.314 309.926 59.4074C309.561 59.6807 309.379 59.7718 308.832 59.7718Z" fill="white"/>
<path d="M306.282 46.6456C302.911 43.2745 299.54 39.8123 296.169 36.4412C295.44 35.7123 294.529 35.7123 293.8 36.4412C290.337 39.8123 286.966 43.1834 283.504 46.6456C283.231 46.919 282.957 47.2834 283.049 47.739C282.957 48.1945 283.14 48.6501 283.504 48.9234C286.875 52.3856 290.338 55.7568 293.709 59.219C294.438 59.9479 295.258 59.9479 295.986 59.219C299.449 55.8479 302.82 52.4767 306.282 49.0145C307.011 48.2856 307.011 47.3745 306.282 46.6456ZM299.358 49.0145C298.264 50.1079 297.171 51.2012 296.077 52.2945C295.349 52.9323 294.529 52.9323 293.8 52.2945C292.706 51.2012 291.613 50.1079 290.52 49.0145C289.791 48.2856 289.882 47.3745 290.611 46.6456C291.704 45.5523 292.706 44.5501 293.8 43.4567C294.164 43.0923 294.529 42.9101 294.984 42.9101C295.44 42.9101 295.804 43.0012 296.077 43.3656C297.262 44.5501 298.355 45.6434 299.54 46.8279C300.086 47.3745 299.995 48.2856 299.358 49.0145Z" fill="white"/>
<path d="M147.722 55H207.278C209.362 55 211 56.6378 211 58.7222V118.278C211 120.362 209.362 122 207.278 122H147.722C145.638 122 144 120.362 144 118.278V58.7222C144 56.6378 145.712 55 147.722 55Z" fill="#005CEA"/>
<path d="M198.654 83.6602V95.2497C198.654 98.5731 195.927 101.3 192.603 101.3C191.666 101.3 190.814 101.13 190.047 100.704C190.217 100.022 190.303 99.2548 190.303 98.4879V83.6602H198.654Z" fill="white"/>
<path d="M188.512 83.6602V98.4879C188.512 103.601 184.337 107.777 179.224 107.777C176.667 107.777 174.366 106.754 172.662 105.05C171.384 103.771 170.532 102.152 170.105 100.363H175.474C178.031 100.363 180.076 98.3175 180.076 95.761V83.7454H188.512V83.6602Z" fill="white"/>
<path d="M175.56 76.2461H158.857C157.323 76.2461 156.045 77.5244 156.045 79.0583V95.7608C156.045 97.2947 157.323 98.5729 158.857 98.5729H175.56C177.093 98.5729 178.372 97.2947 178.372 95.7608V79.0583C178.287 77.5244 177.093 76.2461 175.56 76.2461ZM162.521 83.66V81.7852H171.81V83.66H168.146V92.9486H166.271V83.66H162.521Z" fill="white"/>
<path d="M184.762 74.8851C184.762 77.6973 182.802 80.0833 180.161 80.7651V79.0607C180.161 76.5042 178.115 74.459 175.559 74.459H172.832C173.088 71.306 175.644 68.9199 178.797 68.9199C182.121 68.8347 184.762 71.5616 184.762 74.8851Z" fill="white"/>
<path d="M192.687 80.9333C194.993 80.9333 196.863 79.0638 196.863 76.7577C196.863 74.4515 194.993 72.582 192.687 72.582C190.381 72.582 188.512 74.4515 188.512 76.7577C188.512 79.0638 190.381 80.9333 192.687 80.9333Z" fill="white"/>
<path d="M56.2603 191.486L96.4868 151.259C97.8947 149.851 100.107 149.851 101.515 151.259L141.742 191.486C143.15 192.894 143.15 195.106 141.742 196.514L101.515 236.741C100.107 238.149 97.8947 238.149 96.4868 236.741L56.2603 196.514C54.8523 195.106 54.8523 192.894 56.2603 191.486Z" fill="#5896FA"/>
<path d="M112.015 179.352H85.9168C83.2857 179.352 81.1523 181.485 81.1523 184.116V199.903C81.1523 202.249 82.859 204.169 85.1346 204.596V202.96C83.7835 202.605 82.7879 201.396 82.7879 199.903V184.116C82.7879 182.338 84.2101 180.987 85.9168 180.987H112.015C113.792 180.987 115.143 182.409 115.143 184.116V199.903C115.143 201.396 114.148 202.605 112.797 202.96V204.596C115.072 204.24 116.779 202.249 116.779 199.903V184.116C116.779 181.485 114.646 179.352 112.015 179.352Z" fill="white"/>
<path d="M95.8016 208.576C94.735 208.576 93.8105 207.722 93.8105 206.584V192.362C93.8105 191.296 94.6639 190.371 95.8016 190.371C96.8683 190.371 97.7928 191.224 97.7928 192.362V206.584C97.7928 207.722 96.8683 208.576 95.8016 208.576Z" fill="white"/>
<path d="M102.128 208.576C101.061 208.576 100.137 207.722 100.137 206.584V195.491C100.137 194.424 100.99 193.5 102.128 193.5C103.194 193.5 104.119 194.353 104.119 195.491V206.584C104.119 207.722 103.194 208.576 102.128 208.576Z" fill="white"/>
<path d="M89.4716 208.578C88.4049 208.578 87.4805 207.724 87.4805 206.587V199.475C87.4805 198.409 88.3338 197.484 89.4716 197.484C90.5383 197.484 91.4627 198.338 91.4627 199.475V206.587C91.4627 207.724 90.6094 208.578 89.4716 208.578Z" fill="white"/>
<path d="M108.458 208.578C107.391 208.578 106.467 207.725 106.467 206.587V187.6C106.467 186.534 107.32 185.609 108.458 185.609C109.525 185.609 110.449 186.463 110.449 187.6V206.587C110.449 207.725 109.525 208.578 108.458 208.578Z" fill="white"/>
<defs>
<linearGradient id="paint0_linear" x1="334.74" y1="2044.55" x2="-2632.32" y2="2044.55" gradientUnits="userSpaceOnUse">
<stop stop-color="#FFF7EE"/>
<stop offset="0.44" stop-color="#EBDEDE"/>
<stop offset="1" stop-color="#D5C1CC"/>
</linearGradient>
<linearGradient id="paint1_linear" x1="350.178" y1="3128.11" x2="255.038" y2="3128.11" gradientUnits="userSpaceOnUse">
<stop stop-color="#FFF7EE"/>
<stop offset="0.44" stop-color="#EBDEDE"/>
<stop offset="1" stop-color="#D5C1CC"/>
</linearGradient>
<clipPath id="clip0">
<rect width="60" height="77" fill="white" transform="matrix(-1 0 0 1 411 373)"/>
</clipPath>
<clipPath id="clip1">
<rect width="64" height="47" fill="white" transform="translate(471 283)"/>
</clipPath>
</defs>
</svg>
