<svg width="26" height="26" fill="none" xmlns="http://www.w3.org/2000/svg"><path fill-rule="evenodd" clip-rule="evenodd" d="M18.992 26a6.933 6.933 0 01-3.916-1.196c-3.752.656-7.69-.47-10.55-3.33-2.859-2.858-3.986-6.797-3.33-10.55A6.933 6.933 0 010 7.008 7.016 7.016 0 017.008 0c1.414 0 2.758.412 3.916 1.196 8.178-1.43 15.315 5.673 13.88 13.88A6.933 6.933 0 0126 18.992 7.016 7.016 0 0118.992 26zm-3.053-3.078a4.927 4.927 0 003.053 1.047 4.982 4.982 0 004.977-4.977 4.927 4.927 0 00-1.047-3.053 1.015 1.015 0 01-.192-.838C24.253 8.014 17.938 1.758 10.898 3.27c-.293.063-.6-.007-.837-.192a4.926 4.926 0 00-3.053-1.047A4.982 4.982 0 002.03 7.008c0 1.118.362 2.173 1.047 3.053.185.238.255.544.192.838C1.75 17.97 8.046 24.245 15.1 22.73c.293-.063.6.006.838.192zm-2.004-10.695c1.013.296 4.075 1.192 4.075 3.77 0 2.09-2.055 4.01-5.01 4.01-1.9 0-3.887-.884-4.686-2.58a1.016 1.016 0 011.837-.865c.393.833 1.564 1.415 2.849 1.415 1.615 0 2.98-.907 2.98-1.98 0-1.043-1.819-1.591-3.363-2.057l-.384-.117-.168-.05c-1.013-.296-4.075-1.192-4.075-3.77 0-2.09 2.055-4.01 5.01-4.01 1.9 0 3.887.884 4.686 2.58a1.016 1.016 0 01-1.837.865c-.393-.833-1.564-1.415-2.849-1.415-1.615 0-2.98.907-2.98 1.98 0 1.043 1.819 1.591 3.363 2.057l.384.117.168.05z" fill="#FF8F3E"/></svg>