<svg width="80" height="74" viewBox="0 0 80 74" fill="none" xmlns="http://www.w3.org/2000/svg">
<path d="M19.7704 52.2148H1.66973C0.748038 52.2148 0 52.9629 0 53.8846V71.9861C0 72.9078 0.748038 73.6558 1.66973 73.6558H19.7704C20.6921 73.6558 21.4401 72.9078 21.4401 71.9861V53.8846C21.4401 52.962 20.6921 52.2148 19.7704 52.2148Z" fill="url(#paint0_linear)"/>
<path d="M48.7634 52.2148H30.6619C29.7402 52.2148 28.9922 52.9629 28.9922 53.8846V71.9861C28.9922 72.9078 29.7402 73.6558 30.6619 73.6558H48.7626C49.6843 73.6558 50.4323 72.9078 50.4323 71.9861V53.8846C50.4332 52.962 49.6851 52.2148 48.7634 52.2148Z" fill="url(#paint1_linear)"/>
<path d="M78.329 52.2148H60.2283C59.3066 52.2148 58.5586 52.9629 58.5586 53.8846V71.9861C58.5586 72.9078 59.3066 73.6558 60.2283 73.6558H78.3298C79.2515 73.6558 79.9996 72.9078 79.9996 71.9861V53.8846C79.9987 52.962 79.2524 52.2148 78.329 52.2148Z" fill="url(#paint2_linear)"/>
<path d="M30.951 21.7839H49.0508C49.9725 21.7839 50.7206 21.0359 50.7206 20.1142V2.01348C50.7206 1.09179 49.9725 0.34375 49.0508 0.34375H30.951C30.0293 0.34375 29.2812 1.09179 29.2812 2.01348V20.1142C29.2812 21.0367 30.0293 21.7839 30.951 21.7839Z" fill="url(#paint3_linear)"/>
<path d="M7.94317 46.4308H11.3686C12.2903 46.4308 13.0383 45.6828 13.0383 44.7611V37.714H36.6191V44.7811C36.6191 45.7028 37.3671 46.4508 38.2888 46.4508H41.7142C42.6359 46.4508 43.384 45.7028 43.384 44.7811V37.714H66.9647V44.7677C66.9647 45.6894 67.7127 46.4375 68.6344 46.4375H72.0607C72.9824 46.4375 73.7304 45.6894 73.7304 44.7677V32.6171C73.7304 31.6954 72.9824 30.9474 72.0607 30.9474H43.3831V28.6307C43.3831 27.709 42.6351 26.9609 41.7134 26.9609H38.288C37.3663 26.9609 36.6182 27.709 36.6182 28.6307V30.9474H7.94317C7.02148 30.9474 6.27344 31.6954 6.27344 32.6171V44.7602C6.27344 45.6819 7.02148 46.4308 7.94317 46.4308Z" fill="url(#paint4_linear)"/>
<defs>
<linearGradient id="paint0_linear" x1="21.4401" y1="62.9353" x2="0" y2="62.9353" gradientUnits="userSpaceOnUse">
<stop stop-color="#383680"/>
<stop offset="1" stop-color="#5F5B82"/>
</linearGradient>
<linearGradient id="paint1_linear" x1="50.4323" y1="62.9353" x2="28.9922" y2="62.9353" gradientUnits="userSpaceOnUse">
<stop stop-color="#383680"/>
<stop offset="1" stop-color="#5F5B82"/>
</linearGradient>
<linearGradient id="paint2_linear" x1="79.9996" y1="62.9353" x2="58.5586" y2="62.9353" gradientUnits="userSpaceOnUse">
<stop stop-color="#383680"/>
<stop offset="1" stop-color="#5F5B82"/>
</linearGradient>
<linearGradient id="paint3_linear" x1="50.7206" y1="11.0638" x2="29.2812" y2="11.0638" gradientUnits="userSpaceOnUse">
<stop stop-color="#383680"/>
<stop offset="1" stop-color="#5F5B82"/>
</linearGradient>
<linearGradient id="paint4_linear" x1="17.2352" y1="39.05" x2="63.158" y2="37.7616" gradientUnits="userSpaceOnUse">
<stop stop-color="#F9A844"/>
<stop offset="1" stop-color="#E05D2A"/>
</linearGradient>
</defs>
</svg>
