<svg width="160" height="48" fill="none" xmlns="http://www.w3.org/2000/svg"><path fill-rule="evenodd" clip-rule="evenodd" d="M33.906 47.27h31V2h-31v45.27z" fill="#FF8F3E"/><path fill-rule="evenodd" clip-rule="evenodd" d="M0 47.27h30.999V2H0v45.27zM67.809 47.27h30.999V2h-31v45.27z" fill="#383680"/><path fill-rule="evenodd" clip-rule="evenodd" d="M14.957 35.931c-1.476 0-2.854-.198-4.232-.693-1.279-.495-2.46-1.09-3.444-1.882-.984-.793-1.771-1.783-2.263-2.774-.59-1.09-.788-2.18-.788-3.368V13.742h4.92v13.373c0 .694.198 1.288.493 1.882.295.595.689 1.09 1.28 1.486.491.396 1.18.793 1.87.99.688.199 1.475.397 2.263.397.787 0 1.574-.1 2.263-.396.689-.297 1.28-.595 1.87-.99.492-.397.984-.991 1.28-1.487.294-.594.491-1.188.491-1.882V13.742h4.92v13.373a7.704 7.704 0 01-.787 3.368c-.59 1.09-1.279 1.981-2.263 2.774-.984.792-2.165 1.387-3.444 1.882-1.477.495-2.953.792-4.429.792zM39.363 31.42v4.256h8.07c1.28 0 2.46-.099 3.641-.396a11.415 11.415 0 003.248-1.09c.984-.495 1.968-1.09 2.755-1.782a14.889 14.889 0 002.067-2.279c.59-.891 1.082-1.783 1.377-2.675.296-.99.492-1.98.492-2.971 0-1.09-.196-2.08-.492-2.972-.295-.99-.787-1.882-1.377-2.675-.59-.891-1.28-1.585-2.067-2.278-.886-.693-1.771-1.288-2.755-1.783-.985-.495-2.067-.793-3.248-1.09-1.18-.297-2.362-.396-3.641-.396h-8.07v15.129h5.02V17.152h3.05c1.18 0 2.362.198 3.346.595 1.082.297 1.968.891 2.755 1.486.788.693 1.378 1.386 1.87 2.278.492.892.689 1.783.689 2.774 0 .99-.197 1.882-.689 2.773-.492.892-1.082 1.684-1.87 2.279-.787.594-1.771 1.09-2.755 1.486a9.525 9.525 0 01-3.346.594h-2.051v.003h-6.019zM73.117 35.634v-3.962h12.006c.393 0 .787-.1 1.18-.198.394-.1.69-.297.985-.496.295-.198.492-.495.689-.792.196-.297.196-.693.196-.99 0-.298-.098-.694-.196-.991-.197-.297-.394-.595-.69-.793-.294-.198-.59-.396-.983-.495-.394-.099-.788-.198-1.181-.198h-5.511c-1.083 0-2.165-.198-3.15-.495-.983-.397-1.77-.793-2.558-1.387-.689-.595-1.28-1.288-1.673-2.08a5.811 5.811 0 01-.59-2.576c0-.892.197-1.783.59-2.477.394-.792.984-1.485 1.673-2.08a7.093 7.093 0 012.559-1.386c.984-.397 1.968-.496 3.149-.496h12.4v3.962h-12.4c-.394 0-.787.1-1.181.199s-.689.297-.984.495c-.295.198-.492.495-.689.792-.197.298-.197.694-.197.991 0 .396.098.693.197.99.197.298.394.595.689.793.295.198.59.396.984.495.394.1.787.198 1.18.198h5.512c1.082 0 2.165.199 3.149.496s1.87.792 2.558 1.387c.69.594 1.28 1.287 1.674 2.08.393.792.59 1.684.59 2.575 0 .892-.197 1.783-.59 2.477-.394.792-.985 1.486-1.674 2.08a7.092 7.092 0 01-2.558 1.387c-.984.396-2.067.495-3.15.495H73.118z" fill="#fff"/><path d="M111.536 3.6c1.088 0 1.944.26 2.568.78.624.52.936 1.236.936 2.148 0 .912-.312 1.628-.936 2.148-.624.52-1.48.78-2.568.78h-2.076V12h-1.2V3.6h3.276zm-.036 4.812c.76 0 1.34-.16 1.74-.48.4-.328.6-.796.6-1.404 0-.608-.2-1.072-.6-1.392-.4-.328-.98-.492-1.74-.492h-2.04v3.768h2.04zm9.812 3.684c-.848 0-1.612-.184-2.292-.552a4.212 4.212 0 01-1.608-1.548 4.266 4.266 0 01-.576-2.196c0-.808.192-1.54.576-2.196a4.124 4.124 0 011.608-1.536c.68-.376 1.444-.564 2.292-.564.84 0 1.6.188 2.28.564a4.04 4.04 0 011.596 1.536c.384.648.576 1.38.576 2.196 0 .816-.192 1.552-.576 2.208a4.151 4.151 0 01-1.596 1.536c-.68.368-1.44.552-2.28.552zm0-1.068c.616 0 1.168-.14 1.656-.42.496-.28.884-.664 1.164-1.152a3.238 3.238 0 00.432-1.656c0-.608-.144-1.156-.432-1.644a3.014 3.014 0 00-1.164-1.164 3.267 3.267 0 00-1.656-.42 3.4 3.4 0 00-1.68.42 3.1 3.1 0 00-1.176 1.164 3.244 3.244 0 00-.42 1.644c0 .608.14 1.16.42 1.656.288.488.68.872 1.176 1.152a3.4 3.4 0 001.68.42zm12.502.972l-1.812-2.58c-.224.016-.4.024-.528.024h-2.076V12h-1.2V3.6h3.276c1.088 0 1.944.26 2.568.78.624.52.936 1.236.936 2.148 0 .648-.16 1.2-.48 1.656-.32.456-.776.788-1.368.996l1.992 2.82h-1.308zm-2.376-3.576c.76 0 1.34-.164 1.74-.492.4-.328.6-.796.6-1.404 0-.608-.2-1.072-.6-1.392-.4-.328-.98-.492-1.74-.492h-2.04v3.78h2.04zm7.63-3.78h-2.88V3.6h6.948v1.044h-2.88V12h-1.188V4.644zM149.973 9.9h-4.464l-.924 2.1h-1.236l3.804-8.4h1.188l3.816 8.4h-1.26l-.924-2.1zm-.42-.96l-1.812-4.116-1.812 4.116h3.624zm4.457-5.34h1.2v7.356h4.548V12h-5.748V3.6z" fill="#383680"/></svg>