<svg width="164" height="106" viewBox="0 0 164 106" fill="none" xmlns="http://www.w3.org/2000/svg">
<path fill-rule="evenodd" clip-rule="evenodd" d="M56.168 74.9784H107.52V0H56.168V74.9784Z" fill="#FF8F3E"/>
<path fill-rule="evenodd" clip-rule="evenodd" d="M0 74.9784H51.3519V0H0V74.9784Z" fill="#383680"/>
<path fill-rule="evenodd" clip-rule="evenodd" d="M112.328 74.9784H163.68V0H112.328V74.9784Z" fill="#383680"/>
<path fill-rule="evenodd" clip-rule="evenodd" d="M24.7772 56.2001C22.3318 56.2001 20.0495 55.872 17.7673 55.0516C15.648 54.2313 13.6917 53.247 12.0614 51.9344C10.4312 50.6218 9.12706 48.9812 8.31194 47.3405C7.33387 45.5358 7.00781 43.731 7.00781 41.7622V19.4492H15.1588V41.5983C15.1588 42.7467 15.4849 43.731 15.9739 44.7155C16.4631 45.6998 17.1151 46.5201 18.0933 47.1765C18.9085 47.8327 20.0495 48.4889 21.1907 48.8172C22.3318 49.1453 23.636 49.4734 24.9402 49.4734C26.2444 49.4734 27.5486 49.3093 28.6897 48.8172C29.8309 48.325 30.8091 47.8327 31.7871 47.1765C32.6021 46.5201 33.4173 45.5358 33.9065 44.7155C34.3955 43.731 34.7215 42.7467 34.7215 41.5983V19.4492H42.8725V41.5983C42.8725 43.567 42.3835 45.5358 41.5685 47.1765C40.5903 48.9812 39.4492 50.4577 37.8188 51.7703C36.1886 53.0829 34.2324 54.0672 32.1131 54.8877C29.6679 55.708 27.2226 56.2001 24.7772 56.2001Z" fill="white"/>
<path fill-rule="evenodd" clip-rule="evenodd" d="M65.207 48.7289V55.4501V55.7782H78.5749C80.6941 55.7782 82.6503 55.6142 84.6066 55.122C86.5628 54.7939 88.3562 54.1377 89.9864 53.3172C91.6167 52.4968 93.2467 51.5125 94.5511 50.3641C95.8551 49.2156 96.9964 47.903 97.9744 46.5905C98.9526 45.1139 99.7678 43.6374 100.257 42.1607C100.746 40.52 101.072 38.8793 101.072 37.2386C101.072 35.434 100.746 33.7933 100.257 32.3166C99.7678 30.6761 98.9526 29.1993 97.9744 27.8869C96.9964 26.4102 95.8551 25.2618 94.5511 24.1133C93.0839 22.9649 91.6167 21.9804 89.9864 21.1602C88.3562 20.3399 86.5628 19.8477 84.6066 19.3554C82.6503 18.8632 80.6941 18.6992 78.5749 18.6992H65.207V43.7565H73.5212V25.0978H78.5749C80.5311 25.0978 82.4873 25.4259 84.1176 26.0821C85.9108 26.5744 87.378 27.5588 88.6822 28.5431C89.9864 29.6916 90.9645 30.8402 91.7797 32.3166C92.5947 33.7933 92.9207 35.2698 92.9207 36.9107C92.9207 38.5512 92.5947 40.0279 91.7797 41.5045C90.9645 42.981 89.9864 44.2936 88.6822 45.2779C87.378 46.2624 85.7478 47.0827 84.1176 47.7389C82.3243 48.3953 80.5311 48.7234 78.5749 48.7234H75.1774V48.7289H65.207Z" fill="white"/>
<path fill-rule="evenodd" clip-rule="evenodd" d="M121.121 55.708V49.1451H141.01C141.662 49.1451 142.314 48.9812 142.966 48.8172C143.618 48.653 144.107 48.3249 144.596 47.9967C145.085 47.6687 145.411 47.1765 145.738 46.6843C146.063 46.192 146.063 45.5358 146.063 45.0436C146.063 44.5513 145.9 43.8951 145.738 43.4029C145.411 42.9107 145.085 42.4184 144.596 42.0903C144.107 41.7622 143.618 41.4341 142.966 41.27C142.314 41.106 141.662 40.9419 141.01 40.9419H131.881C130.087 40.9419 128.294 40.6138 126.664 40.1215C125.034 39.4653 123.729 38.809 122.425 37.8246C121.284 36.8402 120.306 35.6917 119.654 34.3792C119.002 33.0667 118.676 31.59 118.676 30.1135C118.676 28.6369 119.002 27.1602 119.654 26.0118C120.306 24.6992 121.284 23.5508 122.425 22.5664C123.567 21.582 125.034 20.7618 126.664 20.2696C128.294 19.6134 129.924 19.4492 131.881 19.4492H152.421V26.0118H131.881C131.229 26.0118 130.576 26.1759 129.924 26.34C129.272 26.504 128.783 26.8321 128.294 27.1602C127.805 27.4885 127.479 27.9806 127.153 28.4728C126.827 28.965 126.827 29.6212 126.827 30.1135C126.827 30.7697 126.99 31.2619 127.153 31.7542C127.479 32.2464 127.805 32.7385 128.294 33.0667C128.783 33.3948 129.272 33.7229 129.924 33.8869C130.576 34.051 131.229 34.2152 131.881 34.2152H141.01C142.803 34.2152 144.596 34.5433 146.227 35.0355C147.857 35.5278 149.324 36.3479 150.465 37.3324C151.606 38.3169 152.584 39.4653 153.237 40.7779C153.889 42.0903 154.215 43.567 154.215 45.0436C154.215 46.5203 153.889 47.9967 153.237 49.1451C152.584 50.4577 151.606 51.6061 150.465 52.5906C149.324 53.5751 147.857 54.3954 146.227 54.8877C144.596 55.5439 142.803 55.708 141.01 55.708H121.121Z" fill="white"/>
<path fill-rule="evenodd" clip-rule="evenodd" d="M164 106V79.5H0V106H164Z" fill="white"/>
<path d="M53.7352 87.2858C54.6397 87.2858 55.4249 87.4348 56.0909 87.733C56.7667 88.0311 57.2836 88.4584 57.6414 89.0149C57.9992 89.5714 58.1781 90.2323 58.1781 90.9974C58.1781 91.7527 57.9992 92.4135 57.6414 92.98C57.2836 93.5365 56.7667 93.9638 56.0909 94.2619C55.4249 94.56 54.6397 94.7091 53.7352 94.7091H51.3796V97.7202H49.4414V87.2858H53.7352ZM53.6458 93.0694C54.4906 93.0694 55.1317 92.8905 55.569 92.5328C56.0064 92.175 56.225 91.6633 56.225 90.9974C56.225 90.3316 56.0064 89.8198 55.569 89.4621C55.1317 89.1043 54.4906 88.9255 53.6458 88.9255H51.3796V93.0694H53.6458ZM66.1285 97.8692C65.065 97.8692 64.1058 97.6407 63.251 97.1835C62.3962 96.7165 61.7253 96.0755 61.2383 95.2606C60.7513 94.4358 60.5078 93.5166 60.5078 92.503C60.5078 91.4893 60.7513 90.5751 61.2383 89.7602C61.7253 88.9354 62.3962 88.2944 63.251 87.8373C64.1058 87.3703 65.065 87.1367 66.1285 87.1367C67.192 87.1367 68.1512 87.3703 69.0059 87.8373C69.8607 88.2944 70.5316 88.9304 71.0187 89.7453C71.5057 90.5602 71.7492 91.4794 71.7492 92.503C71.7492 93.5265 71.5057 94.4457 71.0187 95.2606C70.5316 96.0755 69.8607 96.7165 69.0059 97.1835C68.1512 97.6407 67.192 97.8692 66.1285 97.8692ZM66.1285 96.1699C66.8242 96.1699 67.4504 96.0159 68.007 95.7078C68.5636 95.3898 69.001 94.9526 69.319 94.3961C69.6371 93.8296 69.7961 93.1986 69.7961 92.503C69.7961 91.8073 69.6371 91.1813 69.319 90.6248C69.001 90.0583 68.5636 89.6211 68.007 89.313C67.4504 88.995 66.8242 88.836 66.1285 88.836C65.4327 88.836 64.8066 88.995 64.2499 89.313C63.6933 89.6211 63.256 90.0583 62.9379 90.6248C62.6199 91.1813 62.4608 91.8073 62.4608 92.503C62.4608 93.1986 62.6199 93.8296 62.9379 94.3961C63.256 94.9526 63.6933 95.3898 64.2499 95.7078C64.8066 96.0159 65.4327 96.1699 66.1285 96.1699ZM81.6258 97.7202L79.4938 94.6644C79.4044 94.6743 79.2702 94.6793 79.0913 94.6793H76.7356V97.7202H74.7975V87.2858H79.0913C79.9958 87.2858 80.781 87.4348 81.4469 87.733C82.1228 88.0311 82.6396 88.4584 82.9975 89.0149C83.3553 89.5714 83.5342 90.2323 83.5342 90.9974C83.5342 91.7825 83.3404 92.4583 82.9527 93.0247C82.575 93.5911 82.0284 94.0135 81.3127 94.2917L83.7131 97.7202H81.6258ZM81.5811 90.9974C81.5811 90.3316 81.3624 89.8198 80.9251 89.4621C80.4878 89.1043 79.8467 88.9255 79.0018 88.9255H76.7356V93.0843H79.0018C79.8467 93.0843 80.4878 92.9054 80.9251 92.5477C81.3624 92.18 81.5811 91.6633 81.5811 90.9974ZM88.6682 88.9255H85.2093V87.2858H94.0653V88.9255H90.6064V97.7202H88.6682V88.9255ZM102.758 95.3053H97.5401L96.5114 97.7202H94.5136L99.2099 87.2858H101.118L105.83 97.7202H103.802L102.758 95.3053ZM102.117 93.7849L100.149 89.2236L98.1961 93.7849H102.117ZM108.151 87.2858H110.089V96.0805H115.546V97.7202H108.151V87.2858Z" fill="#383680"/>
</svg>
