<svg width="32" height="32" viewBox="0 0 32 32" fill="none" xmlns="http://www.w3.org/2000/svg">
<rect width="32" height="32" rx="4" fill="url(#paint0_linear)"/>
<path d="M16.0001 6.83203C21.0635 6.83203 25.1682 10.9367 25.1682 16.0001C25.1682 21.0635 21.0635 25.1682 16.0001 25.1682C10.9367 25.1682 6.83203 21.0635 6.83203 16.0001C6.83203 10.9367 10.9367 6.83203 16.0001 6.83203ZM18.6941 20.1249H13.3061C13.9038 22.3378 14.9427 23.7932 16.0001 23.7932C17.0575 23.7932 18.0964 22.3378 18.6941 20.1249ZM11.8827 20.1254L9.38713 20.1253C10.2656 21.5306 11.5796 22.6357 13.1401 23.2517C12.6614 22.5002 12.2663 21.5594 11.9757 20.4875L11.8827 20.1254ZM22.6131 20.1253L20.1175 20.1254C19.8207 21.348 19.3921 22.4167 18.8592 23.2517C20.3231 22.6742 21.5694 21.6668 22.4433 20.3852L22.6131 20.1253ZM11.5024 14.1662H8.42462L8.42026 14.182C8.28085 14.7653 8.20703 15.3741 8.20703 16.0001C8.20703 16.9683 8.38357 17.8952 8.70622 18.7504L11.6149 18.7501C11.4845 17.8801 11.4154 16.9559 11.4154 16.0001C11.4154 15.3731 11.4451 14.7597 11.5024 14.1662ZM19.114 14.1662H12.8863C12.8239 14.7532 12.7904 15.3671 12.7904 16.0001C12.7904 16.9713 12.8693 17.8975 13.0101 18.7502H18.9901C19.1309 17.8975 19.2099 16.9713 19.2099 16.0001C19.2099 15.3671 19.1763 14.7532 19.114 14.1662ZM23.576 14.1654L20.4978 14.1662C20.5551 14.7597 20.5849 15.3731 20.5849 16.0001C20.5849 16.9559 20.5157 17.8801 20.3853 18.7501L23.294 18.7504C23.6167 17.8952 23.7932 16.9683 23.7932 16.0001C23.7932 15.3682 23.718 14.7538 23.576 14.1654ZM13.1411 8.74851L13.1201 8.7565C11.2434 9.50332 9.72537 10.9584 8.89609 12.7916L11.6902 12.7919C11.9774 11.1852 12.4787 9.78641 13.1411 8.74851ZM16.0001 8.20703L15.8941 8.21189C14.7341 8.318 13.6135 10.1531 13.0931 12.7915H18.9071C18.3882 10.1605 17.2724 8.32829 16.1159 8.21282L16.0001 8.20703ZM18.8601 8.74856L18.9581 8.90815C19.5715 9.92791 20.0373 11.2661 20.31 12.7919L23.1042 12.7916C22.3116 11.0394 20.8898 9.63278 19.1271 8.85973L18.8601 8.74856Z" fill="white"/>
<defs>
<linearGradient id="paint0_linear" x1="30.7368" y1="16" x2="2.73794" y2="16.1754" gradientUnits="userSpaceOnUse">
<stop stop-color="#FF8F3E"/>
<stop offset="1" stop-color="#FFB178"/>
</linearGradient>
</defs>
</svg>
