<svg width="16" height="16" viewBox="0 0 16 16" fill="none" xmlns="http://www.w3.org/2000/svg">
<path d="M12.189 9.5685C12.0941 9.44451 11.9647 9.35136 11.8169 9.30079L11.7125 9.25028C11.7024 9.25028 10.5794 8.69635 10.3656 8.6189C10.2073 8.56165 9.88068 8.45053 9.63486 8.80916C9.52542 8.97753 9.19374 9.35972 9.04052 9.53314C9.02705 9.5483 9.01695 9.55503 9.01695 9.55672C8.98246 9.55121 8.94932 9.53921 8.9193 9.52136C8.88562 9.50452 8.8368 9.48432 8.77955 9.45906C8.28023 9.25734 7.81858 8.97272 7.41408 8.61722C7.01018 8.24988 6.66344 7.82426 6.38534 7.35445L6.36177 7.32751C6.37901 7.3067 6.39757 7.28701 6.41733 7.26858C6.48468 7.20292 6.55708 7.11537 6.62611 7.03286L6.72377 6.91837C6.80523 6.82195 6.8732 6.7149 6.92581 6.60016L6.95106 6.54796C6.99547 6.46035 7.01734 6.36305 7.01469 6.26487C7.01205 6.16668 6.98497 6.0707 6.93591 5.98561C6.9056 5.92668 6.70525 5.44683 6.55876 5.09662L6.34494 4.5831C6.16478 4.15712 5.93243 4.10325 5.71692 4.10156H5.6883C5.57044 4.10156 5.43743 4.10156 5.30273 4.10156C5.16999 4.10371 5.03912 4.13323 4.91831 4.18827C4.7975 4.24332 4.68935 4.3227 4.60063 4.42146L4.56528 4.4585C4.33631 4.68327 4.15564 4.95242 4.03433 5.24946C3.91303 5.5465 3.85364 5.86517 3.85981 6.18597C3.85981 7.10526 4.4491 7.9791 4.70166 8.31415L4.73028 8.35624C5.29263 9.14758 6.47963 10.5804 8.11954 11.2774C8.48859 11.4343 8.86571 11.5714 9.2493 11.6883C9.51695 11.7715 9.7957 11.8135 10.076 11.8129C10.2452 11.8126 10.414 11.7991 10.5811 11.7724C10.9835 11.7135 11.8809 11.2825 12.0964 10.7016C12.2362 10.3144 12.3153 9.78738 12.1873 9.57524L12.189 9.5685ZM11.6233 10.5215C11.5071 10.838 10.8471 11.2168 10.5137 11.2673C10.143 11.3291 9.76309 11.3061 9.40251 11.2C9.03514 11.0873 8.67379 10.9558 8.3199 10.806C6.79448 10.1578 5.67651 8.80579 5.14615 8.05655C5.12763 8.02961 5.11416 8.01109 5.10406 7.9993C4.93569 7.772 4.36492 6.9672 4.36492 6.17923C4.36004 5.92233 4.40838 5.66719 4.50689 5.42988C4.60541 5.19257 4.75198 4.97821 4.93737 4.80029L4.97778 4.7582C5.02004 4.71012 5.07175 4.67126 5.12968 4.64403C5.18762 4.6168 5.25053 4.60179 5.31452 4.59993C5.44079 4.59993 5.56539 4.59993 5.67483 4.59993H5.73207C5.78595 4.59993 5.81794 4.59993 5.89034 4.7683C5.94422 4.89458 6.02335 5.08147 6.10585 5.27341C6.32642 5.80209 6.46279 6.12872 6.49647 6.19607C6.53014 6.26342 6.52341 6.28194 6.5133 6.30214L6.48468 6.35602C6.45218 6.43312 6.40787 6.50469 6.35335 6.56817L6.25065 6.69108C6.19793 6.75958 6.14174 6.82533 6.08228 6.88807C5.97822 6.96809 5.90777 7.08408 5.88472 7.21331C5.86168 7.34255 5.8877 7.47574 5.95769 7.5868C6.26258 8.10228 6.64344 8.56886 7.08744 8.97079C7.53169 9.36401 8.03879 9.67988 8.58761 9.90524L8.70378 9.95575C8.81643 10.0282 8.95149 10.0573 9.08398 10.0378C9.21646 10.0183 9.3374 9.95147 9.4244 9.84968C9.52206 9.74024 9.91604 9.28564 10.0592 9.07518C10.0726 9.05498 10.0827 9.04487 10.0844 9.04151C10.1248 9.04859 10.1643 9.05988 10.2023 9.07518C10.3538 9.12906 11.2495 9.56177 11.5021 9.68467L11.6115 9.73855C11.6637 9.76212 11.7243 9.79243 11.7597 9.81263C11.7615 10.0556 11.7152 10.2965 11.6233 10.5215Z" fill="#1A4F95" stroke="#1A4F95" stroke-width="0.5"/>
<path d="M3.05906 3.1306C1.95365 4.20121 1.24618 5.61663 1.05335 7.14337C0.860514 8.67012 1.19384 10.217 1.99834 11.5288L1.07736 14.4972C1.06425 14.5411 1.06328 14.5878 1.07454 14.6323C1.0858 14.6767 1.10888 14.7173 1.14134 14.7497C1.17328 14.7824 1.21357 14.8056 1.25781 14.8169C1.30205 14.8281 1.34854 14.8271 1.39221 14.8137L4.42285 13.9062C5.75981 14.6984 7.32133 15.0259 8.86392 14.8377C10.4065 14.6495 11.8435 13.9561 12.9507 12.8657C13.5994 12.2318 14.1149 11.4747 14.4668 10.6388C14.8187 9.80291 15 8.9051 15 7.99814C15 7.09118 14.8187 6.19337 14.4668 5.35747C14.1149 4.52157 13.5994 3.76445 12.9507 3.1306C11.6292 1.83744 9.85384 1.11328 8.0049 1.11328C6.15595 1.11328 4.38055 1.83744 3.05906 3.1306ZM12.5904 12.5054C11.5486 13.5313 10.193 14.1783 8.74016 14.3432C7.28734 14.508 5.82121 14.181 4.57606 13.4146C4.53666 13.3901 4.49113 13.3772 4.44474 13.3775C4.40376 13.3778 4.36341 13.3876 4.32688 13.4061L1.70032 14.1941L2.49839 11.6198C2.52102 11.5809 2.53294 11.5368 2.53294 11.4918C2.53294 11.4468 2.52102 11.4027 2.49839 11.3638C1.72068 10.1473 1.3869 8.69958 1.55348 7.26537C1.72007 5.83115 2.3768 4.49845 3.41263 3.49259C4.6394 2.294 6.28643 1.62295 8.00153 1.62295C9.71663 1.62295 11.3637 2.294 12.5904 3.49259C13.1911 4.07955 13.6683 4.78063 13.9942 5.55465C14.32 6.32867 14.4879 7.16001 14.4879 7.99982C14.4879 8.83963 14.32 9.67097 13.9942 10.445C13.6683 11.219 13.1911 11.9201 12.5904 12.5071V12.5054Z" fill="#1A4F95" stroke="#1A4F95" stroke-width="0.5"/>
</svg>
