<svg width="116" height="167" viewBox="0 0 116 167" fill="none" xmlns="http://www.w3.org/2000/svg">
<path d="M31.6645 59.8133C30.7027 57.8779 52.6579 50.9048 53.0071 69.9999C53.0071 69.9999 94.1416 68.9473 74.4976 45.0336C67.6912 36.7578 68.3985 29.9081 68.6027 23.54C68.8069 17.1719 64.3531 -1.3398 49.1245 0.524643C49.1245 0.524643 45.1353 -1.16694 40.1607 1.52477C28.8532 7.64904 3.50665 66.8575 31.6645 59.8133Z" fill="#163560"/>
<path d="M98.8945 81.1805C98.8945 81.1805 101.558 76.9267 103.73 76.8588C105.902 76.7909 109.883 75.6241 109.563 76.4421C109.243 77.2601 106.766 77.3682 106.527 77.8621C106.287 78.356 110.202 79.0968 111.321 79.1956C112.44 79.2944 115.079 79.1956 114.999 79.779C114.92 80.3624 110.247 82.7795 106.947 82.4461C103.647 82.1127 99.5752 83.4462 99.5752 83.4462L98.8945 81.1805Z" fill="#FFB27D"/>
<path d="M60.1719 82.546C61.343 84.8268 62.7141 86.9896 64.2676 89.0067C67.4488 93.1616 72.3554 97.9585 78.5137 98.9092C81.4553 99.363 84.3317 98.7024 86.9744 97.4769C94.4526 94.0135 100.075 86.0557 100.075 86.0557C101.395 82.3052 99.2378 79.7616 99.2378 79.7616C99.2378 79.7616 84.1453 83.3053 82.6952 82.5552C81.2452 81.8051 72.8673 56.5919 70.858 53.4248C68.8486 50.2577 62.051 48.6094 62.051 48.6094L60.1719 82.546Z" fill="#B0D0FF"/>
<path d="M64.272 88.9994C67.4533 93.1543 72.3599 97.9514 78.5184 98.9021C81.46 99.3559 84.3365 98.6953 86.9792 97.4698C86.6833 97.5099 79.2168 98.473 76.2397 92.9166C73.2034 87.2491 69.9185 78.2447 65.4054 81.2451C63.4581 82.5416 63.5469 85.7612 64.272 88.9994Z" fill="#98BAF4"/>
<path d="M24.3867 121.123C29.7135 108.659 32.9687 105.072 32.3502 101.21C31.8886 98.3301 33.7618 47.524 33.7618 47.524C34.3951 47.3203 35.6617 47.1381 36.3542 46.9776C37.4275 46.7348 38.4246 46.2126 39.2525 45.4597C40.0803 44.7067 40.7121 43.7476 41.0891 42.6715C41.9976 40.0199 42.7197 36.1089 42.7019 31.207L43.3855 31.3459L54.8617 33.7166C54.8617 33.7166 54.5983 37.4856 54.5924 41.0355V41.1219C54.5826 42.6212 55.0424 44.0829 55.9018 45.2847C56.7613 46.4865 57.9734 47.3627 59.354 47.7802L62.0647 48.589C62.0647 48.589 66.2788 61.14 67.0955 74.0337C67.9123 86.9273 59.4339 92.5268 67.1606 118.29C75.0502 144.602 21.4422 128.01 24.3867 121.123Z" fill="#FFB27D"/>
<path d="M54.8788 33.734C54.8788 33.734 54.6154 37.5031 54.6095 41.053C48.1876 40.8616 44.7932 34.7527 43.4023 31.3633L54.8788 33.734Z" fill="#E8945B"/>
<path d="M57.0168 37.0933C57.0168 37.0933 41.8234 37.3556 41.8116 27.4776C41.7997 17.5996 39.8347 10.9874 49.5355 10.404C59.2363 9.8206 61.1244 13.5835 61.8968 16.8865C62.6692 20.1895 60.9676 36.7722 57.0168 37.0933Z" fill="#FFB27D"/>
<path d="M56.4476 10.1848C56.4476 10.1848 52.2867 21.7699 45.9033 23.4831C39.52 25.1963 36.75 23.409 36.75 23.409C36.75 23.409 41.6478 19.3528 42.6687 12.2684C42.6628 12.2684 53.3106 4.67468 56.4476 10.1848Z" fill="#163560"/>
<path d="M55.4141 11.1002C55.4141 11.1002 58.4977 12.3041 59.7673 14.6502C61.3012 17.3907 62.0163 20.5464 61.8211 23.7133C61.8211 23.7133 64.958 15.8417 61.4334 11.3873C57.7017 6.65513 55.4141 11.1002 55.4141 11.1002Z" fill="#163560"/>
<path d="M53.7148 30.968C54.1049 31.4287 54.5918 31.7891 55.1375 32.021C55.6832 32.2529 56.273 32.3499 56.8607 32.3046C57.3517 32.274 57.8264 32.1086 58.2364 31.8251C58.6464 31.5416 58.9774 31.15 59.1956 30.6901C59.1956 30.6901 56.1001 29.9122 53.7148 30.968Z" fill="#EBF3FA"/>
<path d="M22.9232 69.9941C22.6923 74.1516 22.6923 78.3197 22.9232 82.4772C23.1807 86.9932 27.5575 93.0373 28.179 94.5344C29.7356 98.2849 31.4934 98.893 31.4934 98.893L45.0885 102.369L49.8678 103.603L64.9426 98.9053C64.9426 98.9053 71.8082 78.915 69.0531 67.6635C66.2979 56.4121 62.0839 48.5962 62.0839 48.5962C62.0839 48.5962 49.782 61.1596 33.7662 47.5312L22.9232 69.9941Z" fill="#B0D0FF"/>
<path d="M26.8906 84.3233C27.1451 88.8363 27.5446 93.0407 28.1661 94.5378C29.7227 98.2884 31.4806 98.8965 31.4806 98.8965L45.076 102.372L50.9799 100.563C50.9799 100.563 31.2705 97.4488 33.4545 79.7578L26.8906 84.3233Z" fill="#F2CCAA"/>
<path d="M63.9718 101.945C63.9718 101.945 71.4381 126.183 71.9086 134.437C72.3791 142.691 57.6478 251.664 57.053 255.464C56.4937 259.048 52.2264 261.329 52.2264 261.329C52.2264 261.329 50.2644 262.536 47.4649 261.712C43.5793 260.567 42.3512 259.196 42.3512 259.196C42.3512 259.196 36.5392 181.483 40.1347 153.726C42.3237 136.559 43.5391 119.272 43.7747 101.955L63.9718 101.945Z" fill="#ED7D2B"/>
<path d="M32.3493 101.215C32.3493 101.215 20.965 117.152 19.9026 127.925C18.8403 138.698 18.2366 176.541 15.9846 187.055C13.7326 197.569 5.41406 217.768 5.41406 250.528C5.41406 250.528 6.27521 252.405 8.94447 253.405C9.96238 253.764 10.9988 254.063 12.0487 254.3C13.1177 254.554 14.2375 254.426 15.228 253.935C16.2184 253.445 17.0217 252.621 17.5086 251.596C23.1312 239.799 41.0199 201.745 41.9373 193.846C42.5884 188.256 48.2376 151.248 60.5629 129.551C63.5222 124.338 58.7459 103.623 58.7459 103.623L32.3493 101.215Z" fill="#F99746"/>
<path d="M54.0391 31.2451C54.0391 31.2451 54.3024 32.4058 57.0783 32.2267C57.0783 32.2267 59.4074 32.0786 59.3363 30.7975C59.3363 30.7975 57.0754 29.89 54.0391 31.2451Z" fill="white"/>
<path d="M65.1657 98.207C65.1657 98.207 62.1708 100.677 56.2166 100.806C49.1141 100.954 31.4821 98.9139 31.4821 98.9139C30.9981 100.427 30.7445 102.011 30.7305 103.606C30.7305 103.606 52.254 109.28 64.7218 104.433C64.7218 104.433 66.3317 101.275 65.1657 98.207Z" fill="#233862"/>
<path d="M54.6797 103.354C54.6797 101.24 56.1357 99.5234 57.935 99.5234C59.7343 99.5234 61.1903 101.24 61.1903 103.354C61.1903 105.469 59.7343 107.185 57.935 107.185C56.1357 107.185 54.6797 105.466 54.6797 103.354ZM55.7539 103.354C55.7539 104.848 56.7276 106.061 57.9232 106.061C59.1187 106.061 60.0924 104.848 60.0924 103.354C60.0924 101.86 59.1187 100.644 57.9232 100.644C56.7276 100.644 55.7539 101.857 55.7539 103.354Z" fill="white"/>
<path d="M8.74682 102.726L30.6758 122.855L57.0907 91.5452L35.1617 71.4162L8.74682 102.726Z" fill="#B5453C"/>
<path d="M36.4587 102.645C36.4587 102.645 44.5378 103.632 44.5112 105.633C44.4845 107.633 42.4988 111.742 41.5015 111.924C40.5042 112.106 34.9258 106.367 34.9258 106.367L36.4587 102.645Z" fill="#FFB27D"/>
<path d="M33.7517 47.5234C33.7517 47.5234 22.965 48.3137 18.8309 58.7965C14.6967 69.2794 6.85156 86.8867 6.85156 89.8438C6.85156 92.801 11.2402 101.929 34.7668 107.179C34.7668 107.179 37.2023 104.506 37.0543 102.395C37.0543 102.395 22.3643 89.2326 22.4028 87.6954C22.4767 84.7845 24.8116 80.9445 37.7083 67.4859C41.2151 63.8281 33.7517 47.5234 33.7517 47.5234Z" fill="#B0D0FF"/>
</svg>
