<svg width="171" height="105" viewBox="0 0 171 105" fill="none" xmlns="http://www.w3.org/2000/svg">
<path d="M3.40502 50.2188H0L4.16924 103.493H12.4511L3.40502 50.2188Z" fill="#3A49CD"/>
<path d="M71.1252 34.6694L70.395 34.818C68.8259 35.1326 67.1973 34.808 65.8643 33.9152C64.5313 33.0224 63.602 31.6337 63.2793 30.052L62.5094 26.1947C62.1937 24.6089 62.5132 22.9615 63.3981 21.6131C64.2829 20.2646 65.661 19.325 67.2306 19L67.9608 18.8514C69.5299 18.537 71.1586 18.862 72.4912 19.7554C73.8238 20.6489 74.7522 22.0383 75.0737 23.6202L75.8577 27.489C76.1697 29.0744 75.847 30.7199 74.96 32.0656C74.0731 33.4113 72.6943 34.3475 71.1252 34.6694Z" fill="#060632"/>
<path d="M0 50.2127C0 50.2127 18.596 41.4008 44.0728 47.2611L3.39653 50.2127H0Z" fill="#3A49CD"/>
<path d="M12.4558 104.002L3.39844 50.2194C3.39844 50.2194 31.8897 40.5588 53.9954 50.2194L67.1456 103.651L12.4558 104.002Z" fill="#BED2FA"/>
<path d="M112.879 64.1484C112.879 64.1484 141.956 73.6547 145.276 84.2753C145.276 84.2753 145.14 89.027 148.047 94.4787V96.5759C148.047 96.5759 145.002 89.447 143.34 88.4698C143.34 88.4612 149.847 79.235 112.879 64.1484Z" fill="#6D89CF"/>
<path d="M150.737 103.521H149.075C149.024 101.095 148.747 98.3778 147.926 96.2948C147.827 96.0407 147.716 95.7918 147.592 95.549C147.247 94.8661 147.026 94.3661 146.868 94.0004C146.018 91.8974 148.051 94.4804 148.051 94.4804C149.66 97.2288 150.582 100.332 150.737 103.521Z" fill="#6D89CF"/>
<path d="M159.701 88.9829C159.509 89.4629 159.2 90.1258 158.744 91.0287C158.586 91.3402 158.442 91.6688 158.306 92.0088C156.992 95.329 156.732 99.9092 156.78 103.518H154.584C154.452 98.6355 155.687 93.8146 158.147 89.6086C158.201 89.5458 160.808 86.2456 159.701 88.9829Z" fill="#6D89CF"/>
<path d="M93.6494 103.663H41.5891C40.7975 101.703 40.1171 99.6999 39.5512 97.6623C38.068 92.4221 37.1057 86.6474 36.4943 80.99C36.4943 80.9186 36.4802 80.8443 36.4717 80.7728C35.4187 70.9609 35.4159 61.5232 35.5574 55.8514C35.6367 52.5713 35.7669 50.5512 35.7754 50.454L36.1094 50.314C38.869 49.1454 41.5183 48.1396 44.0544 47.2653H44.0771C46.2074 46.5319 48.2614 45.8938 50.2389 45.3509C53.4289 44.4597 56.6653 43.7471 59.9332 43.2165C63.0995 42.7017 66.2967 42.4038 69.5029 42.325H69.885C70.6398 42.3135 71.37 42.3135 72.0758 42.325C79.2028 42.4793 83.9466 43.9108 86.344 44.8651C86.678 44.9985 86.961 45.1213 87.1931 45.2337L87.2894 45.2737C87.5583 45.3966 87.7705 45.4994 87.9177 45.5737L87.9743 45.6052C88.0451 45.6423 88.113 45.6823 88.1781 45.7223L91.9426 85.5502L93.6494 103.663Z" fill="#0B0754"/>
<path d="M145.528 95.0543C140.311 97.5002 109.298 99.5517 106.306 98.6859C104.778 98.2402 98.3809 92.5513 91.9473 85.5567C85.8562 78.9391 79.717 71.1501 77.6451 65.5555C73.3995 54.0349 77.0479 43.8086 77.0479 43.8086C77.0479 43.8086 84.9731 43.7743 88.1913 45.7402C91.4096 47.706 109.873 82.0279 112.338 82.9222C114.803 83.8166 144.039 85.5195 147.379 87.1225C147.373 87.1053 150.738 92.6113 145.528 95.0543Z" fill="#0B0754"/>
<path d="M69.8763 43.708V45.6481C69.8763 45.6481 70.4084 51.7113 63.0096 52.6085C55.6108 53.5057 50.0037 50.2655 50.1962 45.5824C50.8585 41.9593 51.586 39.4677 51.6312 36.4704C51.639 35.254 51.5443 34.0391 51.3482 32.8388L65.6844 32.5273L69.9102 33.216L69.8763 43.708Z" fill="#FDA6A4"/>
<path d="M69.9108 33.217L69.8711 43.709C68.255 44.4754 66.4911 44.8715 64.7056 44.8691C58.1163 44.8691 51.5582 34.1742 51.3516 32.8398L69.9108 33.217Z" fill="#FC9290"/>
<path d="M70.7625 38.3152C70.7625 38.3152 52.407 42.0897 50.2559 30.5119C48.1048 18.9341 44.2865 11.628 55.9168 8.7307C67.5471 5.83339 70.6521 9.81647 72.2994 13.5052C73.9467 17.194 75.4836 37.0351 70.7625 38.3152Z" fill="#FDA6A4"/>
<path d="M75.8554 4.89841C72.0028 4.45944 68.2382 3.43445 64.6894 1.85824C59.7842 -0.284734 53.6025 2.09254 51.5986 3.16403C51.6686 2.72934 51.8329 2.31564 52.0798 1.95253C52.0798 1.95253 51.1797 2.59828 51.0467 3.50119C50.9561 3.56976 50.9136 3.61834 50.9363 3.63548C50.9589 3.65263 49.9145 3.4469 49.2607 3.74692C49.2607 3.74692 49.7192 3.6812 49.8834 3.97836C49.9016 4.01026 49.9268 4.0376 49.9569 4.05836C42.3148 7.80143 41.6298 20.0021 44.0951 22.8194C47.0642 26.211 50.6278 33.86 50.6278 33.86C50.6278 33.86 51.9184 32.0513 51.375 29.0626C50.8315 26.0739 53.3903 26.0653 56.6085 24.7166C59.8267 23.368 57.1378 19.5535 59.9597 17.2391C62.7817 14.9247 73.1467 16.2676 73.008 14.5018C76.8602 13.0674 75.8554 5.287 75.8554 4.89841Z" fill="#9E332E"/>
<path d="M41.5862 103.663C40.7946 101.703 40.1142 99.7 39.5483 97.6625C38.0651 92.4222 37.1028 86.6476 36.4914 80.9901C36.4914 80.9187 36.4772 80.8444 36.4688 80.773C36.5084 80.7901 36.5735 80.8987 36.6159 80.8473C38.6425 78.3614 44.176 75.6413 50.8757 85.5447C52.2145 87.5162 58.0764 101.343 59.0132 103.651L41.5862 103.663Z" fill="#030231"/>
<path d="M47.0294 103.665C46.8793 102.773 47.0294 101.647 47.7341 100.236C47.7341 100.236 48.5833 99.6643 49.7353 99.0186C51.4335 98.0499 53.7601 96.8785 54.8131 97.067C55.0027 97.1013 55.2575 97.1585 55.5575 97.2328C58.0568 97.8356 63.8818 99.6472 64.7592 100.707C65.4867 101.582 66.4745 102.693 67.1538 103.656L47.0294 103.665Z" fill="#FDA6A4"/>
<path d="M50.8784 103.662H1.82686C1.68159 103.115 1.69436 102.538 1.86366 101.999C3.327 98.267 6.18291 92.1238 9.46905 85.5349C11.8891 80.6774 14.5412 75.5943 17.0433 71.0426C20.5191 64.7194 23.7033 59.4334 25.5743 57.2619C27.1047 55.5586 28.885 54.1025 30.853 52.9445C32.4322 51.9969 34.0783 51.168 35.778 50.4643L36.112 50.3243C38.1007 49.5051 40.1471 48.8366 42.2342 48.3242C42.2342 48.3242 42.271 49.89 42.2739 52.293C42.2739 59.2734 42.0191 73.3399 39.8114 76.7715C38.8254 78.1969 37.7604 79.5648 36.6215 80.8689C36.579 80.9146 36.5394 80.9632 36.4969 81.0117C35.7214 81.9289 34.8638 82.9147 33.9495 83.9319C28.8321 89.7208 22.3447 96.5183 21.5579 97.3469C21.5289 97.3739 21.5015 97.4026 21.4758 97.4327H21.5692L35.3251 97.627L39.5425 97.6841L48.2914 97.807C48.8775 98.0675 49.376 98.4944 49.7264 99.0356C50.5812 100.273 50.8388 102.093 50.8784 103.662Z" fill="#0B0754"/>
<path d="M145.53 95.0527C140.313 97.4986 109.3 99.5501 106.308 98.6844C104.78 98.2386 98.3828 92.5497 91.9492 85.5551C92.2662 85.5951 95.2099 80.6434 108.626 92.4955C108.626 92.4955 112.142 94.0727 121.706 93.1898C131.27 92.3069 143.548 91.9811 145.53 95.0527Z" fill="#030231"/>
<path d="M115.046 103.576H79.5781C79.5781 102.818 79.8763 102.091 80.4071 101.556C80.938 101.02 81.6579 100.719 82.4086 100.719H115.046V103.576Z" fill="#A83F3F"/>
<path d="M114.947 64.5742H169.781L156.628 103.568H101.438L114.947 64.5742Z" fill="#A83F3F"/>
<path d="M170.586 64.5742L157.436 103.568H102.242L115.752 64.5742H170.586Z" fill="#B05050"/>
<path d="M141.024 83.7098C140.684 85.1984 139.212 86.4071 137.735 86.4071C136.257 86.4071 135.34 85.1984 135.68 83.7098C136.02 82.2211 137.494 81.0039 138.975 81.0039C140.455 81.0039 141.366 82.2183 141.024 83.7098Z" fill="#ED6966"/>
<path d="M170.587 64.5742L157.437 103.568H131.762L162.512 64.5742H170.587Z" fill="#A83F3F"/>
<path d="M55.5909 34.6695L54.8607 34.8181C53.2916 35.1326 51.663 34.8081 50.33 33.9153C48.997 33.0225 48.0677 31.6338 47.745 30.0521L46.9864 26.1947C46.6704 24.6106 46.9884 22.9646 47.871 21.6165C48.7535 20.2683 50.1288 19.3277 51.6963 19L52.4265 18.8515C53.996 18.537 55.625 18.8619 56.9581 19.7553C58.2911 20.6487 59.2201 22.0381 59.5422 23.6203L60.3121 27.4777C60.6278 29.0631 60.3081 30.7101 59.4232 32.0581C58.5383 33.4061 57.1603 34.3451 55.5909 34.6695Z" fill="#060632"/>
<path d="M49.8982 20.7775C49.4085 19.886 48.6811 12.7142 50.6454 6.99957C51.5908 4.23656 53.1192 2.66219 55.0355 1.59642C55.7293 1.21131 56.508 1.00888 57.2998 1.00781L59.2245 1.03924C52.8815 3.75082 51.4125 18.2545 51.905 19.8031C51.8933 19.7651 51.8772 19.7287 51.8569 19.6946L49.8982 20.7775Z" fill="#060632"/>
<path d="M68.4139 35.8758C57.7403 35.8758 52.4757 27.3696 52.4219 27.2839L53.3757 26.6953L52.9002 26.981L53.3757 26.6953C53.4238 26.7753 58.3941 34.7472 68.4139 34.7472H68.6148V35.873L68.4139 35.8758Z" fill="#060632"/>
<path d="M53.8717 30.8985L53.5066 30.9728C52.7249 31.1304 51.9133 30.9691 51.2492 30.5241C50.5851 30.0791 50.1226 29.3867 49.9629 28.5984L49.5779 26.6754C49.4218 25.8864 49.5816 25.067 50.0224 24.3966C50.4632 23.7262 51.1491 23.2593 51.93 23.0981L52.2952 23.0238C53.0768 22.8662 53.8885 23.0275 54.5526 23.4725C55.2167 23.9175 55.6792 24.6099 55.8389 25.3982L56.2238 27.3212C56.3799 28.1102 56.2201 28.9296 55.7793 29.6C55.3385 30.2704 54.6526 30.7373 53.8717 30.8985Z" fill="#0B0754"/>
<path d="M69.7368 36.2551H68.732C68.4852 36.2543 68.2488 36.155 68.0743 35.9789C67.8999 35.8028 67.8015 35.5641 67.8008 35.315C67.8015 35.066 67.8999 34.8273 68.0743 34.6512C68.2488 34.475 68.4852 34.3758 68.732 34.375H69.7368C69.9835 34.3758 70.2199 34.475 70.3944 34.6512C70.5689 34.8273 70.6672 35.066 70.668 35.315C70.6672 35.5641 70.5689 35.8028 70.3944 35.9789C70.2199 36.155 69.9835 36.2543 69.7368 36.2551Z" fill="#060632"/>
</svg>
