<svg width="124" height="167" viewBox="0 0 124 167" fill="none" xmlns="http://www.w3.org/2000/svg">
<path d="M84.0831 136.641C84.0831 136.641 87.0706 143.137 86.9094 144.91C86.7483 146.683 84.0831 152.333 84.0831 152.333L80.8633 137.415L84.0831 136.641Z" fill="#FFB27D"/>
<path d="M81.74 108.727L84.0828 136.646L80.863 137.405L72.3594 112.082L81.74 108.727Z" fill="#FFB27D"/>
<path d="M12.4414 19.0356L44.454 0L66.4475 15.5238L35.9844 33.4137L12.4414 19.0356Z" fill="#233862"/>
<path d="M28.8902 27.8089C28.8902 27.8089 28.0721 32.4914 23.5941 34.9137C19.116 37.3361 15.2795 38.0353 16.2402 45.8175C17.2009 53.5997 11.9233 55.3665 10.9719 60.5203C10.0205 65.6741 10.1321 75.092 22.965 72.2763C35.7979 69.4606 65.1825 71.4709 68.3776 67.2817C71.5726 63.0925 69.3321 54.3988 63.8964 47.7935C58.4608 41.1882 65.6536 36.8678 63.0969 31.0585C60.5402 25.2492 55.6314 19.2651 55.6314 19.2651C55.6314 19.2651 34.5056 15.2289 28.8902 27.8089Z" fill="#132644"/>
<path d="M51.9879 56.8599C52.0313 56.8817 51.1946 77.3127 47.7175 77.3501C46.9892 77.3501 41.6125 63.0438 40.9276 62.8534C37.2088 61.8326 36.6851 52.6676 36.7378 52.6551C38.3121 52.3429 38.7645 50.1578 38.7335 40.793L39.4432 40.9334L51.4146 43.3215C51.4146 43.3215 51.1419 47.1142 51.1326 50.6885C51.1326 53.6915 51.3061 56.5415 51.9879 56.8599Z" fill="#FFB27D"/>
<path d="M3.63657 36.3629L3.24609 35.5388C11.9543 31.3621 12.4222 21.4916 12.4098 19.216C12.4094 19.0729 12.4506 18.9328 12.5282 18.813C12.6059 18.6932 12.7166 18.5989 12.8468 18.5417C12.908 18.5148 12.975 18.5036 13.0416 18.5092C13.1082 18.5149 13.1724 18.5371 13.2284 18.574C13.2843 18.6108 13.3303 18.6611 13.3621 18.7203C13.394 18.7796 13.4107 18.8458 13.4108 18.9132C13.3922 21.5665 12.7197 32.0083 3.63657 36.3629Z" fill="#EFCBAB"/>
<path d="M3.24605 35.5391L2.03125 35.7295L2.72852 37.1404L3.63652 36.3632L3.24605 35.5391Z" fill="#D8A987"/>
<path d="M2.03294 35.7266C2.03294 35.7266 0.42766 36.4633 0 36.0387C0 36.0387 0.185939 37.4746 0.839826 37.7556C0.839826 37.7556 2.19718 37.587 2.73021 37.1313L2.03294 35.7266Z" fill="#EFCBAB"/>
<path d="M51.4167 43.3255C51.4167 43.3255 51.144 47.1183 51.1347 50.6925C44.4378 50.5021 40.908 44.3494 39.4453 40.9375L51.4167 43.3255Z" fill="#EF9E67"/>
<path d="M36.9799 41.3614C36.9799 41.3614 32.443 36.5853 30.6796 32.0714C29.4214 28.8468 28.6343 16.1107 41.3525 15.3864C43.9127 15.2316 46.4746 15.6584 48.849 16.6351C51.8984 17.9181 56.5624 21.074 54.3931 32.7676L53.9995 36.6477L36.9799 41.3614Z" fill="#132644"/>
<path d="M105.479 250.13C105.479 250.13 102.297 250.683 99.6843 250.886C99.1047 250.929 98.5531 250.954 98.0728 250.954C96.8146 250.954 94.5492 250.477 93.0276 250.121L92.913 250.096C92.2467 249.937 91.7353 249.806 91.5463 249.756L91.4657 249.734C91.4657 249.734 75.6175 231.934 66.7048 203.428C66.4982 202.762 66.2792 202.091 66.0478 201.414C61.1762 187.108 51.0797 169.159 45.7619 152.905C44.9169 150.32 44.1535 147.877 43.4717 145.575C43.2506 144.838 43.044 144.11 42.8519 143.39C38.9286 129.655 37.7944 120.658 36.75 111.031L68.7254 119.244C68.7254 119.244 82.1533 177.881 105.479 250.13Z" fill="#A53D38"/>
<path d="M53.5071 45.2337C53.5071 45.2337 38.0121 48.6456 36.0629 38.8999C34.1136 29.1543 30.7822 23.0328 40.5936 20.4419C50.405 17.8509 53.0701 21.1754 54.5111 24.269C55.9522 27.3625 57.4831 44.0943 53.5071 45.2337Z" fill="#FFB27D"/>
<path d="M47.6177 18.7664C47.6177 18.7664 45.6499 31.0655 39.4612 34.081C33.2725 37.0965 30.0898 35.9009 30.0898 35.9009C30.0898 35.9009 34.2952 30.8782 33.9326 23.6735C33.9326 23.6829 43.3194 13.9747 47.6177 18.7664Z" fill="#132644"/>
<path d="M46.7461 19.9079C46.7461 19.9079 50.4339 21.8152 51.7045 24.1408C52.9751 26.4664 55.6216 27.2905 55.7827 31.0302C55.7827 31.0302 57.4314 22.6019 52.9503 18.9433C48.2088 15.0538 46.7461 19.9079 46.7461 19.9079Z" fill="#132644"/>
<path d="M99.684 250.889C99.1045 250.932 98.5528 250.957 98.0725 250.957C96.8143 250.957 94.5489 250.48 93.0273 250.124L92.9127 250.099L91.546 249.759L91.4654 249.737C91.4654 249.737 75.6172 231.937 66.7045 203.431C66.4979 202.765 66.2789 202.094 66.0475 201.417C61.1759 187.111 51.0794 169.162 45.7615 152.908C44.9165 150.323 44.1531 147.88 43.4714 145.578C43.2503 144.841 43.0437 144.113 42.8516 143.393L48.5072 139.066C48.5072 139.066 65.4928 166.771 70.7487 192.842C75.0966 214.456 93.861 242.479 99.684 250.889Z" fill="#912F2F"/>
<path d="M49.084 195.279C49.1801 207.959 48.5448 237.108 46.9147 249.176C46.9147 249.176 45.3652 250.562 41.5039 250.578C37.5558 250.578 35.7924 249.126 35.7924 249.126C31.677 228.143 28.7515 210.784 26.6225 195.822C24.8747 183.548 23.3221 173.034 22.129 163.96C21.0722 155.931 27.7506 134.189 27.7506 134.189L52.8524 131.723C52.4402 153.936 49.0313 187.921 49.084 195.279Z" fill="#A53D38"/>
<path d="M41.4981 250.577C39.4916 250.693 37.4981 250.186 35.7866 249.125C31.6712 228.142 28.7457 210.782 26.6167 195.821C24.8689 183.546 23.3163 173.033 22.1232 163.958C21.0757 155.93 27.7541 134.188 27.7541 134.188L36.2608 139.669C36.2608 139.669 24.1747 150.732 27.156 171.647C30.1372 192.562 37.3702 247.614 41.4981 250.577Z" fill="#912F2F"/>
<path d="M81.0452 116.673C79.3859 117.191 77.684 117.559 75.9597 117.772C73.1707 118.181 70.459 118.446 68.7236 119.239C63.5948 121.583 51.1523 52.3867 51.1523 52.3867C51.1523 52.3867 60.2076 52.4741 64.3633 59.0732C68.5191 65.6723 84.6989 98.2743 86.1523 108.722C86.7721 113.417 84.3673 115.543 81.0452 116.673Z" fill="#1C468A"/>
<path d="M99.6836 209.997C99.6836 209.997 98.8531 212.092 96.5692 215.029C95.1981 216.785 93.6712 218.412 92.0075 219.889C86.9189 224.425 78.8089 229.335 66.2858 231.77C65.6196 231.898 64.944 232.02 64.2529 232.136C60.4814 232.76 56.8556 233.216 53.4064 233.521C47.1902 234.075 40.9443 234.209 34.7102 233.924C31.0317 233.753 27.7995 233.447 25.0848 233.106C18.9519 232.335 15.4531 231.386 15.4531 231.386C15.4531 231.386 15.4531 168.851 20.5696 131.72C23.402 111.158 32.9035 52.6711 32.9035 52.6711L37.6264 51.9375L48.9501 77.3505L51.1659 52.3776L56.3133 54.0415C57.5568 54.4443 58.6783 55.159 59.5722 56.1184C60.4661 57.0779 61.1032 58.2505 61.4235 59.5261L99.6836 209.997Z" fill="#1C468A"/>
<path d="M63.1842 113.945L36.9141 111.264L41.1721 72.918L67.4453 75.6026L63.1842 113.945Z" fill="#BC3F3F"/>
<path d="M41.1698 72.917L39.484 72.7891L35.5234 111.104L36.9118 111.263L41.1698 72.917Z" fill="#9B2323"/>
<path d="M19.1317 92.6836C19.1317 92.6836 37.5769 98.3618 55.207 100.9C55.207 100.9 61.0238 103.434 58.306 104.127C57.5932 104.305 22.2896 112.069 17.043 107.027L19.1317 92.6836Z" fill="#FFB27D"/>
<path d="M37.5667 51.9375C37.5667 51.9375 23.7669 53.6169 21.4519 56.4264C14.1011 65.3011 7.4383 103.194 13.2024 111.944C20.076 122.398 30.6683 105.994 33.9873 96.3361C35.7073 91.3197 38.5119 61.0464 37.5667 51.9375Z" fill="#1C468A"/>
<path d="M53.4686 100.636C53.4686 100.636 55.6379 100.433 56.0501 99.7334C56.8713 98.3381 58.1698 98.3568 59.2545 98.1726C60.3391 97.9885 61.557 96.7929 61.7739 97.0333C61.9909 97.2736 60.9744 98.5941 60.4073 99.0841C61.0665 99.1177 61.7253 99.0114 62.341 98.772C63.1096 98.4036 65.8119 95.2945 65.8274 96.6337C65.8553 99.8552 65.6105 100.38 62.871 102.646C60.6211 104.519 52.9883 105.212 52.9883 105.212L53.4686 100.636Z" fill="#FFB27D"/>
<path d="M37.531 91.8414L36.9949 97.2855C35.9676 97.054 34.962 96.7345 33.9889 96.3302C26.418 93.2804 29.4055 78.125 29.4055 78.125C30.5862 84.1872 34.3793 88.8727 37.531 91.8414Z" fill="#233862"/>
<path d="M55.6186 19.2715C55.6186 19.2715 44.4282 14.9886 28.8867 27.8122L29.1966 24.8841C29.3327 23.5883 29.7333 22.3349 30.3733 21.2025C31.0133 20.0701 31.8787 19.0832 32.9154 18.3038C35.283 16.5338 39.0576 14.5859 44.7287 13.7805C46.6406 13.5082 48.59 13.7693 50.3647 14.5355C52.1394 15.3016 53.6716 16.5435 54.7943 18.1258L55.6186 19.2715Z" fill="#1C468A"/>
<path d="M81.0456 116.675C79.3863 117.193 77.6844 117.561 75.9601 117.774L68.6992 85.4961C68.6992 85.4961 80.9154 110.307 81.0456 116.675Z" fill="#233862"/>
<path d="M47.9648 39.8752C47.9648 39.8752 48.6807 41.2612 49.7282 41.2674C50.7756 41.2736 53.447 41.0052 53.6391 40.7617C53.912 40.2066 54.146 39.6329 54.3395 39.0448C54.3395 39.0448 49.9451 38.9637 47.9648 39.8752Z" fill="white"/>
</svg>
