<svg width="33" height="33" viewBox="0 0 33 33" fill="none" xmlns="http://www.w3.org/2000/svg">
<path d="M24.2256 13.4581C27.1992 13.4581 29.6098 15.8687 29.6098 18.8423C29.6098 20.2085 29.101 21.4557 28.2626 22.405L28.2625 28.597C28.2625 29.3652 27.449 29.8344 26.7954 29.4972L26.675 29.4244L24.2251 27.7122L21.7762 29.4244C21.1465 29.8644 20.2959 29.4663 20.198 28.7374L20.1887 28.597L20.1874 22.4037C19.3497 21.4545 18.8414 20.2078 18.8414 18.8423C18.8414 15.8687 21.252 13.4581 24.2256 13.4581ZM26.2427 23.836C25.6197 24.0879 24.9388 24.2265 24.2256 24.2265C23.5113 24.2265 22.8296 24.0875 22.2059 23.8349L22.2064 26.6597L23.6475 25.6542C23.9513 25.4419 24.3428 25.4154 24.6686 25.5746L24.8037 25.6542L26.2425 26.6597L26.2427 23.836ZM25.907 4.04297C27.8754 4.04297 29.4848 5.57951 29.6013 7.51855L29.6081 7.74401L29.6099 14.8041C29.0658 14.0797 28.3789 13.4687 27.591 13.0129L27.5893 7.74401C27.5893 6.87298 26.9273 6.15655 26.079 6.0704L25.907 6.06172H6.39245C5.52141 6.06172 4.80499 6.7237 4.71884 7.57201L4.71016 7.74401V20.5294C4.71016 21.4005 5.37214 22.1169 6.22044 22.203L6.39245 22.2117L18.3995 22.2134L18.5662 22.4858L18.746 22.7505L18.8414 22.8763L18.8401 24.2305H6.39245C4.42412 24.2305 2.81468 22.6939 2.69816 20.7549L2.69141 20.5294V7.74401C2.69141 5.77569 4.22795 4.16624 6.16699 4.04972L6.39245 4.04297H25.907ZM24.2256 15.4769C22.3669 15.4769 20.8602 16.9837 20.8602 18.8423C20.8602 20.701 22.3669 22.2078 24.2256 22.2078C26.0843 22.2078 27.5911 20.701 27.5911 18.8423C27.5911 16.9837 26.0843 15.4769 24.2256 15.4769ZM15.1404 16.8227C15.6978 16.8227 16.1497 17.2746 16.1497 17.8321C16.1497 18.3431 15.77 18.7654 15.2773 18.8323L15.1404 18.8415H9.08411C8.52665 18.8415 8.07474 18.3896 8.07474 17.8321C8.07474 17.3211 8.45447 16.8988 8.94715 16.8319L9.08411 16.8227H15.1404ZM23.2154 9.42064C23.7728 9.42064 24.2247 9.87256 24.2247 10.43C24.2247 10.941 23.845 11.3633 23.3523 11.4302L23.2154 11.4394H9.08411C8.52665 11.4394 8.07474 10.9875 8.07474 10.43C8.07474 9.91901 8.45447 9.4967 8.94715 9.42986L9.08411 9.42064H23.2154Z" fill="#1E2432"/>
</svg>
