<svg width="112" height="112" viewBox="0 0 112 112" fill="none" xmlns="http://www.w3.org/2000/svg">
<g filter="url(#filter0_ddd)">
<rect x="24" y="10" width="64" height="64" rx="4" fill="url(#paint0_linear)"/>
<path fill-rule="evenodd" clip-rule="evenodd" d="M65.3341 51.3352V49.8605C66.083 49.5047 66.6008 48.7414 66.6008 47.8571V42.1518C66.6008 41.2676 66.083 40.5042 65.3341 40.1485V38.4506C65.3341 37.7793 65.0668 37.1346 64.5918 36.6596L57.2085 29.2774C57.1895 29.2585 57.1681 29.2421 57.1467 29.2257C57.131 29.2137 57.1153 29.2017 57.1008 29.1888C57.0108 29.1077 56.9222 29.0279 56.8234 28.9608C56.7914 28.9391 56.7563 28.9221 56.7214 28.9051C56.7011 28.8952 56.6808 28.8853 56.6612 28.8746C56.6401 28.8627 56.619 28.8505 56.5979 28.8383C56.5293 28.7986 56.4603 28.7587 56.3876 28.7277C56.1381 28.6238 55.8696 28.5719 55.5972 28.5529C55.5723 28.5513 55.5476 28.5479 55.5228 28.5445C55.4884 28.5399 55.454 28.5352 55.4186 28.5352H47.6008C46.2024 28.5352 45.0674 29.6701 45.0674 31.0685V40.1485C44.3185 40.5042 43.8008 41.2676 43.8008 42.1518V47.8571C43.8008 48.7414 44.3185 49.5047 45.0674 49.8605V51.3352C45.0674 52.7336 46.2024 53.8685 47.6008 53.8685H62.8008C64.1992 53.8685 65.3341 52.7336 65.3341 51.3352ZM62.8008 51.9685C63.1504 51.9685 63.4341 51.6835 63.4341 51.3352V50.0738H46.9674V51.3352C46.9674 51.6835 47.2512 51.9685 47.6008 51.9685H62.8008ZM63.4341 38.6685V39.9352H46.9674V31.0685C46.9674 30.7202 47.2512 30.4352 47.6008 30.4352H55.2008V36.1352C55.2008 37.5336 56.3357 38.6685 57.7341 38.6685H63.4341ZM62.0129 36.7685L57.1008 31.8551V36.1352C57.1008 36.4835 57.3845 36.7685 57.7341 36.7685H62.0129ZM46.0174 41.8352C45.8426 41.8352 45.7008 41.9769 45.7008 42.1518V47.8571C45.7008 48.032 45.8426 48.1738 46.0174 48.1738H64.3841C64.559 48.1738 64.7008 48.032 64.7008 47.8571V42.1518C64.7008 41.9769 64.559 41.8352 64.3841 41.8352H46.0174Z" fill="white"/>
<path d="M47.6008 43.5696C47.6008 43.1033 47.9789 42.7252 48.4452 42.7252H49.749C50.2625 42.7252 50.7151 42.8243 51.1069 43.0224C51.5032 43.2161 51.8095 43.4908 52.0257 43.8466C52.2464 44.2024 52.3567 44.6168 52.3567 45.0896C52.3567 45.5625 52.2464 45.9769 52.0257 46.3327C51.8095 46.6885 51.5032 46.9654 51.1069 47.1636C50.7151 47.3573 50.2625 47.4541 49.749 47.4541H48.4452C47.9789 47.4541 47.6008 47.076 47.6008 46.6096V43.5696ZM49.695 46.5556C50.1679 46.5556 50.544 46.425 50.8232 46.1638C51.1069 45.8981 51.2488 45.54 51.2488 45.0896C51.2488 44.6393 51.1069 44.2835 50.8232 44.0223C50.544 43.7566 50.1679 43.6237 49.695 43.6237H48.6952V46.5556H49.695Z" fill="white"/>
<path d="M55.4722 47.5352C54.9813 47.5352 54.5376 47.4293 54.1413 47.2176C53.7495 47.006 53.441 46.7155 53.2158 46.3462C52.9951 45.9724 52.8848 45.5535 52.8848 45.0896C52.8848 44.6258 52.9951 44.2092 53.2158 43.8399C53.441 43.4661 53.7495 43.1733 54.1413 42.9616C54.5376 42.75 54.9813 42.6441 55.4722 42.6441C55.9631 42.6441 56.4044 42.75 56.7963 42.9616C57.1881 43.1733 57.4966 43.4661 57.7218 43.8399C57.947 44.2092 58.0595 44.6258 58.0595 45.0896C58.0595 45.5535 57.947 45.9724 57.7218 46.3462C57.4966 46.7155 57.1881 47.006 56.7963 47.2176C56.4044 47.4293 55.9631 47.5352 55.4722 47.5352ZM55.4722 46.6029C55.7514 46.6029 56.0036 46.5398 56.2288 46.4137C56.454 46.2831 56.6296 46.103 56.7557 45.8733C56.8863 45.6436 56.9516 45.3824 56.9516 45.0896C56.9516 44.7969 56.8863 44.5357 56.7557 44.306C56.6296 44.0763 56.454 43.8984 56.2288 43.7723C56.0036 43.6417 55.7514 43.5764 55.4722 43.5764C55.1929 43.5764 54.9407 43.6417 54.7155 43.7723C54.4904 43.8984 54.3125 44.0763 54.1819 44.306C54.0558 44.5357 53.9927 44.7969 53.9927 45.0896C53.9927 45.3824 54.0558 45.6436 54.1819 45.8733C54.3125 46.103 54.4904 46.2831 54.7155 46.4137C54.9407 46.5398 55.1929 46.6029 55.4722 46.6029Z" fill="white"/>
<path d="M61.1451 47.5352C60.6632 47.5352 60.2264 47.4316 59.8346 47.2244C59.4472 47.0127 59.141 46.7222 58.9158 46.3529C58.6951 45.9791 58.5848 45.558 58.5848 45.0896C58.5848 44.6213 58.6951 44.2024 58.9158 43.8331C59.141 43.4593 59.4472 43.1688 59.8346 42.9616C60.2264 42.75 60.6655 42.6441 61.1519 42.6441C61.5617 42.6441 61.931 42.7162 62.2598 42.8603C62.4468 42.9412 62.6168 43.0419 62.7698 43.1625C62.9715 43.3215 62.9494 43.6185 62.7607 43.7927C62.5606 43.9774 62.2514 43.9497 62.0212 43.8042C61.7809 43.6523 61.5092 43.5764 61.2059 43.5764C60.9132 43.5764 60.652 43.6417 60.4223 43.7723C60.1926 43.8984 60.0125 44.0763 59.8819 44.306C59.7558 44.5357 59.6927 44.7969 59.6927 45.0896C59.6927 45.3824 59.7558 45.6436 59.8819 45.8733C60.0125 46.103 60.1926 46.2831 60.4223 46.4137C60.652 46.5398 60.9132 46.6029 61.2059 46.6029C61.5089 46.6029 61.7805 46.5262 62.0206 46.3727C62.2512 46.2254 62.5621 46.1965 62.7632 46.3821C62.9509 46.5554 62.9743 46.8506 62.775 47.0105C62.6207 47.1344 62.449 47.2372 62.2598 47.319C61.9265 47.4631 61.555 47.5352 61.1451 47.5352Z" fill="white"/>
</g>
<defs>
<filter id="filter0_ddd" x="0" y="0" width="112" height="112" filterUnits="userSpaceOnUse" color-interpolation-filters="sRGB">
<feFlood flood-opacity="0" result="BackgroundImageFix"/>
<feColorMatrix in="SourceAlpha" type="matrix" values="0 0 0 0 0 0 0 0 0 0 0 0 0 0 0 0 0 0 127 0"/>
<feOffset dy="14"/>
<feGaussianBlur stdDeviation="12"/>
<feColorMatrix type="matrix" values="0 0 0 0 0.0562384 0 0 0 0 0.121895 0 0 0 0 0.209437 0 0 0 0.08 0"/>
<feBlend mode="normal" in2="BackgroundImageFix" result="effect1_dropShadow"/>
<feColorMatrix in="SourceAlpha" type="matrix" values="0 0 0 0 0 0 0 0 0 0 0 0 0 0 0 0 0 0 127 0"/>
<feOffset dy="6"/>
<feGaussianBlur stdDeviation="6"/>
<feColorMatrix type="matrix" values="0 0 0 0 0.0562384 0 0 0 0 0.121895 0 0 0 0 0.209437 0 0 0 0.12 0"/>
<feBlend mode="normal" in2="effect1_dropShadow" result="effect2_dropShadow"/>
<feColorMatrix in="SourceAlpha" type="matrix" values="0 0 0 0 0 0 0 0 0 0 0 0 0 0 0 0 0 0 127 0"/>
<feOffset dy="3"/>
<feGaussianBlur stdDeviation="3"/>
<feColorMatrix type="matrix" values="0 0 0 0 0.920833 0 0 0 0 0.644445 0 0 0 0 0.31999 0 0 0 0.08 0"/>
<feBlend mode="normal" in2="effect2_dropShadow" result="effect3_dropShadow"/>
<feBlend mode="normal" in="SourceGraphic" in2="effect3_dropShadow" result="shape"/>
</filter>
<linearGradient id="paint0_linear" x1="85.4737" y1="42" x2="29.4759" y2="42.3508" gradientUnits="userSpaceOnUse">
<stop stop-color="#FCAB47"/>
<stop offset="1" stop-color="#FFBA88"/>
</linearGradient>
</defs>
</svg>
