<svg width="183" height="183" viewBox="0 0 183 183" fill="none" xmlns="http://www.w3.org/2000/svg">
<g clip-path="url(#clip0)">
<path d="M174.87 143.238C167.939 134.672 121.722 121.971 119.962 120.539C118.202 119.106 112.58 111.505 112.58 111.505H70.2719C70.2719 111.505 64.634 119.145 62.8897 120.539C61.1453 121.932 14.9047 134.672 7.98186 143.238C-4.13507 158.221 1.55739 198.902 0.194628 219.919H182.65C181.326 198.902 186.987 158.221 174.87 143.238Z" fill="#1E2432"/>
<path d="M91.4218 143.215L70.3262 111.404V92.0374H112.517V111.381L91.4218 143.215Z" fill="#A3754C"/>
<path d="M118.584 119.191C116.248 116.544 112.526 111.505 112.526 111.505L91.4226 143.215L70.327 111.505C70.327 111.505 66.5969 116.544 64.2607 119.191L78.2778 161.943L91.4226 150.294L104.575 161.974L118.584 119.191Z" fill="#E8EBFE"/>
<path d="M124.681 55.9747C124.19 63.8164 123.536 71.9852 122.703 78.3863C130.085 75.0534 130.973 63.2947 131.269 56.7145C131.542 51.131 126.714 54.3783 124.681 55.9747Z" fill="#A3754C"/>
<path d="M58.1703 55.9747C58.6609 63.8164 59.3073 71.9852 60.1405 78.3863C52.766 75.0534 51.8782 63.2947 51.5745 56.7145C51.302 51.131 56.1379 54.3783 58.1703 55.9747Z" fill="#A3754C"/>
<path d="M106.412 30.0198C96.9431 34.2795 91.4375 34.4274 91.4219 34.4274C91.4219 34.4274 85.9086 34.2795 76.4393 30.0198C73.6203 28.7505 57.7499 25.9471 58.0692 54.1603C58.9336 68.6056 60.3353 84.7252 62.4456 89.086C66.4638 97.4028 77.2414 112.004 91.4219 112.004C105.564 112.004 116.341 97.4028 120.398 89.086C122.509 84.7252 123.918 68.6056 124.782 54.1603C125.094 25.9471 109.224 28.7505 106.412 30.0198Z" fill="#BE8859"/>
<path d="M131.908 33.9212C132.221 33.4895 132.442 32.9981 132.557 32.4775C132.672 31.9568 132.679 31.4181 132.578 30.8946C132.476 30.3711 132.269 29.874 131.967 29.4342C131.666 28.9944 131.277 28.6212 130.825 28.3377C130.885 28.0824 130.917 27.8212 130.919 27.559C130.922 26.9138 130.765 26.2779 130.462 25.7084C130.159 25.1388 129.719 24.6536 129.182 24.2962C129.46 23.7591 129.606 23.1641 129.61 22.5596C129.614 21.7494 129.364 20.9584 128.897 20.2967C128.429 19.6351 127.767 19.1358 127.002 18.8684C126.717 18.2763 126.287 17.7659 125.752 17.3846C125.217 17.0034 124.594 16.7637 123.941 16.688C124.023 16.3858 124.064 16.0743 124.066 15.7613C124.066 15.2467 123.964 14.7372 123.766 14.2623C123.568 13.7873 123.278 13.3564 122.912 12.9943C122.546 12.6322 122.112 12.3462 121.635 12.1529C121.159 11.9595 120.648 11.8626 120.133 11.8677H120.032C119.859 11.1207 119.473 10.44 118.92 9.90902C118.367 9.378 117.671 9.01954 116.917 8.87743C116.628 8.15049 116.126 7.52763 115.477 7.09008C114.829 6.65252 114.063 6.42057 113.281 6.42445C112.407 6.42687 111.559 6.72309 110.874 7.26547C110.571 6.55717 110.066 5.9537 109.422 5.53006C108.778 5.10642 108.024 4.88126 107.253 4.88258H107.152C107.008 4.1684 106.665 3.50912 106.165 2.97971C105.664 2.4503 105.025 2.07201 104.32 1.88785C103.615 1.70369 102.872 1.72105 102.177 1.93797C101.481 2.15488 100.86 2.56264 100.385 3.11488C100.068 2.44871 99.5677 1.8864 98.9431 1.49348C98.3186 1.10055 97.5952 0.893177 96.8574 0.895515C96.0441 0.896865 95.2517 1.15284 94.5913 1.62751C94.2365 1.13796 93.7727 0.737739 93.2364 0.458565C92.7001 0.17939 92.1062 0.0289318 91.5017 0.0191086C90.8972 0.00928548 90.2987 0.140368 89.7537 0.401971C89.2086 0.663574 88.732 1.04851 88.3615 1.52628C87.8848 0.886523 87.2232 0.408635 86.466 0.157278C85.7088 -0.0940795 84.8927 -0.106772 84.128 0.120918C83.3634 0.348608 82.6872 0.805689 82.1908 1.43031C81.6945 2.05494 81.402 2.81696 81.353 3.61326V3.61326C80.732 3.61152 80.1196 3.75833 79.5669 4.04146C79.0142 4.32458 78.5372 4.7358 78.1758 5.24079L77.8487 5.33424C77.2703 5.00275 76.6153 4.82826 75.9487 4.82807C75.215 4.82221 74.4945 5.02378 73.8704 5.40955C73.2463 5.79532 72.7439 6.3496 72.421 7.00849C71.5529 6.43273 70.492 6.22419 69.4705 6.4285C68.449 6.6328 67.5499 7.23332 66.97 8.09871C66.5383 7.92921 66.0787 7.84205 65.615 7.84173C65.1004 7.8417 64.5909 7.94369 64.1159 8.14179C63.641 8.33989 63.21 8.63018 62.8479 8.99587C62.4859 9.36156 62.1999 9.7954 62.0065 10.2723C61.8131 10.7492 61.7162 11.2597 61.7214 11.7743C61.7255 12.1029 61.77 12.4299 61.8538 12.7477C61.0196 12.9156 60.2634 13.3523 59.7008 13.9907C59.1383 14.6292 58.8004 15.4344 58.7389 16.2831C57.8709 16.8035 57.2397 17.6414 56.979 18.6193C56.0929 18.8001 55.2974 19.2837 54.729 19.987C54.1607 20.6904 53.8548 21.5697 53.8641 22.4739C53.8651 22.6805 53.886 22.8865 53.9264 23.0891C53.3365 23.4351 52.8482 23.9304 52.5106 24.525C52.1729 25.1197 51.9978 25.7928 52.0029 26.4766C51.9986 27.0116 52.1047 27.5418 52.3144 28.034C51.7751 28.2445 51.2895 28.5725 50.893 28.9943C50.4964 29.4161 50.199 29.921 50.0222 30.4722C49.8454 31.0235 49.7937 31.6072 49.871 32.1809C49.9483 32.7547 50.1525 33.3039 50.4688 33.7888C49.9041 34.479 49.5935 35.3422 49.5889 36.234C49.5888 36.8833 49.7495 37.5225 50.0565 38.0945C50.3636 38.6666 50.8076 39.1537 51.3488 39.5124C51.3054 39.7278 51.2819 39.9468 51.2787 40.1665C51.2767 40.6851 51.3783 41.1988 51.5776 41.6775C51.7768 42.1562 52.0697 42.5904 52.439 42.9544C53.9964 57.5243 59.5098 73.3947 59.5098 73.3947C59.5098 54.4016 65.8876 44.2704 65.8876 44.2704C71.5878 46.8013 91.4219 47.0115 91.4219 47.0115C91.4219 47.0115 111.264 46.8013 116.956 44.2704C116.956 44.2704 123.342 54.3938 123.342 73.3947C123.342 73.3947 128.676 57.9448 130.35 43.5384C130.82 43.2644 131.227 42.8952 131.545 42.4545C131.863 42.0138 132.085 41.5114 132.197 40.9796C132.31 40.4478 132.309 39.8984 132.196 39.3667C132.083 38.8351 131.86 38.3329 131.542 37.8927C132.036 37.2336 132.309 36.4348 132.32 35.611C132.312 35.0238 132.171 34.4461 131.908 33.9212V33.9212Z" fill="#3C2418"/>
</g>
<defs>
<clipPath id="clip0">
<rect width="183" height="183" fill="white"/>
</clipPath>
</defs>
</svg>
