<svg width="33" height="33" viewBox="0 0 33 33" fill="none" xmlns="http://www.w3.org/2000/svg">
<path d="M19.8508 20.1891C21.1515 20.1891 22.206 21.2435 22.206 22.5443L22.2046 23.8391C22.3615 26.7852 20.171 28.2762 16.2396 28.2762C12.3247 28.2762 10.0935 26.8095 10.0935 23.8901V22.5443C10.0935 21.2435 11.148 20.1891 12.4487 20.1891H19.8508ZM19.8508 22.2078H12.4487C12.2629 22.2078 12.1122 22.3585 12.1122 22.5443V23.8901C12.1122 25.473 13.3055 26.2575 16.2396 26.2575C19.1573 26.2575 20.2714 25.4991 20.1872 23.8928V22.5443C20.1872 22.3585 20.0366 22.2078 19.8508 22.2078ZM5.04661 13.4599L10.936 13.46C10.8253 13.8901 10.7664 14.3411 10.7664 14.8057C10.7664 15.0333 10.7805 15.2576 10.808 15.4778L5.04661 15.4786C4.86079 15.4786 4.71016 15.6293 4.71016 15.8151V17.1609C4.71016 18.7439 5.90346 19.5283 8.83755 19.5283C9.45919 19.5283 9.99896 19.4939 10.4627 19.4242C9.70208 19.906 9.13184 20.6587 8.88388 21.5459L8.83755 21.5471C4.92261 21.5471 2.69141 20.0803 2.69141 17.1609V15.8151C2.69141 14.5144 3.74587 13.4599 5.04661 13.4599ZM27.2529 13.4599C28.5536 13.4599 29.6081 14.5144 29.6081 15.8151L29.6066 17.1099C29.7636 20.056 27.5731 21.5471 23.6417 21.5471L23.4153 21.5447C23.1603 20.6335 22.5653 19.8643 21.7757 19.3826C22.2961 19.4803 22.9156 19.5283 23.6417 19.5283C26.5593 19.5283 27.6735 18.7699 27.5893 17.1636V15.8151C27.5893 15.6293 27.4387 15.4786 27.2529 15.4786L21.4916 15.4776C21.519 15.2575 21.5331 15.0333 21.5331 14.8057C21.5331 14.3411 21.4742 13.8901 21.3635 13.46L27.2529 13.4599ZM16.1497 10.7682C18.3796 10.7682 20.1872 12.5759 20.1872 14.8057C20.1872 17.0356 18.3796 18.8432 16.1497 18.8432C13.9199 18.8432 12.1122 17.0356 12.1122 14.8057C12.1122 12.5759 13.9199 10.7682 16.1497 10.7682ZM16.1497 12.787C15.0348 12.787 14.131 13.6908 14.131 14.8057C14.131 15.9207 15.0348 16.8245 16.1497 16.8245C17.2647 16.8245 18.1685 15.9207 18.1685 14.8057C18.1685 13.6908 17.2647 12.787 16.1497 12.787ZM8.74766 4.03906C10.9775 4.03906 12.7852 5.84671 12.7852 8.07656C12.7852 10.3064 10.9775 12.1141 8.74766 12.1141C6.51781 12.1141 4.71016 10.3064 4.71016 8.07656C4.71016 5.84671 6.51781 4.03906 8.74766 4.03906ZM23.5518 4.03906C25.7817 4.03906 27.5893 5.84671 27.5893 8.07656C27.5893 10.3064 25.7817 12.1141 23.5518 12.1141C21.322 12.1141 19.5143 10.3064 19.5143 8.07656C19.5143 5.84671 21.322 4.03906 23.5518 4.03906ZM8.74766 6.05781C7.63273 6.05781 6.72891 6.96164 6.72891 8.07656C6.72891 9.19149 7.63273 10.0953 8.74766 10.0953C9.86258 10.0953 10.7664 9.19149 10.7664 8.07656C10.7664 6.96164 9.86258 6.05781 8.74766 6.05781ZM23.5518 6.05781C22.4369 6.05781 21.5331 6.96164 21.5331 8.07656C21.5331 9.19149 22.4369 10.0953 23.5518 10.0953C24.6667 10.0953 25.5706 9.19149 25.5706 8.07656C25.5706 6.96164 24.6667 6.05781 23.5518 6.05781Z" fill="#212121"/>
</svg>
