<svg width="90" height="39" viewBox="0 0 90 39" fill="none" xmlns="http://www.w3.org/2000/svg">
<path opacity="0.8" d="M14.1902 27.9C14.1902 28.9933 13.7902 29.9333 12.9902 30.72C12.1902 31.4933 11.0369 31.9733 9.53023 32.16V34.4H7.53023V32.22C6.54357 32.1667 5.60357 31.9933 4.71023 31.7C3.8169 31.4067 3.0969 31.0467 2.55023 30.62L3.65023 28.18C4.1569 28.5533 4.75023 28.8667 5.43023 29.12C6.11023 29.3733 6.81023 29.5333 7.53023 29.6V26.26C6.58357 26.0333 5.78357 25.78 5.13023 25.5C4.4769 25.22 3.93023 24.8133 3.49023 24.28C3.05023 23.7333 2.83023 23.0133 2.83023 22.12C2.83023 21.0133 3.23023 20.0667 4.03023 19.28C4.84357 18.48 6.01023 17.9933 7.53023 17.82V15.6H9.53023V17.78C11.1702 17.9133 12.5236 18.32 13.5902 19L12.5902 21.46C11.5902 20.8867 10.5702 20.54 9.53023 20.42V23.82C10.4636 24.0333 11.2502 24.28 11.8902 24.56C12.5436 24.8267 13.0902 25.2333 13.5302 25.78C13.9702 26.3133 14.1902 27.02 14.1902 27.9ZM6.05023 21.96C6.05023 22.2933 6.1769 22.5667 6.43023 22.78C6.68357 22.9933 7.05023 23.1733 7.53023 23.32V20.48C7.02357 20.6 6.65023 20.7933 6.41023 21.06C6.17023 21.3133 6.05023 21.6133 6.05023 21.96ZM9.53023 29.52C10.0102 29.4133 10.3702 29.24 10.6102 29C10.8502 28.76 10.9702 28.4733 10.9702 28.14C10.9702 27.8067 10.8436 27.5333 10.5902 27.32C10.3502 27.1067 9.9969 26.92 9.53023 26.76V29.52ZM44.8882 26.708H40.7842V32H35.0962V26.708H21.5242V22.784L33.4042 6.8H39.5242L28.5082 21.956H35.2762V17.24H40.7842V21.956H44.8882V26.708ZM55.3479 6.368C58.8759 6.368 61.6359 7.448 63.6279 9.608C65.6199 11.744 66.6159 14.828 66.6159 18.86C66.6159 21.716 66.0759 24.164 64.9959 26.204C63.9399 28.244 62.4399 29.792 60.4959 30.848C58.5519 31.904 56.3079 32.432 53.7639 32.432C52.4199 32.432 51.1359 32.288 49.9119 32C48.6879 31.688 47.6439 31.256 46.7799 30.704L48.9399 26.42C50.1639 27.26 51.7359 27.68 53.6559 27.68C55.7919 27.68 57.4839 27.056 58.7319 25.808C59.9799 24.536 60.6519 22.712 60.7479 20.336C59.2359 21.848 57.1479 22.604 54.4839 22.604C52.8759 22.604 51.4119 22.28 50.0919 21.632C48.7719 20.984 47.7279 20.072 46.9599 18.896C46.1919 17.696 45.8079 16.316 45.8079 14.756C45.8079 13.076 46.2279 11.6 47.0679 10.328C47.9079 9.056 49.0479 8.084 50.4879 7.412C51.9519 6.716 53.5719 6.368 55.3479 6.368ZM55.7799 18.248C57.0519 18.248 58.0839 17.9 58.8759 17.204C59.6919 16.484 60.0999 15.572 60.0999 14.468C60.0999 13.364 59.7039 12.464 58.9119 11.768C58.1439 11.072 57.0759 10.724 55.7079 10.724C54.4599 10.724 53.4399 11.06 52.6479 11.732C51.8799 12.404 51.4959 13.316 51.4959 14.468C51.4959 15.62 51.8799 16.544 52.6479 17.24C53.4399 17.912 54.4839 18.248 55.7799 18.248Z" fill="#696D8C"/>
<rect x="1.98438" width="93.5361" height="4" transform="rotate(21.7926 1.98438 0)" fill="url(#paint0_linear)"/>
<defs>
<linearGradient id="paint0_linear" x1="91.8283" y1="2" x2="11.7037" y2="13.7377" gradientUnits="userSpaceOnUse">
<stop stop-color="#FF8F3E"/>
<stop offset="1" stop-color="#FFB178"/>
</linearGradient>
</defs>
</svg>
