<svg width="48" height="36" viewBox="0 0 48 36" fill="none" xmlns="http://www.w3.org/2000/svg">
<path d="M12.3807 28.9C12.3807 29.9933 11.9807 30.9333 11.1807 31.72C10.3807 32.4933 9.22733 32.9733 7.72066 33.16V35.4H5.72066V33.22C4.734 33.1667 3.794 32.9933 2.90066 32.7C2.00733 32.4067 1.28733 32.0467 0.740664 31.62L1.84066 29.18C2.34733 29.5533 2.94066 29.8667 3.62066 30.12C4.30066 30.3733 5.00066 30.5333 5.72066 30.6V27.26C4.774 27.0333 3.974 26.78 3.32066 26.5C2.66733 26.22 2.12066 25.8133 1.68066 25.28C1.24066 24.7333 1.02066 24.0133 1.02066 23.12C1.02066 22.0133 1.42066 21.0667 2.22066 20.28C3.034 19.48 4.20066 18.9933 5.72066 18.82V16.6H7.72066V18.78C9.36066 18.9133 10.714 19.32 11.7807 20L10.7807 22.46C9.78066 21.8867 8.76066 21.54 7.72066 21.42V24.82C8.654 25.0333 9.44066 25.28 10.0807 25.56C10.734 25.8267 11.2807 26.2333 11.7207 26.78C12.1607 27.3133 12.3807 28.02 12.3807 28.9ZM4.24066 22.96C4.24066 23.2933 4.36733 23.5667 4.62066 23.78C4.874 23.9933 5.24066 24.1733 5.72066 24.32V21.48C5.214 21.6 4.84066 21.7933 4.60066 22.06C4.36066 22.3133 4.24066 22.6133 4.24066 22.96ZM7.72066 30.52C8.20066 30.4133 8.56066 30.24 8.80066 30C9.04066 29.76 9.16066 29.4733 9.16066 29.14C9.16066 28.8067 9.034 28.5333 8.78066 28.32C8.54066 28.1067 8.18733 27.92 7.72066 27.76V30.52ZM34.1926 33.552C31.5246 33.552 29.148 32.8927 27.0626 31.574C24.9773 30.2553 23.3366 28.354 22.1406 25.87C20.9753 23.3553 20.3926 20.3653 20.3926 16.9C20.3926 13.4347 20.9753 10.46 22.1406 7.976C23.3366 5.46133 24.9773 3.54466 27.0626 2.226C29.148 0.907332 31.5246 0.247999 34.1926 0.247999C36.8606 0.247999 39.2373 0.907332 41.3226 2.226C43.408 3.54466 45.0333 5.46133 46.1986 7.976C47.3946 10.46 47.9926 13.4347 47.9926 16.9C47.9926 20.3653 47.3946 23.3553 46.1986 25.87C45.0333 28.354 43.408 30.2553 41.3226 31.574C39.2373 32.8927 36.8606 33.552 34.1926 33.552ZM34.1926 27.25C36.1553 27.25 37.6886 26.4067 38.7926 24.72C39.9273 23.0333 40.4946 20.4267 40.4946 16.9C40.4946 13.3733 39.9273 10.7667 38.7926 9.08C37.6886 7.39333 36.1553 6.55 34.1926 6.55C32.2606 6.55 30.7273 7.39333 29.5926 9.08C28.4886 10.7667 27.9366 13.3733 27.9366 16.9C27.9366 20.4267 28.4886 23.0333 29.5926 24.72C30.7273 26.4067 32.2606 27.25 34.1926 27.25Z" fill="#979797"/>
</svg>
