<svg width="31" height="28" viewBox="0 0 31 28" fill="none" xmlns="http://www.w3.org/2000/svg">
<path d="M7.99383 7.54C7.99383 8.196 7.75383 8.76 7.27383 9.232C6.79383 9.696 6.10183 9.984 5.19783 10.096V11.44H3.99783V10.132C3.40583 10.1 2.84183 9.996 2.30583 9.82C1.76983 9.644 1.33783 9.428 1.00983 9.172L1.66983 7.708C1.97383 7.932 2.32983 8.12 2.73783 8.272C3.14583 8.424 3.56583 8.52 3.99783 8.56V6.556C3.42983 6.42 2.94983 6.268 2.55783 6.1C2.16583 5.932 1.83783 5.688 1.57383 5.368C1.30983 5.04 1.17783 4.608 1.17783 4.072C1.17783 3.408 1.41783 2.84 1.89783 2.368C2.38583 1.888 3.08583 1.596 3.99783 1.492V0.159999H5.19783V1.468C6.18183 1.548 6.99383 1.792 7.63383 2.2L7.03383 3.676C6.43383 3.332 5.82183 3.124 5.19783 3.052V5.092C5.75783 5.22 6.22983 5.368 6.61383 5.536C7.00583 5.696 7.33383 5.94 7.59783 6.268C7.86183 6.588 7.99383 7.012 7.99383 7.54ZM3.10983 3.976C3.10983 4.176 3.18583 4.34 3.33783 4.468C3.48983 4.596 3.70983 4.704 3.99783 4.792V3.088C3.69383 3.16 3.46983 3.276 3.32583 3.436C3.18183 3.588 3.10983 3.768 3.10983 3.976ZM5.19783 8.512C5.48583 8.448 5.70183 8.344 5.84583 8.2C5.98983 8.056 6.06183 7.884 6.06183 7.684C6.06183 7.484 5.98583 7.32 5.83383 7.192C5.68983 7.064 5.47783 6.952 5.19783 6.856V8.512Z" fill="#E3E3E3"/>
<path d="M19.992 24.336C18.368 24.336 16.9213 23.9347 15.652 23.132C14.3827 22.3293 13.384 21.172 12.656 19.66C11.9467 18.1293 11.592 16.3093 11.592 14.2C11.592 12.0907 11.9467 10.28 12.656 8.768C13.384 7.23733 14.3827 6.07067 15.652 5.268C16.9213 4.46533 18.368 4.064 19.992 4.064C21.616 4.064 23.0627 4.46533 24.332 5.268C25.6013 6.07067 26.5907 7.23733 27.3 8.768C28.028 10.28 28.392 12.0907 28.392 14.2C28.392 16.3093 28.028 18.1293 27.3 19.66C26.5907 21.172 25.6013 22.3293 24.332 23.132C23.0627 23.9347 21.616 24.336 19.992 24.336ZM19.992 20.5C21.1867 20.5 22.12 19.9867 22.792 18.96C23.4827 17.9333 23.828 16.3467 23.828 14.2C23.828 12.0533 23.4827 10.4667 22.792 9.44C22.12 8.41333 21.1867 7.9 19.992 7.9C18.816 7.9 17.8827 8.41333 17.192 9.44C16.52 10.4667 16.184 12.0533 16.184 14.2C16.184 16.3467 16.52 17.9333 17.192 18.96C17.8827 19.9867 18.816 20.5 19.992 20.5Z" fill="url(#paint0_linear)"/>
<defs>
<linearGradient id="paint0_linear" x1="30.0049" y1="16" x2="3.17809" y2="15.9807" gradientUnits="userSpaceOnUse">
<stop stop-color="#777F9A"/>
<stop offset="1" stop-color="#CED2E2"/>
</linearGradient>
</defs>
</svg>
