<svg width="33" height="33" viewBox="0 0 33 33" fill="none" xmlns="http://www.w3.org/2000/svg">
<path d="M17.8303 2.69141C19.5027 2.69141 20.8585 4.04714 20.8585 5.71953V9.75885C20.8585 11.4312 19.5027 12.787 17.8303 12.787L16.8197 12.7865V15.4782L21.1995 15.4786C22.8022 15.4786 24.1141 16.7238 24.2206 18.2994L24.2276 18.5068L24.2271 19.5157L25.2379 19.5161C26.9103 19.5161 28.266 20.8719 28.266 22.5443V26.5836C28.266 28.256 26.9103 29.6117 25.2379 29.6117H21.1985C19.5262 29.6117 18.1704 28.256 18.1704 26.5836V22.5443C18.1704 20.8719 19.5262 19.5161 21.1985 19.5161L22.2084 19.5157L22.2088 18.5068C22.2088 17.9958 21.8291 17.5734 21.3364 17.5066L21.1995 17.4974H10.4279C9.91686 17.4974 9.49454 17.8771 9.4277 18.3698L9.41849 18.5068L9.41758 19.5157L10.4288 19.5161C12.1012 19.5161 13.4569 20.8719 13.4569 22.5443V26.5836C13.4569 28.256 12.1012 29.6117 10.4288 29.6117H6.38945C4.71707 29.6117 3.36133 28.256 3.36133 26.5836V22.5443C3.36133 20.8719 4.71707 19.5161 6.38945 19.5161L7.39883 19.5157L7.39974 18.5068C7.39974 16.9041 8.64485 15.5922 10.2205 15.4856L10.4279 15.4786L14.8009 15.4782V12.7865L13.791 12.787C12.1186 12.787 10.7629 11.4312 10.7629 9.75885V5.71953C10.7629 4.04714 12.1186 2.69141 13.791 2.69141H17.8303ZM10.4288 21.5349H6.38945C5.83199 21.5349 5.38008 21.9868 5.38008 22.5443V26.5836C5.38008 27.1411 5.83199 27.593 6.38945 27.593H10.4288C10.9862 27.593 11.4382 27.1411 11.4382 26.5836V22.5443C11.4382 21.9868 10.9862 21.5349 10.4288 21.5349ZM25.2379 21.5349H21.1985C20.6411 21.5349 20.1892 21.9868 20.1892 22.5443V26.5836C20.1892 27.1411 20.6411 27.593 21.1985 27.593H25.2379C25.7953 27.593 26.2472 27.1411 26.2472 26.5836V22.5443C26.2472 21.9868 25.7953 21.5349 25.2379 21.5349ZM17.8303 4.71016H13.791C13.2336 4.71016 12.7816 5.16207 12.7816 5.71953V9.75885C12.7816 10.3163 13.2336 10.7682 13.791 10.7682H17.8303C18.3878 10.7682 18.8397 10.3163 18.8397 9.75885V5.71953C18.8397 5.16207 18.3878 4.71016 17.8303 4.71016Z" fill="#212121"/>
</svg>
