<svg width="512" height="512" viewBox="0 0 512 512" fill="none" xmlns="http://www.w3.org/2000/svg">
<g clip-path="url(#clip0)">
<path fill-rule="evenodd" clip-rule="evenodd" d="M175 378H336V134H175V378Z" fill="#FF8F3E"/>
<path fill-rule="evenodd" clip-rule="evenodd" d="M0 378H160V134H0V378Z" fill="#1A4F95"/>
<path fill-rule="evenodd" clip-rule="evenodd" d="M351 378H511V134H351V378Z" fill="#1A4F95"/>
<path fill-rule="evenodd" clip-rule="evenodd" d="M79.4751 314.449C71.8406 314.449 64.7155 313.401 57.5905 310.779C50.9742 308.158 44.8668 305.012 39.777 300.817C34.6876 296.622 30.6162 291.379 28.0714 286.136C25.0179 280.368 24 274.6 24 268.308V197H49.4471V267.784C49.4471 271.455 50.4651 274.6 51.9918 277.747C53.5189 280.892 55.5543 283.514 58.6082 285.612C61.1532 287.709 64.7155 289.806 68.2783 290.855C71.8406 291.904 75.9123 292.952 79.984 292.952C84.0557 292.952 88.1274 292.428 91.6896 290.855C95.2524 289.282 98.3063 287.709 101.36 285.612C103.904 283.514 106.449 280.368 107.976 277.747C109.503 274.6 110.521 271.455 110.521 267.784V197H135.968V267.784C135.968 274.076 134.441 280.368 131.897 285.612C128.843 291.379 125.28 296.098 120.19 300.293C115.101 304.487 108.994 307.633 102.378 310.255C94.7435 312.877 87.1096 314.449 79.4751 314.449Z" fill="white"/>
<path d="M200 292.97V314.449V315.498H241.734C248.35 315.498 254.457 314.974 260.564 313.401C266.672 312.352 272.271 310.255 277.36 307.633C282.45 305.011 287.539 301.866 291.611 298.195C295.682 294.525 299.245 290.33 302.298 286.136C305.352 281.417 307.897 276.698 309.424 271.979C310.95 266.735 311.968 261.492 311.968 256.249C311.968 250.481 310.95 245.238 309.424 240.519C307.897 235.276 305.352 230.557 302.298 226.362C299.245 221.643 295.682 217.973 291.611 214.303C287.03 210.632 282.45 207.486 277.36 204.865C272.271 202.243 266.672 200.67 260.564 199.097C254.457 197.524 248.35 197 241.734 197H200V277.079H225.956V217.449H241.734C247.841 217.449 253.948 218.497 259.038 220.594C264.636 222.168 269.217 225.314 273.288 228.459C277.36 232.13 280.413 235.8 282.958 240.519C285.503 245.238 286.521 249.957 286.521 255.201C286.521 260.444 285.503 265.163 282.958 269.882C280.413 274.6 277.36 278.795 273.288 281.941C269.217 285.087 264.127 287.709 259.038 289.806C253.439 291.904 247.841 292.952 241.734 292.952L225.956 292.97H200Z" fill="white"/>
<path fill-rule="evenodd" clip-rule="evenodd" d="M383.634 313.877V292.903H445.726C447.762 292.903 449.797 292.379 451.833 291.855C453.869 291.33 455.396 290.282 456.923 289.233C458.45 288.185 459.467 286.612 460.486 285.039C461.503 283.465 461.503 281.368 461.503 279.795C461.503 278.222 460.994 276.125 460.486 274.552C459.467 272.979 458.45 271.406 456.923 270.357C455.396 269.309 453.869 268.26 451.833 267.735C449.797 267.211 447.762 266.687 445.726 266.687H417.225C411.626 266.687 406.028 265.638 400.939 264.065C395.849 261.968 391.777 259.87 387.706 256.725C384.143 253.578 381.089 249.908 379.054 245.713C377.018 241.519 376 236.8 376 232.081C376 227.362 377.018 222.643 379.054 218.973C381.089 214.778 384.143 211.108 387.706 207.962C391.269 204.816 395.849 202.195 400.939 200.622C406.028 198.525 411.118 198 417.225 198H481.352V218.973H417.225C415.189 218.973 413.153 219.497 411.118 220.022C409.082 220.546 407.555 221.594 406.028 222.643C404.501 223.692 403.483 225.265 402.466 226.838C401.447 228.411 401.447 230.508 401.447 232.081C401.447 234.178 401.956 235.751 402.466 237.324C403.483 238.898 404.501 240.47 406.028 241.519C407.555 242.568 409.082 243.616 411.118 244.14C413.153 244.665 415.189 245.189 417.225 245.189H445.726C451.324 245.189 456.923 246.238 462.012 247.811C467.102 249.384 471.682 252.005 475.245 255.152C478.807 258.298 481.861 261.968 483.897 266.163C485.933 270.357 486.95 275.076 486.95 279.795C486.95 284.514 485.933 289.233 483.897 292.903C481.861 297.098 478.807 300.768 475.245 303.914C471.682 307.06 467.102 309.682 462.012 311.255C456.923 313.352 451.324 313.877 445.726 313.877H383.634Z" fill="white"/>
</g>
<defs>
<clipPath id="clip0">
<rect width="512" height="243.906" fill="white" transform="translate(0 134)"/>
</clipPath>
</defs>
</svg>
