<svg id="Слой_1" data-name="Слой 1" xmlns="http://www.w3.org/2000/svg" viewBox="0 0 591 382"><defs><style>.cls-1{fill:#fff;}.cls-2{fill:#049fdf;}.cls-3{fill:#1a4f95;}.cls-4{fill:#f39200;}</style></defs><path class="cls-1" d="M591,382H0V0H591ZM215.86,78.3c1.3-2.06,2.45-3.81,3.54-5.59,3-5,8.2-7.45,13.18-8.2,5.67-.84,11.72.61,17.58,1.3,1.23.14,2.33,1.31,3.49,2a29.29,29.29,0,0,1-3.11,2.44c-6,3.58-12.14,6.89-17.89,10.8-1.27.86-1.14,3.8-1.65,5.78,1.73.31,3.45.68,5.18.9a23.1,23.1,0,0,0,3,0c4.35.29,6.58,3.68,4.13,7.06-1.67,2.3-4.49,4-7.12,5.3-2,1-4.48.77-6.73,1.19-8.64,1.64-10.78,4.08-9.46,11a22.32,22.32,0,0,0,2,5.53c2.56,5.12,4.77,10.41,10.76,12.86,10.13,4.14,24.93-4.93,27.55-15.67a38.45,38.45,0,0,0-1-21.31,5.52,5.52,0,0,1,0-3.12c.1-.31,1.73-.48,2.46-.2,7.77,3,14.94.7,19.73-6.12,6.33-9,7.62-19.31,6.46-29.67-.82-7.42-5.82-15.54-16.77-14.4-4.42.47-8.89.47-13.28,1.06-6.46.86-6.17,1-6.69-5.52s-2.53-12.88-7.47-17.59C235.24,10,220,19.34,216,26.34c-6.05,10.47-7.89,21.92-7,33.79C209.51,66.67,210.44,73.26,215.86,78.3Zm9.41,7.12c-6.38,3.21-11.18,6-16.27,8.06-5.39,2.18-7,0-6.84-5.7.23-8.11,5.1-16.79-2.17-24.28-.25-.25.35-1.2.35-1.82,0-7.16.42-14.36-.14-21.47-.21-2.71-2-6.18-4.18-7.62-2.47-1.63-5.71-.15-7.67,2.65-1.8,2.56-4,4.89-5.46,7.6-4.64,8.26-4.81,19.54,3,26.18,2.63,2.23,2,3.21.38,5.45A43.61,43.61,0,0,0,180.1,85c-3.06,8.47-.61,16.6,3.13,24.27,4.44,9.09,13,11.57,20.61,5.09,5.84-5,10.57-11.41,15.35-17.54C221.51,93.84,222.86,90.1,225.27,85.42Z" transform="translate(0 -0.02)"/><path class="cls-2" d="M215.86,78.3c-5.42-5-6.35-11.63-6.86-18.11-.92-11.87.92-23.32,7-33.79,4-7,19.28-16.32,27.79-8.21,4.94,4.71,7,11,7.47,17.59s.23,6.38,6.69,5.52c4.39-.59,8.86-.59,13.28-1.06,11-1.14,16,7,16.77,14.4,1.16,10.36-.13,20.65-6.46,29.67-4.79,6.82-12,9.14-19.73,6.12-.73-.28-2.36-.11-2.46.2a5.52,5.52,0,0,0,0,3.12,38.45,38.45,0,0,1,1,21.31c-2.62,10.74-17.42,19.81-27.55,15.67-6-2.45-8.2-7.74-10.76-12.86a22.32,22.32,0,0,1-2-5.53c-1.32-7,.82-9.4,9.46-11,2.25-.42,4.76-.23,6.73-1.19,2.63-1.29,5.45-3,7.12-5.3,2.45-3.38.22-6.77-4.13-7.06-1-.07-2,.11-3,0-1.73-.22-3.45-.59-5.18-.9.51-2,.38-4.92,1.65-5.78,5.75-3.91,11.91-7.22,17.89-10.8a29.29,29.29,0,0,0,3.11-2.44c-1.16-.69-2.26-1.86-3.49-2-5.86-.69-11.91-2.14-17.58-1.3-5,.75-10.16,3.25-13.18,8.2C218.31,74.49,217.16,76.24,215.86,78.3Z" transform="translate(0 -0.02)"/><path class="cls-3" d="M225.27,85.42c-2.44,4.68-3.76,8.42-6.08,11.38-4.78,6.13-9.51,12.54-15.35,17.54-7.56,6.48-16.17,4-20.61-5.09-3.74-7.67-6.19-15.8-3.13-24.27a43.52,43.52,0,0,1,6.16-10.51c1.64-2.24,2.25-3.22-.38-5.45-7.8-6.64-7.63-17.92-3-26.18,1.51-2.71,3.66-5,5.46-7.6,2-2.8,5.2-4.28,7.67-2.65a11.09,11.09,0,0,1,4.18,7.62c.56,7.11.18,14.31.14,21.47,0,.62-.6,1.57-.35,1.82,7.27,7.49,2.4,16.17,2.17,24.28-.17,5.75,1.45,7.88,6.84,5.7C214.09,91.42,218.86,88.63,225.27,85.42Z" transform="translate(0 -0.02)"/><path class="cls-4" d="M291.05,275.28a148.16,148.16,0,0,1-26.86-1.79c-1.72-.25-4.05-.28-4.19-2.71s2.19-2.46,3.89-3c18.09-5.63,37-7.74,55.17-13,18.65-5.44,37.54-10.75,53.56-22.2,6.79-4.85,14.22-9.82,16.46-19.26,1.87-7.9.26-14.85-3.91-21.31-7.09-11-17.17-19-28.11-25.78-13.41-8.32-27.2-16-42-21.67-3.73-1.44-6-.36-8.3,2.18C295,159.57,285.46,173.87,276.94,189c-4.67,8.27-8.79,16.77-12.73,25.37s-7.49,17.27-11.53,25.76c-6.22,13.06-12.1,26.3-19.48,38.76-1.36,2.3-2.64,6.13-5.77,5.37-3.42-.83-2.85-4.79-2.86-7.72-.09-22.3,5.55-43.35,13.69-63.92s18.68-39.68,30.74-58c3.92-6,8.37-11.59,12.77-17.23,1.63-2.09,2-3.51-.28-5.38-5.75-4.63-7.34-9.42-5.08-14.39s9.28-8.14,15.4-6.3c4.86,1.46,9.18,2.11,14.36.75,7.8-2.06,13.43,2.75,17.51,8.79a15.59,15.59,0,0,0,7.07,5.87c20.52,8.88,40.25,19.23,57.58,33.46,12.81,10.51,24.57,22.14,27.61,39.58,2.18,12.5-1.35,23.77-8.8,33.67-11.37,15.09-27.55,23-44.83,29.26A214,214,0,0,1,291.05,275.28Z" transform="translate(0 -0.02)"/><path class="cls-4" d="M24.55,229.64C24.37,212.7,29.84,197,35,181.18A148.9,148.9,0,0,1,41.57,165c2.72-5.88,12.86-8.49,19.29-5.25,5.7,2.87,7.16,9,4.35,15.82-5.23,12.74-9.85,25.65-12.63,39.25-1.26,6.19-2.8,12.18-2.79,18.57A26.5,26.5,0,0,0,54.12,248c3.49,5.39,9.74,5.75,15.23,5.28,19.28-1.64,35.24-11,50.08-22.69,6.63-5.22,13.42-10.43,19.34-16.25s11.53-12.65,17.25-19c10.35-11.51,19.16-24.14,28.39-36.49,7.89-10.55,13.78-22.28,20.92-33.26,1.6-2.46,2.16-5.55,4.28-7.78,1.43-1.51,2.41-4.56,4.65-3.84,2.71.87,1.62,4.06,1.52,6.23a67,67,0,0,1-3.41,16.57A206.19,206.19,0,0,1,189.7,186c-14.93,23.43-31.62,45.49-53.93,62.67-14.38,11.06-30.11,19.56-47.6,24.29a75.11,75.11,0,0,1-35.58.6c-16-3.43-27.5-17.85-28-34.49C24.47,236,24.55,232.8,24.55,229.64Z" transform="translate(0 -0.02)"/><path class="cls-4" d="M532.62,110.88c12.1-.08,23.71,3,35.33,5.76,5.18,1.26,9.44,8.23,8.38,12.69s-9.51,9.54-15,8.44c-8-1.61-15.79-3.77-24-4.35s-16.27-.58-23.72,3.72c-4.61,2.66-5.82,6-3.72,10.88,3.45,8.07,9.14,14.65,14.73,21.22,8.09,9.51,15.71,19.23,19.6,31.35,4.52,14.07,3,27.41-3.93,40.45-7.43,14-19.2,22.55-33.43,28.24-24.16,9.63-48.22,9.6-72-1.23a28,28,0,0,1-12.42-10.46c-.51-.8-1.39-1.64-.62-2.68s1.79-.52,2.74-.28c4.51,1.1,9,2.23,13.54,3.28a81.9,81.9,0,0,0,36.56.26,79,79,0,0,0,20.53-7.48c10.26-5.48,19.52-12.55,24.05-23.69,3.13-7.7,1.61-15.76-1.79-23.24-5.85-12.86-15.62-23-23.83-34.26-5.68-7.76-11.08-15.65-11.16-26.11-.1-12.73,7.89-20.89,19.59-26.27A72.94,72.94,0,0,1,532.62,110.88Z" transform="translate(0 -0.02)"/></svg>