<svg id="Слой_1" data-name="Слой 1" xmlns="http://www.w3.org/2000/svg" viewBox="0 0 591 530.02"><defs><style>.cls-1{fill:none;}.cls-2{fill:#049fdf;}.cls-3{fill:#1a4f95;}.cls-4{fill:#f39200;}.cls-5{fill:#f9faff;fill-rule:evenodd;}</style></defs><path class="cls-1" d="M591,447H0V0H591ZM215.86,91.61c1.3-2.41,2.45-4.46,3.54-6.54a18,18,0,0,1,13.18-9.6c5.67-1,11.72.71,17.58,1.52,1.23.17,2.33,1.53,3.49,2.34a31,31,0,0,1-3.11,2.86c-6,4.19-12.14,8.06-17.89,12.64-1.27,1-1.14,4.44-1.65,6.76,1.73.36,3.45.8,5.18,1a18.78,18.78,0,0,0,3,0c4.35.34,6.58,4.31,4.13,8.26-1.67,2.7-4.49,4.69-7.12,6.21-2,1.17-4.48.9-6.73,1.39-8.64,1.92-10.78,4.77-9.46,12.87a28.93,28.93,0,0,0,2,6.47c2.56,6,4.77,12.18,10.76,15,10.13,4.85,24.93-5.77,27.55-18.34a52.3,52.3,0,0,0-1-24.93,7.51,7.51,0,0,1,0-3.65c.1-.37,1.73-.57,2.46-.24,7.77,3.51,14.94.82,19.73-7.16C287.83,88,289.12,76,288,63.85c-.82-8.68-5.82-18.19-16.77-16.85-4.42.55-8.89.55-13.28,1.24-6.46,1-6.17,1.17-6.69-6.46s-2.53-15.07-7.47-20.58C235.24,11.68,220,22.61,216,30.8c-6.05,12.26-7.89,25.65-7,39.54C209.51,78,210.44,85.71,215.86,91.61Zm9.41,8.33c-6.38,3.76-11.18,7-16.27,9.43-5.39,2.55-7,0-6.84-6.67.23-9.49,5.1-19.65-2.17-28.41-.25-.29.35-1.41.35-2.13,0-8.38.42-16.81-.14-25.13-.21-3.17-2-7.23-4.18-8.91-2.47-1.91-5.71-.18-7.67,3.1-1.8,3-4,5.72-5.46,8.89-4.64,9.67-4.81,22.87,3,30.64,2.63,2.61,2,3.75.38,6.38a53.21,53.21,0,0,0-6.17,12.32c-3.06,9.91-.61,19.42,3.13,28.4,4.44,10.64,13,13.54,20.61,6,5.84-5.86,10.57-13.36,15.35-20.53C221.51,109.79,222.86,105.42,225.27,99.94Z" transform="translate(0 0.02)"/><path class="cls-2" d="M215.86,78.28c-5.42-5-6.35-11.63-6.86-18.11-.92-11.87.92-23.32,7-33.79,4-7,19.28-16.32,27.79-8.21,4.94,4.71,7,11,7.47,17.59s.23,6.38,6.69,5.52c4.39-.59,8.86-.59,13.28-1.06,11-1.14,16,7,16.77,14.4,1.16,10.36-.13,20.65-6.46,29.67-4.79,6.82-12,9.14-19.73,6.12-.73-.28-2.36-.11-2.46.2a5.52,5.52,0,0,0,0,3.12,38.45,38.45,0,0,1,1,21.31c-2.62,10.74-17.42,19.81-27.55,15.67-6-2.45-8.2-7.74-10.76-12.86a22.32,22.32,0,0,1-2-5.53c-1.32-7,.82-9.4,9.46-11,2.25-.42,4.76-.23,6.73-1.19,2.63-1.29,5.45-3,7.12-5.3,2.45-3.38.22-6.77-4.13-7.06-1-.07-2,.11-3,0-1.73-.22-3.45-.59-5.18-.9.51-2,.38-4.92,1.65-5.78,5.75-3.91,11.91-7.22,17.89-10.8a29.29,29.29,0,0,0,3.11-2.44c-1.16-.69-2.26-1.86-3.49-2-5.86-.69-11.91-2.14-17.58-1.3-5,.75-10.16,3.25-13.18,8.2C218.31,74.47,217.16,76.22,215.86,78.28Z" transform="translate(0 0.02)"/><path class="cls-3" d="M225.27,85.4c-2.44,4.68-3.76,8.42-6.08,11.38-4.78,6.13-9.51,12.54-15.35,17.54-7.56,6.48-16.17,4-20.61-5.09-3.74-7.67-6.19-15.8-3.13-24.27a43.52,43.52,0,0,1,6.16-10.51c1.64-2.24,2.25-3.22-.38-5.45-7.8-6.64-7.63-17.92-3-26.18,1.51-2.71,3.66-5,5.46-7.6,2-2.8,5.2-4.28,7.67-2.65a11.12,11.12,0,0,1,4.18,7.62c.56,7.11.18,14.31.14,21.47,0,.62-.6,1.57-.35,1.82,7.27,7.49,2.4,16.17,2.17,24.28-.17,5.75,1.45,7.88,6.84,5.7C214.09,91.4,218.86,88.61,225.27,85.4Z" transform="translate(0 0.02)"/><path class="cls-4" d="M291.05,275.26a148.16,148.16,0,0,1-26.86-1.79c-1.72-.25-4.05-.28-4.19-2.71s2.19-2.46,3.89-3c18.09-5.63,37-7.74,55.17-13,18.65-5.44,37.54-10.75,53.56-22.2,6.79-4.85,14.22-9.82,16.46-19.26,1.87-7.9.26-14.85-3.91-21.31-7.09-11-17.17-19-28.11-25.78-13.41-8.32-27.2-16-42-21.67-3.73-1.44-6-.36-8.3,2.18C295,159.55,285.46,173.85,276.94,189c-4.67,8.27-8.79,16.77-12.73,25.37s-7.49,17.27-11.53,25.76c-6.22,13.06-12.1,26.3-19.48,38.76-1.36,2.3-2.64,6.13-5.77,5.37-3.42-.83-2.85-4.79-2.86-7.72-.09-22.3,5.55-43.35,13.69-63.92s18.68-39.68,30.74-58c3.92-6,8.37-11.59,12.77-17.23,1.63-2.09,2-3.51-.28-5.38-5.75-4.63-7.34-9.42-5.08-14.39s9.28-8.14,15.4-6.3c4.86,1.46,9.18,2.11,14.36.75,7.8-2.06,13.43,2.75,17.51,8.79a15.59,15.59,0,0,0,7.07,5.87c20.52,8.88,40.25,19.23,57.58,33.46,12.81,10.51,24.57,22.14,27.61,39.58,2.18,12.5-1.35,23.77-8.8,33.67-11.37,15.09-27.55,23-44.83,29.26A214,214,0,0,1,291.05,275.26Z" transform="translate(0 0.02)"/><path class="cls-4" d="M24.55,229.62C24.37,212.68,29.84,197,35,181.16A149.28,149.28,0,0,1,41.57,165c2.72-5.88,12.86-8.49,19.29-5.25,5.7,2.87,7.16,9,4.35,15.82C60,188.29,55.36,201.2,52.58,214.8c-1.26,6.19-2.8,12.18-2.79,18.57A26.5,26.5,0,0,0,54.12,248c3.49,5.39,9.74,5.75,15.23,5.28,19.28-1.64,35.24-11,50.08-22.69,6.63-5.22,13.42-10.43,19.34-16.25s11.53-12.65,17.25-19c10.35-11.51,19.16-24.14,28.39-36.49,7.89-10.55,13.78-22.28,20.92-33.26,1.6-2.46,2.16-5.55,4.28-7.78,1.43-1.51,2.41-4.56,4.65-3.84,2.71.87,1.62,4.06,1.52,6.23a67,67,0,0,1-3.41,16.57A206.19,206.19,0,0,1,189.7,186c-14.93,23.43-31.62,45.49-53.93,62.67-14.38,11.06-30.11,19.56-47.6,24.29a75.11,75.11,0,0,1-35.58.6c-16-3.43-27.5-17.85-28-34.49C24.47,236,24.55,232.78,24.55,229.62Z" transform="translate(0 0.02)"/><path class="cls-4" d="M532.62,110.86c12.1-.08,23.71,3,35.33,5.76,5.18,1.26,9.44,8.23,8.38,12.69s-9.51,9.54-15,8.44c-8-1.61-15.79-3.77-24-4.35s-16.27-.58-23.72,3.72c-4.61,2.66-5.82,6-3.72,10.88,3.45,8.07,9.14,14.65,14.73,21.22,8.09,9.51,15.71,19.23,19.6,31.35,4.52,14.07,3,27.41-3.93,40.45-7.43,14-19.2,22.55-33.43,28.24-24.16,9.63-48.22,9.6-72-1.23a28,28,0,0,1-12.42-10.46c-.51-.8-1.39-1.64-.62-2.68s1.79-.52,2.74-.28c4.51,1.1,9,2.23,13.54,3.28a81.9,81.9,0,0,0,36.56.26,79,79,0,0,0,20.53-7.48c10.26-5.48,19.52-12.55,24.05-23.69,3.13-7.7,1.61-15.76-1.79-23.24-5.85-12.86-15.62-23-23.83-34.26-5.68-7.76-11.08-15.65-11.16-26.11-.1-12.73,7.89-20.89,19.59-26.27A72.94,72.94,0,0,1,532.62,110.86Z" transform="translate(0 0.02)"/><path class="cls-5" d="M591,530V404.23H0V530Z" transform="translate(0 0.02)"/><path class="cls-3" d="M151.09,440.87a29,29,0,0,1,11.83,2.22,17.26,17.26,0,0,1,7.79,6.37,17.78,17.78,0,0,1,2.69,9.86,18,18,0,0,1-2.69,9.86,17.19,17.19,0,0,1-7.79,6.37,28.87,28.87,0,0,1-11.83,2.23H139.26v15h-9.73V440.87Zm-.45,28.75q6.36,0,9.66-2.66a10.5,10.5,0,0,0,0-15.27Q157,449,150.64,449H139.26v20.6Zm62.68,23.87a30.45,30.45,0,0,1-14.45-3.41,26.75,26.75,0,0,1-10.1-36.91,25.28,25.28,0,0,1,10.1-9.56,31.74,31.74,0,0,1,28.9,0,25.41,25.41,0,0,1,10.11,9.49,26.38,26.38,0,0,1-10.11,37A30.43,30.43,0,0,1,213.32,493.49Zm0-8.45a19.34,19.34,0,0,0,9.44-2.3,17.24,17.24,0,0,0,6.58-6.52,18.71,18.71,0,0,0,2.4-9.41,18.32,18.32,0,0,0-2.4-9.34,16.57,16.57,0,0,0-6.58-6.52,19.89,19.89,0,0,0-18.87,0,16.66,16.66,0,0,0-6.59,6.52,18.42,18.42,0,0,0-2.39,9.34,18.81,18.81,0,0,0,2.39,9.41,17.34,17.34,0,0,0,6.59,6.52A19.33,19.33,0,0,0,213.32,485Zm77.82,7.71-10.7-15.2a19.7,19.7,0,0,1-2,.08H266.59v15.12h-9.74V440.87h21.57a29,29,0,0,1,11.82,2.22,17.2,17.2,0,0,1,7.79,6.37,17.7,17.7,0,0,1,2.7,9.86,17.31,17.31,0,0,1-2.92,10.08,16.91,16.91,0,0,1-8.24,6.3l12.05,17.05Zm-.22-33.43a9.24,9.24,0,0,0-3.3-7.63Q284.34,449,278,449H266.59V469.7H278q6.36,0,9.65-2.67A9.47,9.47,0,0,0,290.92,459.32ZM326.51,449H309.14v-8.15h44.47V449H336.24v43.73h-9.73Zm70.75,31.72h-26.2l-5.17,12h-10l23.58-51.88H389l23.66,51.88H402.5ZM394,473.18l-9.88-22.68-9.81,22.68Zm30.3-32.31h9.73V484.6h27.4v8.15H424.34Z" transform="translate(0 0.02)"/></svg>