<svg width="16" height="16" viewBox="0 0 16 16" fill="none" xmlns="http://www.w3.org/2000/svg">
<rect width="16" height="16" fill="white"/>
<g clip-path="url(#clip0)">
<path fill-rule="evenodd" clip-rule="evenodd" d="M5.79492 11.2174H10.1786V4.66797H5.79492V11.2174Z" fill="#FF8F3E"/>
<path fill-rule="evenodd" clip-rule="evenodd" d="M1 11.2174H5.3837V4.66797H1V11.2174Z" fill="#1A4F95"/>
<path fill-rule="evenodd" clip-rule="evenodd" d="M10.5898 11.2174H14.9735V4.66797H10.5898V11.2174Z" fill="#1A4F95"/>
<path fill-rule="evenodd" clip-rule="evenodd" d="M3.11455 9.57743C2.9058 9.57743 2.71097 9.54877 2.51615 9.47711C2.33523 9.40545 2.16823 9.31947 2.02906 9.20482C1.8899 9.09016 1.77857 8.94685 1.70898 8.80353C1.62549 8.64589 1.59766 8.48824 1.59766 8.31626V6.36719H2.29348V8.30194C2.29348 8.40226 2.32131 8.48824 2.36306 8.57423C2.40481 8.66021 2.46047 8.73187 2.54398 8.78921C2.61357 8.84653 2.71097 8.90385 2.80839 8.93252C2.9058 8.96118 3.01713 8.98984 3.12847 8.98984C3.2398 8.98984 3.35114 8.97551 3.44855 8.93252C3.54597 8.88953 3.62947 8.84653 3.71296 8.78921C3.78254 8.73187 3.85213 8.64589 3.89389 8.57423C3.93563 8.48824 3.96346 8.40226 3.96346 8.30194V6.36719H4.65928V8.30194C4.65928 8.47391 4.61753 8.64589 4.54796 8.78921C4.46445 8.94685 4.36704 9.07582 4.22786 9.19048C4.0887 9.30514 3.9217 9.39112 3.74079 9.46279C3.53205 9.53445 3.32331 9.57743 3.11455 9.57743Z" fill="white"/>
<path d="M6.56641 8.92392V9.51102V9.53968H7.70756C7.88847 9.53968 8.05547 9.52536 8.22247 9.48236C8.38946 9.4537 8.54256 9.39638 8.68172 9.32471C8.82089 9.25305 8.96004 9.16707 9.07139 9.06675C9.18271 8.96644 9.28013 8.85178 9.36362 8.73712C9.44713 8.60815 9.51672 8.47917 9.55846 8.35017C9.60021 8.20686 9.62804 8.06354 9.62804 7.92023C9.62804 7.76259 9.60021 7.61927 9.55846 7.49028C9.51672 7.34698 9.44713 7.21798 9.36362 7.10334C9.28013 6.97435 9.18271 6.87403 9.07139 6.77371C8.94614 6.67339 8.82089 6.5874 8.68172 6.51576C8.54256 6.4441 8.38946 6.4011 8.22247 6.3581C8.05547 6.3151 7.88847 6.30078 7.70756 6.30078H6.56641V8.48957H7.27615V6.85971H7.70756C7.87456 6.85971 8.04155 6.88837 8.18072 6.94569C8.3338 6.98869 8.45905 7.07468 8.57039 7.16066C8.68172 7.26098 8.76521 7.36131 8.8348 7.49028C8.90438 7.61927 8.93221 7.74825 8.93221 7.89158C8.93221 8.03488 8.90438 8.16387 8.8348 8.29285C8.76521 8.42183 8.68172 8.53649 8.57039 8.62247C8.45905 8.70846 8.31989 8.78012 8.18072 8.83744C8.02764 8.89478 7.87456 8.92344 7.70756 8.92344L7.27615 8.92392H6.56641Z" fill="white"/>
<path fill-rule="evenodd" clip-rule="evenodd" d="M11.3396 9.53445V8.96117H13.0374C13.0931 8.96117 13.1488 8.94685 13.2044 8.93252C13.2601 8.91819 13.3018 8.88953 13.3436 8.86085C13.3853 8.8322 13.4132 8.78921 13.441 8.74621C13.4688 8.70321 13.4688 8.64589 13.4688 8.60289C13.4688 8.5599 13.4549 8.50258 13.441 8.45958C13.4132 8.41658 13.3853 8.37358 13.3436 8.34492C13.3018 8.31626 13.2601 8.2876 13.2044 8.27326C13.1488 8.25894 13.0931 8.2446 13.0374 8.2446H12.2581C12.105 8.2446 11.9519 8.21594 11.8128 8.17295C11.6736 8.11563 11.5623 8.05829 11.4509 7.97231C11.3535 7.88631 11.27 7.786 11.2144 7.67134C11.1587 7.5567 11.1309 7.42771 11.1309 7.29873C11.1309 7.16975 11.1587 7.04076 11.2144 6.94044C11.27 6.82578 11.3535 6.72546 11.4509 6.63948C11.5484 6.55349 11.6736 6.48184 11.8128 6.43885C11.9519 6.38152 12.0911 6.36719 12.2581 6.36719H14.0116V6.94044H12.2581C12.2024 6.94044 12.1468 6.95477 12.0911 6.96911C12.0354 6.98343 11.9937 7.01209 11.9519 7.04076C11.9102 7.06943 11.8823 7.11241 11.8545 7.15541C11.8267 7.19841 11.8267 7.25573 11.8267 7.29873C11.8267 7.35605 11.8406 7.39905 11.8545 7.44204C11.8823 7.48504 11.9102 7.52802 11.9519 7.5567C11.9937 7.58536 12.0354 7.61402 12.0911 7.62834C12.1468 7.64268 12.2024 7.65702 12.2581 7.65702H13.0374C13.1905 7.65702 13.3436 7.68568 13.4828 7.72867C13.6219 7.77167 13.7472 7.84332 13.8446 7.92931C13.942 8.01531 14.0255 8.11562 14.0812 8.23028C14.1368 8.34492 14.1647 8.47391 14.1647 8.60289C14.1647 8.73189 14.1368 8.86085 14.0812 8.96117C14.0255 9.07582 13.942 9.17614 13.8446 9.26214C13.7472 9.34813 13.6219 9.41979 13.4828 9.46279C13.3436 9.52011 13.1905 9.53445 13.0374 9.53445H11.3396Z" fill="white"/>
</g>
<defs>
<clipPath id="clip0">
<rect width="14" height="6.66667" fill="white" transform="translate(1 4.66797)"/>
</clipPath>
</defs>
</svg>
