<svg width="30" height="30" viewBox="0 0 30 30" fill="none" xmlns="http://www.w3.org/2000/svg">
<path d="M26.25 5H3.75C3.08696 5 2.45107 5.26339 1.98223 5.73223C1.51339 6.20107 1.25 6.83696 1.25 7.5V23.75C1.25 24.413 1.51339 25.0489 1.98223 25.5178C2.45107 25.9866 3.08696 26.25 3.75 26.25H26.25C26.913 26.25 27.5489 25.9866 28.0178 25.5178C28.4866 25.0489 28.75 24.413 28.75 23.75V7.5C28.75 6.83696 28.4866 6.20107 28.0178 5.73223C27.5489 5.26339 26.913 5 26.25 5ZM3.75 23.75V7.5H13.75V23.75H3.75ZM26.25 23.75H16.25V7.5H26.25V23.75ZM17.5 11.875H25V13.75H17.5V11.875ZM17.5 15H25V16.875H17.5V15ZM17.5 18.125H25V20H17.5V18.125Z" fill="#383680"/>
</svg>
