<svg width="33" height="33" viewBox="0 0 33 33" fill="none" xmlns="http://www.w3.org/2000/svg">
<path d="M24.7256 13.4581C27.6992 13.4581 30.1098 15.8687 30.1098 18.8423C30.1098 20.2085 29.601 21.4557 28.7626 22.405L28.7625 28.597C28.7625 29.3652 27.949 29.8344 27.2954 29.4972L27.175 29.4244L24.7251 27.7122L22.2762 29.4244C21.6465 29.8644 20.7959 29.4663 20.698 28.7374L20.6887 28.597L20.6874 22.4037C19.8497 21.4545 19.3414 20.2078 19.3414 18.8423C19.3414 15.8687 21.752 13.4581 24.7256 13.4581ZM26.7427 23.836C26.1197 24.0879 25.4388 24.2265 24.7256 24.2265C24.0113 24.2265 23.3296 24.0875 22.7059 23.8349L22.7064 26.6597L24.1475 25.6542C24.4513 25.4419 24.8428 25.4154 25.1686 25.5746L25.3037 25.6542L26.7425 26.6597L26.7427 23.836ZM26.407 4.04297C28.3754 4.04297 29.9848 5.57951 30.1013 7.51855L30.1081 7.74401L30.1099 14.8041C29.5658 14.0797 28.8789 13.4687 28.091 13.0129L28.0893 7.74401C28.0893 6.87298 27.4273 6.15655 26.579 6.0704L26.407 6.06172H6.89245C6.02141 6.06172 5.30499 6.7237 5.21884 7.57201L5.21016 7.74401V20.5294C5.21016 21.4005 5.87214 22.1169 6.72044 22.203L6.89245 22.2117L18.8995 22.2134L19.0662 22.4858L19.246 22.7505L19.3414 22.8763L19.3401 24.2305H6.89245C4.92412 24.2305 3.31468 22.6939 3.19816 20.7549L3.19141 20.5294V7.74401C3.19141 5.77569 4.72795 4.16624 6.66699 4.04972L6.89245 4.04297H26.407ZM24.7256 15.4769C22.8669 15.4769 21.3602 16.9837 21.3602 18.8423C21.3602 20.701 22.8669 22.2078 24.7256 22.2078C26.5843 22.2078 28.0911 20.701 28.0911 18.8423C28.0911 16.9837 26.5843 15.4769 24.7256 15.4769ZM15.6404 16.8227C16.1978 16.8227 16.6497 17.2746 16.6497 17.8321C16.6497 18.3431 16.27 18.7654 15.7773 18.8323L15.6404 18.8415H9.58411C9.02665 18.8415 8.57474 18.3896 8.57474 17.8321C8.57474 17.3211 8.95447 16.8988 9.44715 16.8319L9.58411 16.8227H15.6404ZM23.7154 9.42064C24.2728 9.42064 24.7247 9.87256 24.7247 10.43C24.7247 10.941 24.345 11.3633 23.8523 11.4302L23.7154 11.4394H9.58411C9.02665 11.4394 8.57474 10.9875 8.57474 10.43C8.57474 9.91901 8.95447 9.4967 9.44715 9.42986L9.58411 9.42064H23.7154Z" fill="#1E2432"/>
</svg>
