<svg width="33" height="33" viewBox="0 0 33 33" fill="none" xmlns="http://www.w3.org/2000/svg">
<path d="M4.20078 22.2069H29.097C29.6545 22.2069 30.1064 22.6588 30.1064 23.2163C30.1064 23.7273 29.7267 24.1496 29.234 24.2164L29.097 24.2256H4.20078C3.64332 24.2256 3.19141 23.7737 3.19141 23.2163C3.19141 22.7052 3.57114 22.2829 4.06381 22.2161L4.20078 22.2069H29.097H4.20078ZM25.0604 6.73047C26.3611 6.73047 27.4156 7.78493 27.4156 9.08568V19.1798C27.4156 20.4806 26.3611 21.535 25.0604 21.535H8.23744C6.93669 21.535 5.88223 20.4806 5.88223 19.1798V9.08568C5.88223 7.78493 6.93669 6.73047 8.23744 6.73047H25.0604ZM25.0604 8.74922H8.23744C8.05162 8.74922 7.90098 8.89986 7.90098 9.08568V19.1798C7.90098 19.3656 8.05162 19.5163 8.23744 19.5163H25.0604C25.2462 19.5163 25.3968 19.3656 25.3968 19.1798V9.08568C25.3968 8.89986 25.2462 8.74922 25.0604 8.74922Z" fill="#1E2432"/>
</svg>
