<svg width="33" height="33" viewBox="0 0 33 33" fill="none" xmlns="http://www.w3.org/2000/svg">
<path d="M24.3882 4.03906C26.8038 4.03906 28.7621 5.99735 28.7621 8.41302V23.8901C28.7621 26.3058 26.8038 28.2641 24.3882 28.2641H8.91107C6.4954 28.2641 4.53711 26.3058 4.53711 23.8901V8.41302C4.53711 5.99735 6.4954 4.03906 8.91107 4.03906H24.3882ZM26.7434 11.4411H6.55586V23.8901C6.55586 25.1909 7.61032 26.2453 8.91107 26.2453H24.3882C25.6889 26.2453 26.7434 25.1909 26.7434 23.8901V11.4411ZM10.9298 19.5161C11.8589 19.5161 12.6121 20.2693 12.6121 21.1984C12.6121 22.1275 11.8589 22.8807 10.9298 22.8807C10.0007 22.8807 9.24753 22.1275 9.24753 21.1984C9.24753 20.2693 10.0007 19.5161 10.9298 19.5161ZM16.6496 19.5161C17.5787 19.5161 18.3319 20.2693 18.3319 21.1984C18.3319 22.1275 17.5787 22.8807 16.6496 22.8807C15.7205 22.8807 14.9673 22.1275 14.9673 21.1984C14.9673 20.2693 15.7205 19.5161 16.6496 19.5161ZM10.9298 14.1328C11.8589 14.1328 12.6121 14.886 12.6121 15.8151C12.6121 16.7442 11.8589 17.4974 10.9298 17.4974C10.0007 17.4974 9.24753 16.7442 9.24753 15.8151C9.24753 14.886 10.0007 14.1328 10.9298 14.1328ZM16.6496 14.1328C17.5787 14.1328 18.3319 14.886 18.3319 15.8151C18.3319 16.7442 17.5787 17.4974 16.6496 17.4974C15.7205 17.4974 14.9673 16.7442 14.9673 15.8151C14.9673 14.886 15.7205 14.1328 16.6496 14.1328ZM22.3694 14.1328C23.2985 14.1328 24.0517 14.886 24.0517 15.8151C24.0517 16.7442 23.2985 17.4974 22.3694 17.4974C21.4403 17.4974 20.6871 16.7442 20.6871 15.8151C20.6871 14.886 21.4403 14.1328 22.3694 14.1328ZM24.3882 6.05781H8.91107C7.61032 6.05781 6.55586 7.11228 6.55586 8.41302V9.4224H26.7434V8.41302C26.7434 7.11228 25.6889 6.05781 24.3882 6.05781Z" fill="#1E2432"/>
</svg>
