<svg width="24" height="26" viewBox="0 0 24 26" fill="none" xmlns="http://www.w3.org/2000/svg">
<path d="M20.75 23H3.25V9.25H20.75V23ZM17 0.5V3H7V0.5H4.5V3H3.25C2.58696 3 1.95107 3.26339 1.48223 3.73223C1.01339 4.20107 0.75 4.83696 0.75 5.5V23C0.75 23.663 1.01339 24.2989 1.48223 24.7678C1.95107 25.2366 2.58696 25.5 3.25 25.5H20.75C21.413 25.5 22.0489 25.2366 22.5178 24.7678C22.9866 24.2989 23.25 23.663 23.25 23V5.5C23.25 4.83696 22.9866 4.20107 22.5178 3.73223C22.0489 3.26339 21.413 3 20.75 3H19.5V0.5H17ZM10.6 14.25H6.0875L9.7375 16.8875L8.35 21.2L12 18.5375L15.65 21.2L14.25 16.9L17.9 14.25H13.4L12 9.95L10.6 14.25Z" fill="#383680"/>
</svg>
