<svg width="33" height="33" viewBox="0 0 33 33" fill="none" xmlns="http://www.w3.org/2000/svg">
<path d="M16.6499 2.69141C24.0839 2.69141 30.1103 8.71784 30.1103 16.1518C30.1103 23.5858 24.0839 29.6122 16.6499 29.6122C9.21589 29.6122 3.18945 23.5858 3.18945 16.1518C3.18945 8.71784 9.21589 2.69141 16.6499 2.69141ZM20.6052 22.2077H12.6946C13.5721 25.4567 15.0974 27.5935 16.6499 27.5935C18.2023 27.5935 19.7276 25.4567 20.6052 22.2077ZM10.6048 22.2085L6.9408 22.2083C8.23056 24.2715 10.1597 25.8941 12.4509 26.7984C11.748 25.6951 11.1679 24.3139 10.7413 22.7401L10.6048 22.2085ZM26.359 22.2083L22.6949 22.2085C22.2592 24.0035 21.6299 25.5725 20.8475 26.7985C22.9967 25.9506 24.8266 24.4716 26.1097 22.5899L26.359 22.2083ZM10.0464 13.4593H5.52766L5.52126 13.4824C5.31658 14.3389 5.2082 15.2327 5.2082 16.1518C5.2082 17.5732 5.4674 18.9341 5.9411 20.1898L10.2116 20.1893C10.0201 18.9119 9.91862 17.555 9.91862 16.1518C9.91862 15.2313 9.96231 14.3306 10.0464 13.4593ZM21.2216 13.4594H12.0782C11.9866 14.3211 11.9374 15.2224 11.9374 16.1518C11.9374 17.5777 12.0533 18.9375 12.26 20.1894H21.0397C21.2464 18.9375 21.3624 17.5777 21.3624 16.1518C21.3624 15.2224 21.3131 14.3211 21.2216 13.4594ZM27.7727 13.4582L23.2533 13.4593C23.3374 14.3306 23.3811 15.2313 23.3811 16.1518C23.3811 17.555 23.2796 18.9119 23.0881 20.1893L27.3587 20.1898C27.8324 18.9341 28.0915 17.5732 28.0915 16.1518C28.0915 15.224 27.9811 14.322 27.7727 13.4582ZM12.4523 5.50515L12.4215 5.51688C9.66612 6.61334 7.4374 8.7496 6.21986 11.4411L10.3221 11.4416C10.7439 9.08261 11.4798 7.02896 12.4523 5.50515ZM16.6499 4.71016L16.4942 4.71729C14.7912 4.87308 13.1459 7.56739 12.3819 11.441H20.9179C20.156 7.57825 18.5178 4.88819 16.8198 4.71866L16.6499 4.71016ZM20.8489 5.50522L20.9927 5.73953C21.8933 7.23672 22.5772 9.20148 22.9776 11.4416L27.0799 11.4411C25.9162 8.86865 23.8288 6.80342 21.2408 5.66844L20.8489 5.50522Z" fill="#1E2432"/>
</svg>
