<svg width="14" height="24" viewBox="0 0 14 24" fill="none" xmlns="http://www.w3.org/2000/svg">
<path d="M0.75 15.75H3.25C3.25 17.1 4.9625 18.25 7 18.25C9.0375 18.25 10.75 17.1 10.75 15.75C10.75 14.375 9.45 13.875 6.7 13.2125C4.05 12.55 0.75 11.725 0.75 8.25C0.75 6.0125 2.5875 4.1125 5.125 3.475V0.75H8.875V3.475C11.4125 4.1125 13.25 6.0125 13.25 8.25H10.75C10.75 6.9 9.0375 5.75 7 5.75C4.9625 5.75 3.25 6.9 3.25 8.25C3.25 9.625 4.55 10.125 7.3 10.7875C9.95 11.45 13.25 12.275 13.25 15.75C13.25 17.9875 11.4125 19.8875 8.875 20.525V23.25H5.125V20.525C2.5875 19.8875 0.75 17.9875 0.75 15.75Z" fill="#383680"/>
</svg>
