<svg width="33" height="33" viewBox="0 0 33 33" fill="none" xmlns="http://www.w3.org/2000/svg">
<path d="M13.9581 24.2313C15.073 24.2313 15.9768 25.1351 15.9768 26.25C15.9768 27.3649 15.073 28.2688 13.9581 28.2688C12.8431 28.2688 11.9393 27.3649 11.9393 26.25C11.9393 25.1351 12.8431 24.2313 13.9581 24.2313ZM22.0331 24.2313C23.148 24.2313 24.0518 25.1351 24.0518 26.25C24.0518 27.3649 23.148 28.2688 22.0331 28.2688C20.9181 28.2688 20.0143 27.3649 20.0143 26.25C20.0143 25.1351 20.9181 24.2313 22.0331 24.2313ZM4.20078 4.03906H4.6884C6.04558 4.03906 7.22684 4.94007 7.59771 6.22701L7.65191 6.44498L7.71071 6.72938L29.0971 6.73014C29.7303 6.73014 30.2071 7.30627 30.0887 7.92823L27.9192 19.3271C27.5265 21.3904 25.7228 22.8832 23.6226 22.8833L12.3686 22.8837C10.2684 22.8837 8.46456 21.3911 8.07169 19.328L5.90089 7.92833L5.67624 6.85979C5.58793 6.43918 5.24522 6.12607 4.82945 6.06765L4.6884 6.05781H4.20078C3.64332 6.05781 3.19141 5.6059 3.19141 5.04844C3.19141 4.53743 3.57114 4.11511 4.06382 4.04828L4.20078 4.03906ZM27.8775 8.74889H8.11217L10.0548 18.9503C10.2664 20.0612 11.2376 20.8649 12.3685 20.8649L23.6225 20.8646C24.7534 20.8645 25.7246 20.0607 25.9361 18.9497L27.8775 8.74889Z" fill="#1E2432"/>
</svg>
