<svg width="33" height="33" viewBox="0 0 33 33" fill="none" xmlns="http://www.w3.org/2000/svg">
<path d="M19.0092 2.69141C20.5671 2.69141 21.8498 3.86967 22.0149 5.38369L24.388 5.38307C25.9907 5.38307 27.3026 6.62819 27.4092 8.20387L27.4161 8.4112V26.5861C27.4161 28.1888 26.171 29.5007 24.5953 29.6073L24.388 29.6143H8.91094C7.30823 29.6143 5.99634 28.3691 5.8898 26.7935L5.88281 26.5861V8.4112C5.88281 6.80849 7.12793 5.4966 8.70361 5.39006L8.91094 5.38307L11.2841 5.38369C11.4491 3.86967 12.7318 2.69141 14.2898 2.69141H19.0092ZM19.0092 8.73864H14.2898C13.2449 8.73864 12.3239 8.20869 11.7808 7.40292L8.91094 7.40182C8.39993 7.40182 7.97761 7.78156 7.91078 8.27423L7.90156 8.4112V26.5861C7.90156 27.0971 8.28129 27.5195 8.77397 27.5863L8.91094 27.5955H24.388C24.899 27.5955 25.3213 27.2158 25.3882 26.7231L25.3974 26.5861V8.4112C25.3974 7.90019 25.0177 7.47787 24.525 7.41104L24.388 7.40182L21.5182 7.40292C20.9751 8.20869 20.054 8.73864 19.0092 8.73864ZM20.3505 18.8354C21.2796 18.8354 22.0328 19.5886 22.0328 20.5177V21.1896C22.0328 23.6747 20.0516 24.8965 16.6495 24.8965C13.2473 24.8965 11.2661 23.6735 11.2661 21.1869V20.5177C11.2661 19.5886 12.0193 18.8354 12.9484 18.8354H20.3505ZM20.0141 20.8541H13.2849V21.1869C13.2849 22.3007 14.2197 22.8778 16.6495 22.8778C19.0793 22.8778 20.0141 22.3013 20.0141 21.1896V20.8541ZM16.6495 10.7604C18.5077 10.7604 20.0141 12.2668 20.0141 14.125C20.0141 15.9832 18.5077 17.4896 16.6495 17.4896C14.7913 17.4896 13.2849 15.9832 13.2849 14.125C13.2849 12.2668 14.7913 10.7604 16.6495 10.7604ZM16.6495 12.7791C15.9062 12.7791 15.3036 13.3817 15.3036 14.125C15.3036 14.8682 15.9062 15.4708 16.6495 15.4708C17.3928 15.4708 17.9953 14.8682 17.9953 14.125C17.9953 13.3817 17.3928 12.7791 16.6495 12.7791ZM19.0092 4.71016H14.2898C13.7348 4.71016 13.2849 5.16005 13.2849 5.71503C13.2849 6.27 13.7348 6.71989 14.2898 6.71989H19.0092C19.5642 6.71989 20.0141 6.27 20.0141 5.71503C20.0141 5.16005 19.5642 4.71016 19.0092 4.71016Z" fill="#1E2432"/>
</svg>
