<svg width="73" height="67" viewBox="0 0 73 67" fill="none" xmlns="http://www.w3.org/2000/svg">
<g clip-path="url(#clip0)">
<g clip-path="url(#clip1)">
<path d="M73 47.2069H0V0.00390625H73V47.2069ZM26.6629 9.67681C26.8235 9.42226 26.9655 9.20602 27.1002 8.98607C27.4707 8.36823 28.113 8.06548 28.7282 7.97281C29.4285 7.86901 30.1758 8.04818 30.8996 8.13345C31.0516 8.15075 31.1874 8.29532 31.3307 8.38058C31.2094 8.48942 31.0811 8.59014 30.9466 8.68209C30.2054 9.12446 29.447 9.53347 28.7368 10.0166C28.5799 10.1229 28.596 10.4862 28.533 10.7308C28.7467 10.7692 28.9591 10.8149 29.1728 10.8421C29.2963 10.8581 29.4199 10.8421 29.5434 10.8421C30.0807 10.8779 30.3561 11.2968 30.0535 11.7144C29.8472 11.9987 29.4989 12.2087 29.1741 12.3694C28.927 12.4929 28.6207 12.4645 28.3428 12.5164C27.2756 12.7191 27.0112 13.0206 27.1743 13.8757C27.2259 14.1134 27.3089 14.3432 27.4213 14.559C27.7375 15.1917 28.0105 15.8453 28.7504 16.1481C30.0016 16.6596 31.8297 15.5389 32.1534 14.2118C32.3614 13.3399 32.3186 12.427 32.0298 11.5785C31.9922 11.4528 31.9922 11.3187 32.0298 11.193C32.0422 11.1547 32.2435 11.1337 32.3337 11.1683C33.2934 11.539 34.1791 11.2548 34.7707 10.412C35.5526 9.29993 35.7119 8.02594 35.5687 6.74578C35.4674 5.8289 34.8498 4.82553 33.4972 4.9664C32.9513 5.02447 32.3992 5.02447 31.8569 5.09738C31.059 5.20365 31.0948 5.22095 31.0306 4.41528C30.9663 3.60962 30.7181 2.82373 30.1079 2.24172C29.0567 1.23959 27.1743 2.39124 26.6753 3.25622C25.928 4.54997 25.7007 5.96483 25.8106 7.43158C25.8786 8.23971 25.9934 9.05403 26.6629 9.67681ZM27.8252 10.5566C27.0372 10.9533 26.4443 11.298 25.8156 11.5526C25.1498 11.822 24.9509 11.5588 24.9707 10.8482C24.9991 9.8461 25.6006 8.77353 24.7027 7.848C24.6718 7.81711 24.7459 7.69972 24.7459 7.62311C24.7459 6.73836 24.7978 5.84867 24.7286 4.9701C24.7027 4.63524 24.4816 4.20645 24.2123 4.02852C23.9072 3.8271 23.507 4.00998 23.2649 4.35597C23.0426 4.67231 22.7708 4.96022 22.5905 5.29509C22.0173 6.31576 21.9963 7.70961 22.961 8.5301C23.2859 8.80566 23.2081 8.92675 23.008 9.20354C22.6939 9.60009 22.4374 10.039 22.2459 10.5072C21.8679 11.5538 22.1705 12.5584 22.6325 13.5062C23.1809 14.6294 24.2382 14.9359 25.1782 14.1351C25.8996 13.5173 26.4838 12.7252 27.0742 11.9678C27.3608 11.5971 27.5275 11.1349 27.8252 10.5566Z" fill="white"/>
<path d="M26.664 9.67593C25.9945 9.05809 25.8797 8.23883 25.8167 7.43811C25.703 5.97136 25.9303 4.5565 26.6813 3.26275C27.1754 2.39777 29.0628 1.24612 30.1139 2.24825C30.7241 2.83026 30.9724 3.6075 31.0366 4.42181C31.1008 5.23613 31.065 5.21018 31.863 5.10391C32.4052 5.031 32.9573 5.03101 33.5033 4.97293C34.862 4.83206 35.4796 5.8379 35.5747 6.75231C35.718 8.03247 35.5587 9.30399 34.7768 10.4186C34.1851 11.2613 33.2945 11.548 32.3397 11.1748C32.2496 11.1402 32.0482 11.1612 32.0359 11.1995C31.9983 11.3253 31.9983 11.4593 32.0359 11.5851C32.3246 12.4335 32.3675 13.3465 32.1594 14.2183C31.8358 15.5454 30.0077 16.6662 28.7564 16.1546C28.0153 15.8519 27.7436 15.1982 27.4274 14.5655C27.315 14.3498 27.2319 14.1199 27.1803 13.8822C27.0173 13.0172 27.2816 12.7206 28.3488 12.5229C28.6267 12.471 28.9368 12.4945 29.1801 12.3759C29.505 12.2165 29.8533 12.0052 30.0596 11.721C30.3622 11.3033 30.0867 10.8844 29.5494 10.8486C29.4259 10.8399 29.3024 10.8622 29.1789 10.8486C28.9652 10.8214 28.7527 10.7757 28.539 10.7374C28.602 10.4902 28.586 10.1294 28.7429 10.0232C29.4531 9.54 30.214 9.13099 30.9526 8.68862C31.0871 8.59667 31.2155 8.49595 31.3368 8.38711C31.1935 8.30185 31.0576 8.15728 30.9057 8.13998C30.1819 8.05471 29.4346 7.87554 28.7342 7.97934C28.1166 8.07201 27.4792 8.38093 27.1062 8.9926C26.9666 9.20513 26.8246 9.42138 26.664 9.67593Z" fill="#049FDF"/>
<path d="M27.8245 10.5571C27.5231 11.1354 27.36 11.5975 27.0735 11.9633C26.4831 12.7208 25.8988 13.5128 25.1774 14.1307C24.2436 14.9314 23.1801 14.625 22.6317 13.5017C22.1698 12.554 21.8671 11.5494 22.2451 10.5027C22.4366 10.0363 22.6928 9.59913 23.006 9.20403C23.2085 8.92724 23.2839 8.80614 22.959 8.53058C21.9956 7.71009 22.0166 6.31625 22.5885 5.29557C22.775 4.9607 23.0406 4.67773 23.2629 4.35646C23.5099 4.01047 23.9052 3.82758 24.2103 4.029C24.4796 4.20694 24.7044 4.63572 24.7266 4.97059C24.7958 5.84916 24.7488 6.73885 24.7439 7.6236C24.7439 7.70021 24.6698 7.8176 24.7007 7.84849C25.5987 8.77401 24.9971 9.84659 24.9687 10.8487C24.9477 11.5592 25.1478 11.8224 25.8136 11.5531C26.4435 11.2985 27.0327 10.9538 27.8245 10.5571Z" fill="url(#paint0_linear)"/>
<path d="M35.9496 34.017C34.8393 34.0435 33.7289 33.9695 32.6319 33.7958C32.4195 33.7649 32.1317 33.7612 32.1144 33.4609C32.0971 33.1606 32.3849 33.1569 32.5949 33.0902C34.8293 32.3945 37.1651 32.1338 39.4094 31.4838C41.7131 30.8116 44.0463 30.1555 46.0251 28.7406C46.8638 28.1413 47.7816 27.5272 48.0583 26.3607C48.2892 25.3845 48.0904 24.5257 47.5753 23.7274C46.6995 22.3682 45.4545 21.3797 44.1032 20.5419C42.4468 19.5138 40.7434 18.5648 38.9153 17.8641C38.4546 17.6862 38.1742 17.8197 37.8901 18.1335C36.4412 19.7189 35.2592 21.4859 34.2068 23.3555C33.6299 24.3774 33.121 25.4277 32.6344 26.4904C32.1477 27.5531 31.7092 28.6244 31.2102 29.6735C30.4419 31.2873 29.7156 32.9234 28.804 34.463C28.6361 34.7472 28.4779 35.2205 28.0913 35.1266C27.6689 35.024 27.7393 34.5347 27.7381 34.1727C27.7269 31.4171 28.4236 28.816 29.429 26.2742C30.4345 23.7324 31.7364 21.371 33.226 19.1072C33.7102 18.3658 34.2599 17.6751 34.8034 16.9782C35.0047 16.7199 35.0504 16.5444 34.7688 16.3134C34.0586 15.7412 33.8622 15.1493 34.1413 14.5352C34.4205 13.9211 35.2876 13.5294 36.0435 13.7567C36.6438 13.9371 37.1774 14.0175 37.8173 13.8494C38.7807 13.5949 39.4761 14.1892 39.9801 14.9356C40.1918 15.2595 40.4961 15.5123 40.8534 15.6609C43.388 16.7582 45.825 18.0371 47.9656 19.7955C49.5479 21.0942 51.0005 22.5313 51.376 24.6863C51.6453 26.2309 51.2092 27.6235 50.289 28.8469C48.8846 30.7115 46.8861 31.6889 44.7516 32.4625C41.9272 33.477 38.9506 34.0027 35.9496 34.017Z" fill="#F39200"/>
<path d="M3.03057 28.3743C3.00834 26.2811 3.68399 24.3349 4.32258 22.3862C4.55358 21.7054 4.82414 21.0386 5.13287 20.3894C5.46884 19.6628 6.72133 19.3403 7.51556 19.7406C8.21962 20.0953 8.39996 20.8527 8.05287 21.6955C7.40686 23.2697 6.83621 24.865 6.49282 26.5455C6.33719 27.3104 6.14697 28.0506 6.1482 28.8402C6.1461 29.4813 6.33206 30.109 6.68304 30.6455C7.11412 31.3115 7.88612 31.356 8.56424 31.298C10.9457 31.0953 12.9171 29.9387 14.7501 28.4942C15.569 27.8492 16.4077 27.2054 17.139 26.4862C17.8702 25.767 18.5631 24.9231 19.2697 24.1384C20.5481 22.7162 21.6363 21.1555 22.7764 19.6294C23.751 18.3258 24.4785 16.8763 25.3604 15.5196C25.558 15.2156 25.6272 14.8338 25.8891 14.5582C26.0657 14.3716 26.1868 13.9947 26.4634 14.0837C26.7982 14.1912 26.6635 14.5854 26.6512 14.8535C26.5978 15.5511 26.4563 16.2391 26.23 16.901C25.5683 19.0433 24.6268 21.0887 23.4298 22.9843C21.5857 25.8795 19.5241 28.6054 16.7684 30.7283C14.9922 32.095 13.0492 33.1453 10.8889 33.7298C9.45104 34.1064 7.94377 34.1318 6.49406 33.8039C4.52392 33.3801 3.09727 31.5982 3.03551 29.5421C3.02069 29.1627 3.03057 28.7648 3.03057 28.3743Z" fill="#F39200"/>
<path d="M65.7898 13.7001C67.2844 13.6902 68.7184 14.0708 70.1537 14.4119C70.7935 14.5676 71.3197 15.4288 71.1888 15.9799C71.0579 16.531 70.0141 17.1588 69.336 17.0229C68.3479 16.8239 67.3856 16.557 66.3716 16.4853C65.3575 16.4137 64.3619 16.4137 63.4417 16.945C62.8723 17.2737 62.7228 17.6864 62.9822 18.2894C63.4083 19.2866 64.1112 20.0997 64.8016 20.9115C65.8009 22.0867 66.7421 23.2878 67.2226 24.7854C67.7809 26.524 67.5932 28.1724 66.7372 29.7837C65.8194 31.5112 64.3656 32.5702 62.6079 33.2733C59.6237 34.4633 56.6518 34.4596 53.7145 33.1213C53.0868 32.8515 52.5529 32.4018 52.1804 31.8288C52.1174 31.7299 52.0087 31.6261 52.1038 31.4976C52.199 31.3691 52.3249 31.4334 52.4423 31.463C52.9994 31.599 53.554 31.7386 54.1147 31.8683C55.5984 32.2194 57.1421 32.2303 58.6306 31.9005C59.5146 31.7112 60.368 31.4001 61.1665 30.9762C62.4338 30.299 63.5775 29.4254 64.1371 28.0488C64.5237 27.0974 64.336 26.1014 63.916 25.1771C63.1934 23.588 61.9866 22.335 60.9725 20.9437C60.2709 19.9848 59.6039 19.0098 59.5941 17.7173C59.5817 16.1443 60.5686 15.136 62.0138 14.4712C63.2022 13.9449 64.4903 13.6819 65.7898 13.7001Z" fill="#F39200"/>
</g>
<path fill-rule="evenodd" clip-rule="evenodd" d="M73 66.2031V50.2031H0V66.2031H73Z" fill="#F9FAFF"/>
<path d="M19.592 55.2931C20.138 55.2931 20.612 55.3831 21.014 55.5631C21.422 55.7431 21.734 56.0011 21.95 56.3371C22.166 56.6731 22.274 57.0721 22.274 57.5341C22.274 57.9901 22.166 58.3891 21.95 58.7311C21.734 59.0671 21.422 59.3251 21.014 59.5051C20.612 59.6851 20.138 59.7751 19.592 59.7751H18.17V61.5931H17V55.2931H19.592ZM19.538 58.7851C20.048 58.7851 20.435 58.6771 20.699 58.4611C20.963 58.2451 21.095 57.9361 21.095 57.5341C21.095 57.1321 20.963 56.8231 20.699 56.6071C20.435 56.3911 20.048 56.2831 19.538 56.2831H18.17V58.7851H19.538ZM27.0733 61.6831C26.4313 61.6831 25.8523 61.5451 25.3363 61.2691C24.8203 60.9871 24.4153 60.6001 24.1213 60.1081C23.8273 59.6101 23.6803 59.0551 23.6803 58.4431C23.6803 57.8311 23.8273 57.2791 24.1213 56.7871C24.4153 56.2891 24.8203 55.9021 25.3363 55.6261C25.8523 55.3441 26.4313 55.2031 27.0733 55.2031C27.7153 55.2031 28.2943 55.3441 28.8103 55.6261C29.3263 55.9021 29.7313 56.2861 30.0253 56.7781C30.3193 57.2701 30.4663 57.8251 30.4663 58.4431C30.4663 59.0611 30.3193 59.6161 30.0253 60.1081C29.7313 60.6001 29.3263 60.9871 28.8103 61.2691C28.2943 61.5451 27.7153 61.6831 27.0733 61.6831ZM27.0733 60.6571C27.4933 60.6571 27.8713 60.5641 28.2073 60.3781C28.5433 60.1861 28.8073 59.9221 28.9993 59.5861C29.1913 59.2441 29.2873 58.8631 29.2873 58.4431C29.2873 58.0231 29.1913 57.6451 28.9993 57.3091C28.8073 56.9671 28.5433 56.7031 28.2073 56.5171C27.8713 56.3251 27.4933 56.2291 27.0733 56.2291C26.6533 56.2291 26.2753 56.3251 25.9393 56.5171C25.6033 56.7031 25.3393 56.9671 25.1473 57.3091C24.9553 57.6451 24.8593 58.0231 24.8593 58.4431C24.8593 58.8631 24.9553 59.2441 25.1473 59.5861C25.3393 59.9221 25.6033 60.1861 25.9393 60.3781C26.2753 60.5641 26.6533 60.6571 27.0733 60.6571ZM36.4284 61.5931L35.1414 59.7481C35.0874 59.7541 35.0064 59.7571 34.8984 59.7571H33.4764V61.5931H32.3064V55.2931H34.8984C35.4444 55.2931 35.9184 55.3831 36.3204 55.5631C36.7284 55.7431 37.0404 56.0011 37.2564 56.3371C37.4724 56.6731 37.5804 57.0721 37.5804 57.5341C37.5804 58.0081 37.4634 58.4161 37.2294 58.7581C37.0014 59.1001 36.6714 59.3551 36.2394 59.5231L37.6884 61.5931H36.4284ZM36.4014 57.5341C36.4014 57.1321 36.2694 56.8231 36.0054 56.6071C35.7414 56.3911 35.3544 56.2831 34.8444 56.2831H33.4764V58.7941H34.8444C35.3544 58.7941 35.7414 58.6861 36.0054 58.4701C36.2694 58.2481 36.4014 57.9361 36.4014 57.5341ZM40.6796 56.2831H38.5916V55.2931H43.9376V56.2831H41.8496V61.5931H40.6796V56.2831ZM49.1852 60.1351H46.0352L45.4142 61.5931H44.2082L47.0432 55.2931H48.1952L51.0392 61.5931H49.8152L49.1852 60.1351ZM48.7982 59.2171L47.6102 56.4631L46.4312 59.2171H48.7982ZM52.4404 55.2931H53.6104V60.6031H56.9044V61.5931H52.4404V55.2931Z" fill="#1A4F95"/>
</g>
<defs>
<linearGradient id="paint0_linear" x1="22.5859" y1="4.73111" x2="29.1205" y2="7.22796" gradientUnits="userSpaceOnUse">
<stop stop-color="#2158A7"/>
<stop offset="1" stop-color="#0D3B7C"/>
</linearGradient>
<clipPath id="clip0">
<rect width="73" height="66.203" fill="white"/>
</clipPath>
<clipPath id="clip1">
<rect width="73" height="47.203" fill="white"/>
</clipPath>
</defs>
</svg>
