<svg width="164" height="106" viewBox="0 0 164 106" fill="none" xmlns="http://www.w3.org/2000/svg">
<g clip-path="url(#clip0)">
<path fill-rule="evenodd" clip-rule="evenodd" d="M56.168 74.9784H107.52V0H56.168V74.9784Z" fill="#FF8F3E"/>
<path fill-rule="evenodd" clip-rule="evenodd" d="M0 74.9784H51.3519V0H0V74.9784Z" fill="#1A4F95"/>
<path fill-rule="evenodd" clip-rule="evenodd" d="M112.33 74.9784H163.682V0H112.33V74.9784Z" fill="#1A4F95"/>
<path fill-rule="evenodd" clip-rule="evenodd" d="M24.7772 56.1981C22.3318 56.1981 20.0495 55.87 17.7673 55.0497C15.648 54.2293 13.6917 53.245 12.0614 51.9325C10.4312 50.6199 9.12706 48.9792 8.31194 47.3385C7.33387 45.5339 7.00781 43.729 7.00781 41.7603V19.4473H15.1588V41.5963C15.1588 42.7447 15.4849 43.729 15.9739 44.7135C16.4631 45.6978 17.1151 46.5182 18.0933 47.1745C18.9085 47.8308 20.0495 48.487 21.1907 48.8152C22.3318 49.1433 23.636 49.4714 24.9402 49.4714C26.2444 49.4714 27.5486 49.3073 28.6897 48.8152C29.8309 48.323 30.8091 47.8308 31.7871 47.1745C32.6021 46.5182 33.4173 45.5339 33.9065 44.7135C34.3955 43.729 34.7215 42.7447 34.7215 41.5963V19.4473H42.8725V41.5963C42.8725 43.5651 42.3835 45.5339 41.5685 47.1745C40.5903 48.9792 39.4492 50.4557 37.8188 51.7683C36.1886 53.0809 34.2324 54.0652 32.1131 54.8857C29.6679 55.7061 27.2226 56.1981 24.7772 56.1981Z" fill="white"/>
<path fill-rule="evenodd" clip-rule="evenodd" d="M65.207 48.7269V55.4481V55.7762H78.5749C80.6941 55.7762 82.6503 55.6123 84.6066 55.12C86.5628 54.7919 88.3562 54.1357 89.9864 53.3152C91.6167 52.4949 93.2467 51.5106 94.5511 50.3621C95.8552 49.2137 96.9964 47.9011 97.9744 46.5885C98.9526 45.112 99.7678 43.6354 100.257 42.1587C100.746 40.518 101.072 38.8773 101.072 37.2367C101.072 35.432 100.746 33.7913 100.257 32.3146C99.7678 30.6741 98.9526 29.1974 97.9744 27.885C96.9964 26.4083 95.8552 25.2598 94.5511 24.1114C93.0839 22.9629 91.6167 21.9785 89.9864 21.1583C88.3562 20.3379 86.5628 19.8457 84.6066 19.3535C82.6503 18.8612 80.6941 18.6973 78.5749 18.6973H65.207V43.7545H73.5212V25.0959H78.5749C80.5311 25.0959 82.4873 25.424 84.1176 26.0802C85.9108 26.5724 87.378 27.5569 88.6822 28.5412C89.9864 29.6896 90.9645 30.8382 91.7797 32.3146C92.5947 33.7913 92.9207 35.2679 92.9207 36.9087C92.9207 38.5492 92.5947 40.026 91.7797 41.5025C90.9645 42.979 89.9864 44.2916 88.6822 45.2759C87.378 46.2604 85.7478 47.0807 84.1176 47.737C82.3243 48.3933 80.5311 48.7214 78.5749 48.7214H75.1774V48.7269H65.207Z" fill="white"/>
<path fill-rule="evenodd" clip-rule="evenodd" d="M121.123 55.7061V49.1432H141.012C141.664 49.1432 142.316 48.9792 142.968 48.8152C143.62 48.6511 144.109 48.323 144.598 47.9947C145.087 47.6668 145.413 47.1745 145.74 46.6823C146.065 46.1901 146.065 45.5339 146.065 45.0416C146.065 44.5494 145.902 43.8932 145.74 43.4009C145.413 42.9087 145.087 42.4165 144.598 42.0884C144.109 41.7603 143.62 41.4322 142.968 41.268C142.316 41.1041 141.664 40.9399 141.012 40.9399H131.883C130.089 40.9399 128.296 40.6118 126.666 40.1196C125.036 39.4634 123.731 38.807 122.427 37.8227C121.286 36.8382 120.308 35.6898 119.656 34.3772C119.004 33.0648 118.678 31.5881 118.678 30.1115C118.678 28.635 119.004 27.1583 119.656 26.0098C120.308 24.6972 121.286 23.5488 122.427 22.5645C123.569 21.58 125.036 20.7598 126.666 20.2676C128.296 19.6114 129.926 19.4473 131.883 19.4473H152.423V26.0098H131.883C131.231 26.0098 130.578 26.174 129.926 26.3381C129.274 26.5021 128.785 26.8302 128.296 27.1583C127.807 27.4865 127.481 27.9786 127.155 28.4708C126.829 28.9631 126.829 29.6193 126.829 30.1115C126.829 30.7677 126.992 31.26 127.155 31.7522C127.481 32.2444 127.807 32.7365 128.296 33.0648C128.785 33.3929 129.274 33.721 129.926 33.885C130.578 34.0491 131.231 34.2132 131.883 34.2132H141.012C142.805 34.2132 144.598 34.5413 146.229 35.0336C147.859 35.5258 149.326 36.346 150.467 37.3305C151.608 38.3149 152.586 39.4634 153.239 40.776C153.891 42.0884 154.217 43.5651 154.217 45.0416C154.217 46.5183 153.891 47.9947 153.239 49.1432C152.586 50.4557 151.608 51.6042 150.467 52.5887C149.326 53.5731 147.859 54.3935 146.229 54.8857C144.598 55.5419 142.805 55.7061 141.012 55.7061H121.123Z" fill="white"/>
<path fill-rule="evenodd" clip-rule="evenodd" d="M164 106V79.5H0V106H164Z" fill="white"/>
<path d="M53.7372 87.2838C54.6417 87.2838 55.4269 87.4329 56.0928 87.731C56.7687 88.0291 57.2855 88.4565 57.6434 89.013C58.0012 89.5695 58.1801 90.2303 58.1801 90.9955C58.1801 91.7507 58.0012 92.4116 57.6434 92.978C57.2855 93.5345 56.7687 93.9618 56.0928 94.2599C55.4269 94.5581 54.6417 94.7071 53.7372 94.7071H51.3815V97.7182H49.4434V87.2838H53.7372ZM53.6477 93.0675C54.4926 93.0675 55.1337 92.8886 55.571 92.5308C56.0083 92.1731 56.227 91.6613 56.227 90.9955C56.227 90.3297 56.0083 89.8179 55.571 89.4601C55.1337 89.1024 54.4926 88.9235 53.6477 88.9235H51.3815V93.0675H53.6477ZM66.1304 97.8673C65.0669 97.8673 64.1078 97.6387 63.253 97.1816C62.3982 96.7145 61.7273 96.0735 61.2403 95.2587C60.7532 94.4339 60.5097 93.5146 60.5097 92.501C60.5097 91.4874 60.7532 90.5731 61.2403 89.7583C61.7273 88.9335 62.3982 88.2925 63.253 87.8354C64.1078 87.3683 65.0669 87.1348 66.1304 87.1348C67.194 87.1348 68.1531 87.3683 69.0079 87.8354C69.8627 88.2925 70.5336 88.9285 71.0206 89.7434C71.5077 90.5582 71.7512 91.4774 71.7512 92.501C71.7512 93.5246 71.5077 94.4438 71.0206 95.2587C70.5336 96.0735 69.8627 96.7145 69.0079 97.1816C68.1531 97.6387 67.194 97.8673 66.1304 97.8673ZM66.1304 96.1679C66.8262 96.1679 67.4524 96.0139 68.009 95.7059C68.5656 95.3879 69.0029 94.9506 69.321 94.3941C69.639 93.8277 69.7981 93.1966 69.7981 92.501C69.7981 91.8054 69.639 91.1793 69.321 90.6228C69.0029 90.0564 68.5656 89.6191 68.009 89.3111C67.4524 88.9931 66.8262 88.8341 66.1304 88.8341C65.4347 88.8341 64.8085 88.9931 64.2519 89.3111C63.6953 89.6191 63.258 90.0564 62.9399 90.6228C62.6218 91.1793 62.4628 91.8054 62.4628 92.501C62.4628 93.1966 62.6218 93.8277 62.9399 94.3941C63.258 94.9506 63.6953 95.3879 64.2519 95.7059C64.8085 96.0139 65.4347 96.1679 66.1304 96.1679ZM81.6278 97.7182L79.4958 94.6624C79.4063 94.6724 79.2721 94.6773 79.0932 94.6773H76.7376V97.7182H74.7994V87.2838H79.0932C79.9977 87.2838 80.7829 87.4329 81.4489 87.731C82.1248 88.0291 82.6416 88.4565 82.9994 89.013C83.3572 89.5695 83.5361 90.2303 83.5361 90.9955C83.5361 91.7805 83.3423 92.4563 82.9547 93.0227C82.577 93.5892 82.0303 94.0115 81.3147 94.2898L83.7151 97.7182H81.6278ZM81.5831 90.9955C81.5831 90.3297 81.3644 89.8179 80.9271 89.4601C80.4897 89.1024 79.8486 88.9235 79.0038 88.9235H76.7376V93.0824H79.0038C79.8486 93.0824 80.4897 92.9035 80.9271 92.5457C81.3644 92.178 81.5831 91.6613 81.5831 90.9955ZM88.6702 88.9235H85.2113V87.2838H94.0673V88.9235H90.6084V97.7182H88.6702V88.9235ZM102.76 95.3034H97.5421L96.5134 97.7182H94.5155L99.2119 87.2838H101.12L105.832 97.7182H103.804L102.76 95.3034ZM102.119 93.783L100.151 89.2216L98.1981 93.783H102.119ZM108.153 87.2838H110.091V96.0785H115.548V97.7182H108.153V87.2838Z" fill="#1A4F95"/>
</g>
<defs>
<clipPath id="clip0">
<rect width="164" height="106" fill="white"/>
</clipPath>
</defs>
</svg>
