<svg width="99" height="64" viewBox="0 0 99 64" fill="none" xmlns="http://www.w3.org/2000/svg">
<path fill-rule="evenodd" clip-rule="evenodd" d="M33.9062 45.27H64.9053V0H33.9062V45.27Z" fill="#FF8F3E"/>
<path fill-rule="evenodd" clip-rule="evenodd" d="M0 45.27H30.999V0H0V45.27Z" fill="#383680"/>
<path fill-rule="evenodd" clip-rule="evenodd" d="M67.8086 45.27H98.8076V0H67.8086V45.27Z" fill="#383680"/>
<path fill-rule="evenodd" clip-rule="evenodd" d="M14.9571 33.9314C13.4809 33.9314 12.1032 33.7333 10.7255 33.238C9.44619 32.7427 8.26527 32.1484 7.28111 31.3559C6.29702 30.5634 5.50977 29.5728 5.01772 28.5822C4.4273 27.4926 4.23047 26.4029 4.23047 25.2142V11.7422H9.15091V25.1152C9.15091 25.8086 9.34774 26.4029 9.64295 26.9973C9.93823 27.5916 10.3318 28.0869 10.9223 28.4832C11.4144 28.8794 12.1032 29.2756 12.7921 29.4738C13.4809 29.6719 14.2682 29.87 15.0555 29.87C15.8428 29.87 16.6301 29.7709 17.3189 29.4738C18.0078 29.1766 18.5983 28.8794 19.1887 28.4832C19.6807 28.0869 20.1728 27.4926 20.4681 26.9973C20.7633 26.4029 20.9601 25.8086 20.9601 25.1152V11.7422H25.8805V25.1152C25.8805 26.3039 25.5853 27.4926 25.0933 28.4832C24.5028 29.5728 23.814 30.4643 22.8298 31.2568C21.8457 32.0493 20.6648 32.6436 19.3855 33.139C17.9094 33.6343 16.4333 33.9314 14.9571 33.9314Z" fill="white"/>
<path fill-rule="evenodd" clip-rule="evenodd" d="M39.3633 29.4202V33.4783V33.6764H47.4329C48.7122 33.6764 49.8931 33.5774 51.074 33.2802C52.2549 33.0821 53.3375 32.6859 54.3216 32.1905C55.3057 31.6952 56.2897 31.1009 57.0771 30.4075C57.8643 29.7141 58.5532 28.9216 59.1436 28.1291C59.7341 27.2376 60.2262 26.3461 60.5214 25.4545C60.8166 24.4639 61.0134 23.4733 61.0134 22.4827C61.0134 21.3931 60.8166 20.4025 60.5214 19.5109C60.2262 18.5204 59.7341 17.6288 59.1436 16.8364C58.5532 15.9448 57.8643 15.2514 57.0771 14.558C56.1914 13.8646 55.3057 13.2702 54.3216 12.775C53.3375 12.2797 52.2549 11.9825 51.074 11.6853C49.8931 11.3881 48.7122 11.2891 47.4329 11.2891H39.3633V26.418H44.3822V15.1524H47.4329C48.6138 15.1524 49.7947 15.3505 50.7788 15.7467C51.8613 16.0439 52.747 16.6383 53.5343 17.2326C54.3216 17.926 54.912 18.6195 55.4041 19.5109C55.8961 20.4025 56.0929 21.294 56.0929 22.2847C56.0929 23.2752 55.8961 24.1668 55.4041 25.0583C54.912 25.9498 54.3216 26.7423 53.5343 27.3366C52.747 27.931 51.7629 28.4263 50.7788 28.8225C49.6963 29.2188 48.6138 29.4169 47.4329 29.4169H45.382V29.4202H39.3633Z" fill="white"/>
<path fill-rule="evenodd" clip-rule="evenodd" d="M73.1168 33.6343V29.6718H85.1228C85.5164 29.6718 85.91 29.5728 86.3037 29.4738C86.6973 29.3747 86.9925 29.1766 87.2878 28.9784C87.583 28.7804 87.7798 28.4832 87.9767 28.186C88.1734 27.8888 88.1734 27.4926 88.1734 27.1954C88.1734 26.8982 88.075 26.502 87.9767 26.2048C87.7798 25.9076 87.583 25.6104 87.2878 25.4123C86.9925 25.2142 86.6973 25.0161 86.3037 24.917C85.91 24.818 85.5164 24.7189 85.1228 24.7189H79.6118C78.5293 24.7189 77.4468 24.5208 76.4627 24.2236C75.4786 23.8274 74.6913 23.4311 73.9041 22.8368C73.2152 22.2424 72.6247 21.549 72.2311 20.7565C71.8375 19.9641 71.6406 19.0725 71.6406 18.181C71.6406 17.2895 71.8375 16.3979 72.2311 15.7045C72.6247 14.912 73.2152 14.2186 73.9041 13.6243C74.593 13.0299 75.4786 12.5347 76.4627 12.2375C77.4468 11.8413 78.4309 11.7422 79.6118 11.7422H92.0114V15.7045H79.6118C79.2182 15.7045 78.8245 15.8036 78.4309 15.9027C78.0373 16.0017 77.742 16.1998 77.4468 16.3979C77.1516 16.5961 76.9547 16.8932 76.758 17.1904C76.5611 17.4876 76.5611 17.8838 76.5611 18.181C76.5611 18.5772 76.6595 18.8744 76.758 19.1716C76.9547 19.4688 77.1516 19.7659 77.4468 19.9641C77.742 20.1622 78.0373 20.3603 78.4309 20.4593C78.8245 20.5584 79.2182 20.6575 79.6118 20.6575H85.1228C86.2052 20.6575 87.2878 20.8556 88.2719 21.1528C89.256 21.45 90.1417 21.9452 90.8305 22.5396C91.5193 23.134 92.1098 23.8274 92.5035 24.6199C92.8971 25.4123 93.0939 26.3039 93.0939 27.1954C93.0939 28.087 92.8971 28.9784 92.5035 29.6718C92.1098 30.4643 91.5193 31.1577 90.8305 31.7521C90.1417 32.3465 89.256 32.8418 88.2719 33.139C87.2878 33.5352 86.2052 33.6343 85.1228 33.6343H73.1168Z" fill="white"/>
<path fill-rule="evenodd" clip-rule="evenodd" d="M99 64V48H0V64H99Z" fill="#F2F3F9"/>
<path d="M32.4397 52.6994C32.9857 52.6994 33.4597 52.7894 33.8617 52.9694C34.2697 53.1494 34.5817 53.4074 34.7977 53.7434C35.0137 54.0794 35.1217 54.4784 35.1217 54.9404C35.1217 55.3964 35.0137 55.7954 34.7977 56.1374C34.5817 56.4734 34.2697 56.7314 33.8617 56.9114C33.4597 57.0914 32.9857 57.1814 32.4397 57.1814H31.0177V58.9994H29.8477V52.6994H32.4397ZM32.3857 56.1914C32.8957 56.1914 33.2827 56.0834 33.5467 55.8674C33.8107 55.6514 33.9427 55.3424 33.9427 54.9404C33.9427 54.5384 33.8107 54.2294 33.5467 54.0134C33.2827 53.7974 32.8957 53.6894 32.3857 53.6894H31.0177V56.1914H32.3857ZM39.921 59.0894C39.279 59.0894 38.7 58.9514 38.184 58.6754C37.668 58.3934 37.263 58.0064 36.969 57.5144C36.675 57.0164 36.528 56.4614 36.528 55.8494C36.528 55.2374 36.675 54.6854 36.969 54.1934C37.263 53.6954 37.668 53.3084 38.184 53.0324C38.7 52.7504 39.279 52.6094 39.921 52.6094C40.563 52.6094 41.142 52.7504 41.658 53.0324C42.174 53.3084 42.579 53.6924 42.873 54.1844C43.167 54.6764 43.314 55.2314 43.314 55.8494C43.314 56.4674 43.167 57.0224 42.873 57.5144C42.579 58.0064 42.174 58.3934 41.658 58.6754C41.142 58.9514 40.563 59.0894 39.921 59.0894ZM39.921 58.0634C40.341 58.0634 40.719 57.9704 41.055 57.7844C41.391 57.5924 41.655 57.3284 41.847 56.9924C42.039 56.6504 42.135 56.2694 42.135 55.8494C42.135 55.4294 42.039 55.0514 41.847 54.7154C41.655 54.3734 41.391 54.1094 41.055 53.9234C40.719 53.7314 40.341 53.6354 39.921 53.6354C39.501 53.6354 39.123 53.7314 38.787 53.9234C38.451 54.1094 38.187 54.3734 37.995 54.7154C37.803 55.0514 37.707 55.4294 37.707 55.8494C37.707 56.2694 37.803 56.6504 37.995 56.9924C38.187 57.3284 38.451 57.5924 38.787 57.7844C39.123 57.9704 39.501 58.0634 39.921 58.0634ZM49.2761 58.9994L47.9891 57.1544C47.9351 57.1604 47.8541 57.1634 47.7461 57.1634H46.3241V58.9994H45.1541V52.6994H47.7461C48.2921 52.6994 48.7661 52.7894 49.1681 52.9694C49.5761 53.1494 49.8881 53.4074 50.1041 53.7434C50.3201 54.0794 50.4281 54.4784 50.4281 54.9404C50.4281 55.4144 50.3111 55.8224 50.0771 56.1644C49.8491 56.5064 49.5191 56.7614 49.0871 56.9294L50.5361 58.9994H49.2761ZM49.2491 54.9404C49.2491 54.5384 49.1171 54.2294 48.8531 54.0134C48.5891 53.7974 48.2021 53.6894 47.6921 53.6894H46.3241V56.2004H47.6921C48.2021 56.2004 48.5891 56.0924 48.8531 55.8764C49.1171 55.6544 49.2491 55.3424 49.2491 54.9404ZM53.5273 53.6894H51.4393V52.6994H56.7853V53.6894H54.6973V58.9994H53.5273V53.6894ZM62.0329 57.5414H58.8829L58.2619 58.9994H57.0559L59.8909 52.6994H61.0429L63.8869 58.9994H62.6629L62.0329 57.5414ZM61.6459 56.6234L60.4579 53.8694L59.2789 56.6234H61.6459ZM65.2881 52.6994H66.4581V58.0094H69.7521V58.9994H65.2881V52.6994Z" fill="#383680"/>
</svg>
