<svg width="117" height="105" viewBox="0 0 117 105" fill="none" xmlns="http://www.w3.org/2000/svg">
<g clip-path="url(#clip0_20170_29159)">
<path d="M42.7344 15.5084C41.6614 14.5181 41.4773 13.2051 41.3763 11.9217C41.1942 9.57091 41.5584 7.30326 42.7621 5.22971C43.554 3.84338 46.5789 1.99757 48.2636 3.60374C49.2416 4.53654 49.6395 5.78226 49.7425 7.08739C49.8454 8.39253 49.788 8.35094 51.0669 8.18061C51.936 8.06377 52.8209 8.06377 53.6959 7.97069C55.8736 7.74491 56.8634 9.35702 57.0159 10.8226C57.2455 12.8743 56.9901 14.9122 55.737 16.6986C54.7887 18.0493 53.3614 18.5088 51.8311 17.9107C51.6865 17.8552 51.3639 17.8889 51.3441 17.9503C51.2837 18.1518 51.2837 18.3667 51.3441 18.5682C51.8069 19.9281 51.8755 21.3913 51.542 22.7886C51.0233 24.9156 48.0934 26.7119 46.088 25.892C44.9001 25.4068 44.4646 24.3591 43.9578 23.3451C43.7777 22.9993 43.6445 22.631 43.5619 22.2499C43.3006 20.8636 43.7242 20.3883 45.4347 20.0714C45.8801 19.9882 46.377 20.0258 46.767 19.8357C47.2877 19.5802 47.8459 19.2416 48.1765 18.7861C48.6616 18.1167 48.2201 17.4453 47.3589 17.3878C47.161 17.374 46.963 17.4096 46.765 17.3878C46.4225 17.3443 46.082 17.271 45.7395 17.2096C45.8405 16.8135 45.8148 16.2352 46.0662 16.0649C47.2045 15.2905 48.424 14.635 49.6079 13.926C49.8235 13.7786 50.0292 13.6172 50.2235 13.4427C49.9939 13.3061 49.7761 13.0744 49.5326 13.0466C48.3725 12.91 47.1748 12.6228 46.0523 12.7892C45.0625 12.9377 44.041 13.4328 43.4431 14.4132C43.2194 14.7538 42.9917 15.1004 42.7344 15.5084Z" fill="#049FDF"/>
<path d="M44.5951 16.9173C44.112 17.8442 43.8507 18.5848 43.3914 19.1711C42.4451 20.3851 41.5087 21.6546 40.3526 22.6448C38.8559 23.9282 37.1514 23.437 36.2724 21.6368C35.532 20.1177 35.047 18.5076 35.6528 16.8301C35.9598 16.0826 36.3703 15.3819 36.8723 14.7487C37.1969 14.305 37.3177 14.111 36.797 13.6693C35.2529 12.3543 35.2865 10.1203 36.2031 8.48443C36.5021 7.94772 36.9277 7.49419 37.284 6.97927C37.68 6.42474 38.3135 6.13162 38.8025 6.45444C39.234 6.73963 39.5944 7.42685 39.63 7.96356C39.7409 9.37168 39.6656 10.7976 39.6577 12.2156C39.6577 12.3384 39.5389 12.5266 39.5884 12.5761C41.0277 14.0595 40.0635 15.7785 40.018 17.3847C39.9844 18.5235 40.3051 18.9453 41.3721 18.5136C42.3818 18.1056 43.3261 17.553 44.5951 16.9173Z" fill="url(#paint0_linear_20170_29159)"/>
<path d="M57.6201 54.518C55.8405 54.5606 54.0608 54.4419 52.3026 54.1635C51.9621 54.114 51.5008 54.108 51.4731 53.6268C51.4454 53.1455 51.9067 53.1396 52.2432 53.0326C55.8245 51.9176 59.5681 51.4997 63.1652 50.458C66.8573 49.3806 70.597 48.329 73.7684 46.0614C75.1127 45.1008 76.5836 44.1165 77.027 42.247C77.3972 40.6824 77.0785 39.306 76.253 38.0266C74.8494 35.848 72.8538 34.2637 70.688 32.9209C68.0333 31.2731 65.3033 29.7521 62.3733 28.6292C61.6349 28.344 61.1855 28.5579 60.7302 29.061C58.408 31.6019 56.5134 34.434 54.8267 37.4304C53.9022 39.0683 53.0866 40.7517 52.3066 42.4549C51.5266 44.1581 50.8238 45.8752 50.024 47.5566C48.7926 50.1431 47.6285 52.7653 46.1675 55.2329C45.8983 55.6884 45.6449 56.447 45.0252 56.2965C44.3482 56.1321 44.461 55.3478 44.459 54.7675C44.4412 50.3511 45.5578 46.1822 47.1692 42.1083C48.7807 38.0345 50.8673 34.2498 53.2548 30.6216C54.0309 29.4333 54.9118 28.3262 55.7829 27.2092C56.1056 26.7953 56.1788 26.5141 55.7275 26.1437C54.5891 25.2268 54.2744 24.2781 54.7218 23.2938C55.1692 22.3095 56.5589 21.6817 57.7705 22.0461C58.7326 22.3353 59.5879 22.464 60.6134 22.1946C62.1575 21.7867 63.2721 22.7393 64.0798 23.9355C64.4192 24.4547 64.9069 24.8598 65.4795 25.098C69.5418 26.8567 73.4477 28.9065 76.8785 31.7247C79.4145 33.8062 81.7426 36.1095 82.3445 39.5634C82.7761 42.039 82.0772 44.271 80.6023 46.2317C78.3514 49.2202 75.1483 50.7868 71.7274 52.0265C67.2005 53.6526 62.4298 54.4952 57.6201 54.518Z" fill="#F39200"/>
<path d="M4.86064 45.4803C4.82501 42.1254 5.9079 39.0062 6.9314 35.883C7.30163 34.7917 7.73526 33.7231 8.23008 32.6825C8.76856 31.518 10.776 31.0011 12.0489 31.6428C13.1773 32.2111 13.4664 33.4252 12.9101 34.7759C11.8747 37.299 10.9601 39.8558 10.4097 42.5492C10.1603 43.7751 9.85541 44.9615 9.85739 46.227C9.85403 47.2546 10.1521 48.2606 10.7146 49.1204C11.4055 50.1879 12.6428 50.2592 13.7297 50.1661C17.5465 49.8413 20.7061 47.9876 23.644 45.6724C24.9565 44.6386 26.3007 43.6068 27.4727 42.4542C28.6447 41.3015 29.7553 39.9489 30.8877 38.6913C32.9367 36.4117 34.6808 33.9104 36.508 31.4645C38.07 29.3751 39.2361 27.052 40.6496 24.8774C40.9663 24.3902 41.0772 23.7783 41.4969 23.3366C41.78 23.0376 41.974 22.4335 42.4174 22.5761C42.9539 22.7484 42.7381 23.3802 42.7184 23.81C42.6328 24.928 42.406 26.0307 42.0433 27.0916C40.9828 30.525 39.4738 33.8033 37.5553 36.8415C34.5996 41.4818 31.2955 45.8507 26.8788 49.2531C24.032 51.4435 20.9179 53.1269 17.4555 54.0637C15.151 54.6673 12.7352 54.7081 10.4117 54.1825C7.25409 53.5032 4.96754 50.6474 4.86856 47.3519C4.8448 46.7439 4.86064 46.1062 4.86064 45.4803Z" fill="#F39200"/>
<path d="M105.444 21.9584C107.84 21.9426 110.138 22.5526 112.438 23.0992C113.464 23.3487 114.307 24.7291 114.097 25.6124C113.888 26.4957 112.215 27.5018 111.128 27.284C109.544 26.9651 108.002 26.5373 106.377 26.4224C104.751 26.3076 103.156 26.3076 101.681 27.1592C100.768 27.686 100.529 28.3475 100.944 29.3139C101.627 30.9122 102.754 32.2153 103.86 33.5165C105.462 35.3999 106.971 37.325 107.741 39.7253C108.635 42.5118 108.335 45.1538 106.963 47.7363C105.492 50.505 103.162 52.2023 100.345 53.3292C95.5616 55.2364 90.7985 55.2304 86.0907 53.0856C85.0846 52.6532 84.229 51.9323 83.632 51.014C83.531 50.8556 83.3568 50.6892 83.5092 50.4832C83.6617 50.2773 83.8636 50.3803 84.0517 50.4278C84.9445 50.6456 85.8334 50.8694 86.7322 51.0774C89.11 51.64 91.5843 51.6576 93.9699 51.1289C95.3867 50.8256 96.7545 50.327 98.0342 49.6475C100.065 48.5622 101.899 47.162 102.795 44.9557C103.415 43.4308 103.114 41.8345 102.441 40.3531C101.283 37.8062 99.3488 35.798 97.7234 33.568C96.599 32.0312 95.5299 30.4686 95.5141 28.397C95.4943 25.8758 97.0761 24.2598 99.3923 23.1943C101.297 22.3508 103.361 21.9293 105.444 21.9584Z" fill="#F39200"/>
<path fill-rule="evenodd" clip-rule="evenodd" d="M117 104.296V78.6523H0V104.296H117Z" fill="#F9FAFF"/>
<path d="M31.4004 86.8122C32.2755 86.8122 33.0352 86.9565 33.6795 87.245C34.3334 87.5334 34.8335 87.947 35.1797 88.4855C35.5258 89.024 35.6989 89.6635 35.6989 90.404C35.6989 91.1348 35.5258 91.7743 35.1797 92.3224C34.8335 92.861 34.3334 93.2745 33.6795 93.5629C33.0352 93.8514 32.2755 93.9957 31.4004 93.9957H29.1213V96.9095H27.2461V86.8122H31.4004ZM31.3138 92.409C32.1312 92.409 32.7515 92.2359 33.1746 91.8897C33.5977 91.5435 33.8093 91.0483 33.8093 90.404C33.8093 89.7597 33.5977 89.2644 33.1746 88.9182C32.7515 88.572 32.1312 88.3989 31.3138 88.3989H29.1213V92.409H31.3138ZM43.391 97.0537C42.362 97.0537 41.434 96.8325 40.607 96.3902C39.78 95.9382 39.1309 95.3179 38.6597 94.5294C38.1885 93.7312 37.9529 92.8417 37.9529 91.8608C37.9529 90.88 38.1885 89.9953 38.6597 89.2067C39.1309 88.4085 39.78 87.7883 40.607 87.3459C41.434 86.894 42.362 86.668 43.391 86.668C44.4199 86.668 45.3479 86.894 46.1749 87.3459C47.0019 87.7883 47.651 88.4037 48.1223 89.1923C48.5935 89.9808 48.8291 90.8703 48.8291 91.8608C48.8291 92.8513 48.5935 93.7409 48.1223 94.5294C47.651 95.3179 47.0019 95.9382 46.1749 96.3902C45.3479 96.8325 44.4199 97.0537 43.391 97.0537ZM43.391 95.4093C44.0641 95.4093 44.67 95.2603 45.2085 94.9621C45.747 94.6544 46.1701 94.2313 46.4778 93.6928C46.7856 93.1446 46.9394 92.534 46.9394 91.8608C46.9394 91.1877 46.7856 90.5819 46.4778 90.0433C46.1701 89.4952 45.747 89.0721 45.2085 88.774C44.67 88.4662 44.0641 88.3124 43.391 88.3124C42.7178 88.3124 42.112 88.4662 41.5735 88.774C41.0349 89.0721 40.6118 89.4952 40.3041 90.0433C39.9964 90.5819 39.8425 91.1877 39.8425 91.8608C39.8425 92.534 39.9964 93.1446 40.3041 93.6928C40.6118 94.2313 41.0349 94.6544 41.5735 94.9621C42.112 95.2603 42.7178 95.4093 43.391 95.4093ZM58.3848 96.9095L56.322 93.9524C56.2355 93.962 56.1057 93.9668 55.9326 93.9668H53.6535V96.9095H51.7783V86.8122H55.9326C56.8077 86.8122 57.5674 86.9565 58.2117 87.245C58.8656 87.5334 59.3656 87.947 59.7118 88.4855C60.058 89.024 60.2311 89.6635 60.2311 90.404C60.2311 91.1637 60.0436 91.8176 59.6686 92.3657C59.3031 92.9138 58.7742 93.3225 58.0818 93.5918L60.4042 96.9095H58.3848ZM58.3415 90.404C58.3415 89.7597 58.1299 89.2644 57.7068 88.9182C57.2837 88.572 56.6634 88.3989 55.846 88.3989H53.6535V92.4234H55.846C56.6634 92.4234 57.2837 92.2503 57.7068 91.9041C58.1299 91.5483 58.3415 91.0483 58.3415 90.404ZM65.1983 88.3989H61.8518V86.8122H70.42V88.3989H67.0735V96.9095H65.1983V88.3989ZM78.8306 94.5727H73.782L72.7867 96.9095H70.8537L75.3975 86.8122H77.2439L81.8021 96.9095H79.8403L78.8306 94.5727ZM78.2103 93.1014L76.3063 88.6874L74.4166 93.1014H78.2103ZM84.0478 86.8122H85.923V95.3228H91.2024V96.9095H84.0478V86.8122Z" fill="#1A4F95"/>
</g>
<defs>
<linearGradient id="paint0_linear_20170_29159" x1="36.199" y1="7.57975" x2="46.6722" y2="11.5815" gradientUnits="userSpaceOnUse">
<stop stop-color="#2158A7"/>
<stop offset="1" stop-color="#0D3B7C"/>
</linearGradient>
<clipPath id="clip0_20170_29159">
<rect width="117" height="104.298" fill="white"/>
</clipPath>
</defs>
</svg>
