<svg width="164" height="106" viewBox="0 0 164 106" fill="none" xmlns="http://www.w3.org/2000/svg">
<g clip-path="url(#clip0)">
<path fill-rule="evenodd" clip-rule="evenodd" d="M117 106V80H0V106H117Z" fill="white"/>
<path d="M32.2938 87.2838C33.1983 87.2838 33.9835 87.4329 34.6495 87.731C35.3253 88.0291 35.8422 88.4565 36.2 89.013C36.5578 89.5695 36.7367 90.2303 36.7367 90.9955C36.7367 91.7507 36.5578 92.4116 36.2 92.978C35.8422 93.5345 35.3253 93.9618 34.6495 94.2599C33.9835 94.5581 33.1983 94.7071 32.2938 94.7071H29.9382V97.7182H28V87.2838H32.2938ZM32.2044 93.0675C33.0492 93.0675 33.6903 92.8886 34.1276 92.5308C34.565 92.1731 34.7836 91.6613 34.7836 90.9955C34.7836 90.3297 34.565 89.8179 34.1276 89.4601C33.6903 89.1024 33.0492 88.9235 32.2044 88.9235H29.9382V93.0675H32.2044ZM44.6871 97.8673C43.6236 97.8673 42.6644 97.6387 41.8096 97.1816C40.9548 96.7145 40.2839 96.0735 39.7969 95.2587C39.3099 94.4339 39.0664 93.5146 39.0664 92.501C39.0664 91.4874 39.3099 90.5731 39.7969 89.7583C40.2839 88.9335 40.9548 88.2925 41.8096 87.8354C42.6644 87.3683 43.6236 87.1348 44.6871 87.1348C45.7506 87.1348 46.7098 87.3683 47.5645 87.8354C48.4193 88.2925 49.0902 88.9285 49.5773 89.7434C50.0643 90.5582 50.3078 91.4774 50.3078 92.501C50.3078 93.5246 50.0643 94.4438 49.5773 95.2587C49.0902 96.0735 48.4193 96.7145 47.5645 97.1816C46.7098 97.6387 45.7506 97.8673 44.6871 97.8673ZM44.6871 96.1679C45.3828 96.1679 46.009 96.0139 46.5656 95.7059C47.1222 95.3879 47.5596 94.9506 47.8776 94.3941C48.1957 93.8277 48.3547 93.1966 48.3547 92.501C48.3547 91.8054 48.1957 91.1793 47.8776 90.6228C47.5596 90.0564 47.1222 89.6191 46.5656 89.3111C46.009 88.9931 45.3828 88.8341 44.6871 88.8341C43.9913 88.8341 43.3651 88.9931 42.8085 89.3111C42.2519 89.6191 41.8146 90.0564 41.4965 90.6228C41.1785 91.1793 41.0194 91.8054 41.0194 92.501C41.0194 93.1966 41.1785 93.8277 41.4965 94.3941C41.8146 94.9506 42.2519 95.3879 42.8085 95.7059C43.3651 96.0139 43.9913 96.1679 44.6871 96.1679ZM60.1844 97.7182L58.0524 94.6624C57.963 94.6724 57.8288 94.6773 57.6499 94.6773H55.2942V97.7182H53.3561V87.2838H57.6499C58.5544 87.2838 59.3396 87.4329 60.0055 87.731C60.6814 88.0291 61.1982 88.4565 61.5561 89.013C61.9139 89.5695 62.0928 90.2303 62.0928 90.9955C62.0928 91.7805 61.899 92.4563 61.5113 93.0227C61.1336 93.5892 60.587 94.0115 59.8713 94.2898L62.2717 97.7182H60.1844ZM60.1397 90.9955C60.1397 90.3297 59.921 89.8179 59.4837 89.4601C59.0464 89.1024 58.4053 88.9235 57.5604 88.9235H55.2942V93.0824H57.5604C58.4053 93.0824 59.0464 92.9035 59.4837 92.5457C59.921 92.178 60.1397 91.6613 60.1397 90.9955ZM67.2268 88.9235H63.7679V87.2838H72.6239V88.9235H69.165V97.7182H67.2268V88.9235ZM81.3169 95.3034H76.0987L75.07 97.7182H73.0722L77.7685 87.2838H79.6769L84.3882 97.7182H82.3605L81.3169 95.3034ZM80.6758 93.783L78.7078 89.2216L76.7547 93.783H80.6758ZM86.7094 87.2838H88.6475V96.0785H94.1043V97.7182H86.7094V87.2838Z" fill="#1A4F95"/>
<g clip-path="url(#clip1)">
<path d="M42.7344 15.7948C41.6614 14.7608 41.4773 13.3897 41.3763 12.0496C41.1942 9.5948 41.5584 7.22687 42.7621 5.0616C43.554 3.61396 46.5789 1.68653 48.2636 3.36373C49.2416 4.33778 49.6395 5.63859 49.7425 7.00145C49.8454 8.3643 49.788 8.32087 51.0669 8.14302C51.936 8.021 52.8209 8.021 53.6959 7.9238C55.8736 7.68804 56.8634 9.37145 57.0159 10.9018C57.2455 13.0443 56.9901 15.1724 55.737 17.0378C54.7887 18.4482 53.3614 18.928 51.8311 18.3034C51.6865 18.2455 51.3639 18.2807 51.3441 18.3448C51.2837 18.5552 51.2837 18.7795 51.3441 18.99C51.8069 20.4101 51.8755 21.938 51.542 23.397C51.0233 25.6181 48.0934 27.4939 46.088 26.6377C44.9001 26.131 44.4646 25.037 43.9578 23.9782C43.7777 23.6171 43.6445 23.2325 43.5619 22.8345C43.3006 21.3869 43.7242 20.8906 45.4347 20.5597C45.8801 20.4728 46.377 20.5121 46.767 20.3136C47.2877 20.0468 47.8459 19.6931 48.1765 19.2175C48.6616 18.5185 48.2201 17.8174 47.3589 17.7574C47.161 17.743 46.963 17.7802 46.765 17.7574C46.4225 17.7119 46.082 17.6354 45.7395 17.5713C45.8405 17.1577 45.8148 16.5538 46.0662 16.376C47.2045 15.5674 48.424 14.8828 49.6079 14.1425C49.8235 13.9886 50.0292 13.82 50.2235 13.6379C49.9939 13.4952 49.7761 13.2532 49.5326 13.2242C48.3725 13.0815 47.1748 12.7817 46.0523 12.9554C45.0625 13.1105 44.041 13.6275 43.4431 14.6512C43.2194 15.0069 42.9917 15.3688 42.7344 15.7948Z" fill="#049FDF"/>
<path d="M44.5951 17.2668C44.112 18.2347 43.8507 19.0081 43.3914 19.6203C42.4451 20.888 41.5087 22.2136 40.3526 23.2476C38.8559 24.5878 37.1514 24.0749 36.2724 22.195C35.532 20.6088 35.047 18.9275 35.6528 17.1758C35.9598 16.3952 36.3703 15.6635 36.8723 15.0023C37.1969 14.539 37.3177 14.3364 36.797 13.8752C35.2529 12.502 35.2865 10.1692 36.2031 8.461C36.5021 7.90055 36.9277 7.42697 37.284 6.88927C37.68 6.31021 38.3135 6.00414 38.8025 6.34123C39.234 6.63903 39.5944 7.35665 39.63 7.9171C39.7409 9.38749 39.6656 10.8765 39.6577 12.3572C39.6577 12.4854 39.5389 12.6819 39.5884 12.7336C41.0277 14.2826 40.0635 16.0777 40.018 17.7549C39.9844 18.944 40.3051 19.3845 41.3721 18.9337C42.3818 18.5076 43.3261 17.9307 44.5951 17.2668Z" fill="url(#paint0_linear)"/>
<path d="M57.6201 56.531C55.8405 56.5754 54.0608 56.4515 52.3026 56.1608C51.9621 56.1091 51.5008 56.1029 51.4731 55.6003C51.4454 55.0978 51.9067 55.0916 52.2432 54.9799C55.8245 53.8156 59.5681 53.3792 63.1652 52.2914C66.8573 51.1664 70.597 50.0683 73.7684 47.7003C75.1127 46.6973 76.5836 45.6695 77.027 43.7172C77.3972 42.0835 77.0785 40.6462 76.253 39.3102C74.8494 37.0353 72.8538 35.3809 70.688 33.9787C68.0333 32.2581 65.3033 30.6698 62.3733 29.4972C61.6349 29.1994 61.1855 29.4228 60.7302 29.9481C58.408 32.6014 56.5134 35.5587 54.8267 38.6877C53.9022 40.398 53.0866 42.1559 52.3066 43.9344C51.5266 45.7129 50.8238 47.5059 50.024 49.2617C48.7926 51.9626 47.6285 54.7007 46.1675 57.2775C45.8983 57.7532 45.6449 58.5453 45.0252 58.3881C44.3482 58.2164 44.461 57.3975 44.459 56.7915C44.4412 52.1798 45.5578 47.8265 47.1692 43.5725C48.7807 39.3185 50.8673 35.3664 53.2548 31.5777C54.0309 30.3369 54.9118 29.1808 55.7829 28.0144C56.1056 27.5822 56.1788 27.2886 55.7275 26.9018C54.5891 25.9443 54.2744 24.9537 54.7218 23.9259C55.1692 22.8981 56.5589 22.2425 57.7705 22.623C58.7326 22.9249 59.5879 23.0594 60.6134 22.7781C62.1575 22.3521 63.2721 23.3468 64.0798 24.5959C64.4192 25.1381 64.9069 25.5611 65.4795 25.8099C69.5418 27.6463 73.4477 29.7868 76.8785 32.7296C79.4145 34.9032 81.7426 37.3083 82.3445 40.915C82.7761 43.5001 82.0772 45.8308 80.6023 47.8782C78.3514 50.9989 75.1483 52.6347 71.7274 53.9293C67.2005 55.6273 62.4298 56.5071 57.6201 56.531Z" fill="#F39200"/>
<path d="M4.86064 47.0919C4.82501 43.5886 5.9079 40.3314 6.9314 37.07C7.30163 35.9306 7.73526 34.8147 8.23008 33.7281C8.76856 32.512 10.776 31.9723 12.0489 32.6423C13.1773 33.2359 13.4664 34.5036 12.9101 35.914C11.8747 38.5487 10.9601 41.2186 10.4097 44.0311C10.1603 45.3113 9.85541 46.55 9.85739 47.8715C9.85403 48.9446 10.1521 49.9951 10.7146 50.893C11.4055 52.0077 12.6428 52.0821 13.7297 51.9849C17.5465 51.6457 20.7061 49.71 23.644 47.2925C24.9565 46.2129 26.3007 45.1355 27.4727 43.9319C28.6447 42.7283 29.7553 41.3158 30.8877 40.0026C32.9367 37.6222 34.6808 35.0103 36.508 32.4562C38.07 30.2744 39.2361 27.8486 40.6496 25.5778C40.9663 25.0691 41.0772 24.4301 41.4969 23.9689C41.78 23.6566 41.974 23.0258 42.4174 23.1747C42.9539 23.3547 42.7381 24.0144 42.7184 24.4631C42.6328 25.6306 42.406 26.782 42.0433 27.8899C40.9828 31.4752 39.4738 34.8985 37.5553 38.071C34.5996 42.9165 31.2955 47.4786 26.8788 51.0315C24.032 53.3188 20.9179 55.0767 17.4555 56.0549C15.151 56.6852 12.7352 56.7277 10.4117 56.1789C7.25409 55.4696 4.96754 52.4875 4.86856 49.0462C4.8448 48.4113 4.86064 47.7454 4.86064 47.0919Z" fill="#F39200"/>
<path d="M105.444 22.5327C107.84 22.5162 110.138 23.1532 112.438 23.7239C113.464 23.9845 114.307 25.426 114.097 26.3483C113.888 27.2707 112.215 28.3212 111.128 28.0938C109.544 27.7608 108.002 27.3141 106.377 27.1941C104.751 27.0742 103.156 27.0742 101.681 27.9635C100.768 28.5136 100.529 29.2043 100.944 30.2135C101.627 31.8824 102.754 33.2432 103.86 34.602C105.462 36.5687 106.971 38.5788 107.741 41.0853C108.635 43.9951 108.335 46.7539 106.963 49.4507C105.492 52.3418 103.162 54.1141 100.345 55.2909C95.5616 57.2824 90.7985 57.2762 86.0907 55.0365C85.0846 54.585 84.229 53.8322 83.632 52.8733C83.531 52.7079 83.3568 52.5341 83.5092 52.3191C83.6617 52.104 83.8636 52.2115 84.0517 52.2611C84.9445 52.4886 85.8334 52.7223 86.7322 52.9395C89.11 53.527 91.5843 53.5453 93.9699 52.9932C95.3867 52.6765 96.7545 52.1559 98.0342 51.4463C100.065 50.313 101.899 48.8509 102.795 46.5471C103.415 44.9547 103.114 43.2878 102.441 41.7409C101.283 39.0814 99.3488 36.9844 97.7234 34.6557C96.599 33.0509 95.5299 31.4192 95.5141 29.256C95.4943 26.6234 97.0761 24.9358 99.3923 23.8232C101.297 22.9425 103.361 22.5023 105.444 22.5327Z" fill="#F39200"/>
</g>
</g>
<defs>
<linearGradient id="paint0_linear" x1="36.199" y1="7.51631" x2="46.784" y2="11.3895" gradientUnits="userSpaceOnUse">
<stop stop-color="#2158A7"/>
<stop offset="1" stop-color="#0D3B7C"/>
</linearGradient>
<clipPath id="clip0">
<rect width="164" height="106" fill="white"/>
</clipPath>
<clipPath id="clip1">
<rect width="117" height="79" fill="white" transform="translate(0 -0.398438)"/>
</clipPath>
</defs>
</svg>
