<?xml version="1.0" encoding="UTF-8"?>
<svg width="160px" height="46px" viewBox="0 0 160 46" version="1.1" xmlns="http://www.w3.org/2000/svg" xmlns:xlink="http://www.w3.org/1999/xlink">
    <title>Group 3</title>
    <g id="Page-1" stroke="none" stroke-width="1" fill="none" fill-rule="evenodd">
        <g id="Portal_Storage-Analyzer-Copy" transform="translate(-150.000000, -33.000000)">
            <g id="Group-3" transform="translate(150.000000, 33.000000)">
                <g id="logo-copy">
                    <polygon id="Fill-23" fill="#ED6E2A" points="33.9043375 45.2700256 64.9033412 45.2700256 64.9033412 -9.76996262e-15 33.9043375 -9.76996262e-15"></polygon>
                    <polygon id="Fill-24" fill="#253162" points="0 45.2700256 30.9990038 45.2700256 30.9990038 -9.76996262e-15 0 -9.76996262e-15"></polygon>
                    <polygon id="Fill-25" fill="#253162" points="67.8080563 45.2700256 98.8070669 45.2700256 98.8070669 -9.76996262e-15 67.8080563 -9.76996262e-15"></polygon>
                    <path d="M14.9584187,33.9306069 C13.4822188,33.9306069 12.1045375,33.7325381 10.7267875,33.2371944 C9.4474875,32.7419194 8.26656875,32.1475756 7.2824125,31.3550944 C6.298325,30.5626131 5.51106875,29.5720631 5.019025,28.5814444 C4.4286,27.4918256 4.23176875,26.4021381 4.23176875,25.2134506 L4.23176875,11.7414069 L9.15220625,11.7414069 L9.15220625,25.1143819 C9.15220625,25.8077944 9.3490375,26.4021381 9.64425,26.9964819 C9.93953125,27.5908256 10.333125,28.0861694 10.9236188,28.4823756 C11.4156625,28.8786506 12.1045375,29.2748569 12.7934125,29.4729944 C13.4822188,29.6711319 14.2695438,29.8692006 15.0568,29.8692006 C15.8440563,29.8692006 16.6313813,29.7701319 17.3201875,29.4729944 C18.0090625,29.1757881 18.5995562,28.8786506 19.1899812,28.4823756 C19.682025,28.0861694 20.1740688,27.4918256 20.46935,26.9964819 C20.7645625,26.4021381 20.9613938,25.8077944 20.9613938,25.1143819 L20.9613938,11.7414069 L25.8818312,11.7414069 L25.8818312,25.1143819 C25.8818312,26.3030694 25.5866188,27.4918256 25.094575,28.4823756 C24.5040812,29.5720631 23.815275,30.4635444 22.8311188,31.2560256 C21.8470313,32.0485069 20.6661125,32.6428506 19.3868125,33.1381944 C17.9106813,33.6334694 16.43455,33.9306069 14.9584187,33.9306069 Z" id="Fill-26" fill="#FFFFFF"></path>
                    <path d="M47.43365,11.2897881 C48.7130187,11.2897881 49.8938687,11.3888569 51.0747875,11.6860631 C52.2557062,11.9832006 53.3382437,12.2804069 54.3223312,12.7756819 C55.3064187,13.2709569 56.192125,13.8653006 57.0778312,14.5587131 C57.8650875,15.2521256 58.5539625,15.9455381 59.1443875,16.8370881 C59.7348812,17.6295694 60.226925,18.5211194 60.5221375,19.5116694 C60.81735,20.4032194 61.0141812,21.3938381 61.0141812,22.4834569 C61.0141812,23.4740756 60.81735,24.4646256 60.5221375,25.4552444 C60.226925,26.3467944 59.7348812,27.2383444 59.1443875,28.1298256 C58.5539625,28.9223069 57.8650875,29.7147881 57.0778312,30.4082006 C56.2905062,31.1016131 55.3064187,31.6959569 54.3223312,32.1912319 C53.3382437,32.6865756 52.2557062,33.0827819 51.0747875,33.2809194 C49.8938687,33.5781256 48.7130187,33.6771256 47.43365,33.6771256 L39.36405,33.6771256 L39.363775,29.4197881 L44.3790641,29.4204006 L44.3790641,26.4182084 L39.363775,26.4177881 L39.36405,11.2897881 L47.43365,11.2897881 Z M47.43365,15.1531256 L44.3829375,15.1531256 L44.3829375,29.4175819 L47.43365,29.4175819 C48.6145687,29.4175819 49.6971062,29.2195131 50.779575,28.8232381 C51.7636625,28.4270319 52.74775,27.9317569 53.535075,27.3373444 C54.3223312,26.7430006 54.9127562,25.9505194 55.4048687,25.0590381 C55.8969125,24.1674881 56.093675,23.2759381 56.093675,22.2853881 C56.093675,21.2947694 55.8969125,20.4032194 55.4048687,19.5116694 C54.9127562,18.6201881 54.3223312,17.9267756 53.535075,17.2333631 C52.74775,16.6390194 51.8621125,16.0446069 50.779575,15.7474694 C49.7954875,15.3511944 48.6145687,15.1531256 47.43365,15.1531256 Z" id="Combined-Shape" fill="#FFFFFF"></path>
                    <path d="M73.1184438,33.6334694 L73.1184438,29.6710631 L85.1244625,29.6710631 C85.5180563,29.6710631 85.9117188,29.5720631 86.3053813,29.4729944 C86.698975,29.3739256 86.9941875,29.1757881 87.2894688,28.9776506 C87.5846813,28.7795819 87.7815125,28.4823756 87.9783438,28.1852381 C88.1751063,27.8880319 88.1751063,27.4918256 88.1751063,27.1946194 C88.1751063,26.8974131 88.076725,26.5012069 87.9783438,26.2040006 C87.7815125,25.9068631 87.5846813,25.6096569 87.2894688,25.4115194 C86.9941875,25.2134506 86.698975,25.0153131 86.3053813,24.9162444 C85.9117188,24.8171756 85.5180563,24.7181069 85.1244625,24.7181069 L79.6135313,24.7181069 C78.5309938,24.7181069 77.448525,24.5200381 76.4643688,24.2228319 C75.4802813,23.8266256 74.693025,23.4303506 73.9057688,22.8360069 C73.2168938,22.2416631 72.6264,21.5482506 72.2328063,20.7557694 C71.8391438,19.9632881 71.6423125,19.0717381 71.6423125,18.1802569 C71.6423125,17.2887069 71.8391438,16.3971569 72.2328063,15.7037444 C72.6264,14.9112631 73.2168938,14.2178506 73.9057688,13.6235069 C74.5946438,13.0291631 75.4802813,12.5338881 76.4643688,12.2366819 C77.448525,11.8404756 78.4326125,11.7414069 79.6135313,11.7414069 L92.013075,11.7414069 L92.013075,15.7037444 L79.6135313,15.7037444 C79.2198688,15.7037444 78.8262063,15.8028131 78.4326125,15.9018819 C78.03895,16.0009506 77.7437375,16.1990194 77.448525,16.3971569 C77.1532438,16.5952944 76.9564125,16.8924319 76.75965,17.1896381 C76.5628188,17.4868444 76.5628188,17.8830506 76.5628188,18.1802569 C76.5628188,18.5764631 76.6612,18.8736694 76.75965,19.1708069 C76.9564125,19.4680131 77.1532438,19.7651506 77.448525,19.9632881 C77.7437375,20.1614256 78.03895,20.3595631 78.4326125,20.4585631 C78.8262063,20.5576319 79.2198688,20.6567006 79.6135313,20.6567006 L85.1244625,20.6567006 C86.2069313,20.6567006 87.2894688,20.8548381 88.2735563,21.1519756 C89.2576438,21.4491819 90.14335,21.9444569 90.832225,22.5388694 C91.5210313,23.1332131 92.111525,23.8266256 92.5051875,24.6191069 C92.8987813,25.4115194 93.0956125,26.3030694 93.0956125,27.1946194 C93.0956125,28.0861694 92.8987813,28.9776506 92.5051875,29.6710631 C92.111525,30.4635444 91.5210313,31.1569569 90.832225,31.7513694 C90.14335,32.3457131 89.2576438,32.8409881 88.2735563,33.1381944 C87.2894688,33.5344006 86.2069313,33.6334694 85.1244625,33.6334694 L73.1184438,33.6334694 Z" id="Fill-28" fill="#FFFFFF"></path>
                </g>
                <path d="M109.46,10 L109.46,7.456 L111.536,7.456 C112.624,7.456 113.48,7.196 114.104,6.676 C114.728,6.156 115.04,5.44 115.04,4.528 C115.04,3.616 114.728,2.9 114.104,2.38 C113.48,1.86 112.624,1.6 111.536,1.6 L111.536,1.6 L108.26,1.6 L108.26,10 L109.46,10 Z M111.5,6.412 L109.46,6.412 L109.46,2.644 L111.5,2.644 C112.26,2.644 112.84,2.806 113.24,3.13 C113.64,3.454 113.84,3.92 113.84,4.528 C113.84,5.136 113.64,5.602 113.24,5.926 C112.84,6.25 112.26,6.412 111.5,6.412 L111.5,6.412 Z M121.316,10.096 C122.156,10.096 122.916,9.91 123.596,9.538 C124.276,9.166 124.808,8.654 125.192,8.002 C125.576,7.35 125.768,6.616 125.768,5.8 C125.768,4.984 125.576,4.25 125.192,3.598 C124.808,2.946 124.276,2.434 123.596,2.062 C122.916,1.69 122.156,1.504 121.316,1.504 C120.468,1.504 119.704,1.69 119.024,2.062 C118.344,2.434 117.81,2.948 117.422,3.604 C117.034,4.26 116.84,4.992 116.84,5.8 C116.84,6.608 117.034,7.34 117.422,7.996 C117.81,8.652 118.344,9.166 119.024,9.538 C119.704,9.91 120.468,10.096 121.316,10.096 Z M121.316,9.028 C120.7,9.028 120.142,8.888 119.642,8.608 C119.142,8.328 118.75,7.942 118.466,7.45 C118.182,6.958 118.04,6.408 118.04,5.8 C118.04,5.192 118.182,4.642 118.466,4.15 C118.75,3.658 119.142,3.272 119.642,2.992 C120.142,2.712 120.7,2.572 121.316,2.572 C121.932,2.572 122.486,2.712 122.978,2.992 C123.47,3.272 123.858,3.658 124.142,4.15 C124.426,4.642 124.568,5.192 124.568,5.8 C124.568,6.408 124.426,6.958 124.142,7.45 C123.858,7.942 123.47,8.328 122.978,8.608 C122.486,8.888 121.932,9.028 121.316,9.028 Z M129.404,10 L129.404,7.444 L131.48,7.444 C131.608,7.444 131.784,7.436 132.008,7.42 L132.008,7.42 L133.82,10 L135.128,10 L133.136,7.18 C133.728,6.972 134.184,6.64 134.504,6.184 C134.824,5.728 134.984,5.176 134.984,4.528 C134.984,3.616 134.672,2.9 134.048,2.38 C133.424,1.86 132.568,1.6 131.48,1.6 L131.48,1.6 L128.204,1.6 L128.204,10 L129.404,10 Z M131.444,6.424 L129.404,6.424 L129.404,2.644 L131.444,2.644 C132.204,2.644 132.784,2.806 133.184,3.13 C133.584,3.454 133.784,3.92 133.784,4.528 C133.784,5.136 133.584,5.604 133.184,5.932 C132.784,6.26 132.204,6.424 131.444,6.424 L131.444,6.424 Z M140.264,10 L140.264,2.644 L143.144,2.644 L143.144,1.6 L136.196,1.6 L136.196,2.644 L139.076,2.644 L139.076,10 L140.264,10 Z M144.596,10 L145.52,7.9 L149.984,7.9 L150.908,10 L152.168,10 L148.352,1.6 L147.164,1.6 L143.36,10 L144.596,10 Z M149.564,6.94 L145.94,6.94 L147.752,2.824 L149.564,6.94 Z M159.764,10 L159.764,8.956 L155.216,8.956 L155.216,1.6 L154.016,1.6 L154.016,10 L159.764,10 Z" id="PORTAL" fill="#141454" fill-rule="nonzero"></path>
            </g>
        </g>
    </g>
</svg>