<svg width="40" height="40" viewBox="0 0 40 40" fill="none" xmlns="http://www.w3.org/2000/svg">
<circle cx="20" cy="20" r="19.25" stroke="#FF8F3E" stroke-width="1.5"/>
<rect x="10" y="15.8906" width="4.4081" height="12.9628" fill="#FF8F3E"/>
<path d="M26.4153 16.0426C26.3685 16.0285 26.3242 16.0132 26.2749 16.0002C26.2157 15.9873 26.1566 15.9767 26.0962 15.9672C25.8622 15.9224 25.6059 15.8906 25.3053 15.8906C22.7353 15.8906 21.1054 17.6783 20.5683 18.3689V15.8906H16.1602V28.8534H20.5683V21.7828C20.5683 21.7828 23.8996 17.3448 25.3053 20.6044C25.3053 23.5139 25.3053 28.8534 25.3053 28.8534H29.7122V20.1059C29.7122 18.1473 28.3089 16.5152 26.4153 16.0426Z" fill="#FF8F3E"/>
<ellipse cx="12.156" cy="12.0623" rx="2.156" ry="2.06226" fill="#FF8F3E"/>
</svg>
