<svg width="16" height="12" viewBox="0 0 16 12" fill="none" xmlns="http://www.w3.org/2000/svg">
<path d="M2.9375 0H13.0625C14.3623 0 15.4244 1.01734 15.4961 2.29918L15.5 2.4375V9.5625C15.5 10.8623 14.4827 11.9244 13.2008 11.9961L13.0625 12H2.9375C1.63773 12 0.575566 10.9827 0.503859 9.70082L0.5 9.5625V2.4375C0.5 1.13773 1.51734 0.0755654 2.79918 0.00385845L2.9375 0H13.0625H2.9375ZM14.375 4.02975L8.26198 7.24777C8.12142 7.32175 7.95735 7.33231 7.81007 7.27947L7.73802 7.24777L1.625 4.0305V9.5625C1.625 10.2511 2.15533 10.8159 2.82985 10.8706L2.9375 10.875H13.0625C13.7511 10.875 14.3159 10.3447 14.3706 9.67014L14.375 9.5625V4.02975ZM13.0625 1.125H2.9375C2.24887 1.125 1.68411 1.65533 1.62935 2.32985L1.625 2.4375V2.75925L8 6.11435L14.375 2.7585V2.4375C14.375 1.74887 13.8447 1.18411 13.1701 1.12935L13.0625 1.125Z" fill="#1A4F95"/>
</svg>
