<svg width="22" height="22" viewBox="0 0 22 22" fill="none" xmlns="http://www.w3.org/2000/svg">
<rect width="22" height="22" rx="5" fill="#1A4F95"/>
<path d="M5.9375 5H16.0625C17.3623 5 18.4244 6.01734 18.4961 7.29918L18.5 7.4375V14.5625C18.5 15.8623 17.4827 16.9244 16.2008 16.9961L16.0625 17H5.9375C4.63773 17 3.57557 15.9827 3.50386 14.7008L3.5 14.5625V7.4375C3.5 6.13773 4.51734 5.07557 5.79918 5.00386L5.9375 5H16.0625H5.9375ZM17.375 9.02975L11.262 12.2478C11.1214 12.3217 10.9574 12.3323 10.8101 12.2795L10.738 12.2478L4.625 9.0305V14.5625C4.625 15.2511 5.15533 15.8159 5.82985 15.8706L5.9375 15.875H16.0625C16.7511 15.875 17.3159 15.3447 17.3706 14.6701L17.375 14.5625V9.02975ZM16.0625 6.125H5.9375C5.24887 6.125 4.68411 6.65533 4.62935 7.32985L4.625 7.4375V7.75925L11 11.1143L17.375 7.7585V7.4375C17.375 6.74887 16.8447 6.18411 16.1701 6.12935L16.0625 6.125Z" fill="white"/>
</svg>
