<svg width="12" height="16" viewBox="0 0 12 16" fill="none" xmlns="http://www.w3.org/2000/svg">
<path d="M2.29271 0.812853L3.16796 0.54903C4.15984 0.250053 5.21959 0.733229 5.64435 1.6781L6.3206 3.18239C6.68266 3.98776 6.49186 4.93427 5.84607 5.53648L4.72534 6.58157C4.69259 6.61212 4.67185 6.65338 4.66688 6.69789C4.63361 6.99575 4.83553 7.5758 5.30073 8.38154C5.63901 8.96748 5.9452 9.37838 6.20582 9.60949C6.3874 9.7705 6.48735 9.80533 6.5299 9.79265L8.03764 9.33169C8.88184 9.0736 9.79669 9.38137 10.3132 10.0972L11.2738 11.4285C11.8784 12.2664 11.7696 13.4224 11.0194 14.1328L10.3547 14.7624C9.63733 15.4417 8.61618 15.6949 7.66461 15.4293C5.59904 14.8527 3.74706 13.1096 2.08816 10.2363C0.426945 7.35902 -0.155949 4.88069 0.38139 2.80185C0.627291 1.85048 1.35189 1.09644 2.29271 0.812853ZM2.61738 1.88998C2.05289 2.06014 1.61813 2.51256 1.47059 3.08338C1.01861 4.83202 1.53525 7.02866 3.06243 9.67382C4.58758 12.3155 6.22929 13.8606 7.96706 14.3457C8.538 14.505 9.15069 14.3532 9.58109 13.9456L10.2459 13.316C10.5869 12.9931 10.6363 12.4676 10.3615 12.0868L9.40092 10.7555C9.16613 10.4301 8.75029 10.2902 8.36656 10.4075L6.85506 10.8696C5.97777 11.1311 5.18152 10.4251 4.32645 8.94404C3.75022 7.94599 3.48165 7.17448 3.54883 6.57301C3.58363 6.26144 3.72881 5.97261 3.95809 5.7588L5.07882 4.71371C5.37236 4.43997 5.45909 4.00974 5.29452 3.64367L4.61827 2.13937C4.42519 1.70989 3.94349 1.49026 3.49263 1.62616L2.61738 1.88998Z" fill="#1A4F95"/>
</svg>
