<svg width="22" height="22" viewBox="0 0 22 22" fill="none" xmlns="http://www.w3.org/2000/svg">
<rect width="22" height="22" rx="5" fill="#1A4F95"/>
<path d="M7.29271 3.81285L8.16796 3.54903C9.15984 3.25005 10.2196 3.73323 10.6444 4.6781L11.3206 6.18239C11.6827 6.98776 11.4919 7.93427 10.8461 8.53648L9.72534 9.58157C9.69259 9.61212 9.67185 9.65338 9.66688 9.69789C9.63361 9.99575 9.83553 10.5758 10.3007 11.3815C10.639 11.9675 10.9452 12.3784 11.2058 12.6095C11.3874 12.7705 11.4874 12.8053 11.5299 12.7927L13.0376 12.3317C13.8818 12.0736 14.7967 12.3814 15.3132 13.0972L16.2738 14.4285C16.8784 15.2664 16.7696 16.4224 16.0194 17.1328L15.3547 17.7624C14.6373 18.4417 13.6162 18.6949 12.6646 18.4293C10.599 17.8527 8.74706 16.1096 7.08816 13.2363C5.42695 10.359 4.84405 7.88069 5.38139 5.80185C5.62729 4.85048 6.35189 4.09644 7.29271 3.81285ZM7.61738 4.88998C7.05289 5.06014 6.61813 5.51256 6.47059 6.08338C6.01861 7.83202 6.53525 10.0287 8.06243 12.6738C9.58758 15.3155 11.2293 16.8606 12.9671 17.3457C13.538 17.505 14.1507 17.3532 14.5811 16.9456L15.2459 16.316C15.5869 15.9931 15.6363 15.4676 15.3615 15.0868L14.4009 13.7555C14.1661 13.4301 13.7503 13.2902 13.3666 13.4075L11.8551 13.8696C10.9778 14.1311 10.1815 13.4251 9.32645 11.944C8.75022 10.946 8.48165 10.1745 8.54883 9.57301C8.58363 9.26144 8.72881 8.97261 8.95809 8.7588L10.0788 7.71371C10.3724 7.43997 10.4591 7.00974 10.2945 6.64367L9.61827 5.13937C9.42519 4.70989 8.94349 4.49026 8.49263 4.62616L7.61738 4.88998Z" fill="white"/>
</svg>
