<svg width="14" height="14" viewBox="0 0 14 14" fill="none" xmlns="http://www.w3.org/2000/svg">
<path fill-rule="evenodd" clip-rule="evenodd" d="M10.1113 13.75C9.37696 13.75 8.67895 13.5362 8.07776 13.1291C6.12999 13.4696 4.08488 12.885 2.59987 11.4001C1.11559 9.91574 0.530254 7.87084 0.870865 5.92224C0.463821 5.32105 0.25 4.62304 0.25 3.88867C0.25 1.88229 1.88229 0.25 3.88867 0.25C4.62304 0.25 5.32105 0.463821 5.92224 0.870865C10.1681 0.12867 13.8741 3.81647 13.1291 8.07776C13.5362 8.67895 13.75 9.37696 13.75 10.1113C13.75 12.1177 12.1177 13.75 10.1113 13.75ZM8.52579 12.1517C8.98269 12.5073 9.53094 12.6953 10.1113 12.6953C11.5361 12.6953 12.6953 11.5362 12.6953 10.1113C12.6953 9.53094 12.5073 8.98269 12.1517 8.52579C12.0559 8.40271 12.0194 8.24358 12.0523 8.09115C12.8429 4.41056 9.5639 1.16245 5.90885 1.9477C5.75652 1.98045 5.59729 1.94409 5.47421 1.8483C5.01731 1.49266 4.46906 1.30469 3.88867 1.30469C2.46392 1.30469 1.30469 2.46381 1.30469 3.88867C1.30469 4.46906 1.49266 5.01731 1.8483 5.47421C1.94409 5.59729 1.98055 5.75642 1.9477 5.90885C1.15884 9.5812 4.42755 12.8393 8.09115 12.0523C8.24286 12.0197 8.4022 12.0555 8.52579 12.1517ZM7.48573 6.59856C8.01169 6.7524 9.6016 7.21741 9.6016 8.55566C9.6016 9.64084 8.53445 10.6387 7.00001 10.6387C6.01371 10.6387 4.98179 10.1794 4.56681 9.2991C4.4427 9.03563 4.55558 8.72149 4.81895 8.59727C5.08241 8.47306 5.39666 8.58605 5.52087 8.84941C5.7247 9.28189 6.3329 9.58398 7.00001 9.58398C7.8385 9.58398 8.54692 9.11308 8.54692 8.55566C8.54692 8.01486 7.60283 7.72988 6.80135 7.48795C6.73353 7.46748 6.66673 7.44732 6.60162 7.42733C6.57734 7.41988 6.548 7.4113 6.51429 7.40144C5.98833 7.2476 4.39841 6.78259 4.39841 5.44434C4.39841 4.35916 5.46556 3.36133 7.00001 3.36133C7.98631 3.36133 9.01823 3.82059 9.4332 4.7009C9.55732 4.96437 9.44443 5.27851 9.18107 5.40273C8.9176 5.52694 8.60336 5.41395 8.47915 5.15059C8.27531 4.71811 7.66712 4.41602 7.00001 4.41602C6.16151 4.41602 5.4531 4.88692 5.4531 5.44434C5.4531 5.98514 6.39718 6.27012 7.19866 6.51205C7.26648 6.53252 7.33328 6.55268 7.3984 6.57267C7.42267 6.58012 7.45202 6.5887 7.48573 6.59856Z" fill="#1A4F95"/>
</svg>
