<svg width="22" height="22" viewBox="0 0 22 22" fill="none" xmlns="http://www.w3.org/2000/svg">
<rect width="22" height="22" rx="5" fill="#00AFF0"/>
<path fill-rule="evenodd" clip-rule="evenodd" d="M14.457 18.5C13.6411 18.5 12.8655 18.2624 12.1975 17.8102C10.0333 18.1885 7.76098 17.5389 6.11097 15.889C4.46176 14.2397 3.81139 11.9676 4.18985 9.80249C3.73758 9.1345 3.5 8.35893 3.5 7.54297C3.5 5.31366 5.31366 3.5 7.54297 3.5C8.35893 3.5 9.1345 3.73758 9.80249 4.18985C14.5201 3.36519 18.6379 7.46275 17.8102 12.1975C18.2624 12.8655 18.5 13.6411 18.5 14.457C18.5 16.6863 16.6863 18.5 14.457 18.5ZM12.6953 16.7241C13.203 17.1193 13.8122 17.3281 14.457 17.3281C16.0401 17.3281 17.3281 16.0402 17.3281 14.457C17.3281 13.8122 17.1193 13.203 16.7241 12.6953C16.6177 12.5586 16.5772 12.3818 16.6137 12.2124C17.4921 8.12284 13.8488 4.51383 9.78761 5.38633C9.61835 5.42272 9.44143 5.38232 9.30467 5.27589C8.79701 4.88073 8.18784 4.67188 7.54297 4.67188C5.95991 4.67188 4.67188 5.95979 4.67188 7.54297C4.67188 8.18784 4.88073 8.79701 5.27589 9.30467C5.38232 9.44143 5.42284 9.61824 5.38633 9.78761C4.50983 13.868 8.14172 17.4881 12.2124 16.6137C12.381 16.5774 12.558 16.6172 12.6953 16.7241ZM11.5397 10.554C12.1241 10.7249 13.8907 11.2416 13.8907 12.7285C13.8907 13.9343 12.705 15.043 11 15.043C9.90413 15.043 8.75755 14.5327 8.29646 13.5546C8.15856 13.2618 8.28399 12.9128 8.57662 12.7747C8.86936 12.6367 9.21851 12.7623 9.35653 13.0549C9.58301 13.5354 10.2588 13.8711 11 13.8711C11.9317 13.8711 12.7188 13.3479 12.7188 12.7285C12.7188 12.1276 11.6698 11.811 10.7793 11.5422C10.7039 11.5194 10.6297 11.497 10.5574 11.4748C10.5304 11.4665 10.4978 11.457 10.4603 11.446C9.87592 11.2751 8.10935 10.7584 8.10935 9.27148C8.10935 8.06573 9.29508 6.95703 11 6.95703C12.0959 6.95703 13.2425 7.46732 13.7036 8.44545C13.8415 8.73819 13.716 9.08723 13.4234 9.22525C13.1307 9.36327 12.7815 9.23772 12.6435 8.9451C12.417 8.46456 11.7413 8.12891 11 8.12891C10.0684 8.12891 9.28123 8.65213 9.28123 9.27148C9.28123 9.87238 10.3302 10.189 11.2207 10.4578C11.2961 10.4806 11.3703 10.503 11.4427 10.5252C11.4696 10.5335 11.5022 10.543 11.5397 10.554Z" fill="white"/>
</svg>
