<svg width="40" height="40" fill="none" xmlns="http://www.w3.org/2000/svg"><circle cx="20" cy="20" r="19.25" stroke="#FF8F3E" stroke-width="1.5"/><path d="M29.712 14.814a8.721 8.721 0 01-2.328.61 3.879 3.879 0 001.777-2.136 8.301 8.301 0 01-2.562.935A4.137 4.137 0 0023.647 13c-2.237 0-4.039 1.737-4.039 3.866 0 .307.027.601.094.882-3.36-.157-6.333-1.697-8.33-4.043a3.764 3.764 0 00-.553 1.954c0 1.338.721 2.525 1.795 3.212a4.13 4.13 0 01-1.825-.476v.042c0 1.879 1.4 3.439 3.237 3.798a4.208 4.208 0 01-1.06.128c-.258 0-.52-.014-.764-.066.523 1.53 2.009 2.656 3.776 2.692a8.357 8.357 0 01-5.01 1.649c-.332 0-.65-.014-.968-.053a11.755 11.755 0 006.2 1.735c7.436 0 11.501-5.893 11.501-11 0-.17-.006-.336-.014-.5a7.88 7.88 0 002.025-2.006z" fill="#FF8F3E"/></svg>