<svg width="22" height="22" viewBox="0 0 22 22" fill="none" xmlns="http://www.w3.org/2000/svg">
<rect width="22" height="22" rx="5" fill="#47DB53"/>
<path d="M15.7852 12.8221C15.6768 12.6781 15.5288 12.5699 15.36 12.5111L15.2407 12.4525C15.2291 12.4525 13.9457 11.8091 13.7013 11.7192C13.5204 11.6527 13.1471 11.5236 12.8662 11.9401C12.7411 12.1357 12.362 12.5796 12.1869 12.781C12.1715 12.7986 12.16 12.8064 12.16 12.8084C12.1206 12.802 12.0827 12.788 12.0484 12.7673C12.0099 12.7478 11.9541 12.7243 11.8887 12.695C11.318 12.4607 10.7904 12.1301 10.3281 11.7172C9.86655 11.2906 9.47027 10.7963 9.15245 10.2506L9.12551 10.2193C9.14521 10.1952 9.16642 10.1723 9.18901 10.1509C9.26598 10.0746 9.34872 9.97294 9.42761 9.87713L9.53921 9.74415C9.63231 9.63217 9.70999 9.50783 9.77012 9.37457L9.79898 9.31395C9.84973 9.2122 9.87473 9.0992 9.8717 8.98516C9.86868 8.87112 9.83773 8.75965 9.78167 8.66083C9.74703 8.59238 9.51805 8.03508 9.35064 7.62834L9.10627 7.03192C8.90037 6.53719 8.63483 6.47461 8.38853 6.47266H8.35582C8.22113 6.47266 8.06911 6.47266 7.91518 6.47266C7.76347 6.47515 7.61391 6.50943 7.47584 6.57336C7.33777 6.63729 7.21417 6.72949 7.11278 6.8442L7.07237 6.88722C6.81069 7.14826 6.60421 7.46086 6.46558 7.80584C6.32694 8.15083 6.25907 8.52095 6.26612 8.89353C6.26612 9.96121 6.9396 10.9761 7.22823 11.3652L7.26094 11.4141C7.90363 12.3332 9.2602 13.9973 11.1344 14.8069C11.5562 14.989 11.9871 15.1483 12.4255 15.284C12.7314 15.3807 13.05 15.4294 13.3703 15.4287C13.5637 15.4284 13.7567 15.4127 13.9476 15.3818C14.4075 15.3133 15.4331 14.8127 15.6794 14.1381C15.8391 13.6883 15.9295 13.0763 15.7833 12.8299L15.7852 12.8221ZM15.1387 13.9289C15.0059 14.2965 14.2516 14.7365 13.8706 14.7951C13.4469 14.8669 13.0127 14.8401 12.6006 14.7169C12.1808 14.586 11.7678 14.4333 11.3634 14.2593C9.62003 13.5065 8.34235 11.9362 7.73622 11.0661C7.71506 11.0348 7.69966 11.0133 7.68812 10.9996C7.4957 10.7356 6.84339 9.80086 6.84339 8.8857C6.83781 8.58733 6.89305 8.29101 7.00565 8.01539C7.11824 7.73977 7.28574 7.49081 7.49762 7.28418L7.5438 7.23529C7.5921 7.17945 7.6512 7.13431 7.71741 7.10269C7.78361 7.07107 7.85552 7.05363 7.92865 7.05147C8.07296 7.05147 8.21535 7.05147 8.34043 7.05147H8.40585C8.46743 7.05147 8.50399 7.05147 8.58673 7.24702C8.6483 7.39368 8.73874 7.61074 8.83303 7.83366C9.0851 8.44768 9.24096 8.82704 9.27944 8.90526C9.31793 8.98348 9.31023 9.00499 9.29869 9.02845L9.26598 9.09103C9.22883 9.18057 9.17819 9.2637 9.11589 9.33742L8.99851 9.48017C8.93826 9.55973 8.87404 9.63609 8.80609 9.70896C8.68716 9.8019 8.60664 9.9366 8.58031 10.0867C8.55397 10.2368 8.58371 10.3915 8.6637 10.5205C9.01214 11.1192 9.44742 11.6611 9.95484 12.1279C10.4626 12.5846 11.0421 12.9514 11.6693 13.2132L11.8021 13.2718C11.9308 13.3559 12.0852 13.3898 12.2366 13.3671C12.388 13.3445 12.5262 13.2669 12.6257 13.1486C12.7373 13.0215 13.1875 12.4935 13.3511 12.2491C13.3665 12.2256 13.378 12.2139 13.3799 12.21C13.4261 12.2182 13.4712 12.2313 13.5146 12.2491C13.6878 12.3117 14.7115 12.8142 15.0001 12.957L15.1252 13.0196C15.1849 13.0469 15.2541 13.0821 15.2945 13.1056C15.2967 13.3878 15.2437 13.6676 15.1387 13.9289Z" fill="white" stroke="white" stroke-width="0.5"/>
<path d="M5.35321 5.34295C4.08989 6.58638 3.28135 8.23027 3.06097 10.0035C2.84059 11.7767 3.22153 13.5732 4.14096 15.0968L3.08841 18.5443C3.07343 18.5954 3.07232 18.6496 3.08519 18.7012C3.09806 18.7529 3.12444 18.8 3.16153 18.8376C3.19803 18.8755 3.24408 18.9025 3.29464 18.9156C3.3452 18.9287 3.39834 18.9274 3.44824 18.9119L6.91183 17.8579C8.43978 18.778 10.2244 19.1584 11.9873 18.9398C13.7503 18.7212 15.3925 17.9159 16.658 16.6495C17.3993 15.9133 17.9884 15.034 18.3906 14.0631C18.7928 13.0923 19 12.0496 19 10.9962C19 9.94285 18.7928 8.90011 18.3906 7.92929C17.9884 6.95846 17.3993 6.07912 16.658 5.34295C15.1477 3.84105 13.1187 3 11.0056 3C8.89252 3 6.86348 3.84105 5.35321 5.34295ZM16.2462 16.231C15.0556 17.4225 13.5063 18.174 11.8459 18.3654C10.1855 18.5569 8.50995 18.1771 7.08693 17.2869C7.0419 17.2585 6.98986 17.2436 6.93684 17.2439C6.89001 17.2443 6.8439 17.2556 6.80215 17.2772L3.80037 18.1923L4.71245 15.2024C4.73831 15.1573 4.75193 15.106 4.75193 15.0538C4.75193 15.0016 4.73831 14.9503 4.71245 14.9052C3.82363 13.4923 3.44217 11.8109 3.63255 10.1451C3.82294 8.47942 4.57348 6.9316 5.7573 5.76337C7.15931 4.37131 9.04163 3.59194 11.0017 3.59194C12.9619 3.59194 14.8442 4.37131 16.2462 5.76337C16.9326 6.44508 17.4781 7.25933 17.8505 8.1583C18.2229 9.05726 18.4147 10.0228 18.4147 10.9982C18.4147 11.9735 18.2229 12.9391 17.8505 13.838C17.4781 14.737 16.9326 15.5512 16.2462 16.233V16.231Z" fill="white" stroke="white" stroke-width="0.5"/>
</svg>
