<svg width="40" height="40" fill="none" xmlns="http://www.w3.org/2000/svg"><circle cx="20" cy="20" r="19.25" stroke="#FF8F3E" stroke-width="1.5"/><path fill-rule="evenodd" clip-rule="evenodd" d="M26.578 14.108c1.181.064 1.762.231 2.296 1.141.557.909.838 2.474.838 5.23V20.488c0 2.744-.28 4.32-.837 5.22-.534.91-1.114 1.075-2.296 1.151-1.181.065-4.15.104-6.72.104-2.577 0-5.546-.04-6.726-.105-1.179-.077-1.76-.242-2.299-1.151-.55-.9-.834-2.476-.834-5.22V20.478c0-2.755.283-4.32.834-5.229.54-.91 1.121-1.077 2.3-1.142 1.18-.075 4.148-.107 6.724-.107 2.572 0 5.54.032 6.72.108zm-3.026 6.373l-6.16-3.535v7.07l6.16-3.534z" fill="#FF8F3E"/></svg>